<?xml version="1.0" encoding="utf-8"?>
<!-- Generator: Adobe Illustrator 26.0.3, SVG Export Plug-In . SVG Version: 6.00 Build 0)  -->
<svg version="1.1" id="mdn-docs-logo" xmlns="http://www.w3.org/2000/svg" xmlns:xlink="http://www.w3.org/1999/xlink" x="0px"
	 y="0px" viewBox="0 0 361 104.2" style="enable-background:new 0 0 361 104.2;" xml:space="preserve">
<style type="text/css">
	.st0{fill:#8CB4FF;}
</style>
<path d="M197.6,73.2h-17.1v-5.5h3.8V51.9c0-3.7-0.7-6.3-2.1-7.9c-1.4-1.6-3.3-2.3-5.7-2.3c-3.2,0-5.6,1.1-7.2,3.4s-2.4,4.6-2.5,6.9
	v15.6h6v5.5h-17.1v-5.5h3.8V51.9c0-3.8-0.7-6.4-2.1-7.9c-1.4-1.5-3.3-2.3-5.6-2.3c-3.2,0-5.5,1.1-7.2,3.3c-1.6,2.2-2.4,4.5-2.5,6.9
	v15.8h6.9v5.5h-20.2v-5.5h6V42.4h-6.1v-5.6h13.4v6.4c1.2-2.1,2.7-3.8,4.7-5.2c2-1.3,4.4-2,7.3-2s5.3,0.7,7.5,2.1
	c2.2,1.4,3.7,3.5,4.5,6.4c1.1-2.5,2.7-4.5,4.9-6.1s4.8-2.4,7.9-2.4c3.5,0,6.5,1.1,8.9,3.3s3.7,5.6,3.7,10.2v18.2h6.1L197.6,73.2
	L197.6,73.2z M240.1,73.2h-13.2V66c-1.2,2.2-2.8,4.1-4.9,5.6c-2.1,1.6-4.8,2.4-8.3,2.4c-4.8,0-8.7-1.6-11.6-4.9
	c-2.9-3.2-4.3-7.7-4.3-13.3c0-5,1.3-9.6,4-13.7c2.6-4.1,6.9-6.2,12.8-6.2s9.8,2.2,12.3,6.5V22.7h-8.6v-5.6h15.8v50.6h6V73.2z
	 M226.8,56.4V52c-0.1-3-1.2-5.5-3.2-7.3s-4.4-2.8-7.2-2.8c-3.6,0-6.3,1.3-8.2,3.9c-1.9,2.6-2.8,5.8-2.8,9.6c0,4.1,1,7.3,3,9.5
	s4.5,3.3,7.4,3.3c3.2,0,5.8-1.3,7.8-3.8C225.7,61.8,226.7,59.1,226.8,56.4z M288.3,73.2H269v-5.5h6V51.9c0-3.7-0.7-6.3-2.2-7.9
	c-1.4-1.6-3.4-2.3-5.7-2.3c-3.1,0-5.6,1-7.4,3s-2.8,4.4-2.9,7v15.9h6v5.5h-19.3v-5.5h6V42.4h-6.2v-5.6h13.6V43
	c2.6-4.6,6.8-6.9,12.7-6.9c3.6,0,6.7,1.1,9.2,3.3s3.7,5.6,3.7,10.2v18.2h6v5.4L288.3,73.2L288.3,73.2z"/>
<g>
	<path class="st0" d="M42,0.2L13.4,92.3H1.7L30.2,0.2H42z M52.4,0.2v92.1H42V0.2H52.4z M92.7,0.2L64.2,92.3H52.5L81,0.2H92.7z
		 M103.1,0.2v92.1H92.7V0.2H103.1z M294,95h67v8.8h-67V95z"/>
</g>
</svg>
