<?xml version="1.0" encoding="utf-8"?>
<!-- Generator: Adobe Illustrator 26.0.3, SVG Export Plug-In . SVG Version: 6.00 Build 0)  -->
<svg version="1.1" id="Ebene_1" xmlns="http://www.w3.org/2000/svg" xmlns:xlink="http://www.w3.org/1999/xlink" x="0px" y="0px"
	 viewBox="0 0 289.63 71.67" style="enable-background:new 0 0 289.63 71.67;" xml:space="preserve">
<style type="text/css">
	.st0{fill-rule:evenodd;clip-rule:evenodd;fill:#FFFFFF;}
	.st1{fill-rule:evenodd;clip-rule:evenodd;fill:#FFEC00;}
</style>
<g>
	<path class="st0" d="M34.06,35.81h12.96l-6.48-14.05L34.06,35.81z M21.83,48.35l15.26-31.53h6.9l15.05,31.53h-6.39l-3.24-7.24
		H31.54l-3.28,7.24H21.83z M60.81,16.82h5.29v31.53h-5.29V16.82z M92.03,29.75l-4.39,2.47c-0.81-1.08-2.64-3.64-7.46-3.64
		c-3.84,0-5.11,1.52-5.11,2.81c0,1.82,2.22,2.13,5.37,2.56c6.26,0.82,11.97,1.77,11.97,7.54c0,6.85-7.72,7.63-11.42,7.63
		c-7.89,0-10.36-3.21-12.32-5.68l4.47-2.64c1.83,3.03,5.03,3.99,8.35,3.99c2.81,0,5.37-0.87,5.37-2.91c0-1.77-1.27-1.95-6.9-2.73
		c-8.65-1.13-10.44-3.95-10.44-7.5c0-2.43,1.88-7.41,10.78-7.41C82.9,24.24,88.57,24.84,92.03,29.75 M93.63,30.44v-4.6h4.1v-7.59
		H103v7.59h7.97v4.6H103v10.67c0,1.64,0.64,3.42,3.71,3.42c1.02,0,3.15-0.26,4.52-0.65v4.73c-2.6,0.35-3.84,0.52-5.71,0.52
		c-5.03,0-7.8-1.65-7.8-6.77V30.44H93.63z M117.04,34.03h14.27c-0.81-3.94-3.45-5.42-7.24-5.42
		C121.31,28.62,118.11,29.57,117.04,34.03 M130.73,41.36h5.8c-0.39,1.91-3.45,7.77-11.93,7.77c-8.18,0-13.09-5.21-13.09-12.49
		c0-6.59,4.26-12.36,12.71-12.36c8.6,0.08,12.74,5.51,12.74,13.92h-20.08c0.21,1.48,1.02,6.33,7.54,6.6
		C127.74,44.79,129.95,43.19,130.73,41.36 M140.06,48.35V25.06h5.28v3.46h0.13c1.15-1.91,3.45-4.25,8.01-4.25
		c0.77,0,1.32,0,1.87,0.08v5.81c-0.51-0.13-1.49-0.43-3.24-0.43c-6.74,0.04-6.74,4.59-6.78,6.24v12.36H140.06z M166.06,48.35
		l-9.12-31.53h6.05l5.97,21.68h0.09l5.92-21.68h5.8l6.01,21.64h0.08l5.92-21.64h5.93l-9.04,31.53h-5.8l-5.89-22.38h-0.08
		l-5.92,22.38H166.06z M219.11,32.95v11.62c0,1.56,0.08,3.12,0.43,3.78h-5.41c-0.17-0.78-0.3-1.56-0.3-2.34
		c-2.22,1.3-5.5,3.12-10.02,3.12c-3.02,0-8.86-1.3-8.86-7.02c0-7.85,11.51-8.98,18.88-9.41v-1.04c0-1.78-1.58-3.04-5.92-3.04
		c-4.86,0-5.89,1.82-6.18,3.08h-5.5c1.28-6.33,7.38-7.41,11.64-7.41C218.9,24.28,219.11,29.75,219.11,32.95 M213.83,41.93V36.6
		c-3.07,0.13-5.75,0.56-8.23,1.17c-3.28,0.78-4.81,1.91-4.86,3.94c-0.04,2,1.23,3.26,3.83,3.26
		C208.59,44.97,211.78,43.19,213.83,41.93 M241.34,40.02h5.54c-0.73,3.26-3.92,9.11-12.32,9.11c-7.33,0-13.34-3.64-13.34-13.01
		c0-6.12,4.73-11.8,12.87-11.84c8.39-0.04,11.98,4.86,12.36,8.8h-5.28c-0.51-1.87-2.77-4.21-6.74-4.21c-4.99,0-7.84,3.73-7.84,7.46
		c0,4.47,2.35,8.2,7.42,8.2C238.56,44.53,240.87,42.1,241.34,40.02 M248.32,48.35V16.82h5.29v11.15c1.49-1.65,3.83-3.68,8.48-3.68
		c4.77,0,8.95,2.04,8.95,9.15v14.92h-5.29V35.43c0-4.6-1.36-6.55-4.9-6.55c-4.22,0-5.93,1.78-7.24,3.43v16.04H248.32z M271.81,30.44
		v-4.6h4.09v-7.59h5.28v7.59h7.97v4.6h-7.97v10.67c0,1.64,0.64,3.42,3.7,3.42c1.02,0,3.15-0.26,4.52-0.65v4.73
		c-2.6,0.35-3.84,0.52-5.71,0.52c-5.03,0-7.8-1.65-7.8-6.77V30.44H271.81z"/>
	<path class="st0" d="M22.4,68.53V56.1h1.47v6.62l8.34-6.62h2.27l-5.97,4.68l6.86,7.75h-2l-6.02-6.84l-3.48,2.77v4.07H22.4z
		 M41.07,68.8c-2.99,0-5.08-1.74-5.08-4.91c0-2.55,1.98-4.58,5.08-4.58c3.09,0,5.06,2.04,5.06,4.58
		C46.13,67.06,44.06,68.8,41.07,68.8 M41.07,67.62c2.31,0,3.7-1.42,3.7-3.55c0-1.63-1.04-3.57-3.7-3.57c-2.66,0-3.72,1.95-3.72,3.57
		C37.35,66.2,38.76,67.62,41.07,67.62 M47.92,68.53v-8.95h1.37v1.3c0.92-0.83,2.14-1.58,3.7-1.58c1.1,0,3.63,0.26,3.63,3.32v5.9
		h-1.36V62.9c0.03-2.12-1.48-2.41-2.44-2.41c-1.5,0-2.74,0.94-3.53,1.79v6.24H47.92z M67.36,59.58l-0.04,0.85l-6.66,6.91h6.84v1.18
		h-8.99v-0.87l6.67-6.89h-6.32v-1.18H67.36z M77.38,65.88l1.06,0.79c-0.91,0.98-1.79,2.14-4.78,2.14c-2.96,0-4.98-2.05-4.98-4.79
		c0-2.84,2.1-4.7,4.81-4.7c2.81,0,5.26,1.49,5.2,5.03h-8.65c0.14,1.67,1.46,3.28,3.75,3.28C76.07,67.62,76.82,66.58,77.38,65.88
		 M70.1,63.16h7.11c-0.27-1.47-1.52-2.67-3.6-2.67C71.61,60.49,70.49,61.51,70.1,63.16 M81.98,62.38v3.48
		c0.81,0.86,1.95,1.76,3.85,1.76c1.81,0,3.76-0.96,3.76-3.68c0-1.85-1.41-3.45-3.8-3.45C84.34,60.49,82.82,61.46,81.98,62.38
		 M80.62,71.67V59.58h1.36v1.35c1.26-1.04,2.15-1.62,4.17-1.62c3.4,0,4.81,2.63,4.81,4.67c0,2.07-1.27,4.83-5.04,4.83
		c-1.82,0-2.72-0.6-3.94-1.51v4.38H80.62z M98.43,59.58v1.18h-3.5v5.4c0,0.98,0.42,1.46,1.8,1.46c0.65,0,1.19-0.12,1.93-0.27v1.2
		c-0.98,0.15-1.66,0.26-2.22,0.26c-2.88,0-2.88-1.78-2.88-2.5v-5.54H91.7v-1.18h1.86v-2.98h1.37v2.98H98.43z M101.13,66.54h1.73
		v1.98h-1.73V66.54z M112.28,65.96l1.14-0.99c0.71,0.96,1.89,2.53,5.55,2.53c1.88,0,4.46-0.55,4.46-2.48
		c0-3.78-10.66-0.46-10.66-5.51c0-2.65,2.4-3.73,5.74-3.73c3.22,0,5.21,1.35,6.05,2.55l-1.08,0.89c-0.5-0.58-1.68-2.17-5.01-2.17
		c-2.45,0-4.18,0.65-4.18,2.22c0,3.76,10.66,0.17,10.66,5.75c0,2.09-1.98,3.82-6.14,3.82C114.8,68.84,113.32,67.14,112.28,65.96
		 M126.9,59.58h1.36v8.95h-1.36V59.58z M126.78,56.1h1.56v1.59h-1.56V56.1z M139.61,61.75l-1.18,0.68
		c-0.39-0.63-1.21-1.95-3.41-1.95c-1.82,0-3.68,1.06-3.68,3.67c0,1.97,1.65,3.46,3.8,3.46c1.43,0,2.66-0.43,3.58-2.05l1.18,0.67
		c-0.77,1.37-2.05,2.57-4.79,2.57c-3.17,0-5.13-2.08-5.13-4.77c0-3.08,2.32-4.72,5.05-4.72C137.68,59.31,138.94,60.59,139.61,61.75
		 M141.91,68.53V56.1h1.36v4.79c0.92-0.83,2.14-1.58,3.7-1.58c1.09,0,3.63,0.26,3.63,3.32v5.9h-1.36V62.9
		c0.03-2.12-1.48-2.41-2.44-2.41c-1.5,0-2.75,0.94-3.53,1.79v6.24H141.91z M161.1,65.88l1.06,0.79c-0.91,0.98-1.78,2.14-4.78,2.14
		c-2.96,0-4.98-2.05-4.98-4.79c0-2.84,2.1-4.7,4.81-4.7c2.81,0,5.26,1.49,5.2,5.03h-8.65c0.14,1.67,1.46,3.28,3.76,3.28
		C159.78,67.62,160.54,66.58,161.1,65.88 M153.81,63.16h7.11c-0.27-1.47-1.52-2.67-3.6-2.67C155.33,60.49,154.2,61.51,153.81,63.16
		 M164.34,68.53v-8.95h1.36v1.86c0.79-0.9,1.9-2.14,3.67-2.14c0.3,0,0.56,0.02,0.81,0.07v1.39c-0.17-0.02-0.5-0.12-1.09-0.12
		c-1.93,0-3.33,2.27-3.38,2.53v5.36H164.34z M171.8,68.53V56.1h1.36v4.79c0.93-0.83,2.14-1.58,3.7-1.58c1.09,0,3.63,0.26,3.63,3.32
		v5.9h-1.37V62.9c0.04-2.12-1.47-2.41-2.44-2.41c-1.5,0-2.74,0.94-3.53,1.79v6.24H171.8z M190.98,65.88l1.06,0.79
		c-0.91,0.98-1.78,2.14-4.78,2.14c-2.96,0-4.98-2.05-4.98-4.79c0-2.84,2.11-4.7,4.81-4.7c2.81,0,5.26,1.49,5.2,5.03h-8.64
		c0.13,1.67,1.46,3.28,3.75,3.28C189.67,67.62,190.43,66.58,190.98,65.88 M183.7,63.16h7.11c-0.27-1.47-1.51-2.67-3.6-2.67
		C185.22,60.49,184.09,61.51,183.7,63.16 M194.18,59.58h1.36v8.95h-1.36V59.58z M194.06,56.1h1.57v1.59h-1.57V56.1z M203.64,59.58
		v1.18h-3.5v5.4c0,0.98,0.42,1.46,1.8,1.46c0.66,0,1.19-0.12,1.93-0.27v1.2c-0.98,0.15-1.66,0.26-2.22,0.26
		c-2.87,0-2.87-1.78-2.87-2.5v-5.54h-1.87v-1.18h1.87v-2.98h1.36v2.98H203.64z M206.34,66.54h1.73v1.98h-1.73V66.54z M217.49,65.96
		l1.14-0.99c0.71,0.96,1.88,2.53,5.55,2.53c1.88,0,4.45-0.55,4.45-2.48c0-3.78-10.66-0.46-10.66-5.51c0-2.65,2.4-3.73,5.73-3.73
		c3.23,0,5.21,1.35,6.05,2.55l-1.08,0.89c-0.5-0.58-1.68-2.17-5.01-2.17c-2.46,0-4.19,0.65-4.19,2.22c0,3.76,10.66,0.17,10.66,5.75
		c0,2.09-1.99,3.82-6.14,3.82C220.01,68.84,218.53,67.14,217.49,65.96 M240.13,65.88l1.06,0.79c-0.91,0.98-1.79,2.14-4.78,2.14
		c-2.96,0-4.98-2.05-4.98-4.79c0-2.84,2.11-4.7,4.81-4.7c2.81,0,5.27,1.49,5.2,5.03h-8.64c0.13,1.67,1.46,3.28,3.75,3.28
		C238.82,67.62,239.58,66.58,240.13,65.88 M232.85,63.16h7.11c-0.27-1.47-1.51-2.67-3.6-2.67
		C234.37,60.49,233.24,61.51,232.85,63.16 M243.38,68.53v-8.95h1.36v1.86c0.79-0.9,1.9-2.14,3.67-2.14c0.3,0,0.55,0.02,0.8,0.07
		v1.39c-0.17-0.02-0.5-0.12-1.09-0.12c-1.93,0-3.33,2.27-3.38,2.53v5.36H243.38z M254.51,68.53L250,59.58h1.48l3.7,7.44l3.73-7.44
		h1.46l-4.51,8.95H254.51z M262.01,59.58h1.36v8.95h-1.36V59.58z M261.89,56.1h1.56v1.59h-1.56V56.1z M274.72,61.75l-1.18,0.68
		c-0.39-0.63-1.21-1.95-3.41-1.95c-1.82,0-3.69,1.06-3.69,3.67c0,1.97,1.65,3.46,3.8,3.46c1.43,0,2.66-0.43,3.58-2.05l1.18,0.67
		c-0.77,1.37-2.05,2.57-4.79,2.57c-3.17,0-5.13-2.08-5.13-4.77c0-3.08,2.32-4.72,5.04-4.72C272.78,59.31,274.04,60.59,274.72,61.75
		 M284.99,65.88l1.05,0.79c-0.91,0.98-1.78,2.14-4.77,2.14c-2.96,0-4.98-2.05-4.98-4.79c0-2.84,2.1-4.7,4.81-4.7
		c2.81,0,5.26,1.49,5.19,5.03h-8.64c0.14,1.67,1.46,3.28,3.75,3.28C283.68,67.62,284.43,66.58,284.99,65.88 M277.71,63.16h7.11
		c-0.27-1.47-1.52-2.67-3.6-2.67C279.22,60.49,278.09,61.51,277.71,63.16 M287.9,66.54h1.73v1.98h-1.73V66.54z"/>
</g>
<g>
	<path class="st1" d="M79.65,11.63C58.7,18.56,46.91,8.51,46.91,8.51C32.2,18.23,18.7,15.51,9.34,10.69
		c-13.88,34.88,9.38,57.75,9.38,57.75l-0.65-0.7c0,0-28.58-25.86-13.85-65.29C14.15,7.9,33.8,14.24,47.1,0
		c0,0,11.18,13.35,32.48,11.63L79.65,11.63"/>
</g>
</svg>
