<?xml version="1.0" encoding="utf-8"?>
<!-- Generator: Adobe Illustrator 26.0.3, SVG Export Plug-In . SVG Version: 6.00 Build 0)  -->
<svg version="1.1" id="Ebene_1" xmlns="http://www.w3.org/2000/svg" xmlns:xlink="http://www.w3.org/1999/xlink" x="0px" y="0px"
	 viewBox="0 0 2437.28 245.34" style="enable-background:new 0 0 2437.28 245.34;" xml:space="preserve">
<style type="text/css">
	.st0{fill:#F39200;}
	.st1{fill:#FFFFFF;}
</style>
<g>
	<g>
		<g>
			<path class="st0" d="M57.1,0.57L0,0.63l0.18,192.82l61.55-0.07c0,0-0.09-96.76-0.09-104.89c7.76,0,66.15-0.06,66.15-0.06
				l4.66,1.95l1.99,3.54l0.12,99.77l61.55-0.04l-0.15-103.93c0-11.09-4.07-20.55-11.93-28.1c-7.91-7.4-17.55-11.16-28.8-11.15
				c0,0-85.55,0.07-93.63,0.07c0-7.38-0.03-49.98-0.03-49.98H57.1z M52.71,9.45c-0.03,7.41,0.03,49.98,0.03,49.98l102.51-0.1
				c9.02,0,16.41,2.87,22.68,8.76c6.18,5.86,9.2,12.95,9.2,21.65c0,0,0.09,86.96,0.09,95.03c-6.8,0.01-37.06,0.04-43.77,0.04
				c0-8.07-0.09-90.91-0.09-90.91l-5.07-10.24l-10.52-4.13l-75.03,0.09c0,0,0.09,96.68,0.12,104.83c-6.8,0.01-37,0.04-43.8,0.06
				c0-8.25-0.12-166.75-0.12-175.01C15.67,9.49,45.88,9.45,52.71,9.45z"/>
		</g>
	</g>
	<g>
		<g>
			<path class="st0" d="M285.36,50.35l-56.9,0.07l0.12,142.29l61.41-0.06l-0.18-142.31L285.36,50.35z M280.96,59.2
				c0,8.03,0.09,116.56,0.12,124.59c-6.8,0-36.83,0-43.57,0.02c0-8-0.12-116.53-0.09-124.56C244.14,59.24,274.14,59.2,280.96,59.2z"
				/>
		</g>
	</g>
	<g>
		<g>
			<path class="st0" d="M334.7,62.36c-8.06,7.62-11.9,17.07-11.49,28.11c0.27-0.21,0.03,64.59,0.03,64.59
				c0.85,10.94,5.04,19.98,12.75,27.22c7.71,7.16,17.02,10.79,27.74,10.78l85.64-0.1c3.25,0.03,5.16,1.44,6.59,3.97
				c0,2.23-0.03,7.09-0.03,7.09c-0.97,1.89-2.87,3.27-6.56,3.25l-118.86,0.1l-0.23,37.97l147.19-0.42
				c11.04,0,20.68-3.91,28.65-11.48c8-7.69,11.81-17.27,11.46-28.55c0,0.12-0.62-149.18-0.62-149.18l-0.03-4.45l-153.58-0.06
				C352.33,51.2,342.67,54.98,334.7,62.36z M332.35,90.3c-0.59-8.67,2.29-15.57,8.5-21.48c6.3-5.9,13.68-8.79,22.5-8.82
				c0,0,136.38,0.13,144.67,0.13c0.03,8.35,0.7,145.77,0.7,146.21c0,8.31-2.93,15.04-8.76,20.66c-6.36,6.08-13.68,9.02-22.56,9.02
				c0,0-116.61,0.32-138.2,0.37c0.09-5.26,0.12-14.91,0.18-20.13c8.17,0,110.01-0.1,110.01-0.1c7.32-0.03,12.71-3.79,15.21-10.64
				l0.23-11.4l-0.41-0.91c-3.05-6.02-8.23-9.15-15.09-9.15l-85.61,0.07c-8.5,0.02-15.62-2.7-21.68-8.38
				c-6.04-5.65-9.2-12.48-9.67-20.9C332.15,155.06,332.35,90.27,332.35,90.3z"/>
		</g>
		<g>
			<path class="st0" d="M459.33,79.63l-67.91,0.09c-7.38,0-12.8,3.76-15.23,10.61l-0.23,58.81l4.83,10.4l10.66,4.47l72.4-0.04
				l-0.06-84.32L459.33,79.63z M386.9,153.05l-2.05-3.93l-0.06-57.28c0.94-1.89,2.93-3.22,6.59-3.25c0,0,55.72-0.04,63.49-0.06
				c0,7.37,0.06,59.14,0.06,66.52c-7.79,0-63.49,0.06-63.49,0.06L386.9,153.05z"/>
		</g>
	</g>
	<g>
		<g>
			<path class="st0" d="M608.07,0l-57.13,0.06l0.21,192.84l61.53-0.07c0,0-0.06-96.76-0.06-104.9c7.82,0.01,66.1-0.06,66.1-0.06
				l4.75,1.93l1.93,3.57l0.06,99.79l61.64-0.07l-0.12-103.9c0-11.1-4.07-20.6-11.96-28.11c-7.88-7.38-17.58-11.12-28.83-11.13
				c0,0-85.49,0.04-93.61,0.07c-0.03-7.38-0.06-50-0.06-50L608.07,0z M603.65,8.91c0,7.4,0.03,49.97,0.03,49.97l102.51-0.09
				c8.99-0.03,16.44,2.86,22.68,8.77c6.18,5.86,9.17,12.93,9.17,21.62c0,0,0.12,86.98,0.12,95.04c-6.74-0.01-37,0.03-43.77,0.03
				c0-8.07-0.06-90.88-0.06-90.88l-5.07-10.25L678.71,79l-75,0.06c0,0,0.12,96.7,0.12,104.81c-6.74,0.03-37.09,0.04-43.86,0.07
				c0-8.2-0.15-166.72-0.12-175C566.62,8.95,596.91,8.92,603.65,8.91z"/>
		</g>
	</g>
	<rect x="1872.47" y="52.3" class="st0" width="169.43" height="29.77"/>
	<rect x="1872.47" y="104.96" class="st0" width="169.43" height="29.77"/>
	<rect x="1872.47" y="157.62" class="st0" width="169.43" height="29.77"/>
</g>
<g>
	<g>
		<path class="st1" d="M794.73,177.22c-7.12-7.27-10.75-15.97-10.78-26.12l-0.06-60.02c0.03-10.11,3.63-18.77,10.84-26.02
			c7.18-7.22,15.82-10.84,25.93-10.84l128.06-0.13c8.21-0.02,15.62,2.59,22.41,7.62c6.62,5.11,10.96,11.65,12.86,19.59l-134.48,0.12
			c-3.31,0.03-5.95,1.13-7.97,3.34c-2.08,2.29-3.11,4.96-3.08,8.23l0.06,58.05c0,3.11,1,5.76,3.08,7.98c2.05,2.23,4.69,3.3,8,3.27
			l137.49,0.67c-2.52,7.59-7.5,13.64-14.85,18.22c-7.41,4.53-15.23,6.8-23.38,6.8l-128.09,0.13
			C810.52,188.14,801.85,184.52,794.73,177.22z"/>
	</g>
	<g>
		<path class="st1" d="M1011.88,4.04L1064.56,4l0.18,144.82c0,2.8,1.17,5.16,3.54,7.13c2.49,1.9,5.01,2.94,7.73,2.91l86.93-0.06
			l0.03,28.98l-115.14-0.12c-9.96,0.01-18.37-3.36-25.34-10.11c-7-6.78-10.46-15.03-10.46-24.79L1011.88,4.04z"/>
	</g>
	<g>
		<path class="st1" d="M1188.29,53.85l52.47-0.06l0.09,133.45l-52.38,0.06L1188.29,53.85z"/>
	</g>
	<g>
		<path class="st1" d="M1470.1,187.94l-52.65,0.03l-0.12-95.33c0.03-2.55-1.2-4.85-3.66-6.9c-2.37-2.05-4.89-3.06-7.32-3.03
			L1336,82.78l0.15,104.83l-53.09,0.06l-0.15-133.89l283.87-0.31c9.9-0.01,18.43,3.38,25.31,10.09
			c6.97,6.81,10.49,15.03,10.49,24.77l0.03,99.48l-52.62,0.04l-0.06-95.36c0-2.72-1.23-5.05-3.66-7.06c-2.34-1.9-4.92-2.89-7.68-2.9
			l-57.63,0.07c-7.29,0.02-10.99,3.5-10.96,10.5L1470.1,187.94z"/>
	</g>
	<g>
		<path class="st1" d="M1644.8,3.46l52.68-0.1l0.06,49.79l97.94-0.07c9.93-0.02,18.43,3.32,25.37,10.03
			c6.94,6.69,10.4,15.01,10.43,24.98l0.06,61.96c0,9.62-3.93,18.22-11.66,25.77c-7.79,7.56-16.49,11.32-26.07,11.35l-148.6,0.12
			L1644.8,3.46z M1778.75,92.29c0-2.72-1.14-5.05-3.49-7.06c-2.49-1.92-5.07-2.9-7.79-2.9l-69.9,0.1l0.09,78.97l81.15-0.09
			L1778.75,92.29z"/>
	</g>
	<g>
		<path class="st1" d="M2074.8,87.57c0.03-9.93,3.54-18.3,10.58-24.92c6.94-6.74,15.47-10.04,25.4-10.05l115.46-0.66l-0.53,29.74
			l-87.1,0.09c-2.61,0-5.13,1.11-7.41,3.09c-2.46,2.1-3.63,4.38-3.63,7l0.12,95.41l-52.79,0.04L2074.8,87.57z"/>
	</g>
	<g>
		<path class="st1" d="M2384.6,143.73c-0.21-2.49-1.49-4.73-3.87-6.77c-2.46-2.01-4.92-3.06-7.47-3.06l-85.84,0.09
			c-9.79,0.03-18.22-3.41-25.37-10.34c-7.18-6.88-10.69-15.26-10.49-25.21l-0.03-10.34h2.87l-2.87-0.48
			c-0.23-9.84,3.28-18.13,10.4-24.96c7.09-6.83,15.56-10.24,25.31-10.24l142.88-0.69l-0.41,29.49l-114.47,0.12
			c-5.65,0.01-9.35,2.61-11.1,7.88l0.03,7.37c1.76,5.61,5.45,8.39,11.1,8.38l85.78-0.09c9.76-0.01,18.17,3.09,25.02,9.45
			c6.94,6.29,10.61,14.18,11.19,23.73v13.34c0.06,9.93-3.46,18.22-10.4,24.79c-6.94,6.65-15.35,9.92-25.31,9.92l-142.68,0.59
			l0.12-29.46l114.73-0.1c5.54,0,9.17-2.61,10.93-7.79L2384.6,143.73z"/>
	</g>
</g>
</svg>
