<?xml version="1.0" encoding="utf-8"?>
<!-- Generator: Adobe Illustrator 26.0.3, SVG Export Plug-In . SVG Version: 6.00 Build 0)  -->
<svg version="1.1" id="favicon_schmaljohann" xmlns="http://www.w3.org/2000/svg" xmlns:xlink="http://www.w3.org/1999/xlink" x="0px" y="0px"
	 viewBox="0 0 55.1 53.5" style="enable-background:new 0 0 55.1 53.5;" xml:space="preserve">

<g class="fill-black dark:fill-white">
			<path d="M23.2,28.1c-1.5,0-2.9-0.1-4.1-0.4c-1.3-0.3-2.4-0.7-3.4-1.2l-0.3-5.8h4.1l0.7,2.8c0.3,0.1,0.5,0.3,0.9,0.4
				s0.8,0.1,1.3,0.1c0.9,0,1.7-0.1,2-0.4c0.4-0.3,0.5-0.7,0.5-1.1s-0.3-0.8-0.7-1.1c-0.4-0.4-1.3-0.7-2.6-0.9
				c-2.3-0.4-3.8-1.2-4.9-2.3c-1.1-1.1-1.3-2.3-1.3-3.7c0-1.1,0.3-2.1,0.8-3c0.5-0.9,1.3-1.6,2.4-2.1c1.1-0.5,2.6-0.8,4.5-0.8
				c1.5,0,2.8,0.1,4.1,0.4c1.3,0.3,2.4,0.5,3.2,0.9v5.7h-4.2l-0.5-2.5c-0.3-0.1-0.7-0.3-0.9-0.4c-0.4-0.1-0.8-0.1-1.2-0.1
				c-0.8,0-1.3,0.1-1.7,0.4c-0.4,0.3-0.5,0.7-0.5,1.1c0,0.3,0.1,0.5,0.3,0.8c0.1,0.3,0.5,0.5,0.9,0.8c0.4,0.3,1.2,0.4,2,0.7
				c2.1,0.5,3.8,1.2,4.9,2s1.6,2.1,1.6,3.8c0,1.9-0.7,3.3-2,4.4C27.6,27.5,25.7,28.1,23.2,28.1z"/>

				<path  d="M39.6,10.5v-8h-7.4v2.7l2.2,0.4V6v16.3c0,0,0.2,13.5,0.9,17.3c0.6-0.2,1.1-0.3,1.6-0.4l0,0l0,0
					c0.7,0,1.3,0.1,1.8,0.3c0.6-3.8,1-17.5,1-17.5v-2.2v-7L39.6,10.5z"/>
		
				<path d="M37.8,40.2c-0.3,0-3.9-0.4-5,2.8c-0.3,0.8-0.3,1.8-0.3,2.8c-0.1,2.3-0.2,5-3,7.7c2.7-0.3,7-1.3,9.7-4.2
					c1.6-1.6,2.2-3.7,2.2-6.2C41.2,43.1,41,40.9,37.8,40.2z"/>

		<path  d="M8.8,33.1c-2.2-0.6-3.8-1.6-4.7-3s-1.4-3-1.4-4.9v-3.4c0-1-0.2-1.8-0.7-2.4c-0.4-0.6-1.1-0.8-2-0.8v-4
			c0.9,0,1.6-0.3,2-0.8c0.4-0.6,0.7-1.4,0.7-2.4V7.9C2.7,6,3.2,4.3,4.1,3C5,1.6,6.6,0.6,8.8,0l1.1,3.1C9.1,3.4,8.6,4,8.3,4.8
			C7.9,5.6,7.8,6.6,7.8,7.9v3.4c0,1.2-0.3,2.2-0.8,3.1S5.7,16,4.6,16.5C5.7,17,6.5,17.8,7,18.7c0.5,0.9,0.8,1.9,0.8,3.1v3.4
			c0,1.2,0.2,2.3,0.5,3.1c0.3,0.8,0.9,1.4,1.7,1.7L8.8,33.1z"/>
		<path  d="M46.3,33.1L45.2,30c0.8-0.3,1.3-0.9,1.6-1.7c0.3-0.8,0.5-1.9,0.5-3.1v-3.4c0-1.2,0.3-2.2,0.8-3.1
			s1.3-1.6,2.4-2.1c-1.1-0.5-1.9-1.3-2.4-2.2s-0.8-1.9-0.8-3.1V7.9c0-1.2-0.2-2.3-0.5-3.1S46,3.4,45.2,3.1L46.3,0
			c2.2,0.6,3.8,1.6,4.7,3s1.4,3,1.4,4.9v3.4c0,1.1,0.2,1.9,0.6,2.4c0.4,0.6,1.1,0.8,2,0.8v4c-0.9,0-1.6,0.3-2,0.8
			c-0.4,0.6-0.6,1.4-0.6,2.4v3.4c0,1.9-0.5,3.6-1.4,4.9C50.1,31.5,48.5,32.5,46.3,33.1z"/>
</g>
</svg>
