<?xml version="1.0" encoding="utf-8"?>
<!-- Generator: Adobe Illustrator 26.0.3, SVG Export Plug-In . SVG Version: 6.00 Build 0)  -->
<svg version="1.1" id="Ebene_1" xmlns="http://www.w3.org/2000/svg" xmlns:xlink="http://www.w3.org/1999/xlink" x="0px" y="0px"
	 viewBox="0 0 689.6 417.9" style="enable-background:new 0 0 689.6 417.9;" xml:space="preserve">
<style type="text/css">
	.st0{fill:url(#SVGID_1_);}
</style>
<linearGradient id="SVGID_1_" gradientUnits="userSpaceOnUse" x1="-153.3318" y1="-28.0058" x2="-151.3318" y2="-27.0058">
	<stop  offset="0" style="stop-color:#E6B746"/>
	<stop  offset="1" style="stop-color:#CA9507"/>
</linearGradient>
<path class="st0" d="M221.9,201.8c-10.6,15.7-22.6,38.2-35.4,66.8c-15.4,33.9-24.5,53.1-28.7,60.3c-14.2,24.5-30.2,43.4-47.8,56.1
	c-15.7,11.5-30.9,17.4-45.1,17.4c-15.5,0-23.7-7-27.9-13c-5.2-7.3-7.9-14.9-7.9-22.4c0-8,3.1-19.4,18.1-28.9
	c5.7-3.6,12.5-9.1,12.5-15.1c0-5.7-1.7-10-5.3-13.4c-3.8-3.6-8.4-5.3-14.3-5.3c-11.1,0-19.5,3.5-26.6,11C5.5,323.5,1,335.5,0.1,351
	c-0.9,16.6,6.5,31.6,22.8,45.7c16.3,14.1,36.1,21.2,58.6,21.2c2.2,0,4.4-0.1,6.7-0.2c29.8-1.8,57.2-12.4,81.5-31.5
	c26.8-21.1,42.8-48.4,47.6-80.9c6.2-40.5,11.6-69.8,16.2-86.9c5.4-21.4,13.1-38.2,22.9-49.9c1.1-1.3,1.9-2.5,2.5-3.4
	c-0.9,0.4-1.9,1.1-3.1,2.2C226.3,196.5,222.4,201.2,221.9,201.8z M467.7,201.8c10.6,15.7,22.6,38.2,35.4,66.8
	c15.4,33.9,24.5,53.1,28.7,60.3c14.2,24.5,30.2,43.4,47.8,56.1c15.7,11.5,30.9,17.4,45.1,17.4c15.5,0,23.7-7,27.9-13
	c5.2-7.3,7.9-14.9,7.9-22.4c0-8-3.1-19.4-18.1-28.9c-5.7-3.6-12.5-9.1-12.5-15.1c0-5.7,1.7-10,5.3-13.4c3.8-3.6,8.3-5.3,14.2-5.3
	c11.1,0,19.6,3.5,26.6,11c8.1,8.3,12.6,20.3,13.6,35.8c0.9,16.6-6.5,31.6-22.8,45.7c-16.3,14.1-36,21.2-58.6,21.2
	c-2.2,0-4.4-0.1-6.7-0.2c-29.8-1.8-57.2-12.4-81.5-31.5c-26.8-21.1-42.8-48.4-47.6-80.9c-6.2-40.5-11.6-69.8-16.2-86.9
	c-5.4-21.4-13.1-38.2-22.9-49.9c-1.1-1.3-1.9-2.5-2.5-3.4c0.9,0.4,1.9,1.1,3.1,2.2C463.3,196.5,467.2,201.2,467.7,201.8z
	 M328.3,164.6c20.2-7.4,33.3-19.8,40-37.9c0.9-2.5,3.8-10.8,0.8-11.9c-3.2-1.2-7.5,0.8-12.7,6.1c-6.7,6.4-17.3,6.9-31.8,1.6
	c-14.6-5.4-31-15.5-48.7-29.9c-24.4-20-46.3-33.7-65.1-40.7c-30.7-11.5-63.1-11.3-96.2,0.5c-40.4,14.4-67,38.3-79.2,71
	c-8.2,22-7.7,40.6,1.5,56.9c7.6,13.4,17.5,22.3,30.4,27.1c17.1,6.4,33.9,4.9,51.5-4.5c18.9-9.9,31.8-23.9,38.4-41.8
	c1.8-4.9,2.5-9.2,1.9-12.8c-1.1-7.4-3.9-11.8-8.7-13.6c-4.1-1.6-6.3-0.4-7.8,1c-1.7,1.5-3.8,4-2.9,10.3c1,7.2,0.3,14.2-2.2,20.7
	c-6.3,17-18.7,28-36.8,32.7c-7.9,1.9-16.7,1-26.2-2.6c-19.6-7.3-30.7-19.7-32.9-37c-1.2-9.9,0.3-20.5,4.5-31.7
	c10.3-27.7,28.2-45,53.2-51.6c25.7-6.5,50.1-5.6,72.7,2.9c19.8,7.4,38.3,20.7,54.9,39.5c23.4,26.7,42.8,43.1,57.8,48.7
	C296.5,171.7,311.2,170.8,328.3,164.6z M321.5,114.4c3,0.8,6.6-1.5,10.8-6.8c5.3-6.3,14.8-7.8,28.3-4.4c13.6,3.4,29.3,10.8,46.7,22
	c23.8,15.5,44.8,25.6,62.3,30c28.6,7.2,57.7,3.9,86.2-9.9c34.8-16.9,56.3-41,64-71.5c5.2-20.6,2.9-37.2-7-50.8
	c-8.1-11.3-17.9-18.2-29.9-21.2c-16-4-30.9-1-45.7,9.2c-15.9,10.7-26,24.5-30.2,41.2c-1.1,4.6-1.3,8.5-0.4,11.7
	c1.7,6.4,4.7,10.1,9.1,11.2c3.9,1,5.7-0.3,7-1.8c1.3-1.4,2.9-3.9,1.5-9.5c-1.6-6.4-1.6-12.7-0.1-18.8c4-15.8,14-26.9,29.8-33
	c6.8-2.4,14.8-2.5,23.7-0.3c18.3,4.6,29.4,14.6,33.2,29.9c2,8.7,1.8,18.4-0.9,28.8c-6.5,25.8-20.8,43.2-42.6,51.5
	c-22.3,8.4-44.3,9.9-65.4,4.7c-18.5-4.7-36.4-14.7-53.1-29.9C424.9,75.3,405.9,62.5,392,59c-11.1-2.8-24.2-0.5-38.9,6.7
	c-17.4,8.6-27.9,21-32.1,38C320.4,106,318.6,113.7,321.5,114.4z M398.5,199.7c-6,0-11.5,2.1-16.5,6.2c-5.1,4.1-7.6,9.2-7.6,15.3
	c0,3.8,0.9,7,2.6,9.5c1.8,2.5,4.2,3.8,7.3,3.8c6.6,0,9.9-2.9,9.9-8.6c0-1.1-1.7-2.4-5-3.8c-3.3-1.4-5-3.3-5-5.7
	c0-7.3,4.4-11,13.3-11c3.8,0,7.2,1.6,10.2,4.9c3,3.2,4.5,6.7,4.5,10.3c0,7.3-2.7,13.6-8.2,19s-13.8,10.5-24.9,15.4
	c-3.1,1.4-7.4,3.2-12.9,5.5c-5.5,2.2-9.7,4-12.5,5.3c-2.9,1.3-6.3,3-10.1,5.2c-3.9,2.2-6.8,4.3-8.8,6.3c-2,2-3.7,4.6-5.1,7.7
	c-1.4,3.1-2.1,6.6-2.1,10.5s1.5,8.1,4.6,12.6c3.1,4.5,7.4,6.8,12.9,6.8c3.4,0,6.2-0.9,8.5-2.7s3.5-3.5,3.5-5.1s-0.4-2.3-1.3-2.3
	c-0.9,0-2,0.8-3.5,2.3c-1.5,1.5-3.2,2.3-5.2,2.3s-3.9-1-5.9-2.9s-3-5.1-3-9.5c0-4.4,1.8-8.1,5.3-11.2c3.5-3,8-4.5,13.4-4.5
	s9.8,2,13.2,5.9c3.4,3.9,5.1,8.9,5.1,14.8c0,11.1-5.1,21-15.3,29.7c-10.2,8.7-21.3,13.1-33.2,13.1s-21.9-2.6-29.7-7.8
	c-7.9-5.2-13.6-11.5-17.2-18.8s-5.4-14.4-5.4-21.3c0-6.9,1.2-13,3.7-18.5c2.5-5.4,5-9.5,7.6-12.2s4.4-4.1,5.3-4.1s2,0.8,3.2,2.3
	c1.2,1.5,2.5,3.2,4,5c1.5,1.8,3.7,3.4,6.6,5c3,1.5,6.6,2.3,11.1,2.3s8.1-1.3,11.1-4s4.4-5.9,4.4-9.7c0-3.8-1.5-7.1-4.6-9.9
	c-3.1-2.8-7.5-4.2-13.1-4.2c-2.7,0-5.7,0.4-9.1,1.1c-3.4,0.7-5.4,1.1-6.1,1.1c-1.7,0-2.5-1.3-2.5-3.8c0-8.6,2.9-16.7,8.6-24.4
	c5.8-7.7,14.1-11.5,24.9-11.5c3.7,0,6.7,1,9.2,2.9c2.5,2,3.7,3.9,3.7,5.7c0,1.8-0.5,3.8-1.4,6c-0.9,2.2-1.4,3.6-1.4,4.1
	c0,1,0.8,1.5,2.5,1.5c9.1,0,13.7-4.9,13.7-14.8c0-7.2-3.6-12.2-10.8-15.2c-3.7-1.7-7.6-2.5-11.8-2.5c-9.3,0-18.7,3.2-28.3,9.7
	c-4.6,3.2-8.5,7.7-11.5,13.5c-3,5.8-4.5,11.5-4.5,17.2s0.4,10.2,1.3,13.6c0.1,0.8,0.2,1.5,0.2,2s-0.5,1.1-1.5,1.7
	c-1,0.6-2.6,1.6-4.9,2.9c-8,4.5-15,12-20.9,22.6c-4.1,7.6-6.1,15.3-6.1,23c0,15.5,5.5,27.4,16.4,35.8c10.9,8.4,24.9,12.5,41.9,12.5
	c12.2,0,22.7-1.9,31.5-5.6c8.8-3.7,17.6-10,26.5-18.8c8.9-8.8,13.3-19.9,13.3-33.4c0-4.1-0.7-7.6-2-10.5c-1.3-3-2.8-5.1-4.3-6.3
	c-1.5-1.3-3-2.4-4.3-3.3c-1.3-0.9-2-1.7-2-2.2s1.6-1.6,4.9-3.2c3.2-1.5,7.1-3.6,11.7-6.1c4.6-2.5,9.1-5.5,13.7-8.9
	c4.6-3.4,8.5-7.8,11.7-13.4c3.2-5.6,4.9-11.6,4.9-18c0-6.5-2.2-12.1-6.8-16.9C409.7,202.1,404.4,199.7,398.5,199.7z"/>
</svg>
