<?xml version="1.0" encoding="utf-8"?>
<!-- Generator: Adobe Illustrator 26.0.3, SVG Export Plug-In . SVG Version: 6.00 Build 0)  -->
<svg version="1.1" id="Ebene_1" xmlns="http://www.w3.org/2000/svg" xmlns:xlink="http://www.w3.org/1999/xlink" x="0px" y="0px"
	 viewBox="0 0 708.7 197.3" style="enable-background:new 0 0 708.7 197.3;" xml:space="preserve">
<style type="text/css">
	.st0{fill:#A2ADB2;}
	.st1{fill:#FFFFFF;}
</style>
<g>
	<path class="st0" d="M364.5,197.3h-18.7c-5.4,0-8.4-3.1-8.4-8.4V170c0-0.9,0.5-1.4,1.4-1.4h3.2c0.9,0,1.3,0.5,1.3,1.4v18
		c0,2.6,1.4,4,4,4h15.6c2.6,0,4-1.4,4-4v-18c0-0.9,0.5-1.4,1.4-1.4h3.2c0.9,0,1.4,0.5,1.4,1.4v18.8
		C372.9,194.2,369.9,197.3,364.5,197.3"/>
	<path class="st0" d="M390.9,180.7h-5.1c-1.8,0-2.8,1.1-2.8,2.8v12.5c0,0.8-0.4,1.2-1.2,1.2h-3c-0.8,0-1.2-0.4-1.2-1.2v-13.6
		c0-3.8,2.6-6.4,6.5-6.4h7.1c2.5,0,4.2,1.1,5.2,2.9c0.9-1.8,2.7-2.9,5.2-2.9h7.2c3.8,0,6.5,2.6,6.5,6.4v13.6c0,0.8-0.4,1.2-1.2,1.2
		h-3c-0.8,0-1.2-0.4-1.2-1.2v-12.5c0-1.8-1.1-2.8-2.8-2.8h-5.3c-1.7,0-2.8,1.1-2.8,2.8v12.5c0,0.8-0.4,1.2-1.2,1.2H395
		c-0.8,0-1.2-0.4-1.2-1.2v-12.5C393.8,181.8,392.7,180.7,390.9,180.7"/>
	<path class="st0" d="M451.3,197.3h-7.2c-2.5,0-4.3-1.1-5.2-2.8c-1,1.8-2.8,2.8-5.2,2.8h-7.1c-3.8,0-6.5-2.6-6.5-6.4v-13.6
		c0-0.8,0.4-1.2,1.2-1.2h3c0.8,0,1.2,0.4,1.2,1.2v12.5c0,1.8,1.1,2.8,2.8,2.8h5.1c1.8,0,2.8-1.1,2.8-2.8v-12.5
		c0-0.8,0.4-1.2,1.2-1.2h2.9c0.8,0,1.2,0.4,1.2,1.2v12.5c0,1.8,1.1,2.8,2.8,2.8h5.3c1.8,0,2.8-1.1,2.8-2.8v-12.5
		c0-0.8,0.4-1.2,1.2-1.2h3c0.8,0,1.2,0.4,1.2,1.2v13.6C457.8,194.7,455.2,197.3,451.3,197.3"/>
	<path class="st0" d="M483.5,176c3.8,0,5.8,2,5.8,5.8v1.1c0,3.8-2,5.8-5.8,5.8h-15.8v1.1c0,1.8,1.1,2.8,2.8,2.8h16.8
		c0.8,0,1.2,0.4,1.2,1.2v2.3c0,0.8-0.4,1.2-1.2,1.2h-18.6c-3.8,0-6.4-2.6-6.4-6.4v-8.4c0-3.8,2.6-6.4,6.4-6.4L483.5,176L483.5,176z
		 M467.7,184.6h14.5c1.3,0,1.8-0.6,1.8-1.8v-0.2c0-1.2-0.5-1.8-1.8-1.8h-11.7c-1.8,0-2.8,1.1-2.8,2.8L467.7,184.6L467.7,184.6z"/>
	<path class="st0" d="M500.4,192.6h0.4c0.8,0,1.2,0.4,1.2,1.2v2.3c0,0.8-0.4,1.2-1.2,1.2h-1.7c-3.8,0-5.8-2-5.8-5.8v-23.2
		c0-0.8,0.4-1.2,1.2-1.2h3c0.8,0,1.2,0.4,1.2,1.2v22.5C498.6,192,499.1,192.6,500.4,192.6"/>
	<path class="st0" d="M524,193.8v2.3c0,0.8-0.4,1.2-1.2,1.2H513c-3.8,0-6.4-2.6-6.4-6.4v-10.1h-2.2c-0.8,0-1.2-0.4-1.2-1.2v-2.3
		c0-0.8,0.4-1.2,1.2-1.2h2.2v-3.9c0-0.8,0.4-1.2,1.2-1.2h3c0.8,0,1.2,0.4,1.2,1.2v3.9h10.7c0.8,0,1.2,0.4,1.2,1.2v2.3
		c0,0.8-0.4,1.2-1.2,1.2h-10.7v9c0,1.8,1.1,2.8,2.8,2.8h8C523.6,192.6,524,192.9,524,193.8"/>
	<path class="st0" d="M528.8,197.3c-0.8,0-1.2-0.4-1.2-1.2v-2.3c0-0.8,0.4-1.2,1.2-1.2h17.9c1.3,0,1.8-0.6,1.8-1.8v-0.2
		c0-1.2-0.5-1.8-1.8-1.8H533c-3.8,0-5.8-2-5.8-5.8v-1.1c0-3.8,2-5.8,5.8-5.8h18.9c0.8,0,1.2,0.4,1.2,1.2v2.3c0,0.8-0.4,1.2-1.2,1.2
		h-17.5c-1.3,0-1.8,0.6-1.8,1.8v0.2c0,1.2,0.5,1.8,1.8,1.8H548c3.8,0,5.8,2,5.8,5.8v1.1c0,3.8-2,5.8-5.8,5.8L528.8,197.3
		L528.8,197.3z"/>
	<path class="st0" d="M578.8,176c3.8,0,5.8,2,5.8,5.8v1.1c0,3.8-2,5.8-5.8,5.8h-15.8v1.1c0,1.8,1.1,2.8,2.8,2.8h16.8
		c0.8,0,1.2,0.4,1.2,1.2v2.3c0,0.8-0.4,1.2-1.2,1.2h-18.5c-3.8,0-6.4-2.6-6.4-6.4v-8.4c0-3.8,2.6-6.4,6.4-6.4L578.8,176L578.8,176z
		 M562.9,184.6h14.5c1.3,0,1.8-0.6,1.8-1.8v-0.2c0-1.2-0.5-1.8-1.8-1.8h-11.7c-1.8,0-2.8,1.1-2.8,2.8L562.9,184.6L562.9,184.6z"/>
	<path class="st0" d="M595,176h10.2c0.8,0,1.2,0.4,1.2,1.2v2.3c0,0.8-0.4,1.2-1.2,1.2h-8.5c-1.8,0-2.8,1.1-2.8,2.8v12.5
		c0,0.8-0.4,1.2-1.2,1.2h-3c-0.8,0-1.2-0.4-1.2-1.2v-13.6C588.5,178.6,591.1,176,595,176"/>
	<path class="st0" d="M619,196.4l-10.9-19c-0.3-0.5-0.1-1.3,0.7-1.3h3.6c0.8,0,1.2,0.2,1.5,0.8l8.8,15.9l8.8-15.9
		c0.3-0.6,0.7-0.8,1.5-0.8h3.4c0.8,0,1,0.8,0.7,1.3l-10.9,19c-0.3,0.6-0.9,0.9-1.7,0.9h-3.7C619.9,197.3,619.3,197,619,196.4"/>
	<path class="st0" d="M645.5,171.4c0,0.8-0.4,1.2-1.2,1.2h-3c-0.8,0-1.2-0.4-1.2-1.2v-3.1c0-0.8,0.4-1.2,1.2-1.2h3
		c0.8,0,1.2,0.4,1.2,1.2V171.4z M647.2,192.6h0.4c0.8,0,1.2,0.4,1.2,1.2v2.3c0,0.8-0.4,1.2-1.2,1.2h-1.7c-3.8,0-5.8-2-5.8-5.8v-14.3
		c0-0.8,0.4-1.2,1.2-1.2h3c0.8,0,1.2,0.4,1.2,1.2v13.6C645.5,192,646,192.6,647.2,192.6"/>
	<path class="st0" d="M677.8,193.8v2.3c0,0.8-0.4,1.2-1.2,1.2h-18.1c-3.8,0-6.4-2.6-6.4-6.4v-8.4c0-3.8,2.6-6.4,6.4-6.4h18.1
		c0.8,0,1.2,0.4,1.2,1.2v2.3c0,0.8-0.4,1.2-1.2,1.2h-16.4c-1.8,0-2.8,1.1-2.8,2.8v6.2c0,1.8,1.1,2.8,2.8,2.8h16.4
		C677.5,192.6,677.8,192.9,677.8,193.8"/>
	<path class="st0" d="M702.8,176c3.8,0,5.8,2,5.8,5.8v1.1c0,3.8-2,5.8-5.8,5.8H687v1.1c0,1.8,1.1,2.8,2.8,2.8h16.8
		c0.8,0,1.2,0.4,1.2,1.2v2.3c0,0.8-0.4,1.2-1.2,1.2h-18.5c-3.8,0-6.4-2.6-6.4-6.4v-8.4c0-3.8,2.6-6.4,6.4-6.4L702.8,176L702.8,176z
		 M687,184.6h14.5c1.3,0,1.8-0.6,1.8-1.8v-0.2c0-1.2-0.5-1.8-1.8-1.8h-11.7c-1.8,0-2.8,1.1-2.8,2.8L687,184.6L687,184.6z"/>
	<path class="st0" d="M188.1,182.4c-92-11.7-158.2-44-158.2-82.1c0-47.9,104.9-86.8,234.2-86.8c49.4,0,97.2,5.7,135,15.3
		c-2.1,4.9-6.3,7.7-11,9.7c0,0,22.7,1.4,69.2,14.4c0,0-4.7-4.1-12-10.1C434.5,34.1,418,21.3,402,11.5c0,0,0.6,7-1.2,12.9
		C358.4,9.2,300.6,0,239.4,0C107.2,0,0,43,0,96s107.2,96,239.4,96c25.1,0,49.3-1.5,72-4.4c-11.3,0.6-22.9,0.9-34.6,0.9
		C245.3,188.5,215.3,186.3,188.1,182.4"/>
</g>
<g>
	<path class="st1" d="M296.1,152.6h-28.2c-11.2,0-19-4.3-22.7-12c-3.8,7.8-11.4,12-22.6,12h-28.2c-16.4,0-25.6-9.3-25.6-25.6V67.7
		c0-2,1.1-3,3.1-3h7.4c2,0,3,1,3,3v57.7c0,9.9,5.3,15.2,15.2,15.2h25.7c9.9,0,15.3-5.3,15.3-15.2V67.7c0-2,1-3,3-3h7.4c2,0,3,1,3,3
		v57.7c0,9.9,5.4,15.2,15.2,15.2h25.7c9.9,0,15.3-5.3,15.3-15.2V67.7c0-2,1-3,3-3h7.4c2,0,3,1,3,3V127
		C321.6,143.3,312.4,152.6,296.1,152.6"/>
	<path class="st1" d="M350.9,149.5c0,2-1.1,3-3.1,3h-7.4c-2,0-3-1-3-3V67.7c0-2,1-3,3-3h7.4c2,0,3.1,1,3.1,3V149.5z"/>
	<path class="st1" d="M379.5,125.5c0,9.9,5.4,15.2,15.3,15.2H469c2,0,3.1,1.1,3.1,3.1v5.8c0,2-1.1,3-3.1,3h-77.4
		c-16.3,0-25.5-9.3-25.5-25.6V90.3c0-16.3,9.2-25.6,25.5-25.6H469c2,0,3.1,1,3.1,3v5.8c0,2-1.1,3.1-3.1,3.1h-74.2
		c-9.9,0-15.3,5.3-15.3,15.2v10.8H459c2,0,3.1,1,3.1,3v5.9c0,2-1.1,3-3.1,3h-79.4V125.5z"/>
	<path class="st1" d="M496,88.6v2.1c0,8.4,4.5,11.9,14.7,11.9h53.2c16.6,0,26.6,5.8,26.6,21.8v6.3c0,16.1-10,21.8-26.6,21.8h-76.8
		c-2,0-3-1-3-3v-5.8c0-2,1-3.1,3-3.1h75.3c10.2,0,14.5-3.4,14.5-11.9v-2.3c0-8.4-4.4-11.9-14.5-11.9H509c-16.4,0-26.5-5.8-26.5-21.8
		v-6.1c0-16.1,10-21.8,26.5-21.8h75.8c2,0,3.1,1,3.1,3v5.8c0,2-1.1,3.1-3.1,3.1h-74.2C500.5,76.6,496,80.1,496,88.6"/>
	<path class="st1" d="M616,125.5c0,9.9,5.4,15.2,15.3,15.2h74.2c2,0,3.1,1.1,3.1,3.1v5.8c0,2-1.1,3-3.1,3h-77.4
		c-16.3,0-25.5-9.3-25.5-25.6V90.3c0-16.3,9.2-25.6,25.5-25.6h77.4c2,0,3.1,1,3.1,3v5.8c0,2-1.1,3.1-3.1,3.1h-74.2
		c-9.9,0-15.3,5.3-15.3,15.2v10.8h79.4c2,0,3.1,1,3.1,3v5.9c0,2-1.1,3-3.1,3H616V125.5z"/>
</g>
</svg>
