<?xml version="1.0" encoding="utf-8"?>
<!-- Generator: Adobe Illustrator 26.0.3, SVG Export Plug-In . SVG Version: 6.00 Build 0)  -->
<svg version="1.1" id="Ebene_1" xmlns="http://www.w3.org/2000/svg" xmlns:xlink="http://www.w3.org/1999/xlink" x="0px" y="0px"
	 viewBox="0 0 431.08 171.08" style="enable-background:new 0 0 431.08 171.08;" xml:space="preserve">
<style type="text/css">
	.st0{fill:#E96E24;}
	.st1{fill:#D0D0D0;}
</style>
<g>
	<g>
		<path class="st0" d="M36.64,89.41c0-41.1,90.02-74.43,201.07-74.43c70.1,0,131.79,13.29,167.78,33.42
			C371.01,19.76,297.91,0,213.29,0C95.49,0,0,38.3,0,85.54c0,47.24,95.49,85.54,213.29,85.54c52.12,0,99.85-7.5,136.9-19.96
			c-32.1,8.04-70.81,12.73-112.48,12.73C126.66,163.85,36.64,130.52,36.64,89.41z"/>
	</g>
	<g>
		<path d="M64.61,73.5c0-5.31,0-5.73,1.83-5.73h3.9v-5.06c0-13.11,7.63-14.35,13.94-14.35c6.39,0,7.72,1.25,7.72,2.57
			c0,1.83-0.25,2.82-0.75,3.98c-1.99-0.83-4.07-1-5.89-1c-4.31,0-8.3,0.58-8.3,7.8v6.06h7.47c0,5.31-0.08,5.73-1.41,5.73h-6.06
			v34.35c0,0,0,1.41-1.33,1.41h-5.39V73.5H64.61z"/>
		<path d="M87.93,70.26c3.82-2.74,7.22-3.73,11.28-3.73c4.23,0,5.81,1,5.81,3.07c0,1.16-0.17,2.99-0.75,4.4
			c-1.24-0.66-2.41-1-3.98-1c-1.83,0-3.9,0.66-5.48,2.24l-0.08,32.61c0,1.41,0.08,1.41-6.8,1.41V70.26z"/>
		<path d="M113.57,48.53c2.57,0,3.4,1.33,3.4,4.81c-0.08,3.4-1.33,5.39-3.82,5.39c-2.16-0.08-3.49-1.33-3.4-5.23
			C109.75,50.52,110.91,48.53,113.57,48.53z M116.72,107.85c0,1.41-0.08,1.41-6.89,1.41V70.85c0-3.07,1.41-3.07,6.89-3.07V107.85z"
			/>
		<path d="M147.08,70.85c0,1.08-0.75,2.82-1.49,3.82c-2.49-1.49-4.98-2.24-8.13-2.24c-3.9,0-6.64,1.33-6.64,3.98
			c0,1.41,0.66,2.66,2.9,4.81l8.21,7.47c3.57,3.48,4.9,6.14,4.9,10.12c0,7.55-5.23,11.7-13.69,11.7c-5.89,0-10.12-1.41-10.12-3.48
			c0-1.24,0.42-3.15,1.24-4.56c2.41,1.41,4.98,1.99,8.21,1.99c4.4,0,6.72-1.74,6.72-5.39c0-1.91-0.83-3.98-3.32-6.14l-8.38-7.96
			c-3.24-3.07-4.56-5.97-4.56-8.88c0-6.06,4.4-9.46,12.78-9.46C144.84,66.61,147.08,69.27,147.08,70.85z"/>
		<path d="M176.95,80.14c0,3.73-0.25,7.97-0.91,10.95c-5.72,1.16-13.36,1.33-17.34,1.33c0.25,10.04,2.57,11.53,7.05,11.53
			c3.98,0,7.3-1,10.12-2.57c0.42,1.24,0.58,4.15,0.58,5.97c0,1.16-5.23,3.15-11.45,3.15c-7.72,0-13.28-2.9-13.28-19.83
			c0-21.57,7.3-24.14,14.69-24.14C173.38,66.53,176.95,71.26,176.95,80.14z M158.7,86.94c3.24,0.08,8.38-0.08,11.28-0.91
			c0.33-1.49,0.42-3.57,0.42-5.14c-0.08-5.97-1.16-8.46-4.73-8.46C162.27,72.42,159.2,75.41,158.7,86.94z"/>
		<path d="M207.57,107.85c-3.15,1.74-7.88,2.65-12.36,2.65c-10.95,0-12.45-5.06-12.45-15.27V69.1c0-1.33,0-1.33,6.97-1.33v27.79
			c0,6.55,0.83,9.04,5.23,9.04c1.83,0,4.15-0.42,5.89-1.58V69.1c0-1.33-0.17-1.33,6.72-1.33V107.85z"/>
		<path d="M215.2,70.26c3.82-2.74,7.22-3.73,11.29-3.73c4.23,0,5.81,1,5.81,3.07c0,1.16-0.17,2.99-0.75,4.4
			c-1.24-0.66-2.41-1-3.98-1c-1.83,0-3.9,0.66-5.48,2.24L222,107.85c0,1.41,0.08,1.41-6.8,1.41V70.26z"/>
		<path d="M256.68,51.35c0-3.07,1.16-3.07,6.72-3.07v21.57c2.57-2.24,6.06-3.24,9.21-3.24c7.13,0,8.71,2.32,8.71,16.84v24.39
			c0,1.41,0.33,1.41-6.97,1.41V84.29c0-9.46-0.66-11.45-4.48-11.45c-2.07,0-4.48,0.58-6.47,2.24v32.77c0,1.41,0,1.41-6.72,1.41
			V51.35z"/>
		<path d="M312.94,107.85c-3.15,1.74-7.88,2.65-12.36,2.65c-10.95,0-12.45-5.06-12.45-15.27V69.1c0-1.33,0-1.33,6.97-1.33v27.79
			c0,6.55,0.83,9.04,5.23,9.04c1.83,0,4.15-0.42,5.89-1.58V69.1c0-1.33-0.17-1.33,6.72-1.33V107.85z M290.78,55.16
			c0,2.66,1.08,4.23,4.06,4.23c2.57,0,4.15-1.91,4.15-4.23c0-2.49-1.16-4.23-4.15-4.23C292.28,50.93,290.78,52.92,290.78,55.16z
			 M302.65,55.16c0,2.66,0.99,4.23,4.06,4.23c2.57,0,4.07-1.91,4.07-4.23c0-2.49-1.08-4.23-4.07-4.23
			C304.14,50.93,302.65,52.92,302.65,55.16z"/>
		<path d="M320.73,51.43c0-3.15,1.16-3.15,6.72-3.15v21.24c2.16-1.99,5.06-2.99,8.46-2.99c7.05,0.08,10.54,4.15,10.54,16.76
			c0,23.98-9.13,27.21-15.85,27.21c-4.56,0-7.88-0.75-9.87-2.49V51.43z M327.46,103.45c0.75,0.58,1.99,1.08,3.9,1.08
			c2.9,0,7.55-2.9,7.55-19.75c0-10.7-1.83-12.45-5.89-12.45c-1.82,0-3.9,0.58-5.56,2.32V103.45z"/>
		<path d="M352.35,69.27c3.24-1.49,9.21-2.74,13.69-2.74c10.04,0,11.12,3.82,11.12,15.27v26.05c0,1.41,0.08,1.41-6.97,1.41V81.47
			c0-6.55-0.5-9.04-4.89-9.04c-1.82,0-4.4,0.42-6.22,1.58v33.85c0,1.41,0.17,1.41-6.72,1.41V69.27z"/>
		<path d="M408.1,80.14c0,3.73-0.25,7.97-0.91,10.95c-5.72,1.16-13.36,1.33-17.34,1.33c0.25,10.04,2.57,11.53,7.05,11.53
			c3.98,0,7.3-1,10.12-2.57c0.42,1.24,0.58,4.15,0.58,5.97c0,1.16-5.23,3.15-11.45,3.15c-7.71,0-13.28-2.9-13.28-19.83
			c0-21.57,7.3-24.14,14.69-24.14C404.53,66.53,408.1,71.26,408.1,80.14z M389.85,86.94c3.24,0.08,8.38-0.08,11.28-0.91
			c0.33-1.49,0.42-3.57,0.42-5.14c-0.08-5.97-1.16-8.46-4.73-8.46C393.41,72.42,390.35,75.41,389.85,86.94z"/>
		<path d="M413.99,70.26c3.82-2.74,7.22-3.73,11.29-3.73c4.23,0,5.81,1,5.81,3.07c0,1.16-0.17,2.99-0.75,4.4
			c-1.24-0.66-2.41-1-3.98-1c-1.83,0-3.9,0.66-5.48,2.24l-0.08,32.61c0,1.41,0.08,1.41-6.8,1.41V70.26z"/>
	</g>
	<g>
		<path class="st1" d="M78.03,128.07v-0.8c-0.67,0.66-1.64,1-2.91,1c-1.35,0-2.45-0.48-3.29-1.45c-0.84-0.97-1.26-2.26-1.26-3.87
			c0-1.62,0.48-3,1.45-4.15c0.97-1.15,2.12-1.72,3.46-1.72c1.12,0,1.97,0.26,2.55,0.79v-5h1.91v15.21H78.03z M78.03,119.79
			c-0.48-0.73-1.15-1.09-1.99-1.09c-1.03,0-1.86,0.38-2.5,1.15c-0.64,0.77-0.95,1.74-0.95,2.93c0,2.6,1.18,3.91,3.55,3.91
			c0.3,0,0.67-0.1,1.09-0.29c0.42-0.19,0.69-0.4,0.8-0.61V119.79z"/>
		<path class="st1" d="M97.02,126.84c-0.77,0.95-1.94,1.43-3.52,1.43c-0.85,0-1.58-0.31-2.2-0.92c-0.62-0.62-0.93-1.38-0.93-2.3
			c0-1.1,0.48-2.03,1.44-2.79c0.96-0.76,2.18-1.14,3.67-1.14c0.4,0,0.86,0.09,1.37,0.28c0-1.75-0.78-2.62-2.34-2.62
			c-1.2,0-2.12,0.32-2.77,0.95l-0.81-1.59c0.36-0.29,0.86-0.55,1.51-0.76c0.64-0.21,1.25-0.32,1.84-0.32c1.57,0,2.7,0.36,3.41,1.07
			c0.71,0.71,1.06,1.85,1.06,3.4v3.88c0,0.95,0.28,1.58,0.83,1.9v0.95c-0.77,0-1.35-0.11-1.73-0.33
			C97.46,127.72,97.19,127.35,97.02,126.84z M96.84,122.75c-0.61-0.13-1.03-0.2-1.27-0.2c-0.97,0-1.76,0.25-2.37,0.75
			c-0.61,0.5-0.92,1.09-0.92,1.77c0,1.13,0.66,1.69,1.99,1.69c0.97,0,1.83-0.46,2.58-1.39V122.75z"/>
		<path class="st1" d="M122.5,128.07v-6.82c0-1.7-0.74-2.55-2.2-2.55c-0.46,0-0.9,0.14-1.3,0.43c-0.4,0.29-0.68,0.61-0.83,0.97v7.97
			h-1.91v-7.66c0-0.53-0.2-0.95-0.6-1.25c-0.4-0.31-0.93-0.46-1.58-0.46c-0.38,0-0.79,0.15-1.22,0.45c-0.43,0.3-0.74,0.63-0.92,0.98
			v7.94h-1.91v-10.8h1.25l0.63,1.27c0.74-0.98,1.66-1.47,2.76-1.47c1.54,0,2.62,0.48,3.24,1.43c0.21-0.41,0.61-0.75,1.2-1.02
			c0.58-0.27,1.18-0.41,1.8-0.41c1.11,0,1.97,0.33,2.58,0.99c0.61,0.66,0.92,1.59,0.92,2.79v7.22H122.5z"/>
		<path class="st1" d="M144.57,122.87h-7.79c0,1.25,0.35,2.22,1.04,2.89c0.61,0.59,1.4,0.88,2.36,0.88c1.09,0,2.01-0.32,2.74-0.95
			l0.81,1.39c-0.3,0.3-0.75,0.55-1.36,0.77c-0.77,0.28-1.62,0.42-2.56,0.42c-1.36,0-2.51-0.46-3.46-1.38
			c-1.06-1.01-1.58-2.38-1.58-4.09c0-1.78,0.54-3.21,1.62-4.28c0.97-0.96,2.12-1.44,3.44-1.44c1.54,0,2.75,0.43,3.62,1.3
			c0.85,0.83,1.27,1.94,1.27,3.32C144.72,122.13,144.67,122.52,144.57,122.87z M139.91,118.7c-0.86,0-1.57,0.28-2.15,0.83
			c-0.55,0.52-0.87,1.17-0.94,1.95h6c0-0.77-0.24-1.42-0.73-1.93C141.55,118.99,140.83,118.7,139.91,118.7z"/>
		<path class="st1" d="M161.58,128.07v-6.27c0-1.15-0.17-1.95-0.52-2.41c-0.35-0.46-0.92-0.69-1.74-0.69
			c-0.44,0-0.89,0.13-1.37,0.39c-0.48,0.26-0.84,0.58-1.1,0.97v8.01h-1.91v-10.8h1.31l0.6,1.39c0.63-1.06,1.66-1.59,3.09-1.59
			c2.36,0,3.54,1.44,3.54,4.31v6.68H161.58z"/>
		<path class="st1" d="M174.73,122.99v-1.75h4.33v1.75H174.73z"/>
		<path class="st1" d="M212.83,127.56c-0.98,0.48-2.15,0.71-3.53,0.71c-1.41,0-2.5-0.42-3.26-1.25c-0.77-0.83-1.15-2.01-1.15-3.53
			c0-0.78,0.12-1.46,0.35-2.03c0.23-0.57,0.66-1.17,1.28-1.78c-0.95-0.94-1.43-1.92-1.43-2.93c0-1.03,0.39-1.9,1.16-2.63
			c0.77-0.73,1.81-1.09,3.11-1.09c1.38,0,2.44,0.3,3.19,0.91l-0.83,1.55c-0.76-0.63-1.45-0.95-2.05-0.95
			c-1.78,0-2.67,0.81-2.67,2.42c0,0.88,0.4,1.62,1.19,2.22h3.77v-1.85l1.91-0.74v2.58h2.5v1.63h-2.5v3.34
			c0,0.93,0.12,1.57,0.37,1.91c0.25,0.34,0.68,0.51,1.29,0.51c0.36,0,0.79-0.13,1.28-0.4l0.28,1.79c-0.71,0.21-1.52,0.32-2.42,0.32
			C214.03,128.27,213.42,128.03,212.83,127.56z M211.95,124.92v-4.11h-4.09c-0.64,0.82-0.95,1.69-0.95,2.59
			c0,2.11,1.03,3.16,3.09,3.16c0.92,0,1.61-0.16,2.06-0.48C211.99,125.78,211.95,125.39,211.95,124.92z"/>
		<path class="st1" d="M248.79,128.07v-6.77c0-0.81-0.2-1.44-0.6-1.9c-0.4-0.46-0.96-0.69-1.68-0.69c-0.47,0-0.94,0.14-1.4,0.41
			c-0.47,0.27-0.83,0.59-1.08,0.95v8.01h-1.9v-15.21h1.9v5.6c0.26-0.4,0.67-0.73,1.24-0.99c0.57-0.27,1.16-0.4,1.76-0.4
			c1.14,0,2.04,0.38,2.69,1.13c0.65,0.75,0.98,1.78,0.98,3.08v6.78H248.79z"/>
		<path class="st1" d="M270.8,122.87h-7.79c0,1.25,0.35,2.22,1.04,2.89c0.61,0.59,1.4,0.88,2.36,0.88c1.1,0,2.01-0.32,2.74-0.95
			l0.81,1.39c-0.3,0.3-0.75,0.55-1.36,0.77c-0.77,0.28-1.62,0.42-2.56,0.42c-1.36,0-2.51-0.46-3.46-1.38
			c-1.06-1.01-1.59-2.38-1.59-4.09c0-1.78,0.54-3.21,1.62-4.28c0.97-0.96,2.12-1.44,3.44-1.44c1.54,0,2.75,0.43,3.62,1.3
			c0.85,0.83,1.27,1.94,1.27,3.32C270.95,122.13,270.9,122.52,270.8,122.87z M266.14,118.7c-0.86,0-1.57,0.28-2.15,0.83
			c-0.55,0.52-0.87,1.17-0.94,1.95h6c0-0.77-0.24-1.42-0.73-1.93C267.79,118.99,267.06,118.7,266.14,118.7z"/>
		<path class="st1" d="M287.06,119.14c-0.42-0.29-0.84-0.43-1.26-0.43c-0.68,0-1.27,0.31-1.78,0.94c-0.51,0.63-0.76,1.38-0.76,2.26
			v6.17h-1.91v-10.8h1.91v1.75c0.7-1.3,1.74-1.95,3.12-1.95c0.34,0,0.84,0.06,1.48,0.18L287.06,119.14z"/>
		<path class="st1" d="M303.34,119.14c-0.42-0.29-0.84-0.43-1.26-0.43c-0.68,0-1.27,0.31-1.78,0.94c-0.51,0.63-0.76,1.38-0.76,2.26
			v6.17h-1.91v-10.8h1.91v1.75c0.7-1.3,1.74-1.95,3.12-1.95c0.34,0,0.84,0.06,1.48,0.18L303.34,119.14z"/>
		<path class="st1" d="M322.89,122.87h-7.79c0,1.25,0.35,2.22,1.04,2.89c0.61,0.59,1.4,0.88,2.36,0.88c1.1,0,2.01-0.32,2.74-0.95
			l0.81,1.39c-0.3,0.3-0.75,0.55-1.36,0.77c-0.77,0.28-1.62,0.42-2.56,0.42c-1.36,0-2.51-0.46-3.46-1.38
			c-1.06-1.01-1.59-2.38-1.59-4.09c0-1.78,0.54-3.21,1.63-4.28c0.97-0.96,2.12-1.44,3.44-1.44c1.54,0,2.75,0.43,3.62,1.3
			c0.85,0.83,1.27,1.94,1.27,3.32C323.04,122.13,322.99,122.52,322.89,122.87z M318.23,118.7c-0.86,0-1.57,0.28-2.15,0.83
			c-0.55,0.52-0.87,1.17-0.94,1.95h5.99c0-0.77-0.24-1.42-0.73-1.93C319.87,118.99,319.15,118.7,318.23,118.7z"/>
		<path class="st1" d="M339.9,128.07v-6.27c0-1.15-0.17-1.95-0.52-2.41c-0.35-0.46-0.92-0.69-1.74-0.69c-0.44,0-0.89,0.13-1.37,0.39
			c-0.48,0.26-0.84,0.58-1.1,0.97v8.01h-1.91v-10.8h1.31l0.6,1.39c0.63-1.06,1.66-1.59,3.09-1.59c2.36,0,3.54,1.44,3.54,4.31v6.68
			H339.9z"/>
		<path class="st1" d="M352.09,127.43l0.68-1.81c1.07,0.69,1.93,1.03,2.59,1.03c1.19,0,1.78-0.5,1.78-1.49
			c0-0.71-0.57-1.32-1.71-1.83c-0.88-0.4-1.47-0.71-1.78-0.92c-0.31-0.21-0.57-0.45-0.8-0.71c-0.23-0.27-0.39-0.55-0.51-0.85
			c-0.11-0.3-0.17-0.62-0.17-0.96c0-0.89,0.32-1.58,0.97-2.08c0.64-0.5,1.49-0.75,2.53-0.75c0.79,0,1.78,0.25,2.97,0.74l-0.54,1.76
			c-0.76-0.58-1.52-0.87-2.29-0.87c-0.46,0-0.84,0.11-1.15,0.32c-0.31,0.21-0.47,0.49-0.47,0.81c0,0.69,0.39,1.21,1.18,1.57
			l1.37,0.62c0.84,0.38,1.45,0.82,1.84,1.31c0.38,0.49,0.57,1.11,0.57,1.84c0,0.97-0.34,1.72-1.02,2.27
			c-0.68,0.55-1.62,0.82-2.83,0.82C354.17,128.27,353.1,127.99,352.09,127.43z"/>
		<path class="st1" d="M375.52,126.84c-0.77,0.95-1.94,1.43-3.52,1.43c-0.85,0-1.58-0.31-2.2-0.92c-0.62-0.62-0.93-1.38-0.93-2.3
			c0-1.1,0.48-2.03,1.44-2.79c0.96-0.76,2.18-1.14,3.66-1.14c0.4,0,0.86,0.09,1.37,0.28c0-1.75-0.78-2.62-2.34-2.62
			c-1.2,0-2.12,0.32-2.77,0.95l-0.81-1.59c0.36-0.29,0.87-0.55,1.51-0.76c0.64-0.21,1.26-0.32,1.84-0.32c1.57,0,2.7,0.36,3.41,1.07
			c0.71,0.71,1.06,1.85,1.06,3.4v3.88c0,0.95,0.28,1.58,0.83,1.9v0.95c-0.77,0-1.35-0.11-1.74-0.33
			C375.96,127.72,375.69,127.35,375.52,126.84z M375.34,122.75c-0.61-0.13-1.03-0.2-1.27-0.2c-0.97,0-1.76,0.25-2.37,0.75
			c-0.61,0.5-0.92,1.09-0.92,1.77c0,1.13,0.66,1.69,1.99,1.69c0.97,0,1.83-0.46,2.58-1.39V122.75z"/>
		<path class="st1" d="M388.69,125.02v-12.15h1.9v11.83c0,0.58,0.16,1.03,0.49,1.37c0.33,0.33,0.76,0.5,1.29,0.5v1.71
			C389.92,128.27,388.69,127.19,388.69,125.02z"/>
		<path class="st1" d="M402.2,122.65c0-1.67,0.45-3.01,1.35-4.04c0.9-1.03,2.08-1.54,3.54-1.54c1.54,0,2.74,0.49,3.6,1.48
			c0.85,0.98,1.28,2.35,1.28,4.1c0,1.74-0.44,3.11-1.31,4.12c-0.87,1-2.06,1.51-3.57,1.51c-1.54,0-2.74-0.51-3.6-1.52
			C402.63,125.74,402.2,124.37,402.2,122.65z M404.23,122.65c0,2.72,0.96,4.08,2.87,4.08c0.89,0,1.59-0.36,2.09-1.09
			c0.51-0.73,0.76-1.72,0.76-2.98c0-2.68-0.95-4.02-2.85-4.02c-0.87,0-1.57,0.36-2.09,1.07
			C404.49,120.41,404.23,121.4,404.23,122.65z"/>
		<path class="st1" d="M428.85,128.07v-6.27c0-1.15-0.17-1.95-0.52-2.41c-0.35-0.46-0.92-0.69-1.74-0.69
			c-0.44,0-0.89,0.13-1.37,0.39c-0.48,0.26-0.84,0.58-1.1,0.97v8.01h-1.91v-10.8h1.31l0.6,1.39c0.63-1.06,1.66-1.59,3.09-1.59
			c2.36,0,3.54,1.44,3.54,4.31v6.68H428.85z"/>
	</g>
</g>
</svg>
