<?xml version="1.0" encoding="utf-8"?>
<!-- Generator: Adobe Illustrator 26.0.3, SVG Export Plug-In . SVG Version: 6.00 Build 0)  -->
<svg version="1.1" id="Ebene_1" xmlns="http://www.w3.org/2000/svg" xmlns:xlink="http://www.w3.org/1999/xlink" x="0px" y="0px"
	 viewBox="0 0 318.17 56.74" style="enable-background:new 0 0 318.17 56.74;" xml:space="preserve">
<style type="text/css">
	.st0{fill:#FFFFFF;}
</style>
<g>
	<path class="st0" d="M21.13,29.75l-3.21-9.08H7.01l-3.25,9.08H0L10.76,0.34h3.41l10.78,29.41H21.13z M16.75,17.37l-2.96-8.49
		c-0.08-0.24-0.18-0.53-0.29-0.88c-0.11-0.35-0.23-0.72-0.35-1.12c-0.12-0.4-0.24-0.82-0.36-1.25c-0.12-0.43-0.23-0.86-0.34-1.27
		c-0.09,0.41-0.2,0.84-0.32,1.28C12,6.07,11.88,6.49,11.76,6.9c-0.12,0.41-0.24,0.78-0.35,1.12c-0.11,0.34-0.21,0.62-0.29,0.85
		l-2.9,8.49H16.75z"/>
	<path class="st0" d="M35.4,17.65v12.1h-3.73V0.46h7.13c3.55,0,6.18,0.69,7.87,2.06c1.7,1.38,2.54,3.46,2.54,6.25
		c0,1.16-0.16,2.18-0.49,3.04c-0.33,0.87-0.76,1.61-1.3,2.23c-0.54,0.62-1.16,1.14-1.85,1.55c-0.69,0.41-1.41,0.75-2.14,1.02
		l7.97,13.12h-4.39l-7.03-12.1H35.4z M35.4,14.48h3.29c1.2,0,2.22-0.12,3.06-0.35c0.84-0.23,1.53-0.58,2.07-1.04
		c0.54-0.46,0.93-1.03,1.18-1.72c0.25-0.69,0.37-1.49,0.37-2.41c0-0.96-0.14-1.78-0.41-2.44c-0.27-0.67-0.69-1.22-1.24-1.64
		c-0.55-0.43-1.25-0.74-2.1-0.93c-0.85-0.19-1.85-0.29-3.01-0.29H35.4V14.48z"/>
	<path class="st0" d="M66.76,29.75h-3.75v-26h-8.37V0.46h20.47v3.29h-8.35V29.75z"/>
	<path class="st0" d="M119.59,15.06c0,2.26-0.27,4.31-0.81,6.17c-0.54,1.86-1.35,3.45-2.41,4.77c-1.07,1.32-2.39,2.34-3.98,3.06
		c-1.58,0.72-3.41,1.08-5.48,1.08c-2.18,0-4.06-0.36-5.66-1.08c-1.6-0.72-2.92-1.74-3.97-3.06c-1.05-1.32-1.83-2.91-2.33-4.78
		c-0.51-1.86-0.76-3.93-0.76-6.2s0.25-4.33,0.76-6.18C95.46,7,96.24,5.42,97.3,4.11c1.05-1.31,2.38-2.32,3.99-3.04
		c1.6-0.71,3.49-1.07,5.67-1.07c2.07,0,3.89,0.36,5.46,1.07c1.57,0.71,2.89,1.73,3.96,3.04c1.07,1.32,1.87,2.9,2.41,4.75
		C119.32,10.71,119.59,12.78,119.59,15.06z M98.14,15.06c0,1.83,0.17,3.48,0.52,4.94c0.35,1.46,0.88,2.7,1.59,3.73
		c0.71,1.02,1.62,1.8,2.72,2.34c1.1,0.54,2.41,0.81,3.94,0.81c1.52,0,2.83-0.27,3.94-0.81c1.1-0.54,2.01-1.32,2.72-2.34
		c0.71-1.02,1.24-2.26,1.57-3.73c0.33-1.46,0.5-3.11,0.5-4.94c0-1.84-0.17-3.49-0.5-4.95c-0.33-1.46-0.85-2.69-1.56-3.7
		c-0.71-1.01-1.61-1.78-2.7-2.32c-1.1-0.54-2.4-0.81-3.93-0.81c-1.52,0-2.84,0.27-3.95,0.81c-1.11,0.54-2.02,1.32-2.74,2.32
		c-0.72,1.01-1.25,2.24-1.6,3.7C98.31,11.57,98.14,13.22,98.14,15.06z"/>
	<path class="st0" d="M132.6,29.75h-3.73V0.46h15.21v3.29H132.6v10.34h10.72v3.29H132.6V29.75z"/>
	<path class="st0" d="M165.18,0.46h7.99c1.71,0,3.22,0.13,4.52,0.39c1.3,0.26,2.39,0.68,3.26,1.26c0.87,0.58,1.53,1.34,1.97,2.28
		c0.44,0.94,0.66,2.1,0.66,3.48c0,0.83-0.13,1.6-0.39,2.32c-0.26,0.72-0.64,1.36-1.13,1.9c-0.49,0.55-1.1,1-1.83,1.37
		c-0.73,0.37-1.55,0.61-2.47,0.73v0.2c0.92,0.16,1.79,0.39,2.59,0.69c0.81,0.3,1.51,0.71,2.11,1.24c0.6,0.53,1.08,1.19,1.42,1.99
		c0.35,0.8,0.52,1.78,0.52,2.92c0,1.34-0.22,2.53-0.65,3.58c-0.43,1.05-1.06,1.94-1.88,2.66c-0.82,0.73-1.82,1.29-3,1.67
		c-1.17,0.39-2.5,0.58-3.99,0.58h-9.72V0.46z M168.91,12.88h4.89c1.12,0,2.06-0.1,2.82-0.3c0.76-0.2,1.38-0.5,1.84-0.89
		c0.47-0.39,0.8-0.89,1.01-1.48c0.21-0.59,0.31-1.29,0.31-2.07c0-1.6-0.51-2.75-1.54-3.45c-1.03-0.69-2.65-1.04-4.87-1.04h-4.47
		V12.88z M168.91,16.01v10.58h5.33c1.18,0,2.16-0.13,2.96-0.4c0.79-0.27,1.43-0.64,1.92-1.12c0.49-0.48,0.84-1.06,1.05-1.73
		c0.21-0.67,0.32-1.42,0.32-2.23c0-0.75-0.11-1.44-0.33-2.06c-0.22-0.63-0.58-1.17-1.08-1.61c-0.5-0.45-1.16-0.79-1.99-1.04
		c-0.83-0.25-1.86-0.37-3.09-0.37H168.91z"/>
	<path class="st0" d="M208.62,29.75h-15.21V0.46h15.21v3.29h-11.48v9.06h10.72v3.25h-10.72v10.42h11.48V29.75z"/>
	<path class="st0" d="M234.97,29.75l-3.21-9.08h-10.92l-3.25,9.08h-3.77l10.76-29.41h3.41l10.78,29.41H234.97z M230.58,17.37
		l-2.96-8.49c-0.08-0.24-0.18-0.53-0.29-0.88c-0.11-0.35-0.23-0.72-0.35-1.12c-0.12-0.4-0.24-0.82-0.36-1.25
		c-0.12-0.43-0.23-0.86-0.34-1.27c-0.09,0.41-0.2,0.84-0.32,1.28c-0.12,0.44-0.24,0.86-0.36,1.27c-0.12,0.41-0.24,0.78-0.35,1.12
		c-0.11,0.34-0.21,0.62-0.29,0.85l-2.91,8.49H230.58z"/>
	<path class="st0" d="M266.06,0.42v18.99c0,1.52-0.22,2.94-0.66,4.25c-0.44,1.31-1.11,2.44-1.99,3.41c-0.89,0.96-2,1.72-3.35,2.26
		c-1.34,0.55-2.92,0.82-4.74,0.82c-1.71,0-3.22-0.26-4.53-0.77c-1.31-0.51-2.41-1.25-3.3-2.19c-0.89-0.95-1.56-2.09-2.01-3.42
		c-0.45-1.33-0.68-2.81-0.68-4.44V0.46h3.75v19.07c0,2.34,0.58,4.15,1.73,5.43c1.16,1.28,2.9,1.92,5.24,1.92
		c1.19,0,2.21-0.18,3.06-0.54c0.85-0.36,1.55-0.87,2.1-1.52c0.55-0.65,0.95-1.44,1.22-2.34c0.27-0.91,0.41-1.9,0.42-2.98V0.42
		H266.06z"/>
	<path class="st0" d="M285.04,29.75h-3.75v-26h-8.37V0.46h20.47v3.29h-8.35V29.75z"/>
	<path class="st0" d="M307.36,15.27l6.81-14.8h4.01l-8.93,17.89v11.4h-3.75v-11.2l-8.93-18.09h4.07L307.36,15.27z"/>
	<path class="st0" d="M37.49,48.65c0-0.81,0.34-1.49,1.02-2.05c0.68-0.55,1.45-0.83,2.3-0.83c0.3,0,0.57,0.02,0.79,0.05
		c0.23,0.03,0.54,0.1,0.95,0.2c0.41,0.1,0.68,0.17,0.83,0.2c0.13,0.73,0.19,1.56,0.19,2.49c-0.02,0.1-0.09,0.15-0.19,0.15
		c-0.29,0-0.45-0.05-0.47-0.15c-0.06-0.5-0.3-0.98-0.7-1.46c-0.4-0.47-0.88-0.71-1.46-0.71c-0.5,0-0.88,0.14-1.14,0.42
		c-0.27,0.28-0.4,0.66-0.4,1.13c0,0.16,0.02,0.32,0.06,0.46c0.04,0.15,0.11,0.29,0.23,0.43c0.11,0.14,0.2,0.26,0.28,0.35
		c0.07,0.09,0.2,0.21,0.4,0.35c0.2,0.14,0.33,0.24,0.41,0.29c0.07,0.05,0.23,0.16,0.49,0.32c0.25,0.16,0.41,0.25,0.46,0.27
		c0.07,0.05,0.25,0.17,0.54,0.35c0.3,0.18,0.5,0.31,0.62,0.39c0.12,0.08,0.29,0.22,0.52,0.41c0.23,0.19,0.39,0.38,0.49,0.55
		c0.1,0.17,0.2,0.39,0.28,0.66c0.09,0.26,0.13,0.55,0.13,0.85c0,0.86-0.35,1.58-1.04,2.14c-0.7,0.56-1.5,0.84-2.42,0.84
		c-0.65,0-1.64-0.15-2.98-0.45c-0.1-0.39-0.19-0.88-0.27-1.46c-0.08-0.59-0.12-0.97-0.12-1.16c0.01-0.09,0.1-0.13,0.26-0.13
		c0.28,0,0.44,0.04,0.47,0.13c0.04,0.19,0.12,0.41,0.23,0.64c0.11,0.23,0.26,0.48,0.44,0.74c0.19,0.26,0.44,0.48,0.76,0.65
		c0.32,0.17,0.68,0.25,1.08,0.25c0.51,0,0.93-0.15,1.26-0.45c0.33-0.3,0.5-0.75,0.5-1.36c0-0.18-0.04-0.36-0.11-0.53
		c-0.07-0.17-0.15-0.32-0.24-0.44c-0.09-0.12-0.23-0.25-0.41-0.39c-0.18-0.14-0.33-0.25-0.44-0.32c-0.12-0.08-0.29-0.18-0.53-0.32
		c-0.23-0.13-0.4-0.23-0.49-0.28c-0.03-0.03-0.09-0.08-0.18-0.13c-0.31-0.19-0.55-0.35-0.71-0.45c-0.16-0.11-0.37-0.27-0.62-0.48
		c-0.25-0.21-0.44-0.41-0.57-0.59c-0.13-0.18-0.25-0.41-0.35-0.68C37.54,49.25,37.49,48.96,37.49,48.65z"/>
	<path class="st0" d="M47.73,45.93c0.31,0,0.67-0.01,1.08-0.02c0.41-0.02,0.78-0.02,1.1-0.02c0.32,0,0.64,0.03,0.96,0.09
		c0.32,0.06,0.64,0.16,0.95,0.31c0.32,0.15,0.6,0.34,0.84,0.56c0.24,0.22,0.44,0.51,0.6,0.85c0.16,0.35,0.23,0.73,0.23,1.15
		c0,0.51-0.13,1-0.4,1.49c-0.27,0.49-0.66,0.9-1.2,1.24c-0.53,0.34-1.14,0.51-1.8,0.51c-0.23,0-0.45-0.04-0.68-0.12
		c-0.23-0.08-0.38-0.18-0.47-0.3c-0.02-0.02-0.04-0.08-0.06-0.16c-0.02-0.09-0.02-0.17-0.01-0.24c0.01-0.08,0.03-0.11,0.05-0.11
		c0.25,0.11,0.55,0.16,0.91,0.16c0.52,0,0.93-0.21,1.23-0.64c0.3-0.42,0.45-0.96,0.45-1.61c0-0.72-0.15-1.29-0.44-1.72
		c-0.29-0.42-0.74-0.63-1.34-0.63c-0.45,0-0.77,0.04-0.94,0.11c-0.13,0.06-0.19,0.63-0.19,1.68v5.78c0,0.65,0.04,1.11,0.13,1.38
		c0.03,0.13,0.21,0.23,0.54,0.31c0.33,0.08,0.57,0.12,0.72,0.12c0.04,0,0.06,0.09,0.06,0.28c0,0.12-0.01,0.21-0.03,0.27
		c-1.19-0.07-1.95-0.1-2.3-0.1c-0.29,0-0.62,0.01-0.98,0.02c-0.36,0.02-0.65,0.03-0.87,0.04l-0.32,0.03
		c-0.03-0.04-0.05-0.14-0.05-0.29c0-0.17,0.02-0.26,0.05-0.26c0.14,0,0.35-0.03,0.62-0.1c0.28-0.07,0.43-0.15,0.48-0.25
		c0.06-0.19,0.1-0.68,0.1-1.47v-6.12c0-0.62-0.03-1.06-0.1-1.33c-0.03-0.09-0.19-0.18-0.48-0.27c-0.29-0.09-0.49-0.14-0.62-0.14
		c-0.04,0-0.06-0.08-0.06-0.24c0-0.16,0.02-0.26,0.06-0.29C46.71,45.91,47.43,45.93,47.73,45.93z"/>
	<path class="st0" d="M60.8,45.9l3.4,8.48c0.16,0.43,0.32,0.83,0.49,1.18c0.06,0.16,0.24,0.29,0.52,0.39
		c0.28,0.1,0.49,0.14,0.61,0.14c0.04,0,0.06,0.1,0.06,0.29c0,0.13-0.01,0.21-0.03,0.24c-1.29-0.06-1.97-0.1-2.04-0.1
		c-0.08,0-0.78,0.03-2.1,0.1c-0.04-0.04-0.06-0.14-0.06-0.3c0-0.16,0.02-0.23,0.06-0.23c0.13,0,0.31-0.03,0.53-0.1
		c0.23-0.06,0.36-0.14,0.4-0.23c0.03-0.06,0.05-0.13,0.05-0.21c0-0.22-0.1-0.59-0.31-1.12l-0.57-1.5c-0.04-0.04-0.08-0.06-0.11-0.06
		c-0.34-0.02-0.81-0.03-1.39-0.03c-0.58,0-1.2,0.01-1.84,0.05c-0.06,0-0.1,0.02-0.1,0.06l-0.61,1.51c-0.21,0.56-0.31,0.91-0.31,1.05
		c0,0.14,0.06,0.25,0.18,0.32c0.1,0.06,0.27,0.12,0.51,0.18c0.24,0.05,0.41,0.08,0.49,0.08c0.03,0.01,0.05,0.09,0.05,0.23
		c0,0.14-0.01,0.24-0.03,0.31c-0.05,0-0.31-0.02-0.76-0.05c-0.45-0.03-0.82-0.05-1.1-0.05c-0.28,0-0.61,0.01-1,0.04
		c-0.38,0.03-0.66,0.05-0.82,0.06c-0.04-0.04-0.06-0.12-0.06-0.24c0-0.19,0.01-0.29,0.03-0.29c0.13,0,0.34-0.04,0.62-0.14
		c0.28-0.09,0.47-0.2,0.54-0.32c0.21-0.32,0.41-0.74,0.61-1.26l3.01-7.28c0.25-0.65,0.45-1.04,0.6-1.16
		c0.09-0.08,0.18-0.11,0.27-0.11C60.68,45.82,60.74,45.84,60.8,45.9z M58.86,51.91c0.38,0.03,0.77,0.05,1.16,0.05
		c0.38,0,0.82-0.02,1.33-0.05l0.03-0.07l-1.23-3.24l-1.33,3.24C58.82,51.89,58.83,51.91,58.86,51.91z"/>
	<path class="st0" d="M91.87,53.63c0,0.14-0.08,0.56-0.24,1.25c-0.16,0.7-0.29,1.07-0.37,1.11c-0.94,0.45-2.19,0.68-3.75,0.68
		c-1.42,0-2.64-0.52-3.64-1.57c-1-1.05-1.5-2.29-1.5-3.74c0-1.53,0.51-2.84,1.54-3.94c1.02-1.09,2.29-1.64,3.79-1.64
		c1.22,0,2.49,0.15,3.82,0.44c0.03,0.01,0.07,0.36,0.1,1.06c0.03,0.69,0.05,1.13,0.05,1.3c0,0.16-0.13,0.24-0.39,0.24
		c-0.07,0-0.14-0.02-0.23-0.07c-0.04-0.19-0.12-0.39-0.23-0.6c-0.11-0.21-0.28-0.44-0.51-0.69c-0.23-0.26-0.56-0.47-1-0.64
		c-0.44-0.17-0.95-0.25-1.54-0.25c-1.06,0-1.88,0.44-2.47,1.31c-0.59,0.87-0.88,1.92-0.88,3.14c0,1.36,0.33,2.51,0.99,3.45
		c0.66,0.95,1.6,1.42,2.81,1.42c0.96,0,1.72-0.3,2.28-0.91c0.14-0.15,0.27-0.35,0.38-0.61c0.11-0.25,0.2-0.47,0.26-0.64
		c0.06-0.17,0.1-0.26,0.12-0.26C91.61,53.48,91.82,53.53,91.87,53.63z"/>
	<path class="st0" d="M99.16,45.9l3.4,8.48c0.16,0.43,0.32,0.83,0.49,1.18c0.06,0.16,0.24,0.29,0.52,0.39
		c0.28,0.1,0.49,0.14,0.61,0.14c0.04,0,0.06,0.1,0.06,0.29c0,0.13-0.01,0.21-0.03,0.24c-1.29-0.06-1.97-0.1-2.04-0.1
		c-0.08,0-0.78,0.03-2.1,0.1c-0.04-0.04-0.06-0.14-0.06-0.3c0-0.16,0.02-0.23,0.06-0.23c0.13,0,0.31-0.03,0.53-0.1
		c0.23-0.06,0.36-0.14,0.4-0.23c0.03-0.06,0.05-0.13,0.05-0.21c0-0.22-0.1-0.59-0.31-1.12l-0.57-1.5c-0.04-0.04-0.08-0.06-0.11-0.06
		c-0.35-0.02-0.81-0.03-1.39-0.03c-0.58,0-1.2,0.01-1.84,0.05c-0.06,0-0.1,0.02-0.1,0.06l-0.62,1.51c-0.2,0.56-0.31,0.91-0.31,1.05
		c0,0.14,0.06,0.25,0.18,0.32c0.1,0.06,0.27,0.12,0.51,0.18c0.24,0.05,0.41,0.08,0.49,0.08c0.03,0.01,0.05,0.09,0.05,0.23
		c0,0.14-0.01,0.24-0.03,0.31c-0.05,0-0.31-0.02-0.76-0.05c-0.45-0.03-0.82-0.05-1.1-0.05c-0.28,0-0.61,0.01-0.99,0.04
		c-0.38,0.03-0.66,0.05-0.82,0.06c-0.04-0.04-0.07-0.12-0.07-0.24c0-0.19,0.01-0.29,0.03-0.29c0.13,0,0.34-0.04,0.62-0.14
		c0.29-0.09,0.47-0.2,0.54-0.32c0.21-0.32,0.41-0.74,0.62-1.26l3.01-7.28c0.25-0.65,0.45-1.04,0.6-1.16
		c0.09-0.08,0.18-0.11,0.28-0.11C99.04,45.82,99.11,45.84,99.16,45.9z M97.22,51.91c0.38,0.03,0.77,0.05,1.16,0.05
		c0.38,0,0.82-0.02,1.33-0.05l0.03-0.07l-1.23-3.24l-1.33,3.24C97.19,51.89,97.2,51.91,97.22,51.91z"/>
	<path class="st0" d="M110.21,45.9c0.28,0,0.57,0.03,0.88,0.09c0.31,0.06,0.63,0.16,0.96,0.3c0.33,0.14,0.62,0.31,0.88,0.52
		c0.26,0.2,0.47,0.47,0.63,0.81c0.16,0.33,0.24,0.71,0.24,1.13c0,0.58-0.19,1.13-0.57,1.65c-0.38,0.52-0.84,0.88-1.38,1.1
		c-0.09,0.03-0.11,0.09-0.06,0.16c0.6,1.09,1.21,2.01,1.81,2.75c0.38,0.46,0.78,0.86,1.22,1.19c0.44,0.33,0.84,0.49,1.21,0.49
		c0.04,0.07,0.06,0.15,0.06,0.26c0,0.11-0.02,0.21-0.06,0.29c-0.13,0.02-0.3,0.03-0.5,0.03c-0.55,0-1.05-0.07-1.5-0.19
		c-0.45-0.13-0.84-0.32-1.17-0.58c-0.33-0.25-0.6-0.5-0.82-0.73c-0.22-0.24-0.44-0.54-0.68-0.91c-0.15-0.22-0.32-0.47-0.52-0.76
		c-0.19-0.29-0.34-0.51-0.45-0.67c-0.1-0.16-0.22-0.32-0.35-0.49c-0.13-0.17-0.24-0.3-0.33-0.39c-0.09-0.09-0.18-0.15-0.27-0.18
		c-0.07-0.03-0.19-0.05-0.39-0.05c-0.17,0-0.26,0.09-0.26,0.28v2.28c0,0.65,0.04,1.11,0.13,1.38c0.03,0.13,0.21,0.23,0.54,0.31
		c0.33,0.08,0.57,0.12,0.72,0.12c0.04,0,0.06,0.09,0.06,0.28c0,0.12-0.01,0.21-0.03,0.27c-1.19-0.07-1.95-0.1-2.3-0.1
		c-0.29,0-0.62,0.01-0.98,0.02c-0.36,0.02-0.65,0.03-0.87,0.04l-0.32,0.03c-0.03-0.04-0.05-0.14-0.05-0.29
		c0-0.17,0.02-0.26,0.05-0.26c0.14,0,0.35-0.03,0.62-0.1c0.28-0.07,0.43-0.15,0.48-0.25c0.06-0.19,0.1-0.68,0.1-1.47v-6.12
		c0-0.62-0.03-1.06-0.1-1.33c-0.03-0.09-0.19-0.18-0.48-0.27c-0.29-0.09-0.49-0.14-0.62-0.14c-0.04,0-0.06-0.08-0.06-0.24
		c0-0.16,0.02-0.26,0.06-0.29c1.14,0.03,1.86,0.05,2.15,0.05c0.3,0,0.68,0,1.12-0.02C109.5,45.9,109.89,45.9,110.21,45.9z
		 M109.95,46.7c-0.45,0-0.77,0.04-0.94,0.11c-0.12,0.05-0.18,0.62-0.19,1.68v1.86c0,0.24,0.09,0.39,0.27,0.47
		c0.18,0.08,0.44,0.11,0.76,0.11h0.42c0.4,0,0.76-0.19,1.08-0.57c0.32-0.38,0.48-0.87,0.48-1.47
		C111.83,47.44,111.2,46.7,109.95,46.7z"/>
	<path class="st0" d="M119.54,45.94c0.47,0,1.31-0.02,2.51-0.06c1.2-0.04,2.1-0.06,2.72-0.06c0.04,0.32,0.13,0.78,0.26,1.35
		c0.13,0.58,0.2,0.89,0.21,0.95c-0.05,0.05-0.17,0.08-0.34,0.08c-0.12,0-0.19-0.04-0.23-0.11c-0.36-0.96-1.05-1.44-2.07-1.44h-0.84
		c-0.8,0-1.21,0.07-1.23,0.21c-0.06,0.3-0.1,0.74-0.1,1.31v2.54c0,0.07,0.24,0.1,0.71,0.1h0.84c0.01,0,0.03,0,0.06,0
		c0.63,0,1-0.03,1.12-0.08c0.12-0.05,0.21-0.24,0.27-0.57c0.03-0.16,0.06-0.3,0.1-0.4c0.01-0.08,0.1-0.11,0.26-0.11
		c0.15,0,0.25,0.03,0.31,0.08v3.06c-0.04,0.04-0.15,0.06-0.31,0.06c-0.14,0-0.23-0.04-0.26-0.13c-0.08-0.29-0.14-0.51-0.2-0.65
		c-0.06-0.14-0.1-0.22-0.11-0.23c-0.02-0.01-0.06-0.04-0.14-0.1c-0.14-0.09-0.64-0.13-1.49-0.13c-0.78,0-1.16,0.04-1.16,0.13v2.51
		c0,0.59,0.05,1.03,0.15,1.31c0.05,0.14,0.42,0.21,1.1,0.21h0.6c0.84,0,1.48-0.11,1.93-0.34c0.17-0.09,0.37-0.27,0.58-0.57
		c0.22-0.29,0.38-0.62,0.5-0.99c0.01-0.06,0.09-0.1,0.23-0.1c0.24,0,0.39,0.03,0.45,0.1c-0.03,0.1-0.11,0.32-0.24,0.66
		s-0.22,0.61-0.28,0.78c-0.06,0.18-0.13,0.4-0.21,0.66c-0.08,0.26-0.12,0.47-0.15,0.63c-0.43,0-1.32-0.02-2.68-0.05
		c-1.35-0.03-2.31-0.04-2.86-0.01l-2.15,0.06c-0.03-0.03-0.05-0.12-0.05-0.26c0-0.18,0.02-0.28,0.05-0.28c0.14,0,0.35-0.03,0.61-0.1
		c0.27-0.07,0.43-0.15,0.47-0.25c0.08-0.23,0.11-0.72,0.11-1.47v-6.12c0-0.65-0.04-1.09-0.11-1.33c-0.03-0.12-0.18-0.22-0.45-0.29
		c-0.27-0.08-0.49-0.11-0.65-0.11c-0.04,0-0.07-0.08-0.07-0.24c0-0.15,0.02-0.25,0.07-0.29C118.1,45.92,118.82,45.94,119.54,45.94z"
		/>
	<path class="st0" d="M151.18,48.11c0-0.57-0.05-1-0.16-1.29c-0.05-0.13-0.23-0.23-0.54-0.31c-0.31-0.08-0.55-0.11-0.72-0.11
		c-0.04,0-0.07-0.08-0.07-0.23c-0.01-0.16,0.01-0.26,0.04-0.3c1.15,0.08,1.83,0.11,2.04,0.11c0.28,0,0.64-0.02,1.08-0.06
		c0.44-0.04,0.72-0.06,0.83-0.06c0.02,0.04,0.03,0.13,0.03,0.26c0,0.18-0.02,0.28-0.06,0.28c-0.15,0-0.38,0.04-0.7,0.12
		c-0.31,0.08-0.52,0.19-0.62,0.33c-0.12,0.29-0.18,0.74-0.18,1.34v6.13c0,0.39,0.02,1.14,0.06,2.27c-0.04,0.04-0.16,0.06-0.36,0.06
		c-0.17,0-0.35-0.12-0.52-0.37l-6.44-8.54v6.55c0,0.65,0.04,1.09,0.13,1.33c0.05,0.13,0.25,0.24,0.6,0.33
		c0.35,0.09,0.59,0.14,0.73,0.14c0.03,0,0.05,0.08,0.06,0.23c0.01,0.15,0,0.25-0.02,0.31c-1.29-0.06-1.97-0.1-2.02-0.1
		c-0.29,0-0.65,0.01-1.08,0.04c-0.43,0.03-0.71,0.05-0.85,0.06c-0.04-0.04-0.06-0.14-0.06-0.28c0-0.17,0.02-0.26,0.06-0.26
		c0.18,0,0.43-0.04,0.74-0.12c0.31-0.08,0.5-0.2,0.59-0.36c0.11-0.23,0.16-0.68,0.16-1.36V47.9c0-0.58-0.06-0.98-0.18-1.18
		c-0.04-0.08-0.23-0.15-0.56-0.21c-0.33-0.06-0.57-0.1-0.72-0.1c-0.04,0-0.07-0.08-0.07-0.24c-0.01-0.16,0.01-0.27,0.06-0.31
		c1.13,0.05,1.77,0.08,1.93,0.08c0.36,0,0.84-0.03,1.46-0.08c0.21,0.39,0.58,0.96,1.12,1.72c0.54,0.76,1.29,1.76,2.24,3.01
		c0.95,1.25,1.6,2.11,1.94,2.58c0.02-0.13,0.03-0.35,0.03-0.66V48.11z"/>
	<path class="st0" d="M161,45.9l3.4,8.48c0.16,0.43,0.32,0.83,0.49,1.18c0.06,0.16,0.24,0.29,0.52,0.39
		c0.28,0.1,0.49,0.14,0.62,0.14c0.04,0,0.06,0.1,0.06,0.29c0,0.13-0.01,0.21-0.03,0.24c-1.29-0.06-1.97-0.1-2.04-0.1
		c-0.08,0-0.78,0.03-2.1,0.1c-0.04-0.04-0.06-0.14-0.06-0.3c0-0.16,0.02-0.23,0.06-0.23c0.13,0,0.31-0.03,0.53-0.1
		c0.23-0.06,0.36-0.14,0.41-0.23c0.03-0.06,0.05-0.13,0.05-0.21c0-0.22-0.1-0.59-0.31-1.12l-0.57-1.5
		c-0.04-0.04-0.08-0.06-0.11-0.06c-0.34-0.02-0.81-0.03-1.39-0.03c-0.58,0-1.2,0.01-1.84,0.05c-0.06,0-0.1,0.02-0.1,0.06l-0.62,1.51
		c-0.21,0.56-0.31,0.91-0.31,1.05c0,0.14,0.06,0.25,0.18,0.32c0.1,0.06,0.27,0.12,0.51,0.18c0.24,0.05,0.41,0.08,0.49,0.08
		c0.03,0.01,0.05,0.09,0.05,0.23c0,0.14-0.01,0.24-0.03,0.31c-0.05,0-0.31-0.02-0.76-0.05c-0.45-0.03-0.82-0.05-1.1-0.05
		c-0.28,0-0.61,0.01-1,0.04c-0.38,0.03-0.66,0.05-0.82,0.06c-0.04-0.04-0.06-0.12-0.06-0.24c0-0.19,0.01-0.29,0.03-0.29
		c0.13,0,0.34-0.04,0.62-0.14c0.28-0.09,0.47-0.2,0.54-0.32c0.21-0.32,0.41-0.74,0.61-1.26l3.01-7.28c0.25-0.65,0.45-1.04,0.6-1.16
		c0.09-0.08,0.18-0.11,0.28-0.11C160.88,45.82,160.94,45.84,161,45.9z M159.05,51.91c0.38,0.03,0.77,0.05,1.17,0.05
		c0.38,0,0.82-0.02,1.33-0.05l0.03-0.07l-1.23-3.24l-1.33,3.24C159.02,51.89,159.03,51.91,159.05,51.91z"/>
	<path class="st0" d="M168.81,48.13c0-0.65-0.04-1.1-0.13-1.36c-0.04-0.09-0.19-0.17-0.45-0.25c-0.26-0.08-0.45-0.12-0.58-0.12
		c-0.04,0-0.06-0.08-0.06-0.24c0-0.17,0.01-0.27,0.03-0.29c0.05,0,0.35,0.02,0.9,0.05c0.54,0.03,0.96,0.05,1.25,0.05
		c0.09,0,0.78-0.03,2.07-0.1c0.03,0.1,0.05,0.18,0.05,0.26c0,0.18-0.02,0.28-0.06,0.28c-0.1,0-0.29,0.04-0.58,0.13
		c-0.29,0.09-0.45,0.17-0.47,0.24c-0.09,0.33-0.13,0.81-0.13,1.42v6.08c0,0.59,0.05,1.08,0.15,1.46c0.02,0.08,0.17,0.15,0.45,0.23
		c0.27,0.08,0.46,0.12,0.56,0.12c0.04,0,0.06,0.1,0.06,0.31c0,0.09-0.01,0.16-0.03,0.23c-1.29-0.06-1.98-0.1-2.06-0.1
		c-0.22,0-0.44,0-0.68,0.02c-0.24,0.01-0.5,0.02-0.78,0.04c-0.29,0.02-0.51,0.03-0.69,0.04c-0.04-0.04-0.06-0.12-0.06-0.23
		c0-0.21,0.02-0.31,0.06-0.31c0.13,0,0.33-0.04,0.61-0.11c0.27-0.08,0.43-0.16,0.46-0.24c0.09-0.33,0.13-0.79,0.13-1.36V48.13z"/>
	<path class="st0" d="M176.41,48.19v6.08c0,0.53,0.05,0.96,0.15,1.29c0.05,0.14,0.42,0.21,1.1,0.21h0.6c0.84,0,1.48-0.11,1.92-0.34
		c0.17-0.09,0.37-0.27,0.58-0.57c0.22-0.29,0.38-0.62,0.5-0.99c0.01-0.06,0.09-0.1,0.23-0.1c0.24,0,0.39,0.03,0.45,0.1
		c-0.03,0.1-0.11,0.32-0.24,0.66c-0.12,0.34-0.22,0.61-0.28,0.78c-0.07,0.18-0.14,0.4-0.21,0.66c-0.08,0.26-0.12,0.47-0.14,0.63
		c-0.43,0-1.33-0.02-2.68-0.05c-1.36-0.03-2.31-0.04-2.86-0.01l-2.15,0.06c-0.03-0.03-0.05-0.12-0.05-0.26
		c0-0.18,0.02-0.28,0.05-0.28c0.14,0,0.35-0.03,0.62-0.1c0.27-0.07,0.43-0.15,0.47-0.25c0.08-0.23,0.11-0.72,0.11-1.47v-6.12
		c0-0.66-0.04-1.12-0.13-1.38c-0.04-0.09-0.19-0.17-0.45-0.25c-0.26-0.08-0.45-0.12-0.58-0.12c-0.04,0-0.06-0.08-0.06-0.24
		c0-0.17,0.01-0.27,0.03-0.29c0.05,0,0.35,0.02,0.9,0.05c0.54,0.03,0.96,0.05,1.25,0.05c0.09,0,0.78-0.03,2.07-0.1
		c0.03,0.1,0.05,0.18,0.05,0.26c0,0.18-0.02,0.28-0.06,0.28c-0.1,0-0.29,0.04-0.58,0.13c-0.29,0.09-0.45,0.17-0.47,0.24
		C176.45,47.1,176.41,47.58,176.41,48.19z"/>
	<path class="st0" d="M183.51,48.65c0-0.81,0.34-1.49,1.02-2.05c0.68-0.55,1.45-0.83,2.3-0.83c0.3,0,0.57,0.02,0.79,0.05
		c0.23,0.03,0.54,0.1,0.95,0.2c0.41,0.1,0.68,0.17,0.83,0.2c0.13,0.73,0.19,1.56,0.19,2.49c-0.02,0.1-0.09,0.15-0.19,0.15
		c-0.29,0-0.45-0.05-0.47-0.15c-0.06-0.5-0.3-0.98-0.7-1.46c-0.4-0.47-0.88-0.71-1.46-0.71c-0.5,0-0.88,0.14-1.14,0.42
		c-0.26,0.28-0.4,0.66-0.4,1.13c0,0.16,0.02,0.32,0.05,0.46c0.04,0.15,0.11,0.29,0.23,0.43c0.11,0.14,0.21,0.26,0.28,0.35
		c0.07,0.09,0.2,0.21,0.4,0.35c0.2,0.14,0.33,0.24,0.41,0.29c0.07,0.05,0.23,0.16,0.49,0.32c0.25,0.16,0.41,0.25,0.46,0.27
		c0.06,0.05,0.25,0.17,0.54,0.35c0.3,0.18,0.5,0.31,0.62,0.39c0.12,0.08,0.29,0.22,0.52,0.41c0.23,0.19,0.39,0.38,0.49,0.55
		c0.1,0.17,0.2,0.39,0.28,0.66c0.09,0.26,0.13,0.55,0.13,0.85c0,0.86-0.35,1.58-1.04,2.14c-0.7,0.56-1.5,0.84-2.42,0.84
		c-0.65,0-1.64-0.15-2.98-0.45c-0.1-0.39-0.19-0.88-0.27-1.46c-0.08-0.59-0.12-0.97-0.12-1.16c0.01-0.09,0.1-0.13,0.26-0.13
		c0.28,0,0.44,0.04,0.47,0.13c0.04,0.19,0.12,0.41,0.23,0.64c0.11,0.23,0.26,0.48,0.44,0.74c0.19,0.26,0.44,0.48,0.76,0.65
		c0.32,0.17,0.68,0.25,1.08,0.25c0.51,0,0.93-0.15,1.26-0.45c0.33-0.3,0.5-0.75,0.5-1.36c0-0.18-0.04-0.36-0.11-0.53
		c-0.07-0.17-0.15-0.32-0.24-0.44c-0.09-0.12-0.23-0.25-0.41-0.39c-0.18-0.14-0.33-0.25-0.44-0.32c-0.12-0.08-0.29-0.18-0.53-0.32
		c-0.23-0.13-0.4-0.23-0.49-0.28c-0.03-0.03-0.09-0.08-0.18-0.13c-0.31-0.19-0.55-0.35-0.71-0.45c-0.16-0.11-0.37-0.27-0.62-0.48
		c-0.25-0.21-0.44-0.41-0.57-0.59c-0.13-0.18-0.25-0.41-0.35-0.68C183.56,49.25,183.51,48.96,183.51,48.65z"/>
	<path class="st0" d="M209.01,45.96c0.05,0,0.58-0.03,1.59-0.1c0.1,0.3,0.32,0.86,0.66,1.67c0.34,0.82,0.77,1.81,1.27,2.98
		c0.5,1.17,0.9,2.13,1.2,2.89c0,0.02,0.01,0.03,0.05,0.03c0.03,0,0.05-0.02,0.05-0.05c0.95-2.28,1.7-4.15,2.27-5.62l0.58-1.88
		c0.32,0.03,0.77,0.05,1.33,0.05c0.42,0,1.06-0.03,1.92-0.08c0.03,0.04,0.05,0.13,0.05,0.26c0,0.18-0.02,0.28-0.06,0.28h-0.03
		c-0.29,0-0.56,0.09-0.79,0.26c-0.16,0.12-0.23,0.41-0.21,0.87c0.04,0.96,0.12,3.19,0.23,6.68c0.01,0.58,0.1,1.08,0.26,1.49
		c0.04,0.1,0.19,0.19,0.45,0.27c0.26,0.08,0.44,0.12,0.55,0.12c0.04,0,0.06,0.1,0.06,0.29c0,0.1-0.01,0.18-0.03,0.24
		c-1.29-0.06-1.96-0.1-1.99-0.1c-0.22,0-0.44,0-0.68,0.02c-0.24,0.01-0.5,0.02-0.78,0.04c-0.29,0.02-0.51,0.03-0.69,0.04
		c-0.04-0.04-0.06-0.12-0.06-0.24c0-0.19,0.02-0.29,0.06-0.29c0.12,0,0.29-0.03,0.52-0.1c0.23-0.07,0.38-0.15,0.45-0.23
		c0.11-0.14,0.16-0.33,0.16-0.57v-0.91l-0.16-4.92c-0.04-0.67-0.11-1-0.19-1c-0.03,0-0.06,0.03-0.08,0.1l-3.09,7.54
		c-0.18,0.41-0.39,0.61-0.62,0.61c-0.04,0-0.1-0.01-0.16-0.03l-3.62-8.7c-0.08,2.69-0.16,5.09-0.26,7.22c0,0.24,0.02,0.41,0.05,0.5
		c0.05,0.12,0.27,0.23,0.65,0.34c0.38,0.11,0.63,0.16,0.76,0.16c0.04,0,0.06,0.1,0.06,0.29c0,0.1-0.01,0.18-0.03,0.24
		c-1.29-0.06-1.97-0.1-2.04-0.1c-0.29,0-0.68,0.02-1.16,0.05c-0.48,0.03-0.77,0.05-0.88,0.05c-0.04-0.04-0.06-0.13-0.06-0.26
		c0-0.18,0.02-0.28,0.06-0.28c0.17,0,0.44-0.05,0.81-0.16c0.37-0.11,0.58-0.25,0.63-0.42c0.1-0.19,0.16-0.55,0.18-1.08
		c0.02-0.82,0.05-1.79,0.09-2.9c0.04-1.12,0.07-2.07,0.1-2.86c0.03-0.79,0.04-1.28,0.04-1.47c0-0.21-0.02-0.36-0.05-0.45
		c-0.03-0.09-0.21-0.17-0.54-0.24c-0.33-0.08-0.56-0.11-0.7-0.11c-0.04,0-0.07-0.09-0.07-0.27c0-0.12,0.02-0.2,0.07-0.24
		c0.16,0.01,0.44,0.03,0.83,0.06C208.39,45.95,208.73,45.96,209.01,45.96z"/>
	<path class="st0" d="M227.78,45.9l3.4,8.48c0.16,0.43,0.32,0.83,0.49,1.18c0.06,0.16,0.24,0.29,0.52,0.39
		c0.28,0.1,0.49,0.14,0.61,0.14c0.04,0,0.07,0.1,0.07,0.29c0,0.13-0.01,0.21-0.03,0.24c-1.29-0.06-1.97-0.1-2.04-0.1
		c-0.08,0-0.78,0.03-2.1,0.1c-0.04-0.04-0.06-0.14-0.06-0.3c0-0.16,0.02-0.23,0.06-0.23c0.13,0,0.31-0.03,0.53-0.1
		c0.23-0.06,0.36-0.14,0.41-0.23c0.03-0.06,0.05-0.13,0.05-0.21c0-0.22-0.1-0.59-0.31-1.12l-0.57-1.5
		c-0.04-0.04-0.08-0.06-0.11-0.06c-0.35-0.02-0.81-0.03-1.39-0.03c-0.58,0-1.2,0.01-1.84,0.05c-0.06,0-0.1,0.02-0.1,0.06l-0.62,1.51
		c-0.21,0.56-0.31,0.91-0.31,1.05c0,0.14,0.06,0.25,0.18,0.32c0.1,0.06,0.27,0.12,0.51,0.18c0.24,0.05,0.41,0.08,0.5,0.08
		c0.03,0.01,0.05,0.09,0.05,0.23c0,0.14-0.01,0.24-0.03,0.31c-0.05,0-0.31-0.02-0.76-0.05c-0.45-0.03-0.82-0.05-1.1-0.05
		c-0.28,0-0.61,0.01-1,0.04c-0.38,0.03-0.66,0.05-0.82,0.06c-0.04-0.04-0.06-0.12-0.06-0.24c0-0.19,0.01-0.29,0.03-0.29
		c0.13,0,0.34-0.04,0.62-0.14c0.29-0.09,0.47-0.2,0.54-0.32c0.21-0.32,0.41-0.74,0.62-1.26l3.01-7.28c0.25-0.65,0.45-1.04,0.6-1.16
		c0.09-0.08,0.18-0.11,0.28-0.11C227.66,45.82,227.72,45.84,227.78,45.9z M225.84,51.91c0.38,0.03,0.77,0.05,1.17,0.05
		c0.38,0,0.82-0.02,1.33-0.05l0.03-0.07l-1.23-3.24l-1.33,3.24C225.8,51.89,225.81,51.91,225.84,51.91z"/>
	<path class="st0" d="M237.42,48.19v2.61c0,0.03,0.01,0.06,0.02,0.07c0.02,0.02,0.04,0.03,0.06,0.04h0.02h0.13
		c0.23,0,0.51-0.18,0.84-0.55c0.86-0.93,1.81-2.01,2.85-3.24c0.17-0.2,0.26-0.37,0.26-0.49c0-0.11-0.12-0.18-0.36-0.23
		c-0.24-0.04-0.44-0.06-0.6-0.06c-0.04,0-0.07-0.06-0.08-0.19c-0.01-0.12-0.01-0.23,0.02-0.3c1.2,0.06,1.85,0.1,1.96,0.1
		c0.2,0,0.41,0,0.61-0.02c0.2-0.01,0.42-0.02,0.65-0.04c0.23-0.02,0.42-0.03,0.57-0.04c0.02,0.04,0.03,0.14,0.02,0.28
		c-0.01,0.14-0.02,0.21-0.06,0.21c-0.75,0.09-1.3,0.31-1.63,0.68l-3.01,3.43c-0.12,0.14-0.11,0.29,0.03,0.45l3.79,4.5
		c0.19,0.24,0.45,0.41,0.78,0.52c0.33,0.11,0.57,0.16,0.72,0.16c0.05,0,0.08,0.1,0.08,0.31c0,0.09-0.02,0.16-0.05,0.23
		c-1.29-0.06-2.03-0.1-2.22-0.1c-0.35,0-0.76,0.01-1.24,0.04c-0.48,0.03-0.82,0.05-1.01,0.06c-0.04-0.04-0.06-0.14-0.06-0.3
		c0-0.16,0.02-0.23,0.06-0.23c0.12,0,0.27-0.04,0.45-0.11c0.18-0.08,0.28-0.16,0.28-0.24c0-0.05-0.15-0.28-0.45-0.68
		c-0.3-0.4-0.72-0.91-1.25-1.53c-0.53-0.62-1.05-1.2-1.57-1.74c-0.04-0.04-0.16-0.06-0.36-0.06c-0.17,0-0.26,0.06-0.26,0.19v2.39
		c0,0.57,0.05,1.05,0.14,1.42c0.02,0.08,0.17,0.15,0.45,0.23c0.27,0.08,0.46,0.12,0.56,0.12c0.04,0,0.06,0.1,0.06,0.31
		c0,0.09-0.01,0.16-0.03,0.23c-1.29-0.06-1.98-0.1-2.05-0.1c-0.22,0-0.44,0-0.68,0.02c-0.24,0.01-0.5,0.02-0.79,0.04
		c-0.29,0.02-0.51,0.03-0.69,0.04c-0.04-0.04-0.07-0.12-0.07-0.23c0-0.21,0.02-0.31,0.07-0.31c0.13,0,0.33-0.04,0.61-0.11
		c0.27-0.08,0.43-0.16,0.46-0.24c0.09-0.33,0.13-0.79,0.13-1.36v-6.25c0-0.65-0.04-1.1-0.13-1.36c-0.04-0.09-0.19-0.17-0.45-0.25
		c-0.26-0.08-0.45-0.12-0.58-0.12c-0.04,0-0.06-0.08-0.06-0.24c0-0.17,0.01-0.27,0.03-0.29c0.05,0,0.35,0.02,0.9,0.05
		c0.54,0.03,0.96,0.05,1.25,0.05c0.09,0,0.78-0.03,2.07-0.1c0.03,0.1,0.05,0.18,0.05,0.26c0,0.18-0.02,0.28-0.06,0.28
		c-0.1,0-0.29,0.04-0.58,0.13c-0.29,0.09-0.45,0.17-0.47,0.24C237.46,47.1,237.42,47.58,237.42,48.19z"/>
	<path class="st0" d="M248.76,45.94c0.47,0,1.31-0.02,2.51-0.06c1.2-0.04,2.1-0.06,2.72-0.06c0.04,0.32,0.13,0.78,0.26,1.35
		c0.13,0.58,0.2,0.89,0.21,0.95c-0.05,0.05-0.17,0.08-0.34,0.08c-0.12,0-0.19-0.04-0.23-0.11c-0.36-0.96-1.05-1.44-2.07-1.44h-0.84
		c-0.8,0-1.21,0.07-1.23,0.21c-0.07,0.3-0.1,0.74-0.1,1.31v2.54c0,0.07,0.24,0.1,0.71,0.1h0.84c0.01,0,0.03,0,0.06,0
		c0.63,0,1-0.03,1.12-0.08c0.12-0.05,0.21-0.24,0.27-0.57c0.03-0.16,0.06-0.3,0.1-0.4c0.01-0.08,0.1-0.11,0.26-0.11
		c0.15,0,0.25,0.03,0.31,0.08v3.06c-0.04,0.04-0.15,0.06-0.31,0.06c-0.14,0-0.23-0.04-0.26-0.13c-0.08-0.29-0.14-0.51-0.2-0.65
		c-0.06-0.14-0.1-0.22-0.11-0.23c-0.02-0.01-0.06-0.04-0.14-0.1c-0.14-0.09-0.64-0.13-1.49-0.13c-0.78,0-1.17,0.04-1.17,0.13v2.51
		c0,0.59,0.05,1.03,0.15,1.31c0.05,0.14,0.42,0.21,1.1,0.21h0.6c0.84,0,1.48-0.11,1.93-0.34c0.17-0.09,0.37-0.27,0.58-0.57
		c0.22-0.29,0.38-0.62,0.5-0.99c0.01-0.06,0.09-0.1,0.23-0.1c0.24,0,0.39,0.03,0.45,0.1c-0.03,0.1-0.11,0.32-0.23,0.66
		c-0.12,0.34-0.22,0.61-0.28,0.78c-0.07,0.18-0.13,0.4-0.21,0.66c-0.08,0.26-0.12,0.47-0.15,0.63c-0.43,0-1.32-0.02-2.68-0.05
		c-1.35-0.03-2.31-0.04-2.86-0.01l-2.15,0.06c-0.03-0.03-0.05-0.12-0.05-0.26c0-0.18,0.02-0.28,0.05-0.28c0.14,0,0.34-0.03,0.61-0.1
		c0.27-0.07,0.43-0.15,0.47-0.25c0.08-0.23,0.11-0.72,0.11-1.47v-6.12c0-0.65-0.04-1.09-0.11-1.33c-0.03-0.12-0.18-0.22-0.45-0.29
		c-0.27-0.08-0.49-0.11-0.65-0.11c-0.04,0-0.06-0.08-0.06-0.24c0-0.15,0.02-0.25,0.06-0.29C247.32,45.92,248.03,45.94,248.76,45.94z
		"/>
	<path class="st0" d="M262.65,45.96c0.19,0,0.88-0.03,2.07-0.1c0.02,0.09,0.03,0.17,0.03,0.26c0,0.18-0.02,0.28-0.06,0.28
		c-0.1,0-0.29,0.04-0.58,0.12c-0.29,0.08-0.44,0.17-0.45,0.25c-0.09,0.32-0.13,0.8-0.13,1.42v3.72c0,1.11,0.24,2,0.72,2.66
		c0.48,0.66,1.15,1,2,1c0.83,0,1.5-0.27,2-0.82c0.5-0.54,0.75-1.45,0.75-2.71V48.1c0-0.66-0.05-1.09-0.16-1.29
		c-0.06-0.1-0.26-0.19-0.57-0.28c-0.32-0.09-0.55-0.14-0.69-0.14c-0.04,0-0.07-0.08-0.07-0.23c-0.01-0.15,0.01-0.25,0.04-0.29
		c1.16,0.08,1.84,0.11,2.04,0.11c0.27,0,0.63-0.02,1.08-0.06c0.45-0.04,0.73-0.06,0.83-0.06c0.02,0.08,0.03,0.16,0.03,0.26
		c0,0.17-0.02,0.26-0.06,0.26c-0.15,0-0.38,0.04-0.7,0.12c-0.31,0.08-0.52,0.19-0.61,0.33c-0.12,0.27-0.18,0.72-0.18,1.34v3.8
		c0,0.84-0.1,1.57-0.31,2.18c-0.21,0.61-0.5,1.09-0.87,1.44c-0.38,0.35-0.81,0.61-1.29,0.77c-0.48,0.16-1.03,0.24-1.64,0.24
		c-1.29,0-2.31-0.39-3.06-1.17c-0.74-0.78-1.12-2.04-1.12-3.78v-3.53c0-0.69-0.04-1.14-0.13-1.36c-0.04-0.09-0.19-0.17-0.45-0.25
		c-0.26-0.08-0.45-0.12-0.58-0.12c-0.04,0-0.06-0.08-0.06-0.24c0-0.16,0.02-0.26,0.05-0.29C261.87,45.93,262.58,45.96,262.65,45.96z
		"/>
	<path class="st0" d="M275.1,45.93c0.31,0,0.67-0.01,1.08-0.02c0.41-0.02,0.78-0.02,1.1-0.02c0.32,0,0.64,0.03,0.96,0.09
		c0.32,0.06,0.64,0.16,0.95,0.31c0.32,0.15,0.6,0.34,0.84,0.56c0.24,0.22,0.44,0.51,0.6,0.85c0.16,0.35,0.23,0.73,0.23,1.15
		c0,0.51-0.13,1-0.4,1.49c-0.27,0.49-0.66,0.9-1.2,1.24c-0.54,0.34-1.14,0.51-1.8,0.51c-0.23,0-0.45-0.04-0.68-0.12
		c-0.23-0.08-0.38-0.18-0.47-0.3c-0.02-0.02-0.04-0.08-0.06-0.16c-0.02-0.09-0.02-0.17-0.01-0.24c0.01-0.08,0.03-0.11,0.05-0.11
		c0.25,0.11,0.55,0.16,0.91,0.16c0.52,0,0.93-0.21,1.23-0.64c0.3-0.42,0.45-0.96,0.45-1.61c0-0.72-0.14-1.29-0.44-1.72
		c-0.29-0.42-0.74-0.63-1.34-0.63c-0.45,0-0.77,0.04-0.94,0.11c-0.13,0.06-0.19,0.63-0.19,1.68v5.78c0,0.65,0.04,1.11,0.13,1.38
		c0.03,0.13,0.21,0.23,0.54,0.31c0.33,0.08,0.57,0.12,0.72,0.12c0.04,0,0.07,0.09,0.07,0.28c0,0.12-0.01,0.21-0.03,0.27
		c-1.19-0.07-1.95-0.1-2.3-0.1c-0.29,0-0.62,0.01-0.98,0.02c-0.36,0.02-0.65,0.03-0.87,0.04l-0.32,0.03
		c-0.03-0.04-0.05-0.14-0.05-0.29c0-0.17,0.01-0.26,0.05-0.26c0.14,0,0.35-0.03,0.62-0.1c0.28-0.07,0.43-0.15,0.48-0.25
		c0.07-0.19,0.1-0.68,0.1-1.47v-6.12c0-0.62-0.03-1.06-0.1-1.33c-0.03-0.09-0.19-0.18-0.48-0.27c-0.29-0.09-0.49-0.14-0.62-0.14
		c-0.04,0-0.07-0.08-0.07-0.24c0-0.16,0.02-0.26,0.07-0.29C274.08,45.91,274.8,45.93,275.1,45.93z"/>
	<circle class="st0" cx="74.13" cy="52.31" r="1.98"/>
	<circle class="st0" cx="134.12" cy="52.31" r="1.98"/>
	<circle class="st0" cx="198.33" cy="52.31" r="1.98"/>
</g>
</svg>
