<?xml version="1.0" encoding="utf-8"?>
<!-- Generator: Adobe Illustrator 26.0.3, SVG Export Plug-In . SVG Version: 6.00 Build 0)  -->
<svg version="1.1" id="Ebene_1" xmlns="http://www.w3.org/2000/svg" xmlns:xlink="http://www.w3.org/1999/xlink" x="0px" y="0px"
	 viewBox="0 0 285.7 97.99" style="enable-background:new 0 0 285.7 97.99;" xml:space="preserve">
<style type="text/css">
	.st0{fill:#D92F89;}
	.st1{fill:#E96E24;}
</style>
<g>
	<g>
		<path class="st0" d="M8.68,64.82L6.21,68.3H0V2.64L11.09,0v22.05c2.93-1.79,6.12-2.69,9.58-2.69c6.88,0,12.44,2.18,16.66,6.54
			c4.22,4.36,6.33,9.95,6.33,16.76c0,7.9-2.13,14.15-6.39,18.74c-4.26,4.6-10.03,6.89-17.31,6.89C15.58,68.3,11.82,67.14,8.68,64.82
			z M11.09,31.47v24.64c1.61,1.91,3.79,2.87,6.54,2.87c5.3,0,9.05-1.26,11.26-3.79c2.21-2.52,3.32-6.56,3.32-12.12
			c0-9.58-4.57-14.37-13.7-14.37C15.26,28.69,12.79,29.62,11.09,31.47z"/>
		<path class="st0" d="M95.77,47.18H62.02c0.2,3.79,1.49,6.72,3.88,8.83c2.38,2.1,5.58,3.14,9.61,3.14c5.03,0,8.85-1.35,11.46-4.05
			l4.27,8.45c-3.87,3.17-9.65,4.75-17.34,4.75c-7.19,0-12.87-2.11-17.05-6.32c-4.18-4.21-6.27-10.09-6.27-17.64
			c0-7.43,2.3-13.45,6.89-18.06c4.6-4.61,10.11-6.92,16.54-6.92c6.84,0,12.33,2.04,16.48,6.12c4.14,4.08,6.21,9.27,6.21,15.58
			C96.7,42.41,96.38,44.45,95.77,47.18z M62.54,38.9H85.6c-0.76-6.92-4.56-10.39-11.4-10.39C67.95,28.52,64.06,31.98,62.54,38.9z"/>
		<path class="st0" d="M132.22,62.67c-1,1.66-2.75,3.01-5.23,4.06c-2.49,1.05-5.08,1.58-7.79,1.58c-5.1,0-9.1-1.27-12.01-3.81
			c-2.92-2.54-4.37-6.14-4.37-10.8c0-5.46,2.05-9.73,6.14-12.81c4.1-3.08,9.91-4.62,17.46-4.62c1.29,0,2.81,0.24,4.58,0.7
			c0-5.63-3.51-8.45-10.51-8.45c-4.13,0-7.58,0.76-10.36,2.29l-2.37-8.63c3.79-1.88,8.29-2.82,13.51-2.82
			c7.18,0,12.45,1.64,15.8,4.91c3.34,3.27,5.02,9.47,5.02,18.59v10.08c0,6.28,1.26,10.23,3.78,11.84c-0.91,1.6-1.93,2.59-3.04,2.96
			c-1.12,0.37-2.38,0.55-3.82,0.55c-1.58,0-3-0.59-4.25-1.77C133.5,65.35,132.65,64.06,132.22,62.67z M131.17,45.24
			c-1.88-0.35-3.29-0.53-4.23-0.53c-8.68,0-13.02,2.83-13.02,8.49c0,4.2,2.45,6.3,7.35,6.3c6.6,0,9.91-3.29,9.91-9.87V45.24z"/>
		<path class="st0" d="M184.9,67.42v-3.96c-1.55,1.32-3.7,2.46-6.44,3.41c-2.74,0.95-5.25,1.43-7.54,1.43
			c-10.98,0-16.47-5.81-16.47-17.45V20.24h11.09v29.82c0,6.06,2.71,9.08,8.14,9.08c2.49,0,4.81-0.64,6.95-1.94
			c2.14-1.29,3.56-2.8,4.27-4.5V20.24h11.09v47.18H184.9z"/>
		<path class="st0" d="M209.73,29.05h-5.46v-8.8h5.46v-9.66l11.09-4.07v13.73h13.02v8.8h-13.02v20.67c0,3.38,0.54,5.77,1.6,7.16
			c1.06,1.4,2.92,2.1,5.58,2.1c2.66,0,5.13-0.71,7.44-2.12v10.12c-2.57,0.88-6.23,1.32-10.99,1.32c-4.73,0-8.36-1.33-10.9-3.99
			c-2.54-2.67-3.81-6.45-3.81-11.36V29.05z"/>
		<path class="st0" d="M264.92,74.98c-1.17,3.14-3.68,5.75-7.52,7.82c-3.84,2.07-8.32,3.1-13.43,3.1v-9.68
			c8.45,0,12.68-2.13,12.68-6.39c0-2.82-1.18-7.14-3.53-12.96l-14.78-36.63h11.44l12.85,32.62l11.62-32.62h11.44L264.92,74.98z"/>
	</g>
	<g>
		<path class="st1" d="M9.65,97.7v-9.65c0-1.15-0.28-2.04-0.85-2.71c-0.57-0.66-1.36-0.99-2.38-0.99c-0.66,0-1.32,0.2-1.99,0.58
			c-0.67,0.38-1.18,0.83-1.53,1.36V97.7H0.19V76.02h2.72v8.01c0.36-0.57,0.95-1.04,1.76-1.41c0.81-0.38,1.64-0.57,2.5-0.57
			c1.62,0,2.9,0.53,3.82,1.6c0.92,1.07,1.38,2.54,1.38,4.39v9.65H9.65z"/>
		<path class="st1" d="M32.52,95.93c-1.1,1.38-2.76,2.06-5.02,2.06c-1.2,0-2.25-0.44-3.14-1.31c-0.88-0.88-1.33-1.96-1.33-3.27
			c0-1.56,0.68-2.88,2.05-3.96c1.37-1.07,3.11-1.61,5.22-1.61c0.58,0,1.23,0.12,1.96,0.36c0-2.47-1.12-3.7-3.34-3.7
			c-1.7,0-3.02,0.45-3.93,1.35l-1.15-2.27c0.51-0.41,1.23-0.77,2.15-1.07c0.91-0.3,1.79-0.45,2.62-0.45c2.23,0,3.84,0.5,4.85,1.52
			c1.01,1.01,1.51,2.62,1.51,4.82v5.5c0,1.34,0.4,2.24,1.2,2.7v1.37c-1.1,0-1.93-0.16-2.47-0.47
			C33.15,97.17,32.76,96.65,32.52,95.93z M32.27,90.14c-0.86-0.18-1.47-0.27-1.82-0.27c-1.38,0-2.51,0.36-3.39,1.07
			c-0.87,0.71-1.31,1.55-1.31,2.51c0,1.59,0.95,2.39,2.83,2.39c1.39,0,2.61-0.66,3.68-1.97V90.14z"/>
		<path class="st1" d="M56.35,97.7v-8.94c0-1.63-0.25-2.77-0.74-3.43c-0.5-0.65-1.32-0.98-2.48-0.98c-0.63,0-1.28,0.18-1.96,0.56
			c-0.68,0.37-1.2,0.83-1.57,1.38V97.7h-2.71V82.32h1.87l0.86,1.98c0.89-1.5,2.36-2.25,4.41-2.25c3.36,0,5.05,2.04,5.05,6.14v9.51
			H56.35z"/>
		<path class="st1" d="M80.27,97.7v-1.14c-0.95,0.93-2.32,1.4-4.13,1.4c-1.92,0-3.48-0.69-4.68-2.06c-1.19-1.38-1.79-3.21-1.79-5.5
			c0-2.3,0.69-4.27,2.07-5.9c1.38-1.63,3.02-2.45,4.92-2.45c1.58,0,2.79,0.37,3.61,1.12v-7.15h2.71V97.7H80.27z M80.27,85.9
			c-0.68-1.03-1.63-1.55-2.82-1.55c-1.47,0-2.65,0.54-3.56,1.63c-0.9,1.09-1.35,2.48-1.35,4.16c0,3.7,1.68,5.54,5.05,5.54
			c0.43,0,0.95-0.13,1.55-0.41c0.61-0.27,0.98-0.56,1.14-0.87V85.9z"/>
		<path class="st1" d="M93.53,96.79l0.95-2.59c1.52,1,2.74,1.49,3.66,1.49c1.68,0,2.52-0.7,2.52-2.12c0-1.01-0.81-1.89-2.43-2.62
			c-1.25-0.57-2.09-1.01-2.53-1.3c-0.43-0.3-0.81-0.63-1.13-1.01c-0.32-0.38-0.56-0.78-0.72-1.21c-0.16-0.43-0.24-0.89-0.24-1.37
			c0-1.27,0.46-2.25,1.37-2.96c0.92-0.71,2.11-1.06,3.59-1.06c1.12,0,2.53,0.35,4.23,1.06l-0.77,2.52
			c-1.08-0.85-2.16-1.28-3.25-1.28c-0.65,0-1.2,0.15-1.65,0.46c-0.44,0.3-0.66,0.7-0.66,1.17c0,0.98,0.56,1.73,1.68,2.23l1.95,0.89
			c1.19,0.54,2.06,1.17,2.61,1.86c0.54,0.7,0.82,1.58,0.82,2.63c0,1.38-0.48,2.46-1.45,3.23c-0.96,0.78-2.29,1.17-4,1.17
			C96.46,97.99,94.95,97.59,93.53,96.79z"/>
		<path class="st1" d="M126.62,96.98c-1.39,0.68-3.06,1.02-5.02,1.02c-2,0-3.55-0.59-4.63-1.77c-1.09-1.18-1.64-2.85-1.64-5.02
			c0-1.11,0.17-2.07,0.5-2.88c0.33-0.81,0.94-1.66,1.83-2.52c-1.36-1.34-2.03-2.73-2.03-4.17c0-1.47,0.55-2.72,1.66-3.75
			c1.11-1.04,2.58-1.56,4.44-1.56c1.97,0,3.49,0.43,4.56,1.31l-1.19,2.21c-1.09-0.91-2.07-1.37-2.93-1.37
			c-2.54,0-3.81,1.14-3.81,3.44c0,1.25,0.55,2.3,1.67,3.16h5.34v-2.62l2.71-1.05v3.7h3.58v2.3h-3.58v4.73c0,1.32,0.18,2.22,0.53,2.7
			c0.35,0.48,0.96,0.72,1.83,0.72c0.51,0,1.12-0.17,1.82-0.51l0.38,2.53c-1,0.28-2.15,0.42-3.44,0.42
			C128.32,97.99,127.45,97.65,126.62,96.98z M125.37,93.18V87.4h-5.79c-0.92,1.17-1.38,2.39-1.38,3.67c0,2.99,1.46,4.48,4.39,4.48
			c1.3,0,2.28-0.24,2.93-0.72C125.42,94.39,125.37,93.84,125.37,93.18z"/>
		<path class="st1" d="M154.29,97.7v-8.94c0-1.63-0.25-2.77-0.74-3.43c-0.5-0.65-1.32-0.98-2.48-0.98c-0.62,0-1.27,0.18-1.96,0.56
			c-0.68,0.37-1.2,0.83-1.56,1.38V97.7h-2.72V82.32h1.86l0.87,1.98c0.89-1.5,2.36-2.25,4.4-2.25c3.37,0,5.04,2.04,5.04,6.14v9.51
			H154.29z"/>
		<path class="st1" d="M177.17,95.93c-1.09,1.38-2.76,2.06-5.02,2.06c-1.2,0-2.25-0.44-3.14-1.31c-0.87-0.88-1.33-1.96-1.33-3.27
			c0-1.56,0.69-2.88,2.05-3.96c1.36-1.07,3.1-1.61,5.22-1.61c0.58,0,1.23,0.12,1.96,0.36c0-2.47-1.12-3.7-3.32-3.7
			c-1.72,0-3.03,0.45-3.95,1.35l-1.15-2.27c0.52-0.41,1.23-0.77,2.15-1.07c0.91-0.3,1.79-0.45,2.62-0.45c2.22,0,3.84,0.5,4.85,1.52
			c1.01,1.01,1.51,2.62,1.51,4.82v5.5c0,1.34,0.4,2.24,1.2,2.7v1.37c-1.11,0-1.93-0.16-2.47-0.47
			C177.8,97.17,177.4,96.65,177.17,95.93z M176.91,90.14c-0.86-0.18-1.47-0.27-1.82-0.27c-1.38,0-2.5,0.36-3.38,1.07
			c-0.87,0.71-1.31,1.55-1.31,2.51c0,1.59,0.95,2.39,2.84,2.39c1.39,0,2.61-0.66,3.67-1.97V90.14z"/>
		<path class="st1" d="M192.87,97.7V84.62h-2.12v-2.3h4.84V97.7H192.87z M194.34,76.5c0.47,0,0.88,0.17,1.2,0.5
			c0.33,0.33,0.5,0.72,0.5,1.18c0,0.47-0.17,0.87-0.5,1.2c-0.32,0.34-0.74,0.5-1.2,0.5c-0.46,0-0.85-0.16-1.18-0.5
			c-0.34-0.33-0.5-0.72-0.5-1.2c0-0.46,0.16-0.86,0.49-1.19C193.47,76.67,193.87,76.5,194.34,76.5z"/>
		<path class="st1" d="M207.71,93.36V76.02h2.72v16.86c0,0.83,0.23,1.47,0.71,1.95c0.47,0.47,1.09,0.71,1.86,0.71v2.45
			C209.48,97.99,207.71,96.45,207.71,93.36z"/>
		<path class="st1" d="M222.79,96.79l0.96-2.59c1.52,1,2.74,1.49,3.66,1.49c1.68,0,2.51-0.7,2.51-2.12c0-1.01-0.8-1.89-2.43-2.62
			c-1.24-0.57-2.09-1.01-2.53-1.3c-0.43-0.3-0.8-0.63-1.13-1.01c-0.32-0.38-0.56-0.78-0.72-1.21c-0.16-0.43-0.24-0.89-0.24-1.37
			c0-1.27,0.46-2.25,1.37-2.96c0.92-0.71,2.12-1.06,3.59-1.06c1.13,0,2.54,0.35,4.23,1.06l-0.77,2.52
			c-1.08-0.85-2.17-1.28-3.25-1.28c-0.65,0-1.2,0.15-1.64,0.46c-0.44,0.3-0.67,0.7-0.67,1.17c0,0.98,0.56,1.73,1.68,2.23l1.95,0.89
			c1.2,0.54,2.06,1.17,2.6,1.86c0.54,0.7,0.81,1.58,0.81,2.63c0,1.38-0.47,2.46-1.43,3.23c-0.96,0.78-2.3,1.17-4.01,1.17
			C225.73,97.99,224.22,97.59,222.79,96.79z"/>
	</g>
</g>
</svg>
