<?xml version="1.0" encoding="utf-8"?>
<!-- Generator: Adobe Illustrator 26.0.3, SVG Export Plug-In . SVG Version: 6.00 Build 0)  -->
<svg version="1.1" id="Ebene_1" xmlns="http://www.w3.org/2000/svg" xmlns:xlink="http://www.w3.org/1999/xlink" x="0px" y="0px"
	 viewBox="0 0 164.1 25.48" style="enable-background:new 0 0 164.1 25.48;" xml:space="preserve">
<style type="text/css">
	.st0{fill:#85754E;}
</style>
<g>
	<g>
		<g>
			<path d="M24.66,7.89h2.78c0.63,0,1.13,0.1,1.51,0.3c0.37,0.2,0.67,0.5,0.89,0.89c0.22,0.39,0.33,0.86,0.33,1.42
				c0,0.38-0.06,0.72-0.17,1.03c-0.11,0.3-0.28,0.57-0.5,0.82c-0.22,0.24-0.46,0.42-0.72,0.55c-0.19,0.09-0.47,0.17-0.82,0.22
				c-0.35,0.06-0.64,0.09-0.85,0.09h-2.45v-0.73h0.18c0.16,0,0.26-0.01,0.31-0.04s0.09-0.07,0.12-0.13
				c0.02-0.05,0.03-0.15,0.03-0.32v-2.9c0-0.16-0.01-0.27-0.03-0.31c-0.02-0.05-0.06-0.08-0.11-0.11C25.11,8.64,25,8.63,24.84,8.63
				h-0.18V7.89z M26.6,8.74v3.3c0,0.11,0.01,0.18,0.02,0.21c0.02,0.04,0.05,0.06,0.09,0.08c0.04,0.01,0.13,0.02,0.28,0.02
				c0.42,0,0.74-0.06,0.98-0.19c0.23-0.13,0.42-0.33,0.57-0.62s0.22-0.62,0.22-1.01c0-0.39-0.07-0.72-0.2-1.01
				c-0.14-0.29-0.3-0.49-0.5-0.6c-0.2-0.12-0.49-0.18-0.86-0.18H26.6z"/>
			<path d="M32.52,9.31v2.81c0,0.13,0.01,0.22,0.02,0.25s0.04,0.05,0.08,0.07c0.04,0.02,0.13,0.02,0.26,0.02h0.21v0.73h-2.35v-0.73
				h0.2c0.13,0,0.22-0.01,0.25-0.02s0.06-0.04,0.08-0.07c0.02-0.03,0.03-0.1,0.03-0.2v-1.81h-0.56V9.64
				c0.2-0.01,0.39-0.03,0.58-0.06c0.18-0.03,0.35-0.07,0.49-0.12c0.09-0.03,0.21-0.08,0.35-0.15H32.52z M31.91,7.61
				c0.19,0,0.36,0.07,0.49,0.2s0.2,0.3,0.2,0.49c0,0.2-0.07,0.36-0.2,0.5c-0.14,0.14-0.3,0.2-0.49,0.2c-0.19,0-0.36-0.07-0.49-0.2
				c-0.14-0.13-0.2-0.3-0.2-0.49c0-0.19,0.07-0.35,0.21-0.49C31.56,7.68,31.72,7.61,31.91,7.61z"/>
			<path d="M35.18,9.31v0.42c0.29-0.18,0.51-0.29,0.66-0.34c0.15-0.05,0.32-0.08,0.49-0.08c0.44,0,0.81,0.16,1.08,0.49
				c0.32,0.38,0.48,0.85,0.48,1.44c0,0.56-0.14,1.02-0.42,1.4c-0.32,0.43-0.75,0.65-1.29,0.65c-0.17,0-0.32-0.02-0.45-0.06
				s-0.27-0.11-0.42-0.21v0.77c0,0.15,0.01,0.24,0.02,0.27c0.02,0.04,0.05,0.07,0.09,0.08c0.04,0.02,0.14,0.02,0.29,0.02h0.18v0.73
				h-2.36v-0.73h0.13c0.17,0,0.28-0.01,0.32-0.02s0.07-0.04,0.09-0.09c0.02-0.04,0.03-0.13,0.03-0.27v-3.41h-0.56V9.63
				c0.27-0.03,0.5-0.07,0.7-0.12c0.19-0.05,0.39-0.12,0.58-0.2H35.18z M35.32,10.5v1.24c0,0.2,0.02,0.33,0.06,0.42
				c0.04,0.08,0.1,0.15,0.19,0.2c0.09,0.05,0.19,0.08,0.31,0.08c0.21,0,0.38-0.09,0.51-0.29c0.14-0.19,0.2-0.48,0.2-0.87
				c0-0.36-0.06-0.63-0.18-0.8c-0.12-0.17-0.26-0.26-0.44-0.26C35.78,10.22,35.56,10.31,35.32,10.5z"/>
			<path d="M40.23,7.61v4.45c0,0.15,0.01,0.24,0.02,0.27c0.02,0.05,0.06,0.09,0.12,0.11c0.04,0.02,0.14,0.02,0.31,0.02h0.13v0.73
				h-2.35v-0.73h0.14c0.15,0,0.25-0.01,0.29-0.03c0.04-0.02,0.07-0.05,0.1-0.09c0.02-0.04,0.03-0.14,0.03-0.28V8.67h-0.56V7.94
				c0.45-0.03,0.92-0.14,1.41-0.32H40.23z"/>
			<path d="M42.21,11.84c0.19,0,0.36,0.07,0.5,0.21c0.14,0.14,0.21,0.3,0.21,0.5s-0.07,0.36-0.21,0.5c-0.14,0.14-0.31,0.21-0.5,0.21
				c-0.2,0-0.37-0.07-0.5-0.21c-0.14-0.14-0.21-0.3-0.21-0.5s0.07-0.36,0.21-0.5C41.84,11.91,42.01,11.84,42.21,11.84z"/>
			<path d="M46.49,7.89h2.81c0.36,0,0.65,0.04,0.89,0.11s0.44,0.18,0.61,0.33c0.17,0.15,0.3,0.32,0.39,0.52
				c0.09,0.2,0.14,0.42,0.14,0.64c0,0.45-0.17,0.83-0.52,1.14s-0.83,0.46-1.44,0.46h-0.91v0.99c0,0.12,0.01,0.2,0.03,0.24
				c0.02,0.05,0.06,0.08,0.1,0.11c0.05,0.02,0.13,0.03,0.24,0.03h0.27v0.73h-2.59v-0.73h0.18c0.16,0,0.26-0.01,0.31-0.03
				c0.05-0.02,0.09-0.06,0.11-0.11c0.02-0.05,0.03-0.15,0.03-0.31V9.1c0-0.16-0.01-0.27-0.03-0.32S47.04,8.69,47,8.66
				c-0.04-0.02-0.13-0.04-0.25-0.04h-0.26V7.89z M48.44,8.76v1.51h0.45c0.28,0,0.48-0.03,0.61-0.09c0.13-0.06,0.23-0.14,0.31-0.26
				c0.08-0.12,0.12-0.26,0.12-0.42c0-0.24-0.09-0.44-0.28-0.58c-0.14-0.11-0.35-0.16-0.62-0.16H48.44z"/>
			<path d="M54.19,9.4h0.5L55,10.46l-0.72,0.29c-0.14-0.22-0.31-0.39-0.52-0.52c-0.21-0.12-0.41-0.19-0.61-0.19
				c-0.13,0-0.23,0.02-0.3,0.07c-0.07,0.05-0.1,0.1-0.1,0.16c0,0.05,0.02,0.1,0.07,0.15c0.05,0.04,0.14,0.09,0.29,0.14l1.05,0.37
				c0.19,0.07,0.36,0.15,0.53,0.25c0.17,0.1,0.3,0.22,0.38,0.36c0.08,0.14,0.13,0.31,0.13,0.5c0,0.34-0.13,0.63-0.4,0.85
				c-0.31,0.26-0.69,0.39-1.16,0.39c-0.4,0-0.74-0.1-1.03-0.3l-0.11,0.21H52l-0.47-1.25l0.72-0.3c0.18,0.28,0.4,0.5,0.67,0.66
				c0.26,0.16,0.51,0.24,0.73,0.24c0.14,0,0.25-0.03,0.35-0.09c0.07-0.05,0.11-0.11,0.11-0.18c0-0.06-0.03-0.11-0.08-0.17
				c-0.06-0.05-0.18-0.11-0.37-0.18l-0.82-0.29c-0.45-0.16-0.76-0.33-0.93-0.51s-0.25-0.4-0.25-0.64c0-0.32,0.13-0.59,0.38-0.81
				c0.29-0.25,0.65-0.37,1.08-0.37c0.38,0,0.71,0.09,0.98,0.26L54.19,9.4z"/>
			<path d="M55.43,9.4h2.37v0.73h-0.16c-0.14,0-0.23,0.01-0.27,0.03c-0.04,0.02-0.06,0.05-0.06,0.08c0,0.03,0.03,0.11,0.08,0.24
				l0.57,1.38l0.6-1.38c0.05-0.1,0.07-0.18,0.07-0.22c0-0.04-0.02-0.07-0.06-0.09s-0.13-0.03-0.26-0.03h-0.22V9.4h2.05v0.73
				c-0.18,0-0.29,0.01-0.32,0.02c-0.04,0.01-0.08,0.03-0.11,0.06c-0.03,0.03-0.07,0.1-0.14,0.23l-1.72,3.53
				c-0.18,0.37-0.38,0.62-0.59,0.77c-0.22,0.15-0.47,0.22-0.77,0.22c-0.29,0-0.52-0.08-0.7-0.23c-0.18-0.15-0.27-0.33-0.27-0.52
				c0-0.15,0.05-0.28,0.16-0.39s0.23-0.17,0.38-0.17c0.1,0,0.2,0.03,0.3,0.08c0.06,0.03,0.13,0.09,0.19,0.17
				c0.04,0.05,0.07,0.08,0.1,0.1c0.02,0.01,0.05,0.02,0.07,0.02c0.05,0,0.1-0.03,0.16-0.08c0.08-0.08,0.16-0.22,0.26-0.43l0.14-0.31
				l-1.29-2.71c-0.06-0.14-0.11-0.22-0.15-0.26c-0.03-0.04-0.07-0.06-0.12-0.07c-0.04-0.01-0.15-0.02-0.32-0.02V9.4z"/>
			<path d="M63.96,11.76l0.56,0.49c-0.3,0.36-0.61,0.63-0.93,0.79c-0.32,0.17-0.67,0.25-1.03,0.25c-0.59,0-1.08-0.19-1.47-0.57
				c-0.39-0.38-0.59-0.85-0.59-1.4c0-0.37,0.09-0.71,0.28-1.02c0.18-0.31,0.44-0.55,0.76-0.72c0.32-0.17,0.7-0.26,1.14-0.26
				c0.52,0,0.95,0.12,1.28,0.36c0.33,0.24,0.5,0.5,0.5,0.77c0,0.11-0.03,0.22-0.08,0.31c-0.05,0.09-0.13,0.16-0.24,0.22
				c-0.11,0.06-0.22,0.08-0.34,0.08c-0.1,0-0.18-0.02-0.26-0.06c-0.08-0.04-0.14-0.09-0.19-0.14c-0.02-0.03-0.07-0.1-0.13-0.24
				c-0.08-0.17-0.15-0.27-0.19-0.33c-0.05-0.05-0.1-0.09-0.16-0.12s-0.14-0.04-0.22-0.04c-0.13,0-0.26,0.04-0.38,0.13
				s-0.22,0.21-0.3,0.39c-0.08,0.17-0.12,0.37-0.12,0.58c0,0.23,0.05,0.44,0.14,0.63c0.09,0.19,0.21,0.33,0.37,0.42
				s0.32,0.14,0.51,0.14c0.18,0,0.36-0.05,0.54-0.14S63.76,12,63.96,11.76z"/>
			<path d="M66.82,7.61v2.11c0.25-0.15,0.47-0.26,0.67-0.32c0.19-0.06,0.38-0.09,0.56-0.09c0.24,0,0.46,0.05,0.65,0.15
				s0.33,0.23,0.42,0.39c0.09,0.15,0.13,0.36,0.13,0.62v1.59c0,0.15,0.01,0.25,0.02,0.28c0.02,0.05,0.06,0.08,0.11,0.11
				c0.03,0.01,0.12,0.02,0.27,0.02h0.18v0.73h-2.24v-0.73h0.11c0.11,0,0.18-0.01,0.22-0.03s0.07-0.05,0.08-0.08
				c0.02-0.04,0.02-0.13,0.02-0.27v-1.31c0-0.17-0.01-0.29-0.03-0.34c-0.02-0.06-0.06-0.1-0.12-0.14c-0.06-0.04-0.13-0.06-0.21-0.06
				c-0.12,0-0.24,0.02-0.37,0.07c-0.13,0.05-0.29,0.14-0.48,0.27v1.51c0,0.14,0.01,0.23,0.02,0.27c0.02,0.04,0.04,0.06,0.09,0.08
				c0.04,0.02,0.12,0.03,0.24,0.03h0.08v0.73h-2.21v-0.73h0.21c0.12,0,0.2-0.01,0.24-0.02c0.03-0.02,0.06-0.04,0.08-0.08
				s0.03-0.12,0.03-0.23V8.67h-0.56V7.94c0.21-0.01,0.45-0.05,0.71-0.11c0.26-0.06,0.5-0.13,0.71-0.21H66.82z"/>
			<path d="M71.35,11.84c0.19,0,0.36,0.07,0.5,0.21c0.14,0.14,0.21,0.3,0.21,0.5s-0.07,0.36-0.21,0.5c-0.14,0.14-0.31,0.21-0.5,0.21
				c-0.2,0-0.37-0.07-0.5-0.21c-0.14-0.14-0.21-0.3-0.21-0.5s0.07-0.36,0.21-0.5C70.98,11.91,71.15,11.84,71.35,11.84z"/>
			<path d="M79.69,7.89h0.54l0.52,1.91L80.05,10c-0.24-0.45-0.46-0.78-0.67-0.97c-0.29-0.26-0.6-0.39-0.94-0.39
				c-0.25,0-0.48,0.07-0.69,0.21s-0.38,0.34-0.51,0.6c-0.13,0.27-0.19,0.58-0.19,0.94c0,0.54,0.14,1.01,0.43,1.41
				c0.29,0.39,0.67,0.59,1.13,0.59c0.3,0,0.58-0.08,0.86-0.25c0.34-0.21,0.64-0.49,0.89-0.85l0.59,0.44
				c-0.38,0.52-0.73,0.89-1.05,1.09c-0.49,0.32-1.03,0.47-1.63,0.47c-0.5,0-0.95-0.12-1.35-0.36c-0.4-0.24-0.73-0.57-0.97-1.01
				c-0.24-0.43-0.36-0.9-0.36-1.41c0-0.51,0.12-0.97,0.35-1.39c0.23-0.42,0.55-0.74,0.96-0.98c0.4-0.23,0.85-0.35,1.35-0.35
				c0.5,0,0.95,0.11,1.33,0.32L79.69,7.89z"/>
			<path d="M83.17,7.61v2.11c0.25-0.15,0.47-0.26,0.67-0.32c0.19-0.06,0.38-0.09,0.56-0.09c0.24,0,0.46,0.05,0.65,0.15
				s0.33,0.23,0.42,0.39c0.09,0.15,0.13,0.36,0.13,0.62v1.59c0,0.15,0.01,0.25,0.02,0.28c0.02,0.05,0.06,0.08,0.11,0.11
				c0.03,0.01,0.12,0.02,0.27,0.02h0.18v0.73h-2.24v-0.73h0.11c0.11,0,0.18-0.01,0.22-0.03s0.07-0.05,0.08-0.08
				c0.02-0.04,0.02-0.13,0.02-0.27v-1.31c0-0.17-0.01-0.29-0.03-0.34c-0.02-0.06-0.06-0.1-0.12-0.14c-0.06-0.04-0.12-0.06-0.21-0.06
				c-0.12,0-0.24,0.02-0.37,0.07c-0.13,0.05-0.29,0.14-0.48,0.27v1.51c0,0.14,0.01,0.23,0.02,0.27c0.02,0.04,0.04,0.06,0.09,0.08
				c0.04,0.02,0.12,0.03,0.24,0.03h0.08v0.73h-2.21v-0.73h0.21c0.12,0,0.2-0.01,0.24-0.02c0.03-0.02,0.06-0.04,0.08-0.08
				s0.03-0.12,0.03-0.23V8.67h-0.56V7.94c0.21-0.01,0.45-0.05,0.71-0.11c0.26-0.06,0.5-0.13,0.71-0.21H83.17z"/>
			<path d="M88.35,9.31v0.55c0.2-0.21,0.38-0.36,0.53-0.44s0.29-0.12,0.43-0.12c0.12,0,0.23,0.03,0.33,0.09
				c0.1,0.06,0.17,0.14,0.23,0.25s0.09,0.22,0.09,0.34c0,0.16-0.05,0.3-0.16,0.43c-0.11,0.13-0.25,0.19-0.44,0.19
				c-0.05,0-0.1,0-0.13-0.01c-0.04-0.01-0.12-0.03-0.25-0.08c-0.07-0.02-0.12-0.03-0.16-0.03c-0.07,0-0.18,0.04-0.33,0.12v1.49
				c0,0.13,0.01,0.21,0.03,0.25s0.05,0.07,0.09,0.08s0.14,0.03,0.28,0.03h0.17v0.73H86.7v-0.73h0.2c0.14,0,0.23-0.01,0.26-0.02
				c0.03-0.02,0.06-0.04,0.08-0.08s0.03-0.12,0.03-0.25v-1.75H86.7V9.63c0.41-0.03,0.84-0.13,1.29-0.32H88.35z"/>
			<path d="M92.03,9.31v2.81c0,0.13,0.01,0.22,0.02,0.25s0.04,0.05,0.08,0.07c0.04,0.02,0.13,0.02,0.27,0.02h0.21v0.73h-2.35v-0.73
				h0.2c0.13,0,0.22-0.01,0.25-0.02s0.06-0.04,0.08-0.07s0.03-0.1,0.03-0.2v-1.81h-0.56V9.64c0.2-0.01,0.39-0.03,0.58-0.06
				c0.18-0.03,0.35-0.07,0.49-0.12c0.09-0.03,0.21-0.08,0.35-0.15H92.03z M91.42,7.61c0.19,0,0.36,0.07,0.49,0.2s0.2,0.3,0.2,0.49
				c0,0.2-0.07,0.36-0.2,0.5c-0.14,0.14-0.3,0.2-0.49,0.2c-0.19,0-0.36-0.07-0.49-0.2c-0.13-0.13-0.2-0.3-0.2-0.49
				c0-0.19,0.07-0.35,0.21-0.49C91.07,7.68,91.23,7.61,91.42,7.61z"/>
			<path d="M95.63,9.4h0.5l0.31,1.06l-0.72,0.29c-0.14-0.22-0.31-0.39-0.52-0.52c-0.21-0.12-0.41-0.19-0.61-0.19
				c-0.13,0-0.24,0.02-0.3,0.07c-0.07,0.05-0.1,0.1-0.1,0.16c0,0.05,0.02,0.1,0.07,0.15c0.05,0.04,0.14,0.09,0.29,0.14l1.05,0.37
				c0.18,0.07,0.36,0.15,0.53,0.25c0.17,0.1,0.3,0.22,0.38,0.36c0.08,0.14,0.13,0.31,0.13,0.5c0,0.34-0.13,0.63-0.4,0.85
				c-0.31,0.26-0.69,0.39-1.16,0.39c-0.4,0-0.74-0.1-1.03-0.3l-0.11,0.21h-0.51l-0.47-1.25l0.72-0.3c0.18,0.28,0.4,0.5,0.67,0.66
				c0.26,0.16,0.51,0.24,0.73,0.24c0.14,0,0.25-0.03,0.35-0.09c0.07-0.05,0.11-0.11,0.11-0.18c0-0.06-0.03-0.11-0.08-0.17
				c-0.06-0.05-0.18-0.11-0.37-0.18l-0.82-0.29c-0.45-0.16-0.76-0.33-0.93-0.51c-0.16-0.18-0.25-0.4-0.25-0.64
				c0-0.32,0.13-0.59,0.38-0.81c0.29-0.25,0.65-0.37,1.08-0.37c0.38,0,0.71,0.09,0.98,0.26L95.63,9.4z"/>
			<path d="M98.81,8.1v1.3h1.22v0.81h-1.22v1.32c0,0.3,0.02,0.49,0.05,0.58s0.09,0.15,0.18,0.2c0.11,0.07,0.24,0.1,0.39,0.1
				c0.26,0,0.52-0.08,0.78-0.25v0.81c-0.22,0.1-0.42,0.18-0.6,0.22s-0.37,0.06-0.58,0.06c-0.24,0-0.44-0.03-0.62-0.09
				c-0.18-0.06-0.34-0.14-0.46-0.25c-0.13-0.11-0.22-0.23-0.27-0.35c-0.05-0.12-0.07-0.3-0.07-0.54v-1.81h-0.57V9.48
				c0.2-0.07,0.38-0.16,0.52-0.28s0.26-0.27,0.35-0.44c0.09-0.17,0.15-0.39,0.18-0.66H98.81z"/>
			<path d="M102.47,9.31v2.81c0,0.13,0.01,0.22,0.02,0.25c0.02,0.03,0.04,0.05,0.08,0.07c0.04,0.02,0.13,0.02,0.26,0.02h0.21v0.73
				h-2.35v-0.73h0.2c0.13,0,0.22-0.01,0.25-0.02c0.04-0.01,0.06-0.04,0.08-0.07c0.02-0.03,0.03-0.1,0.03-0.2v-1.81h-0.56V9.64
				c0.2-0.01,0.39-0.03,0.58-0.06s0.35-0.07,0.49-0.12c0.09-0.03,0.21-0.08,0.35-0.15H102.47z M101.85,7.61
				c0.19,0,0.36,0.07,0.49,0.2c0.14,0.14,0.2,0.3,0.2,0.49c0,0.2-0.07,0.36-0.2,0.5c-0.13,0.14-0.3,0.2-0.49,0.2
				c-0.19,0-0.36-0.07-0.49-0.2c-0.14-0.13-0.2-0.3-0.2-0.49c0-0.19,0.07-0.35,0.21-0.49C101.51,7.68,101.67,7.61,101.85,7.61z"/>
			<path d="M105.17,9.31v0.51c0.29-0.19,0.53-0.33,0.74-0.4c0.2-0.07,0.41-0.11,0.62-0.11c0.25,0,0.46,0.05,0.65,0.16
				c0.19,0.1,0.33,0.23,0.41,0.39c0.09,0.16,0.13,0.38,0.13,0.66v1.58c0,0.13,0.01,0.22,0.03,0.26s0.05,0.07,0.09,0.08
				c0.03,0.01,0.12,0.02,0.27,0.02h0.19v0.73h-2.23v-0.73c0.17,0,0.26-0.01,0.29-0.01c0.06-0.02,0.1-0.05,0.12-0.09
				c0.02-0.04,0.03-0.13,0.03-0.26v-1.39c0-0.18-0.02-0.3-0.06-0.35c-0.06-0.09-0.16-0.13-0.29-0.13c-0.11,0-0.23,0.02-0.35,0.07
				c-0.12,0.05-0.29,0.15-0.5,0.3v1.51c0,0.16,0.02,0.27,0.05,0.3c0.04,0.04,0.12,0.06,0.26,0.06h0.12v0.73h-2.21v-0.73h0.11
				c0.18,0,0.28-0.01,0.33-0.02c0.04-0.02,0.07-0.04,0.09-0.08c0.02-0.04,0.03-0.11,0.03-0.22v-1.77h-0.56V9.63
				c0.46-0.06,0.88-0.17,1.28-0.32H105.17z"/>
			<path d="M110.57,9.31v2.81c0,0.13,0.01,0.22,0.02,0.25c0.02,0.03,0.04,0.05,0.08,0.07s0.13,0.02,0.26,0.02h0.21v0.73h-2.35v-0.73
				h0.2c0.13,0,0.22-0.01,0.25-0.02c0.04-0.01,0.06-0.04,0.08-0.07c0.02-0.03,0.03-0.1,0.03-0.2v-1.81h-0.56V9.64
				c0.2-0.01,0.39-0.03,0.58-0.06s0.35-0.07,0.49-0.12c0.09-0.03,0.21-0.08,0.35-0.15H110.57z M109.96,7.61
				c0.19,0,0.36,0.07,0.49,0.2c0.14,0.14,0.2,0.3,0.2,0.49c0,0.2-0.07,0.36-0.2,0.5c-0.13,0.14-0.3,0.2-0.49,0.2
				c-0.19,0-0.36-0.07-0.49-0.2c-0.14-0.13-0.2-0.3-0.2-0.49c0-0.19,0.07-0.35,0.21-0.49C109.61,7.68,109.77,7.61,109.96,7.61z"/>
			<path d="M114.22,7.89h2.59v0.73h-0.24c-0.13,0-0.22,0.01-0.27,0.04c-0.05,0.03-0.08,0.06-0.1,0.11s-0.03,0.16-0.03,0.32v0.92
				h1.93V9.03c0-0.12-0.01-0.2-0.02-0.25c-0.02-0.06-0.05-0.1-0.1-0.13c-0.05-0.02-0.15-0.03-0.32-0.03h-0.2V7.89h2.6v0.73h-0.22
				c-0.15,0-0.24,0.01-0.29,0.04c-0.05,0.02-0.08,0.06-0.1,0.11c-0.02,0.05-0.03,0.16-0.03,0.33v2.88c0,0.18,0.01,0.29,0.04,0.34
				c0.02,0.05,0.06,0.09,0.11,0.11c0.05,0.02,0.16,0.03,0.34,0.03h0.15v0.73h-2.6v-0.73h0.17c0.16,0,0.27-0.01,0.32-0.04
				c0.06-0.03,0.1-0.06,0.12-0.11c0.02-0.05,0.03-0.16,0.03-0.34v-1.12h-1.93v1.12c0,0.18,0.01,0.29,0.02,0.33
				c0.03,0.06,0.06,0.1,0.12,0.12c0.05,0.02,0.16,0.03,0.32,0.03h0.18v0.73h-2.59v-0.73h0.18c0.15,0,0.25-0.01,0.31-0.04
				s0.1-0.06,0.12-0.11c0.02-0.04,0.03-0.15,0.03-0.3V9.14c0-0.18-0.01-0.3-0.03-0.35c-0.02-0.05-0.06-0.09-0.1-0.12
				s-0.14-0.04-0.27-0.04h-0.24V7.89z"/>
			<path d="M122.74,9.31c0.43,0,0.81,0.08,1.13,0.25c0.32,0.17,0.57,0.4,0.74,0.69c0.17,0.29,0.26,0.64,0.26,1.03
				c0,0.59-0.19,1.08-0.58,1.45c-0.39,0.37-0.9,0.55-1.54,0.55c-0.66,0-1.18-0.19-1.57-0.56c-0.38-0.36-0.56-0.84-0.56-1.44
				c0-0.4,0.08-0.74,0.26-1.03c0.17-0.29,0.42-0.52,0.74-0.69C121.95,9.4,122.32,9.31,122.74,9.31z M121.82,7.8
				c0.15,0,0.28,0.06,0.39,0.17c0.11,0.11,0.17,0.24,0.17,0.39c0,0.14-0.05,0.26-0.16,0.37c-0.11,0.1-0.23,0.16-0.38,0.16
				c-0.15,0-0.28-0.05-0.39-0.16s-0.16-0.24-0.16-0.39c0-0.15,0.05-0.28,0.15-0.38S121.67,7.8,121.82,7.8z M122.75,10.14
				c-0.14,0-0.28,0.04-0.41,0.13c-0.13,0.09-0.23,0.21-0.29,0.38c-0.07,0.17-0.11,0.38-0.11,0.64c0,0.27,0.04,0.49,0.1,0.66
				c0.07,0.18,0.16,0.3,0.28,0.39c0.12,0.08,0.25,0.12,0.4,0.12c0.22,0,0.42-0.09,0.57-0.28s0.24-0.48,0.24-0.88
				c0-0.38-0.07-0.67-0.22-0.87C123.17,10.24,122.98,10.14,122.75,10.14z M123.65,7.8c0.15,0,0.28,0.06,0.39,0.17
				c0.11,0.11,0.17,0.24,0.17,0.39c0,0.14-0.05,0.26-0.16,0.37c-0.11,0.1-0.23,0.16-0.38,0.16c-0.15,0-0.28-0.05-0.39-0.16
				c-0.11-0.11-0.16-0.24-0.16-0.39c0-0.15,0.05-0.28,0.15-0.38S123.5,7.8,123.65,7.8z"/>
			<path d="M127.14,9.31v0.51c0.29-0.19,0.53-0.33,0.74-0.4c0.21-0.07,0.41-0.11,0.63-0.11c0.25,0,0.46,0.05,0.65,0.16
				c0.19,0.1,0.33,0.23,0.41,0.39c0.09,0.16,0.13,0.38,0.13,0.66v1.58c0,0.13,0.01,0.22,0.03,0.26c0.02,0.04,0.05,0.07,0.09,0.08
				c0.03,0.01,0.12,0.02,0.27,0.02h0.19v0.73h-2.23v-0.73c0.17,0,0.26-0.01,0.29-0.01c0.06-0.02,0.11-0.05,0.12-0.09
				c0.02-0.04,0.03-0.13,0.03-0.26v-1.39c0-0.18-0.02-0.3-0.06-0.35c-0.06-0.09-0.16-0.13-0.29-0.13c-0.11,0-0.23,0.02-0.35,0.07
				s-0.29,0.15-0.5,0.3v1.51c0,0.16,0.02,0.27,0.05,0.3c0.04,0.04,0.12,0.06,0.26,0.06h0.12v0.73h-2.21v-0.73h0.11
				c0.17,0,0.28-0.01,0.33-0.02c0.04-0.02,0.07-0.04,0.1-0.08c0.02-0.04,0.03-0.11,0.03-0.22v-1.77h-0.56V9.63
				c0.46-0.06,0.88-0.17,1.28-0.32H127.14z"/>
			<path d="M132.54,9.31v2.81c0,0.13,0.01,0.22,0.02,0.25s0.04,0.05,0.08,0.07c0.04,0.02,0.13,0.02,0.27,0.02h0.21v0.73h-2.35v-0.73
				h0.2c0.13,0,0.22-0.01,0.25-0.02s0.06-0.04,0.08-0.07s0.03-0.1,0.03-0.2v-1.81h-0.56V9.64c0.2-0.01,0.39-0.03,0.58-0.06
				c0.18-0.03,0.35-0.07,0.49-0.12c0.09-0.03,0.21-0.08,0.35-0.15H132.54z M131.92,7.61c0.19,0,0.36,0.07,0.49,0.2s0.2,0.3,0.2,0.49
				c0,0.2-0.07,0.36-0.2,0.5c-0.14,0.14-0.3,0.2-0.49,0.2c-0.19,0-0.36-0.07-0.49-0.2c-0.13-0.13-0.2-0.3-0.2-0.49
				c0-0.19,0.07-0.35,0.21-0.49C131.57,7.68,131.74,7.61,131.92,7.61z"/>
			<path d="M136.49,9.62c0.13-0.19,0.27-0.33,0.4-0.41c0.13-0.08,0.28-0.12,0.43-0.12c0.15,0,0.27,0.04,0.35,0.13
				c0.09,0.09,0.13,0.2,0.13,0.34c0,0.12-0.04,0.23-0.12,0.31c-0.08,0.08-0.19,0.12-0.31,0.12l-0.12,0l-0.13,0
				c-0.07,0-0.14,0.03-0.21,0.08c0.14,0.23,0.21,0.45,0.21,0.66c0,0.22-0.07,0.44-0.21,0.65c-0.14,0.21-0.33,0.38-0.57,0.49
				c-0.24,0.12-0.54,0.18-0.88,0.18c-0.1,0-0.2-0.01-0.3-0.02c-0.1-0.01-0.2-0.03-0.3-0.05c-0.07,0.04-0.12,0.08-0.16,0.12
				c-0.04,0.04-0.05,0.08-0.05,0.11c0,0.08,0.08,0.13,0.24,0.15l1.58,0.22c0.47,0.07,0.81,0.19,1.02,0.38
				c0.21,0.19,0.31,0.41,0.31,0.67c0,0.23-0.08,0.44-0.24,0.63c-0.16,0.19-0.41,0.35-0.77,0.48c-0.36,0.12-0.81,0.19-1.35,0.19
				c-0.48,0-0.87-0.05-1.18-0.14c-0.31-0.09-0.53-0.21-0.66-0.35s-0.2-0.27-0.2-0.4c0-0.14,0.05-0.27,0.15-0.39s0.3-0.25,0.6-0.4
				c-0.19-0.07-0.33-0.15-0.42-0.25c-0.13-0.13-0.19-0.27-0.19-0.41c0-0.15,0.06-0.3,0.18-0.45c0.12-0.15,0.29-0.29,0.53-0.44
				c-0.13-0.08-0.23-0.17-0.31-0.26c-0.08-0.09-0.14-0.21-0.18-0.35s-0.07-0.28-0.07-0.42c0-0.38,0.16-0.7,0.47-0.97
				c0.31-0.27,0.72-0.4,1.23-0.4c0.22,0,0.43,0.03,0.62,0.08C136.17,9.44,136.34,9.52,136.49,9.62z M134.85,13.44
				c-0.13,0.1-0.22,0.18-0.26,0.24c-0.04,0.05-0.05,0.11-0.05,0.18c0,0.12,0.1,0.22,0.3,0.29s0.46,0.1,0.78,0.1
				c0.23,0,0.44-0.02,0.61-0.06c0.18-0.04,0.29-0.09,0.35-0.15c0.04-0.04,0.06-0.09,0.06-0.16c0-0.07-0.04-0.14-0.11-0.18
				c-0.08-0.05-0.26-0.09-0.55-0.13L134.85,13.44z M135.4,10.04c-0.16,0-0.3,0.06-0.4,0.18c-0.11,0.12-0.16,0.28-0.16,0.48
				c0,0.19,0.05,0.34,0.15,0.45c0.1,0.11,0.23,0.17,0.39,0.17c0.16,0,0.29-0.06,0.39-0.17s0.16-0.26,0.16-0.45
				c0-0.2-0.05-0.36-0.15-0.48C135.69,10.1,135.56,10.04,135.4,10.04z"/>
		</g>
		<g>
			<path d="M24.62,16.93h1.36v0.21h-0.09c-0.11,0-0.19,0.01-0.23,0.03s-0.08,0.06-0.1,0.11c-0.02,0.04-0.02,0.12-0.02,0.24v0.99
				h1.83v-0.96c0-0.13,0-0.21-0.01-0.24c-0.01-0.05-0.04-0.09-0.09-0.12s-0.11-0.04-0.2-0.04h-0.14v-0.21h1.35v0.21h-0.12
				c-0.09,0-0.16,0.01-0.2,0.03c-0.04,0.02-0.07,0.05-0.08,0.09c-0.02,0.04-0.02,0.12-0.02,0.24v2.41c0,0.13,0.01,0.22,0.03,0.25
				c0.02,0.04,0.05,0.06,0.1,0.08c0.03,0.01,0.13,0.02,0.3,0.02v0.21h-1.35v-0.21h0.1c0.12,0,0.21-0.01,0.25-0.03
				c0.04-0.02,0.07-0.04,0.08-0.08c0.01-0.03,0.02-0.12,0.02-0.27v-1.1h-1.83v1.13c0,0.13,0.01,0.22,0.03,0.26
				c0.02,0.04,0.05,0.06,0.1,0.08c0.04,0.01,0.14,0.02,0.32,0.02v0.21h-1.36v-0.21h0.09c0.13,0,0.21-0.01,0.25-0.02
				c0.03-0.01,0.06-0.04,0.08-0.08c0.02-0.04,0.03-0.11,0.03-0.21V17.5c0-0.11-0.01-0.19-0.03-0.23c-0.02-0.04-0.05-0.07-0.08-0.09
				c-0.04-0.02-0.1-0.03-0.19-0.03h-0.14V16.93z"/>
			<path d="M30.88,19.81l0.16,0.13c-0.12,0.15-0.24,0.26-0.36,0.35c-0.12,0.09-0.23,0.15-0.33,0.18c-0.1,0.04-0.22,0.05-0.36,0.05
				c-0.25,0-0.46-0.05-0.63-0.15c-0.2-0.12-0.35-0.27-0.46-0.46s-0.16-0.41-0.16-0.66c0-0.27,0.05-0.5,0.15-0.68
				c0.1-0.19,0.25-0.34,0.43-0.45c0.19-0.11,0.4-0.16,0.64-0.16c0.18,0,0.34,0.03,0.47,0.08c0.13,0.06,0.25,0.14,0.34,0.25
				c0.09,0.11,0.16,0.24,0.2,0.39c0.02,0.09,0.04,0.2,0.04,0.33h-1.79c0,0.08-0.01,0.14-0.01,0.19c0,0.21,0.04,0.4,0.11,0.57
				s0.17,0.29,0.3,0.37s0.26,0.12,0.42,0.12c0.13,0,0.26-0.03,0.38-0.09C30.56,20.11,30.71,19.99,30.88,19.81z M30.56,18.79
				c-0.03-0.16-0.06-0.27-0.11-0.34s-0.11-0.13-0.2-0.18s-0.18-0.07-0.29-0.07s-0.21,0.02-0.3,0.07c-0.09,0.04-0.17,0.11-0.23,0.18
				c-0.06,0.08-0.12,0.19-0.16,0.34H30.56z"/>
			<path d="M31.39,18.38v-0.21c0.14-0.02,0.26-0.04,0.35-0.07c0.1-0.03,0.2-0.08,0.33-0.14h0.19v2.03c0,0.07,0.01,0.12,0.03,0.16
				c0.02,0.04,0.05,0.06,0.08,0.08c0.04,0.02,0.1,0.02,0.2,0.02h0.12v0.21h-1.3v-0.21h0.1c0.11,0,0.19-0.01,0.23-0.03
				s0.07-0.05,0.08-0.09c0.02-0.04,0.02-0.12,0.02-0.26v-1.49H31.39z M32.04,16.82c0.08,0,0.15,0.03,0.21,0.08
				c0.06,0.06,0.09,0.12,0.09,0.21c0,0.08-0.03,0.15-0.09,0.21c-0.06,0.06-0.13,0.09-0.21,0.09c-0.08,0-0.15-0.03-0.21-0.09
				c-0.06-0.06-0.09-0.13-0.09-0.21c0-0.08,0.03-0.15,0.09-0.21S31.96,16.82,32.04,16.82z"/>
			<path d="M32.94,17.17v-0.21c0.23-0.02,0.45-0.09,0.67-0.21h0.19v3.12c0,0.13,0.01,0.21,0.03,0.25c0.02,0.05,0.05,0.08,0.1,0.1
				c0.04,0.02,0.12,0.03,0.24,0.03h0.08v0.21h-1.31v-0.21h0.13c0.08,0,0.15-0.01,0.19-0.04s0.07-0.06,0.09-0.1
				c0.02-0.04,0.03-0.13,0.03-0.26v-2.68H32.94z"/>
			<path d="M34.5,18.38v-0.21c0.13,0,0.24-0.02,0.34-0.05c0.1-0.03,0.21-0.09,0.32-0.17h0.2v0.42c0.21-0.17,0.39-0.28,0.53-0.34
				s0.28-0.09,0.42-0.09c0.29,0,0.54,0.11,0.74,0.34s0.31,0.52,0.31,0.88c0,0.4-0.12,0.73-0.35,0.99c-0.21,0.24-0.48,0.35-0.82,0.35
				c-0.17,0-0.32-0.03-0.47-0.09c-0.1-0.04-0.23-0.12-0.36-0.24v0.83c0,0.12,0,0.2,0.01,0.22c0.01,0.03,0.03,0.06,0.05,0.08
				c0.03,0.02,0.06,0.04,0.1,0.04c0.03,0,0.12,0.01,0.29,0.01v0.21H34.5v-0.21h0.11c0.12,0,0.19-0.01,0.23-0.03s0.06-0.05,0.08-0.08
				c0.01-0.03,0.02-0.12,0.02-0.26v-2.63H34.5z M35.36,18.64v0.87c0,0.12,0.01,0.2,0.02,0.26c0.02,0.09,0.06,0.16,0.12,0.23
				c0.06,0.07,0.14,0.13,0.24,0.18c0.1,0.05,0.21,0.07,0.31,0.07c0.22,0,0.41-0.08,0.57-0.25s0.24-0.42,0.24-0.75
				c0-0.31-0.07-0.56-0.2-0.73c-0.13-0.17-0.29-0.26-0.47-0.26c-0.12,0-0.25,0.03-0.38,0.09C35.67,18.42,35.52,18.52,35.36,18.64z"
				/>
			<path d="M37.74,18.38v-0.21c0.12-0.01,0.23-0.03,0.33-0.06c0.1-0.03,0.21-0.08,0.33-0.15h0.19v0.48
				c0.12-0.15,0.26-0.26,0.42-0.35c0.16-0.09,0.3-0.13,0.43-0.13c0.12,0,0.22,0.03,0.3,0.09c0.07,0.06,0.11,0.13,0.11,0.22
				c0,0.06-0.02,0.11-0.07,0.16c-0.05,0.05-0.11,0.07-0.17,0.07c-0.03,0-0.06,0-0.08-0.01s-0.05-0.03-0.1-0.06
				c-0.09-0.06-0.17-0.09-0.23-0.09c-0.08,0-0.18,0.04-0.28,0.11c-0.13,0.09-0.23,0.18-0.3,0.27v1.17c0,0.1,0.01,0.17,0.02,0.21
				c0.01,0.04,0.03,0.07,0.05,0.09s0.06,0.05,0.09,0.06c0.04,0.01,0.1,0.02,0.2,0.02h0.08v0.21h-1.31v-0.21h0.11
				c0.1,0,0.17-0.01,0.2-0.03c0.04-0.03,0.08-0.06,0.1-0.1c0.02-0.04,0.03-0.13,0.03-0.24v-1.5H37.74z"/>
			<path d="M41.86,19l0-0.28c0-0.19-0.05-0.32-0.16-0.4s-0.25-0.12-0.44-0.12c-0.09,0-0.18,0.01-0.25,0.03
				c-0.07,0.02-0.13,0.05-0.17,0.09c-0.04,0.04-0.08,0.08-0.1,0.14c-0.01,0.02-0.03,0.09-0.06,0.21c-0.04,0.15-0.12,0.23-0.24,0.23
				c-0.07,0-0.12-0.02-0.16-0.07c-0.04-0.04-0.06-0.1-0.06-0.18c0-0.11,0.04-0.22,0.12-0.33c0.08-0.11,0.21-0.2,0.38-0.27
				s0.37-0.11,0.6-0.11c0.22,0,0.4,0.03,0.56,0.1c0.15,0.07,0.27,0.16,0.34,0.29c0.05,0.09,0.08,0.24,0.08,0.47v0.98
				c0,0.14,0,0.23,0.01,0.27c0.02,0.07,0.05,0.13,0.1,0.16c0.05,0.04,0.11,0.05,0.18,0.05c0.08,0,0.17-0.02,0.28-0.05v0.22
				c-0.14,0.04-0.27,0.06-0.38,0.06c-0.12,0-0.22-0.02-0.3-0.05c-0.08-0.03-0.15-0.08-0.2-0.15c-0.05-0.06-0.09-0.14-0.1-0.23
				c-0.2,0.16-0.39,0.27-0.55,0.33c-0.16,0.06-0.33,0.1-0.5,0.1c-0.23,0-0.42-0.06-0.57-0.19c-0.15-0.13-0.22-0.28-0.22-0.45
				c0-0.1,0.03-0.2,0.08-0.29s0.13-0.17,0.24-0.25c0.11-0.07,0.28-0.13,0.51-0.19C41.12,19.09,41.44,19.04,41.86,19z M41.86,19.22
				c-0.39,0.06-0.64,0.1-0.73,0.12c-0.18,0.04-0.32,0.09-0.4,0.14s-0.14,0.11-0.17,0.16c-0.03,0.06-0.05,0.12-0.05,0.19
				c0,0.07,0.02,0.13,0.06,0.19s0.09,0.11,0.16,0.15s0.14,0.05,0.22,0.05c0.11,0,0.23-0.03,0.37-0.08s0.32-0.15,0.53-0.31V19.22z"/>
			<path d="M43.01,17.17v-0.21c0.22-0.02,0.44-0.09,0.67-0.21h0.19v2.53l0.93-0.74c0.15-0.12,0.22-0.2,0.22-0.24
				c0-0.02-0.02-0.04-0.05-0.06c-0.02-0.01-0.07-0.01-0.15-0.01h-0.13v-0.21h1.29v0.21c-0.14,0-0.26,0.02-0.35,0.04
				c-0.09,0.03-0.19,0.09-0.3,0.17l-0.73,0.56l0.87,0.94c0.08,0.09,0.15,0.16,0.2,0.19c0.05,0.04,0.1,0.06,0.16,0.08
				c0.05,0.01,0.13,0.02,0.25,0.02v0.21h-1.35v-0.21h0.1c0.1,0,0.17-0.01,0.2-0.02c0.03-0.02,0.04-0.04,0.04-0.06
				s-0.03-0.07-0.08-0.12c-0.01-0.01-0.02-0.02-0.03-0.03l-0.67-0.77l-0.42,0.31v0.33c0,0.12,0.01,0.2,0.03,0.24
				s0.05,0.07,0.09,0.09c0.04,0.02,0.12,0.03,0.23,0.03h0.09v0.21h-1.3v-0.21c0.15,0,0.24-0.01,0.27-0.02
				c0.06-0.02,0.1-0.05,0.13-0.1c0.03-0.05,0.04-0.14,0.04-0.27v-2.69H43.01z"/>
			<path d="M46.93,17.16h0.18v0.86h0.75v0.25h-0.75v1.53c0,0.13,0.01,0.22,0.03,0.28s0.06,0.1,0.12,0.14
				c0.05,0.04,0.12,0.05,0.18,0.05c0.16,0,0.34-0.07,0.53-0.22v0.25c-0.22,0.15-0.45,0.23-0.67,0.23c-0.13,0-0.25-0.03-0.35-0.09
				c-0.1-0.06-0.18-0.12-0.21-0.2c-0.04-0.08-0.06-0.21-0.06-0.41v-1.56h-0.44v-0.21c0.14-0.03,0.26-0.08,0.34-0.15
				c0.09-0.07,0.16-0.16,0.21-0.26C46.86,17.54,46.9,17.38,46.93,17.16z"/>
			<path d="M48.22,18.38v-0.21c0.14-0.02,0.26-0.04,0.35-0.07c0.1-0.03,0.2-0.08,0.33-0.14h0.19v2.03c0,0.07,0.01,0.12,0.03,0.16
				c0.02,0.04,0.05,0.06,0.08,0.08c0.04,0.02,0.1,0.02,0.2,0.02h0.12v0.21h-1.3v-0.21h0.1c0.11,0,0.19-0.01,0.23-0.03
				s0.07-0.05,0.08-0.09c0.02-0.04,0.02-0.12,0.02-0.26v-1.49H48.22z M48.86,16.82c0.08,0,0.15,0.03,0.21,0.08
				c0.06,0.06,0.09,0.12,0.09,0.21c0,0.08-0.03,0.15-0.09,0.21c-0.06,0.06-0.13,0.09-0.21,0.09s-0.15-0.03-0.21-0.09
				c-0.06-0.06-0.09-0.13-0.09-0.21c0-0.08,0.03-0.15,0.09-0.21S48.78,16.82,48.86,16.82z"/>
			<path d="M49.76,17.17v-0.21c0.22-0.02,0.44-0.09,0.67-0.21h0.19v2.53l0.93-0.74c0.15-0.12,0.22-0.2,0.22-0.24
				c0-0.02-0.02-0.04-0.05-0.06c-0.02-0.01-0.07-0.01-0.15-0.01h-0.13v-0.21h1.29v0.21c-0.14,0-0.26,0.02-0.35,0.04
				c-0.09,0.03-0.19,0.09-0.3,0.17l-0.73,0.56l0.87,0.94c0.08,0.09,0.15,0.16,0.2,0.19c0.05,0.04,0.1,0.06,0.16,0.08
				c0.05,0.01,0.13,0.02,0.25,0.02v0.21h-1.35v-0.21h0.1c0.1,0,0.17-0.01,0.2-0.02c0.03-0.02,0.04-0.04,0.04-0.06
				s-0.03-0.07-0.08-0.12c-0.01-0.01-0.02-0.02-0.03-0.03l-0.67-0.77l-0.42,0.31v0.33c0,0.12,0.01,0.2,0.03,0.24
				s0.05,0.07,0.09,0.09c0.04,0.02,0.12,0.03,0.23,0.03h0.09v0.21h-1.3v-0.21c0.15,0,0.24-0.01,0.27-0.02
				c0.06-0.02,0.1-0.05,0.13-0.1c0.03-0.05,0.04-0.14,0.04-0.27v-2.69H49.76z"/>
			<path d="M55.19,19.81l0.16,0.13c-0.12,0.15-0.24,0.26-0.36,0.35c-0.12,0.09-0.23,0.15-0.33,0.18c-0.1,0.04-0.22,0.05-0.36,0.05
				c-0.25,0-0.46-0.05-0.63-0.15c-0.2-0.12-0.35-0.27-0.46-0.46s-0.16-0.41-0.16-0.66c0-0.27,0.05-0.5,0.15-0.68
				c0.1-0.19,0.25-0.34,0.43-0.45c0.19-0.11,0.4-0.16,0.64-0.16c0.18,0,0.34,0.03,0.47,0.08c0.13,0.06,0.25,0.14,0.34,0.25
				c0.09,0.11,0.16,0.24,0.2,0.39c0.02,0.09,0.04,0.2,0.04,0.33h-1.79c0,0.08-0.01,0.14-0.01,0.19c0,0.21,0.04,0.4,0.11,0.57
				s0.17,0.29,0.3,0.37s0.26,0.12,0.42,0.12c0.13,0,0.26-0.03,0.38-0.09C54.86,20.11,55.01,19.99,55.19,19.81z M54.86,18.79
				c-0.03-0.16-0.06-0.27-0.11-0.34s-0.11-0.13-0.2-0.18s-0.18-0.07-0.29-0.07s-0.21,0.02-0.3,0.07c-0.09,0.04-0.17,0.11-0.23,0.18
				c-0.06,0.08-0.12,0.19-0.16,0.34H54.86z"/>
			<path d="M55.71,18.38v-0.21c0.12-0.01,0.23-0.03,0.33-0.06c0.1-0.03,0.21-0.08,0.33-0.15h0.19v0.48
				c0.12-0.15,0.26-0.26,0.42-0.35c0.16-0.09,0.3-0.13,0.43-0.13c0.12,0,0.22,0.03,0.3,0.09c0.07,0.06,0.11,0.13,0.11,0.22
				c0,0.06-0.02,0.11-0.07,0.16c-0.05,0.05-0.11,0.07-0.17,0.07c-0.03,0-0.06,0-0.08-0.01s-0.05-0.03-0.1-0.06
				c-0.09-0.06-0.17-0.09-0.23-0.09c-0.08,0-0.18,0.04-0.28,0.11c-0.13,0.09-0.23,0.18-0.3,0.27v1.17c0,0.1,0.01,0.17,0.02,0.21
				c0.01,0.04,0.03,0.07,0.05,0.09s0.06,0.05,0.09,0.06c0.04,0.01,0.1,0.02,0.2,0.02h0.08v0.21h-1.31v-0.21h0.11
				c0.1,0,0.17-0.01,0.2-0.03c0.04-0.03,0.08-0.06,0.1-0.1c0.02-0.04,0.03-0.13,0.03-0.24v-1.5H55.71z"/>
			<path d="M57.98,18.38v-0.21c0.14-0.02,0.26-0.04,0.35-0.07c0.1-0.03,0.2-0.08,0.33-0.14h0.19v2.03c0,0.07,0.01,0.12,0.03,0.16
				c0.02,0.04,0.05,0.06,0.08,0.08c0.04,0.02,0.1,0.02,0.2,0.02h0.12v0.21h-1.3v-0.21h0.1c0.11,0,0.19-0.01,0.23-0.03
				s0.07-0.05,0.08-0.09c0.02-0.04,0.02-0.12,0.02-0.26v-1.49H57.98z M58.62,16.82c0.08,0,0.15,0.03,0.21,0.08
				c0.06,0.06,0.09,0.12,0.09,0.21c0,0.08-0.03,0.15-0.09,0.21c-0.06,0.06-0.13,0.09-0.21,0.09s-0.15-0.03-0.21-0.09
				c-0.06-0.06-0.09-0.13-0.09-0.21c0-0.08,0.03-0.15,0.09-0.21S58.54,16.82,58.62,16.82z"/>
			<path d="M59.56,18.38v-0.21c0.15-0.02,0.26-0.04,0.34-0.06s0.18-0.07,0.32-0.15h0.18v0.48c0.22-0.19,0.41-0.31,0.57-0.38
				c0.16-0.07,0.32-0.1,0.48-0.1c0.14,0,0.26,0.02,0.37,0.07c0.11,0.05,0.19,0.11,0.26,0.19c0.07,0.08,0.11,0.17,0.13,0.27
				c0.01,0.06,0.02,0.16,0.02,0.28v1.12c0,0.13,0.01,0.22,0.03,0.26c0.02,0.04,0.05,0.07,0.09,0.08c0.04,0.02,0.15,0.03,0.31,0.03
				v0.21h-1.3v-0.21h0.07c0.12,0,0.2-0.01,0.25-0.03c0.04-0.02,0.08-0.05,0.1-0.1c0.02-0.04,0.03-0.13,0.03-0.26v-0.93
				c0-0.19-0.02-0.33-0.05-0.4c-0.03-0.07-0.08-0.13-0.16-0.18c-0.08-0.05-0.17-0.07-0.29-0.07c-0.14,0-0.28,0.04-0.44,0.11
				c-0.16,0.07-0.31,0.17-0.45,0.31v1.17c0,0.13,0.01,0.22,0.03,0.26s0.05,0.08,0.1,0.1c0.03,0.02,0.11,0.03,0.24,0.03h0.07v0.21
				h-1.31v-0.21h0.06c0.13,0,0.21-0.01,0.26-0.03c0.05-0.02,0.08-0.06,0.1-0.11c0.01-0.03,0.02-0.12,0.02-0.28v-1.45H59.56z"/>
		</g>
		<g>
			<path d="M64.59,18.02h0.43v-0.38c0-0.26,0.09-0.48,0.26-0.64c0.17-0.17,0.4-0.25,0.68-0.25c0.19,0,0.33,0.04,0.43,0.12
				c0.1,0.08,0.16,0.16,0.16,0.25c0,0.06-0.02,0.11-0.06,0.15s-0.09,0.06-0.16,0.06c-0.06,0-0.1-0.01-0.14-0.03
				c-0.04-0.02-0.1-0.07-0.19-0.15c-0.09-0.08-0.18-0.13-0.26-0.13c-0.06,0-0.11,0.02-0.15,0.05c-0.04,0.04-0.08,0.09-0.1,0.15
				s-0.04,0.17-0.04,0.31v0.48h0.48v0.26h-0.48v1.65c0,0.11,0.01,0.19,0.03,0.23c0.02,0.04,0.04,0.06,0.08,0.08
				c0.03,0.01,0.11,0.02,0.24,0.02h0.1v0.21h-1.31v-0.21h0.08c0.13,0,0.22-0.01,0.25-0.03s0.06-0.04,0.08-0.08
				c0.02-0.04,0.02-0.12,0.02-0.26v-1.61h-0.43V18.02z"/>
			<path d="M66.13,18.02l0.96-0.04v1.63c0,0.14,0.02,0.26,0.06,0.34c0.04,0.08,0.1,0.15,0.18,0.2c0.08,0.05,0.18,0.07,0.29,0.07
				c0.14,0,0.29-0.04,0.46-0.11c0.17-0.07,0.34-0.18,0.51-0.32v-1.18c0-0.12-0.01-0.21-0.03-0.25s-0.05-0.07-0.1-0.09
				s-0.12-0.04-0.22-0.04h-0.19v-0.21l0.96-0.04v1.89c0,0.12,0.01,0.21,0.03,0.25c0.02,0.05,0.05,0.08,0.09,0.1
				c0.04,0.02,0.12,0.03,0.24,0.03h0.08v0.21l-0.84,0.04v-0.47c-0.23,0.18-0.43,0.31-0.61,0.38c-0.17,0.07-0.35,0.1-0.52,0.1
				c-0.13,0-0.25-0.02-0.34-0.05c-0.1-0.04-0.18-0.09-0.26-0.16c-0.07-0.07-0.13-0.16-0.17-0.26c-0.04-0.1-0.06-0.21-0.06-0.32
				v-1.15c0-0.1-0.01-0.17-0.03-0.22c-0.02-0.04-0.05-0.07-0.09-0.1c-0.04-0.02-0.1-0.04-0.18-0.04h-0.23V18.02z M67.42,16.97
				c0.08,0,0.16,0.03,0.22,0.09c0.06,0.06,0.09,0.13,0.09,0.22c0,0.08-0.03,0.16-0.09,0.22c-0.06,0.06-0.13,0.09-0.22,0.09
				s-0.16-0.03-0.22-0.09c-0.06-0.06-0.09-0.13-0.09-0.22c0-0.09,0.03-0.16,0.09-0.22C67.26,17,67.34,16.97,67.42,16.97z
				 M68.27,16.97c0.08,0,0.16,0.03,0.22,0.09c0.06,0.06,0.09,0.13,0.09,0.22c0,0.08-0.03,0.16-0.09,0.22
				c-0.06,0.06-0.13,0.09-0.22,0.09c-0.09,0-0.16-0.03-0.22-0.09c-0.06-0.06-0.09-0.13-0.09-0.22c0-0.09,0.03-0.16,0.09-0.22
				C68.11,17,68.18,16.97,68.27,16.97z"/>
			<path d="M69.8,18.38v-0.21c0.12-0.01,0.23-0.03,0.33-0.06c0.1-0.03,0.21-0.08,0.33-0.15h0.19v0.48c0.12-0.15,0.26-0.26,0.42-0.35
				c0.16-0.09,0.3-0.13,0.43-0.13c0.12,0,0.22,0.03,0.3,0.09c0.07,0.06,0.11,0.13,0.11,0.22c0,0.06-0.02,0.11-0.07,0.16
				c-0.05,0.05-0.11,0.07-0.17,0.07c-0.03,0-0.06,0-0.08-0.01s-0.05-0.03-0.1-0.06c-0.09-0.06-0.17-0.09-0.23-0.09
				c-0.08,0-0.18,0.04-0.28,0.11c-0.13,0.09-0.23,0.18-0.3,0.27v1.17c0,0.1,0.01,0.17,0.02,0.21c0.01,0.04,0.03,0.07,0.05,0.09
				s0.06,0.05,0.09,0.06c0.04,0.01,0.1,0.02,0.2,0.02h0.08v0.21H69.8v-0.21h0.11c0.1,0,0.17-0.01,0.2-0.03
				c0.04-0.03,0.08-0.06,0.1-0.1c0.02-0.04,0.03-0.13,0.03-0.24v-1.5H69.8z"/>
		</g>
		<g>
			<path d="M73.76,16.93h1.4c0.42,0,0.72,0.03,0.88,0.08c0.2,0.06,0.37,0.17,0.5,0.33c0.13,0.16,0.2,0.35,0.2,0.59
				c0,0.21-0.05,0.38-0.15,0.53c-0.12,0.18-0.27,0.31-0.44,0.38c-0.17,0.08-0.44,0.11-0.81,0.11h-0.65v0.91
				c0,0.13,0.01,0.22,0.02,0.26c0.02,0.05,0.05,0.08,0.08,0.1c0.04,0.02,0.11,0.03,0.22,0.03h0.12v0.21h-1.37v-0.21h0.08
				c0.12,0,0.2-0.01,0.24-0.03c0.04-0.02,0.07-0.05,0.09-0.09c0.02-0.04,0.03-0.12,0.03-0.24v-2.42c0-0.11-0.01-0.19-0.03-0.23
				c-0.02-0.04-0.05-0.07-0.09-0.08c-0.04-0.02-0.12-0.03-0.24-0.03h-0.08V16.93z M74.68,17.21v1.48h0.55
				c0.28,0,0.47-0.02,0.58-0.07c0.11-0.05,0.2-0.13,0.28-0.25c0.07-0.12,0.11-0.26,0.11-0.42c0-0.18-0.04-0.33-0.13-0.45
				c-0.08-0.12-0.2-0.2-0.35-0.24c-0.1-0.03-0.3-0.04-0.59-0.04H74.68z"/>
			<path d="M78.65,18.02h0.18l0.23,0.78l-0.23,0.08c-0.09-0.21-0.22-0.37-0.38-0.49c-0.17-0.12-0.33-0.18-0.5-0.18
				c-0.13,0-0.24,0.03-0.32,0.1s-0.12,0.14-0.12,0.22c0,0.08,0.03,0.14,0.09,0.2c0.06,0.06,0.19,0.12,0.39,0.2l0.49,0.17
				c0.28,0.1,0.47,0.21,0.57,0.32c0.1,0.11,0.15,0.25,0.15,0.39c0,0.12-0.04,0.24-0.11,0.36s-0.18,0.21-0.32,0.27
				c-0.14,0.07-0.3,0.1-0.49,0.1c-0.28,0-0.53-0.08-0.73-0.24l-0.05,0.18h-0.18l-0.32-0.83l0.23-0.09c0.15,0.24,0.3,0.42,0.44,0.52
				c0.19,0.14,0.4,0.22,0.62,0.22c0.15,0,0.27-0.04,0.36-0.12c0.09-0.08,0.14-0.17,0.14-0.26c0-0.08-0.03-0.15-0.09-0.22
				c-0.06-0.06-0.18-0.13-0.35-0.19l-0.59-0.21c-0.25-0.09-0.43-0.19-0.52-0.3c-0.1-0.11-0.15-0.23-0.15-0.37
				c0-0.17,0.08-0.32,0.24-0.45s0.36-0.2,0.61-0.2c0.13,0,0.24,0.02,0.34,0.05s0.2,0.09,0.3,0.16L78.65,18.02z"/>
			<path d="M79.42,18.02h1.23v0.21h-0.1c-0.1,0-0.15,0-0.17,0.01c-0.02,0.01-0.04,0.02-0.06,0.04s-0.02,0.05-0.02,0.08
				c0,0.05,0.02,0.12,0.07,0.23l0.59,1.38l0.54-1.32c0.06-0.16,0.1-0.26,0.1-0.31c0-0.04-0.01-0.07-0.04-0.08
				c-0.03-0.02-0.09-0.03-0.19-0.03h-0.12v-0.21h1.04v0.21h-0.06c-0.1,0-0.17,0.01-0.2,0.02c-0.03,0.01-0.06,0.04-0.09,0.08
				c-0.03,0.04-0.07,0.14-0.14,0.28l-0.93,2.17c-0.07,0.16-0.14,0.3-0.23,0.43c-0.08,0.13-0.19,0.24-0.31,0.31
				c-0.12,0.07-0.26,0.11-0.41,0.11c-0.17,0-0.31-0.04-0.42-0.12c-0.09-0.07-0.13-0.15-0.13-0.25c0-0.06,0.02-0.11,0.06-0.16
				c0.04-0.04,0.08-0.06,0.14-0.06c0.04,0,0.08,0.01,0.11,0.03c0.02,0.01,0.07,0.04,0.14,0.11c0.08,0.07,0.14,0.12,0.18,0.14
				c0.03,0.02,0.07,0.03,0.1,0.03c0.07,0,0.14-0.02,0.21-0.07c0.07-0.05,0.12-0.11,0.17-0.2c0.07-0.12,0.12-0.24,0.17-0.35
				l0.11-0.25l-0.84-1.88c-0.06-0.13-0.11-0.22-0.15-0.27c-0.04-0.05-0.08-0.07-0.12-0.08c-0.02-0.01-0.09-0.01-0.21-0.01V18.02z"/>
			<path d="M84.68,19.76l0.16,0.13c-0.32,0.42-0.7,0.64-1.14,0.64c-0.35,0-0.64-0.12-0.88-0.37c-0.24-0.25-0.36-0.55-0.36-0.92
				c0-0.25,0.06-0.47,0.17-0.66c0.11-0.2,0.26-0.35,0.46-0.46c0.2-0.11,0.42-0.16,0.68-0.16c0.29,0,0.53,0.07,0.73,0.21
				c0.19,0.14,0.29,0.29,0.29,0.43c0,0.08-0.02,0.14-0.07,0.18c-0.04,0.04-0.1,0.06-0.15,0.06c-0.03,0-0.06-0.01-0.09-0.02
				s-0.06-0.04-0.09-0.07c-0.01-0.02-0.04-0.06-0.07-0.14c-0.04-0.1-0.08-0.16-0.11-0.2c-0.05-0.07-0.12-0.12-0.19-0.16
				s-0.16-0.06-0.26-0.06c-0.14,0-0.28,0.04-0.4,0.12c-0.12,0.08-0.22,0.2-0.29,0.35c-0.07,0.16-0.11,0.34-0.11,0.55
				c0,0.33,0.09,0.6,0.27,0.79c0.15,0.17,0.34,0.25,0.55,0.25c0.1,0,0.2-0.02,0.3-0.05c0.1-0.03,0.2-0.08,0.29-0.15
				C84.42,20.03,84.53,19.92,84.68,19.76z"/>
			<path d="M85.14,17.18v-0.22c0.16-0.02,0.29-0.05,0.38-0.08c0.09-0.03,0.19-0.08,0.29-0.14H86v1.68c0.19-0.16,0.37-0.28,0.54-0.35
				s0.33-0.11,0.49-0.11c0.23,0,0.41,0.07,0.56,0.2c0.14,0.13,0.22,0.3,0.22,0.49v1.25c0,0.12,0.01,0.2,0.03,0.24
				s0.05,0.07,0.1,0.08c0.05,0.02,0.15,0.03,0.31,0.03v0.21h-1.31v-0.21h0.1c0.12,0,0.2-0.01,0.24-0.03
				c0.04-0.02,0.07-0.05,0.09-0.1c0.02-0.04,0.03-0.14,0.03-0.28v-0.86c0-0.19-0.01-0.32-0.02-0.37c-0.03-0.1-0.08-0.18-0.16-0.24
				c-0.08-0.06-0.18-0.09-0.3-0.09c-0.14,0-0.28,0.03-0.44,0.1c-0.15,0.07-0.31,0.17-0.47,0.31v1.27c0,0.09,0.01,0.16,0.03,0.19
				c0.02,0.03,0.04,0.06,0.08,0.07c0.04,0.01,0.12,0.02,0.23,0.02h0.1v0.21h-1.31v-0.21h0.08c0.12,0,0.21-0.02,0.27-0.05
				c0.03-0.01,0.05-0.04,0.07-0.09s0.02-0.17,0.02-0.37v-2.58H85.14z"/>
			<path d="M89.85,17.96c0.25,0,0.46,0.05,0.65,0.15c0.18,0.1,0.33,0.25,0.43,0.45c0.1,0.2,0.16,0.42,0.16,0.68
				s-0.05,0.48-0.16,0.68c-0.11,0.2-0.25,0.35-0.44,0.45c-0.19,0.1-0.41,0.16-0.66,0.16c-0.41,0-0.72-0.13-0.92-0.38
				c-0.21-0.25-0.31-0.55-0.31-0.9c0-0.25,0.05-0.47,0.16-0.67c0.11-0.2,0.26-0.35,0.45-0.45S89.6,17.96,89.85,17.96z M89.83,18.2
				c-0.19,0-0.36,0.08-0.49,0.23c-0.17,0.19-0.25,0.46-0.25,0.83c0,0.35,0.07,0.61,0.22,0.8c0.13,0.16,0.31,0.24,0.53,0.24
				c0.14,0,0.27-0.04,0.38-0.11c0.11-0.08,0.2-0.2,0.27-0.36c0.07-0.17,0.1-0.36,0.1-0.59c0-0.22-0.04-0.42-0.11-0.59
				c-0.06-0.14-0.14-0.25-0.26-0.32S89.97,18.2,89.83,18.2z"/>
			<path d="M92.14,17.16h0.18v0.86h0.75v0.25h-0.75v1.53c0,0.13,0.01,0.22,0.03,0.28c0.02,0.06,0.06,0.1,0.12,0.14
				c0.05,0.04,0.12,0.05,0.18,0.05c0.16,0,0.34-0.07,0.53-0.22v0.25c-0.22,0.15-0.45,0.23-0.67,0.23c-0.13,0-0.25-0.03-0.35-0.09
				c-0.1-0.06-0.17-0.12-0.21-0.2c-0.04-0.08-0.06-0.21-0.06-0.41v-1.56h-0.44v-0.21c0.14-0.03,0.26-0.08,0.34-0.15
				c0.09-0.07,0.16-0.16,0.21-0.26C92.07,17.54,92.11,17.38,92.14,17.16z"/>
			<path d="M93.45,17.18v-0.22c0.16-0.02,0.29-0.05,0.38-0.08c0.09-0.03,0.19-0.08,0.29-0.14h0.2v1.68
				c0.19-0.16,0.37-0.28,0.54-0.35s0.33-0.11,0.49-0.11c0.23,0,0.41,0.07,0.56,0.2c0.15,0.13,0.22,0.3,0.22,0.49v1.25
				c0,0.12,0.01,0.2,0.03,0.24s0.05,0.07,0.1,0.08c0.05,0.02,0.15,0.03,0.31,0.03v0.21h-1.31v-0.21h0.1c0.12,0,0.21-0.01,0.24-0.03
				s0.07-0.05,0.08-0.1c0.02-0.04,0.03-0.14,0.03-0.28v-0.86c0-0.19-0.01-0.32-0.02-0.37c-0.03-0.1-0.08-0.18-0.16-0.24
				c-0.08-0.06-0.18-0.09-0.3-0.09c-0.14,0-0.28,0.03-0.43,0.1c-0.15,0.07-0.31,0.17-0.47,0.31v1.27c0,0.09,0.01,0.16,0.03,0.19
				c0.02,0.03,0.04,0.06,0.08,0.07c0.04,0.01,0.12,0.02,0.23,0.02h0.1v0.21h-1.31v-0.21h0.08c0.12,0,0.21-0.02,0.27-0.05
				c0.03-0.01,0.05-0.04,0.07-0.09c0.01-0.04,0.02-0.17,0.02-0.37v-2.58H93.45z"/>
			<path d="M99.05,19.81l0.16,0.13c-0.12,0.15-0.24,0.26-0.36,0.35c-0.12,0.09-0.23,0.15-0.33,0.18c-0.1,0.04-0.22,0.05-0.36,0.05
				c-0.25,0-0.46-0.05-0.63-0.15c-0.2-0.12-0.35-0.27-0.46-0.46s-0.16-0.41-0.16-0.66c0-0.27,0.05-0.5,0.15-0.68
				s0.25-0.34,0.43-0.45c0.19-0.11,0.4-0.16,0.64-0.16c0.18,0,0.34,0.03,0.47,0.08c0.13,0.06,0.25,0.14,0.34,0.25
				c0.09,0.11,0.16,0.24,0.2,0.39c0.02,0.09,0.04,0.2,0.04,0.33H97.4c0,0.08-0.01,0.14-0.01,0.19c0,0.21,0.04,0.4,0.11,0.57
				s0.17,0.29,0.29,0.37s0.26,0.12,0.42,0.12c0.13,0,0.26-0.03,0.38-0.09C98.72,20.11,98.87,19.99,99.05,19.81z M98.72,18.79
				c-0.03-0.16-0.06-0.27-0.11-0.34s-0.11-0.13-0.2-0.18c-0.09-0.04-0.18-0.07-0.29-0.07s-0.21,0.02-0.3,0.07
				c-0.09,0.04-0.17,0.11-0.23,0.18c-0.06,0.08-0.12,0.19-0.16,0.34H98.72z"/>
			<path d="M99.57,18.38v-0.21c0.12-0.01,0.23-0.03,0.33-0.06c0.1-0.03,0.21-0.08,0.33-0.15h0.19v0.48
				c0.12-0.15,0.26-0.26,0.42-0.35c0.16-0.09,0.3-0.13,0.43-0.13c0.12,0,0.22,0.03,0.3,0.09c0.07,0.06,0.11,0.13,0.11,0.22
				c0,0.06-0.02,0.11-0.07,0.16c-0.05,0.05-0.11,0.07-0.17,0.07c-0.03,0-0.06,0-0.08-0.01s-0.05-0.03-0.1-0.06
				c-0.09-0.06-0.17-0.09-0.23-0.09c-0.08,0-0.18,0.04-0.28,0.11c-0.13,0.09-0.23,0.18-0.3,0.27v1.17c0,0.1,0.01,0.17,0.02,0.21
				s0.03,0.07,0.05,0.09s0.06,0.05,0.09,0.06c0.04,0.01,0.1,0.02,0.2,0.02h0.08v0.21h-1.31v-0.21h0.11c0.1,0,0.17-0.01,0.2-0.03
				c0.04-0.03,0.08-0.06,0.1-0.1c0.02-0.04,0.03-0.13,0.03-0.24v-1.5H99.57z"/>
			<path d="M103.69,19v-0.28c0-0.19-0.05-0.32-0.16-0.4s-0.25-0.12-0.44-0.12c-0.1,0-0.18,0.01-0.25,0.03
				c-0.07,0.02-0.13,0.05-0.17,0.09c-0.04,0.04-0.08,0.08-0.1,0.14c-0.01,0.02-0.03,0.09-0.06,0.21c-0.04,0.15-0.12,0.23-0.24,0.23
				c-0.07,0-0.12-0.02-0.16-0.07s-0.06-0.1-0.06-0.18c0-0.11,0.04-0.22,0.12-0.33c0.08-0.11,0.21-0.2,0.38-0.27s0.37-0.11,0.6-0.11
				c0.22,0,0.4,0.03,0.56,0.1c0.15,0.07,0.27,0.16,0.34,0.29c0.05,0.09,0.08,0.24,0.08,0.47v0.98c0,0.14,0,0.23,0.01,0.27
				c0.02,0.07,0.05,0.13,0.1,0.16s0.11,0.05,0.18,0.05c0.08,0,0.17-0.02,0.28-0.05v0.22c-0.14,0.04-0.27,0.06-0.38,0.06
				c-0.12,0-0.22-0.02-0.3-0.05c-0.08-0.03-0.15-0.08-0.2-0.15c-0.05-0.06-0.09-0.14-0.1-0.23c-0.2,0.16-0.39,0.27-0.55,0.33
				c-0.16,0.06-0.33,0.1-0.5,0.1c-0.23,0-0.42-0.06-0.57-0.19c-0.15-0.13-0.22-0.28-0.22-0.45c0-0.1,0.03-0.2,0.08-0.29
				s0.13-0.17,0.24-0.25c0.11-0.07,0.28-0.13,0.51-0.19C102.95,19.09,103.27,19.04,103.69,19z M103.68,19.22
				c-0.39,0.06-0.63,0.1-0.73,0.12c-0.18,0.04-0.32,0.09-0.39,0.14c-0.08,0.05-0.14,0.11-0.17,0.16c-0.04,0.06-0.05,0.12-0.05,0.19
				c0,0.07,0.02,0.13,0.06,0.19s0.09,0.11,0.16,0.15s0.14,0.05,0.22,0.05c0.11,0,0.23-0.03,0.37-0.08s0.32-0.15,0.53-0.31V19.22z"/>
			<path d="M104.85,18.38v-0.21c0.13,0,0.24-0.02,0.34-0.05c0.1-0.03,0.21-0.09,0.32-0.17h0.2v0.42c0.21-0.17,0.39-0.28,0.53-0.34
				s0.28-0.09,0.42-0.09c0.29,0,0.54,0.11,0.74,0.34s0.31,0.52,0.31,0.88c0,0.4-0.12,0.73-0.35,0.99c-0.21,0.24-0.48,0.35-0.82,0.35
				c-0.17,0-0.32-0.03-0.47-0.09c-0.1-0.04-0.23-0.12-0.36-0.24v0.83c0,0.12,0,0.2,0.01,0.22c0.01,0.03,0.03,0.06,0.05,0.08
				s0.06,0.04,0.1,0.04c0.03,0,0.12,0.01,0.29,0.01v0.21h-1.31v-0.21h0.11c0.12,0,0.19-0.01,0.23-0.03s0.06-0.05,0.08-0.08
				c0.01-0.03,0.02-0.12,0.02-0.26v-2.63H104.85z M105.71,18.64v0.87c0,0.12,0.01,0.2,0.02,0.26c0.02,0.09,0.06,0.16,0.12,0.23
				c0.06,0.07,0.14,0.13,0.24,0.18s0.21,0.07,0.32,0.07c0.22,0,0.41-0.08,0.57-0.25s0.24-0.42,0.24-0.75c0-0.31-0.07-0.56-0.2-0.73
				c-0.13-0.17-0.29-0.26-0.47-0.26c-0.12,0-0.25,0.03-0.38,0.09S105.87,18.52,105.71,18.64z"/>
			<path d="M108.07,18.38v-0.21c0.14-0.02,0.26-0.04,0.35-0.07c0.1-0.03,0.21-0.08,0.33-0.14h0.19v2.03c0,0.07,0.01,0.12,0.03,0.16
				s0.05,0.06,0.08,0.08c0.04,0.02,0.1,0.02,0.2,0.02h0.12v0.21h-1.3v-0.21h0.1c0.11,0,0.19-0.01,0.23-0.03s0.07-0.05,0.08-0.09
				c0.02-0.04,0.02-0.12,0.02-0.26v-1.49H108.07z M108.72,16.82c0.08,0,0.15,0.03,0.21,0.08s0.09,0.12,0.09,0.21
				c0,0.08-0.03,0.15-0.09,0.21c-0.06,0.06-0.13,0.09-0.21,0.09s-0.15-0.03-0.21-0.09c-0.06-0.06-0.09-0.13-0.09-0.21
				c0-0.08,0.03-0.15,0.09-0.21S108.64,16.82,108.72,16.82z"/>
			<path d="M111.82,19.81l0.16,0.13c-0.12,0.15-0.24,0.26-0.36,0.35c-0.12,0.09-0.23,0.15-0.33,0.18c-0.1,0.04-0.22,0.05-0.36,0.05
				c-0.25,0-0.46-0.05-0.63-0.15c-0.2-0.12-0.35-0.27-0.46-0.46c-0.11-0.19-0.16-0.41-0.16-0.66c0-0.27,0.05-0.5,0.15-0.68
				c0.1-0.19,0.25-0.34,0.43-0.45c0.19-0.11,0.4-0.16,0.64-0.16c0.18,0,0.34,0.03,0.47,0.08s0.25,0.14,0.34,0.25
				c0.09,0.11,0.16,0.24,0.2,0.39c0.02,0.09,0.04,0.2,0.04,0.33h-1.79c0,0.08-0.01,0.14-0.01,0.19c0,0.21,0.04,0.4,0.11,0.57
				s0.17,0.29,0.3,0.37c0.12,0.08,0.26,0.12,0.42,0.12c0.13,0,0.26-0.03,0.38-0.09C111.5,20.11,111.65,19.99,111.82,19.81z
				 M111.5,18.79c-0.03-0.16-0.06-0.27-0.11-0.34c-0.05-0.07-0.11-0.13-0.2-0.18s-0.18-0.07-0.29-0.07c-0.11,0-0.21,0.02-0.3,0.07
				c-0.09,0.04-0.17,0.11-0.23,0.18c-0.06,0.08-0.12,0.19-0.16,0.34H111.5z"/>
		</g>
		<g>
			<path d="M114.25,18.68c0-0.21,0.07-0.39,0.21-0.54c0.14-0.15,0.32-0.22,0.52-0.22c0.2,0,0.38,0.07,0.52,0.22
				c0.14,0.15,0.21,0.33,0.21,0.54c0,0.21-0.07,0.38-0.21,0.53c-0.14,0.15-0.32,0.22-0.52,0.22c-0.2,0-0.38-0.07-0.52-0.22
				C114.32,19.06,114.25,18.89,114.25,18.68z"/>
		</g>
		<g>
			<path d="M118.03,16.93h1.4c0.42,0,0.72,0.03,0.88,0.08c0.2,0.06,0.37,0.17,0.5,0.33c0.13,0.16,0.2,0.35,0.2,0.59
				c0,0.21-0.05,0.38-0.15,0.53c-0.12,0.18-0.27,0.31-0.44,0.38s-0.44,0.11-0.81,0.11h-0.65v0.91c0,0.13,0.01,0.22,0.02,0.26
				c0.02,0.05,0.05,0.08,0.08,0.1c0.04,0.02,0.11,0.03,0.22,0.03h0.12v0.21h-1.37v-0.21h0.08c0.12,0,0.2-0.01,0.24-0.03
				c0.04-0.02,0.07-0.05,0.09-0.09c0.02-0.04,0.03-0.12,0.03-0.24v-2.42c0-0.11-0.01-0.19-0.03-0.23c-0.02-0.04-0.05-0.07-0.09-0.08
				c-0.04-0.02-0.12-0.03-0.24-0.03h-0.08V16.93z M118.96,17.21v1.48h0.55c0.28,0,0.47-0.02,0.58-0.07c0.11-0.05,0.2-0.13,0.28-0.25
				c0.07-0.12,0.11-0.26,0.11-0.42c0-0.18-0.04-0.33-0.13-0.45c-0.08-0.12-0.2-0.2-0.35-0.24c-0.1-0.03-0.3-0.04-0.59-0.04H118.96z"
				/>
			<path d="M121.21,17.18v-0.22c0.16-0.02,0.29-0.05,0.38-0.08s0.19-0.08,0.29-0.14h0.2v1.68c0.19-0.16,0.37-0.28,0.54-0.35
				c0.17-0.07,0.33-0.11,0.49-0.11c0.23,0,0.41,0.07,0.56,0.2c0.15,0.13,0.22,0.3,0.22,0.49v1.25c0,0.12,0.01,0.2,0.03,0.24
				s0.05,0.07,0.1,0.08c0.04,0.02,0.15,0.03,0.31,0.03v0.21h-1.31v-0.21h0.1c0.12,0,0.21-0.01,0.24-0.03
				c0.04-0.02,0.07-0.05,0.08-0.1c0.02-0.04,0.03-0.14,0.03-0.28v-0.86c0-0.19-0.01-0.32-0.02-0.37c-0.03-0.1-0.08-0.18-0.16-0.24
				c-0.08-0.06-0.18-0.09-0.3-0.09c-0.14,0-0.28,0.03-0.43,0.1s-0.31,0.17-0.47,0.31v1.27c0,0.09,0.01,0.16,0.03,0.19
				s0.04,0.06,0.08,0.07c0.04,0.01,0.12,0.02,0.23,0.02h0.1v0.21h-1.31v-0.21h0.08c0.12,0,0.21-0.02,0.27-0.05
				c0.03-0.01,0.05-0.04,0.07-0.09s0.02-0.17,0.02-0.37v-2.58H121.21z"/>
			<path d="M124.42,18.02h1.23v0.21h-0.1c-0.1,0-0.15,0-0.17,0.01c-0.02,0.01-0.04,0.02-0.06,0.04c-0.01,0.02-0.02,0.05-0.02,0.08
				c0,0.05,0.02,0.12,0.07,0.23l0.59,1.38l0.54-1.32c0.06-0.16,0.1-0.26,0.1-0.31c0-0.04-0.02-0.07-0.04-0.08s-0.09-0.03-0.19-0.03
				h-0.12v-0.21h1.04v0.21h-0.06c-0.1,0-0.17,0.01-0.2,0.02s-0.06,0.04-0.09,0.08c-0.03,0.04-0.07,0.14-0.14,0.28l-0.93,2.17
				c-0.07,0.16-0.14,0.3-0.22,0.43c-0.08,0.13-0.19,0.24-0.31,0.31c-0.12,0.07-0.26,0.11-0.41,0.11c-0.17,0-0.31-0.04-0.42-0.12
				c-0.09-0.07-0.13-0.15-0.13-0.25c0-0.06,0.02-0.11,0.06-0.16c0.04-0.04,0.08-0.06,0.14-0.06c0.04,0,0.08,0.01,0.12,0.03
				c0.02,0.01,0.07,0.04,0.14,0.11c0.08,0.07,0.14,0.12,0.18,0.14c0.04,0.02,0.07,0.03,0.1,0.03c0.07,0,0.14-0.02,0.21-0.07
				c0.07-0.05,0.12-0.11,0.17-0.2c0.07-0.12,0.12-0.24,0.17-0.35l0.11-0.25l-0.84-1.88c-0.06-0.13-0.11-0.22-0.15-0.27
				c-0.04-0.05-0.08-0.07-0.12-0.08c-0.02-0.01-0.09-0.01-0.21-0.01V18.02z"/>
			<path d="M129.16,18.02h0.18l0.23,0.78l-0.23,0.08c-0.09-0.21-0.22-0.37-0.38-0.49c-0.17-0.12-0.33-0.18-0.5-0.18
				c-0.13,0-0.24,0.03-0.32,0.1c-0.08,0.06-0.12,0.14-0.12,0.22c0,0.08,0.03,0.14,0.09,0.2c0.06,0.06,0.19,0.12,0.39,0.2l0.49,0.17
				c0.28,0.1,0.47,0.21,0.57,0.32c0.1,0.11,0.15,0.25,0.15,0.39c0,0.12-0.04,0.24-0.11,0.36s-0.18,0.21-0.32,0.27
				c-0.14,0.07-0.3,0.1-0.49,0.1c-0.28,0-0.53-0.08-0.73-0.24L128,20.47h-0.18l-0.32-0.83l0.23-0.09c0.15,0.24,0.3,0.42,0.44,0.52
				c0.19,0.14,0.4,0.22,0.62,0.22c0.15,0,0.27-0.04,0.36-0.12c0.09-0.08,0.14-0.17,0.14-0.26c0-0.08-0.03-0.15-0.09-0.22
				c-0.06-0.06-0.18-0.13-0.35-0.19l-0.59-0.21c-0.25-0.09-0.43-0.19-0.53-0.3c-0.1-0.11-0.15-0.23-0.15-0.37
				c0-0.17,0.08-0.32,0.24-0.45c0.16-0.13,0.36-0.2,0.61-0.2c0.13,0,0.24,0.02,0.34,0.05s0.2,0.09,0.3,0.16L129.16,18.02z"/>
			<path d="M130.12,18.38v-0.21c0.14-0.02,0.26-0.04,0.35-0.07c0.1-0.03,0.2-0.08,0.33-0.14h0.19v2.03c0,0.07,0.01,0.12,0.03,0.16
				c0.02,0.04,0.05,0.06,0.09,0.08c0.04,0.02,0.1,0.02,0.2,0.02h0.12v0.21h-1.3v-0.21h0.1c0.11,0,0.19-0.01,0.23-0.03
				s0.07-0.05,0.08-0.09c0.02-0.04,0.02-0.12,0.02-0.26v-1.49H130.12z M130.77,16.82c0.08,0,0.15,0.03,0.21,0.08
				c0.06,0.06,0.09,0.12,0.09,0.21c0,0.08-0.03,0.15-0.09,0.21c-0.06,0.06-0.13,0.09-0.21,0.09c-0.08,0-0.15-0.03-0.21-0.09
				c-0.06-0.06-0.09-0.13-0.09-0.21c0-0.08,0.03-0.15,0.09-0.21C130.62,16.84,130.68,16.82,130.77,16.82z"/>
			<path d="M132.98,17.96c0.25,0,0.46,0.05,0.65,0.15c0.18,0.1,0.33,0.25,0.43,0.45c0.1,0.2,0.16,0.42,0.16,0.68
				s-0.05,0.48-0.16,0.68c-0.11,0.2-0.25,0.35-0.44,0.45c-0.19,0.1-0.41,0.16-0.66,0.16c-0.41,0-0.72-0.13-0.92-0.38
				c-0.21-0.25-0.31-0.55-0.31-0.9c0-0.25,0.05-0.47,0.16-0.67c0.11-0.2,0.26-0.35,0.45-0.45S132.74,17.96,132.98,17.96z
				 M132.96,18.2c-0.19,0-0.36,0.08-0.49,0.23c-0.17,0.19-0.25,0.46-0.25,0.83c0,0.35,0.07,0.61,0.22,0.8
				c0.13,0.16,0.31,0.24,0.53,0.24c0.14,0,0.27-0.04,0.38-0.11c0.11-0.08,0.2-0.2,0.27-0.36c0.07-0.17,0.1-0.36,0.1-0.59
				c0-0.22-0.04-0.42-0.11-0.59c-0.06-0.14-0.14-0.25-0.26-0.32S133.1,18.2,132.96,18.2z"/>
			<path d="M135.28,17.16h0.18v0.86h0.75v0.25h-0.75v1.53c0,0.13,0.01,0.22,0.03,0.28c0.02,0.06,0.06,0.1,0.12,0.14
				c0.05,0.04,0.12,0.05,0.18,0.05c0.16,0,0.34-0.07,0.53-0.22v0.25c-0.22,0.15-0.45,0.23-0.67,0.23c-0.13,0-0.25-0.03-0.35-0.09
				c-0.1-0.06-0.17-0.12-0.21-0.2c-0.04-0.08-0.06-0.21-0.06-0.41v-1.56h-0.44v-0.21c0.14-0.03,0.26-0.08,0.34-0.15
				c0.09-0.07,0.16-0.16,0.21-0.26C135.2,17.54,135.24,17.38,135.28,17.16z"/>
			<path d="M136.58,17.18v-0.22c0.16-0.02,0.29-0.05,0.38-0.08c0.09-0.03,0.19-0.08,0.29-0.14h0.2v1.68
				c0.19-0.16,0.37-0.28,0.54-0.35s0.33-0.11,0.49-0.11c0.23,0,0.41,0.07,0.56,0.2c0.15,0.13,0.22,0.3,0.22,0.49v1.25
				c0,0.12,0.01,0.2,0.03,0.24s0.05,0.07,0.1,0.08c0.05,0.02,0.15,0.03,0.31,0.03v0.21h-1.31v-0.21h0.1c0.12,0,0.21-0.01,0.24-0.03
				s0.07-0.05,0.08-0.1c0.02-0.04,0.03-0.14,0.03-0.28v-0.86c0-0.19-0.01-0.32-0.02-0.37c-0.03-0.1-0.08-0.18-0.16-0.24
				c-0.08-0.06-0.18-0.09-0.3-0.09c-0.14,0-0.28,0.03-0.43,0.1c-0.15,0.07-0.31,0.17-0.47,0.31v1.27c0,0.09,0.01,0.16,0.03,0.19
				c0.02,0.03,0.04,0.06,0.08,0.07c0.04,0.01,0.12,0.02,0.23,0.02h0.1v0.21h-1.31v-0.21h0.08c0.12,0,0.21-0.02,0.27-0.05
				c0.03-0.01,0.05-0.04,0.07-0.09c0.01-0.04,0.02-0.17,0.02-0.37v-2.58H136.58z"/>
			<path d="M142.18,19.81l0.16,0.13c-0.12,0.15-0.24,0.26-0.36,0.35c-0.12,0.09-0.23,0.15-0.33,0.18c-0.1,0.04-0.22,0.05-0.36,0.05
				c-0.25,0-0.46-0.05-0.63-0.15c-0.2-0.12-0.35-0.27-0.46-0.46s-0.16-0.41-0.16-0.66c0-0.27,0.05-0.5,0.15-0.68
				s0.25-0.34,0.43-0.45c0.19-0.11,0.4-0.16,0.64-0.16c0.18,0,0.34,0.03,0.47,0.08c0.13,0.06,0.25,0.14,0.34,0.25
				c0.09,0.11,0.16,0.24,0.2,0.39c0.02,0.09,0.04,0.2,0.04,0.33h-1.79c0,0.08-0.01,0.14-0.01,0.19c0,0.21,0.04,0.4,0.11,0.57
				s0.17,0.29,0.29,0.37s0.26,0.12,0.42,0.12c0.13,0,0.26-0.03,0.38-0.09C141.85,20.11,142,19.99,142.18,19.81z M141.85,18.79
				c-0.03-0.16-0.06-0.27-0.11-0.34s-0.11-0.13-0.2-0.18c-0.09-0.04-0.18-0.07-0.29-0.07s-0.21,0.02-0.3,0.07
				c-0.09,0.04-0.17,0.11-0.23,0.18c-0.06,0.08-0.12,0.19-0.16,0.34H141.85z"/>
			<path d="M142.71,18.38v-0.21c0.12-0.01,0.23-0.03,0.33-0.06c0.1-0.03,0.21-0.08,0.33-0.15h0.19v0.48
				c0.12-0.15,0.26-0.26,0.42-0.35c0.16-0.09,0.3-0.13,0.43-0.13c0.12,0,0.22,0.03,0.3,0.09c0.07,0.06,0.11,0.13,0.11,0.22
				c0,0.06-0.02,0.11-0.07,0.16c-0.05,0.05-0.11,0.07-0.17,0.07c-0.03,0-0.06,0-0.08-0.01s-0.05-0.03-0.1-0.06
				c-0.09-0.06-0.17-0.09-0.23-0.09c-0.08,0-0.18,0.04-0.28,0.11c-0.13,0.09-0.23,0.18-0.3,0.27v1.17c0,0.1,0.01,0.17,0.02,0.21
				s0.03,0.07,0.05,0.09s0.06,0.05,0.09,0.06c0.04,0.01,0.1,0.02,0.2,0.02h0.08v0.21h-1.31v-0.21h0.11c0.1,0,0.17-0.01,0.2-0.03
				c0.04-0.03,0.08-0.06,0.1-0.1c0.02-0.04,0.03-0.13,0.03-0.24v-1.5H142.71z"/>
			<path d="M146.82,19v-0.28c0-0.19-0.05-0.32-0.16-0.4s-0.25-0.12-0.44-0.12c-0.1,0-0.18,0.01-0.25,0.03
				c-0.07,0.02-0.13,0.05-0.17,0.09c-0.04,0.04-0.08,0.08-0.1,0.14c-0.01,0.02-0.03,0.09-0.06,0.21c-0.04,0.15-0.12,0.23-0.24,0.23
				c-0.07,0-0.12-0.02-0.16-0.07s-0.06-0.1-0.06-0.18c0-0.11,0.04-0.22,0.12-0.33c0.08-0.11,0.21-0.2,0.38-0.27s0.37-0.11,0.6-0.11
				c0.22,0,0.4,0.03,0.56,0.1c0.15,0.07,0.27,0.16,0.34,0.29c0.05,0.09,0.08,0.24,0.08,0.47v0.98c0,0.14,0,0.23,0.01,0.27
				c0.02,0.07,0.05,0.13,0.1,0.16s0.11,0.05,0.18,0.05c0.08,0,0.17-0.02,0.28-0.05v0.22c-0.14,0.04-0.27,0.06-0.38,0.06
				c-0.12,0-0.22-0.02-0.3-0.05c-0.08-0.03-0.15-0.08-0.2-0.15c-0.05-0.06-0.09-0.14-0.1-0.23c-0.2,0.16-0.39,0.27-0.55,0.33
				c-0.16,0.06-0.33,0.1-0.5,0.1c-0.23,0-0.42-0.06-0.57-0.19c-0.15-0.13-0.22-0.28-0.22-0.45c0-0.1,0.03-0.2,0.08-0.29
				s0.13-0.17,0.24-0.25c0.11-0.07,0.28-0.13,0.51-0.19C146.08,19.09,146.4,19.04,146.82,19z M146.82,19.22
				c-0.39,0.06-0.63,0.1-0.73,0.12c-0.18,0.04-0.32,0.09-0.39,0.14c-0.08,0.05-0.14,0.11-0.17,0.16c-0.04,0.06-0.05,0.12-0.05,0.19
				c0,0.07,0.02,0.13,0.06,0.19s0.09,0.11,0.16,0.15s0.14,0.05,0.22,0.05c0.11,0,0.23-0.03,0.37-0.08s0.32-0.15,0.53-0.31V19.22z"/>
			<path d="M147.98,18.38v-0.21c0.13,0,0.24-0.02,0.34-0.05c0.1-0.03,0.21-0.09,0.32-0.17h0.2v0.42c0.21-0.17,0.39-0.28,0.53-0.34
				s0.28-0.09,0.42-0.09c0.29,0,0.54,0.11,0.74,0.34s0.31,0.52,0.31,0.88c0,0.4-0.12,0.73-0.35,0.99c-0.21,0.24-0.48,0.35-0.82,0.35
				c-0.17,0-0.32-0.03-0.47-0.09c-0.1-0.04-0.23-0.12-0.36-0.24v0.83c0,0.12,0,0.2,0.01,0.22c0.01,0.03,0.03,0.06,0.05,0.08
				s0.06,0.04,0.1,0.04c0.03,0,0.12,0.01,0.29,0.01v0.21h-1.31v-0.21h0.11c0.12,0,0.19-0.01,0.23-0.03s0.06-0.05,0.08-0.08
				c0.01-0.03,0.02-0.12,0.02-0.26v-2.63H147.98z M148.84,18.64v0.87c0,0.12,0.01,0.2,0.02,0.26c0.02,0.09,0.06,0.16,0.12,0.23
				c0.06,0.07,0.14,0.13,0.24,0.18s0.21,0.07,0.32,0.07c0.22,0,0.41-0.08,0.57-0.25s0.24-0.42,0.24-0.75c0-0.31-0.07-0.56-0.2-0.73
				c-0.13-0.17-0.29-0.26-0.47-0.26c-0.12,0-0.25,0.03-0.38,0.09S149,18.52,148.84,18.64z"/>
			<path d="M153.4,19.81l0.16,0.13c-0.12,0.15-0.24,0.26-0.36,0.35c-0.12,0.09-0.22,0.15-0.33,0.18c-0.1,0.04-0.22,0.05-0.36,0.05
				c-0.25,0-0.46-0.05-0.63-0.15c-0.2-0.12-0.35-0.27-0.46-0.46s-0.16-0.41-0.16-0.66c0-0.27,0.05-0.5,0.15-0.68
				c0.1-0.19,0.25-0.34,0.43-0.45c0.18-0.11,0.4-0.16,0.64-0.16c0.18,0,0.34,0.03,0.47,0.08c0.13,0.06,0.25,0.14,0.34,0.25
				c0.09,0.11,0.16,0.24,0.2,0.39c0.02,0.09,0.04,0.2,0.04,0.33h-1.79c0,0.08-0.01,0.14-0.01,0.19c0,0.21,0.04,0.4,0.11,0.57
				s0.17,0.29,0.3,0.37s0.26,0.12,0.42,0.12c0.13,0,0.26-0.03,0.38-0.09S153.22,19.99,153.4,19.81z M153.07,18.79
				c-0.03-0.16-0.06-0.27-0.11-0.34s-0.11-0.13-0.2-0.18c-0.08-0.04-0.18-0.07-0.29-0.07s-0.21,0.02-0.3,0.07
				c-0.09,0.04-0.17,0.11-0.23,0.18c-0.06,0.08-0.12,0.19-0.16,0.34H153.07z"/>
			<path d="M153.79,18.02l0.96-0.04v1.63c0,0.14,0.02,0.26,0.06,0.34c0.04,0.08,0.1,0.15,0.18,0.2c0.08,0.05,0.18,0.07,0.29,0.07
				c0.14,0,0.29-0.04,0.46-0.11c0.17-0.07,0.34-0.18,0.51-0.32v-1.18c0-0.12-0.01-0.21-0.03-0.25c-0.02-0.04-0.05-0.07-0.1-0.09
				c-0.05-0.02-0.12-0.04-0.22-0.04h-0.19v-0.21l0.96-0.04v1.89c0,0.12,0.01,0.21,0.03,0.25c0.02,0.05,0.05,0.08,0.09,0.1
				c0.04,0.02,0.12,0.03,0.24,0.03h0.08v0.21l-0.84,0.04v-0.47c-0.23,0.18-0.43,0.31-0.61,0.38c-0.17,0.07-0.35,0.1-0.52,0.1
				c-0.13,0-0.25-0.02-0.34-0.05c-0.1-0.04-0.18-0.09-0.26-0.16c-0.07-0.07-0.13-0.16-0.17-0.26c-0.04-0.1-0.06-0.21-0.06-0.32
				v-1.15c0-0.1-0.01-0.17-0.03-0.22c-0.02-0.04-0.05-0.07-0.09-0.1s-0.1-0.04-0.18-0.04h-0.23V18.02z"/>
			<path d="M158.13,17.16h0.18v0.86h0.75v0.25h-0.75v1.53c0,0.13,0.01,0.22,0.03,0.28c0.02,0.06,0.06,0.1,0.12,0.14
				c0.05,0.04,0.12,0.05,0.18,0.05c0.16,0,0.34-0.07,0.53-0.22v0.25c-0.22,0.15-0.45,0.23-0.67,0.23c-0.13,0-0.25-0.03-0.35-0.09
				c-0.1-0.06-0.17-0.12-0.21-0.2c-0.04-0.08-0.06-0.21-0.06-0.41v-1.56h-0.44v-0.21c0.14-0.03,0.26-0.08,0.34-0.15
				c0.09-0.07,0.16-0.16,0.21-0.26C158.05,17.54,158.09,17.38,158.13,17.16z"/>
			<path d="M159.41,18.38v-0.21c0.14-0.02,0.26-0.04,0.35-0.07c0.1-0.03,0.2-0.08,0.33-0.14h0.19v2.03c0,0.07,0.01,0.12,0.03,0.16
				c0.02,0.04,0.05,0.06,0.08,0.08c0.04,0.02,0.1,0.02,0.2,0.02h0.12v0.21h-1.3v-0.21h0.1c0.11,0,0.19-0.01,0.23-0.03
				s0.07-0.05,0.08-0.09c0.02-0.04,0.02-0.12,0.02-0.26v-1.49H159.41z M160.06,16.82c0.08,0,0.15,0.03,0.21,0.08
				c0.06,0.06,0.09,0.12,0.09,0.21c0,0.08-0.03,0.15-0.09,0.21c-0.06,0.06-0.13,0.09-0.21,0.09c-0.08,0-0.15-0.03-0.21-0.09
				c-0.06-0.06-0.09-0.13-0.09-0.21c0-0.08,0.03-0.15,0.09-0.21C159.9,16.84,159.98,16.82,160.06,16.82z"/>
			<path d="M160.99,18.38v-0.21c0.15-0.02,0.26-0.04,0.34-0.06s0.18-0.07,0.32-0.15h0.18v0.48c0.22-0.19,0.41-0.31,0.57-0.38
				c0.16-0.07,0.32-0.1,0.48-0.1c0.14,0,0.26,0.02,0.37,0.07c0.11,0.05,0.19,0.11,0.26,0.19s0.11,0.17,0.13,0.27
				c0.01,0.06,0.02,0.16,0.02,0.28v1.12c0,0.13,0.01,0.22,0.03,0.26c0.02,0.04,0.05,0.07,0.09,0.08c0.04,0.02,0.15,0.03,0.31,0.03
				v0.21h-1.3v-0.21h0.07c0.12,0,0.2-0.01,0.25-0.03c0.04-0.02,0.08-0.05,0.09-0.1c0.02-0.04,0.03-0.13,0.03-0.26v-0.93
				c0-0.19-0.02-0.33-0.05-0.4c-0.03-0.07-0.08-0.13-0.16-0.18c-0.08-0.05-0.17-0.07-0.29-0.07c-0.14,0-0.28,0.04-0.44,0.11
				c-0.16,0.07-0.31,0.17-0.45,0.31v1.17c0,0.13,0.01,0.22,0.03,0.26s0.05,0.08,0.09,0.1c0.03,0.02,0.11,0.03,0.24,0.03h0.07v0.21
				h-1.31v-0.21h0.06c0.13,0,0.21-0.01,0.26-0.03c0.05-0.02,0.08-0.06,0.1-0.11c0.01-0.03,0.02-0.12,0.02-0.28v-1.45H160.99z"/>
		</g>
	</g>
	<g>
		<path class="st0" d="M19.4,13.77c0,0.08,0,0.16,0,0.23c-0.02,0.01-0.03,0.01-0.05,0.01c-0.04,0-0.08-0.02-0.09-0.03l-0.04-0.03
			l0,0c-0.06-0.05-0.11-0.11-0.16-0.17c-0.1-0.12-0.19-0.25-0.24-0.41c-0.07-0.15-0.17-0.29-0.3-0.38l0,0
			c0.11,0.11,0.2,0.25,0.26,0.4l0.01,0.01l0,0l0,0l0,0.01c0,0.01,0.01,0.02,0.01,0.03c0.01,0.02,0.01,0.04,0.02,0.06
			c0.02,0.04,0.04,0.07,0.06,0.11c0.05,0.07,0.1,0.13,0.15,0.19c0.06,0.07,0.12,0.13,0.19,0.19v0c0,0,0.05,0.44-0.12,0.63
			c-0.06,0.07-0.14,0.09-0.24,0.08c0-0.01-0.01-0.02-0.01-0.02c-0.07-0.12-0.13-0.25-0.17-0.39l0,0v0
			c-0.03-0.06-0.05-0.12-0.09-0.17c-0.03-0.06-0.07-0.11-0.11-0.16l0,0c0.03,0.06,0.05,0.11,0.08,0.17
			c0.02,0.06,0.05,0.12,0.07,0.18c0.04,0.14,0.1,0.27,0.17,0.4c0.01,0.01,0.01,0.03,0.02,0.04c0,0.12,0,0.6-0.21,0.83
			c-0.07,0.08-0.15,0.12-0.25,0.12c-0.39-0.1-0.45-0.6-0.45-0.61c0.03-0.02,0.05-0.05,0.07-0.09c0.05-0.09,0.07-0.18,0.1-0.27
			c0.03-0.09,0.05-0.18,0.07-0.28c0.02-0.09,0.03-0.19,0.03-0.29l-0.01,0c-0.04,0.09-0.06,0.18-0.08,0.27
			c-0.02,0.09-0.04,0.19-0.06,0.28c-0.02,0.09-0.04,0.18-0.08,0.27c-0.01,0.03-0.03,0.06-0.06,0.08h-0.01c-0.01,0-0.27,0-0.3-0.45
			v-0.01l-0.01-0.01c-0.11-0.13-0.17-0.26-0.16-0.39c0.01-0.16,0.13-0.26,0.13-0.26l0-0.01c0.03-0.02,0.06-0.04,0.09-0.07
			c0.07-0.06,0.12-0.12,0.17-0.2c0.05-0.07,0.08-0.16,0.09-0.24c0.01-0.02,0.02-0.05,0.02-0.07c0.01-0.02,0.02-0.05,0.03-0.07
			c0.01-0.02,0.03-0.04,0.04-0.06c0.02-0.02,0.04-0.03,0.07-0.03l0-0.01c-0.03-0.01-0.06,0-0.08,0.02
			c-0.02,0.02-0.04,0.04-0.06,0.06c-0.02,0.02-0.03,0.05-0.05,0.07c-0.01,0.02-0.02,0.05-0.03,0.08l0,0
			c-0.02,0.08-0.05,0.16-0.08,0.23c-0.04,0.07-0.09,0.14-0.15,0.2c-0.02,0.02-0.04,0.04-0.06,0.05l-0.03,0.01
			c0,0-0.09,0.04-0.19,0.04c-0.08,0-0.14-0.03-0.17-0.07c-0.07-0.1-0.07-0.28,0-0.55c0-0.01,0.25-0.77,0.6-1.54
			c0.41-0.9,0.1-1.35-0.01-1.47c-0.14-0.15-0.46-0.42-0.6-0.54c0.01-0.08,0.01-0.17,0-0.26c0.14,0.07,0.27,0.14,0.39,0.23
			c0.14,0.1,0.26,0.22,0.36,0.36c0.1,0.14,0.18,0.29,0.22,0.45c0.02,0.08,0.04,0.16,0.04,0.25c0,0.02,0,0.04,0,0.06
			c0,0.01,0,0.02,0,0.03c0,0.01,0,0.02,0,0.03c0,0.04,0,0.09-0.01,0.13c-0.02,0.34-0.1,0.67-0.12,1.02
			c-0.01,0.17-0.01,0.35,0.02,0.52c0.02,0.17,0.07,0.34,0.12,0.5l0.08,0.84l0.04,0.42c0.01,0.14,0.03,0.28,0.04,0.42
			c0-0.14-0.01-0.28-0.01-0.42c-0.01-0.14-0.01-0.28-0.02-0.42c-0.01-0.14-0.02-0.28-0.02-0.42c-0.01-0.14-0.02-0.28-0.03-0.42l0,0
			l0,0c-0.05-0.16-0.08-0.33-0.11-0.5c-0.02-0.17-0.03-0.34-0.02-0.51c0.01-0.17,0.04-0.34,0.06-0.51c0.02-0.17,0.04-0.34,0.05-0.52
			c0-0.04,0-0.09,0-0.13c0-0.01,0-0.02,0-0.03c0-0.01,0-0.02,0-0.03c0-0.02,0-0.04,0-0.07c-0.01-0.09-0.03-0.18-0.05-0.26
			c-0.05-0.17-0.14-0.32-0.25-0.46c-0.11-0.14-0.24-0.25-0.38-0.35c-0.13-0.09-0.27-0.16-0.41-0.21c-0.01-0.11-0.03-0.23-0.06-0.35
			c1.17,0.74,1.27,1.06,1.33,1.23l0.01,0.02c0.06,0.18-0.01,0.71-0.01,0.72l0,0.02c-0.02,0.59,0.07,0.98,0.28,1.16
			c0.03,0.03,0.06,0.05,0.1,0.09c0.18,0.16,0.42,0.36,0.58,0.6C19.39,13.27,19.4,13.52,19.4,13.77 M4.33,16.21
			c0.02,0,0.06-0.01,0.14-0.1c0.2-0.24,1.05-1.87,0.7-3C5,12.55,4.83,12.44,4.68,12.36c-0.06-0.04-0.12-0.07-0.17-0.14L4.5,12.21
			c-0.67-0.84-0.93-1.86-0.75-2.93C3.76,9.24,3.77,9.2,3.77,9.16C3.7,9.21,3.6,9.27,3.5,9.33C3.49,9.44,3.48,9.55,3.48,9.66
			c0,0.2,0.01,0.39,0.04,0.59c0.03,0.19,0.07,0.39,0.12,0.57c0.05,0.19,0.12,0.37,0.2,0.55c0.08,0.18,0.17,0.35,0.27,0.53
			c0.09,0.18,0.15,0.38,0.19,0.57c0.04,0.2,0.06,0.4,0.06,0.6c0,0.2-0.01,0.4-0.03,0.6v0l0,0C4.31,13.78,4.3,13.9,4.3,14.02
			c0,0.12,0.01,0.24,0.02,0.35c0.03,0.24,0.09,0.47,0.17,0.69c-0.1-0.22-0.17-0.45-0.21-0.69c-0.02-0.12-0.03-0.24-0.04-0.36
			c0-0.12,0-0.24,0.02-0.37l0,0c0.04-0.39,0.03-0.79-0.05-1.17c-0.04-0.19-0.1-0.38-0.19-0.55c-0.1-0.17-0.19-0.35-0.27-0.53
			c-0.08-0.18-0.14-0.37-0.19-0.57c-0.05-0.19-0.09-0.39-0.11-0.59c-0.02-0.2-0.03-0.4-0.01-0.6c0.01-0.1,0.02-0.21,0.04-0.31
			c-0.05,0.03-0.11,0.07-0.17,0.1c-0.03,0.32-0.05,1.33,0.55,2.4l0,0.01c0.06,0.55-0.14,0.72-0.18,0.75c-0.04,0.07-0.46,0.97,0,1.66
			c0.53,0.78,0.67,1.23,0.59,1.87C4.28,16.14,4.29,16.21,4.33,16.21 M2.76,9.72c0.11-0.07,0.26-0.16,0.43-0.26
			C3.42,9.33,3.66,9.2,3.81,9.07c0.18-0.14,0.38-0.73,0.49-1.09C4.21,7.76,4.15,7.53,4.16,7.35C4,7.68,3.61,8.46,3.4,8.71
			C3.33,8.79,3.24,8.88,3.14,8.98c-0.3,0.3-0.67,0.67-0.7,1.01c-0.01,0.07-0.01,0.12-0.01,0.16C2.49,10.03,2.6,9.84,2.76,9.72
			 M4.8,8.06C4.78,7.95,4.77,7.8,4.83,7.59c0.12-0.44,0.61-1.07,1.16-1.4c0.31-0.32,0.65-0.6,1.03-0.84
			C6.97,5.36,6.93,5.37,6.89,5.39C6.54,5.5,6.2,5.67,5.9,5.88C5.59,6.1,5.33,6.36,5.1,6.65C4.99,6.8,4.89,6.96,4.8,7.12
			C4.71,7.29,4.63,7.46,4.57,7.64c0.09-0.37,0.26-0.71,0.47-1.03c0.22-0.31,0.49-0.59,0.8-0.81c0.31-0.22,0.66-0.38,1.03-0.49
			C6.98,5.28,7.09,5.26,7.2,5.24c0.49-0.29,1.04-0.5,1.62-0.63C8.04,4.7,7.29,4.9,6.58,5.17c-0.95,0.44-1.91,1.1-2.35,2.07
			C4.1,7.55,4.44,8.19,4.64,8.54C4.69,8.38,4.74,8.22,4.8,8.06 M0.3,16.74c0,0,0,0.01,0.01,0.02C0.31,16.75,0.3,16.75,0.3,16.74
			C0.3,16.74,0.3,16.74,0.3,16.74 M8.27,23.07c0.13,0.03,0.26,0.06,0.39,0.09c-0.48-0.05-0.95-0.14-1.41-0.27
			c-0.45-0.21-0.78-0.43-1.01-0.61c-0.23-0.18-0.5-0.44-0.79-0.71c-0.53-0.5-1.12-1.06-1.62-1.29c-0.22-0.13-0.31-0.15-0.52-0.21
			C3.21,20.04,3.07,20,2.86,19.94c-0.22-0.08-0.35-0.25-0.4-0.33c0.18,0.03,0.82,0.13,1.15,0.13c0.04,0,0.08,0,0.13,0
			c0.04,0,0.09,0,0.13,0c-0.08-0.16-0.2-0.22-0.22-0.23c-0.03-0.02-0.31-0.25-0.51-0.57c-0.44-0.69-0.1-1.55-0.03-1.63
			c0.08-0.08,0.19-0.36,0.19-0.61c-0.01-0.25,0.02-0.28,0.11-0.28c0.02,0,0.04,0.01,0.05,0.04c0.08,0.1,0.18,0.42,0.09,0.87
			c-0.09,0.47,0.02,0.78,0.08,0.94c0.01,0.02,0.02,0.04,0.02,0.06C3.7,18.46,4,18.9,4.33,19.21c0.25,0.24,0.27,0.62,0.26,0.77
			c-0.02-0.01-0.04-0.03-0.07-0.04c0.18,0.11,0.39,0.28,0.64,0.53c0.24,0.41,0.53,0.79,0.86,1.13c-0.06-0.06-0.12-0.12-0.18-0.18
			c-0.23-0.24-0.46-0.48-0.69-0.71c-0.24-0.23-0.51-0.43-0.82-0.58C4.18,20.06,4.02,20,3.86,19.96c-0.16-0.04-0.33-0.07-0.5-0.06
			c-0.11-0.01-0.22-0.03-0.33-0.06c-0.11-0.03-0.22-0.07-0.31-0.13l-0.01,0.01c0.09,0.07,0.2,0.11,0.31,0.14
			c0.11,0.03,0.22,0.05,0.34,0.07h0c0.16,0,0.33,0.03,0.48,0.08C4,20.05,4.16,20.11,4.3,20.19c0.29,0.15,0.56,0.35,0.79,0.58
			c0.23,0.24,0.45,0.48,0.68,0.72C6,21.72,6.24,21.96,6.5,22.17c0.26,0.21,0.54,0.4,0.84,0.55C7.64,22.87,7.95,22.98,8.27,23.07
			 M3.64,18.85c0.04,0.04,0.09,0.07,0.13,0.1c0.17,0.13,0.31,0.3,0.43,0.48c-0.09-0.2-0.22-0.38-0.39-0.53
			c-0.04-0.04-0.08-0.07-0.12-0.11c-0.04-0.04-0.07-0.07-0.11-0.12c-0.07-0.08-0.13-0.17-0.17-0.26c-0.1-0.19-0.14-0.4-0.13-0.61
			c0.01-0.11,0.02-0.22,0.03-0.32c0.01-0.05,0.02-0.1,0.04-0.16c0.02-0.05,0.03-0.1,0.05-0.16l-0.07,0.15
			c-0.02,0.05-0.05,0.1-0.06,0.16c-0.03,0.11-0.04,0.22-0.06,0.32c-0.02,0.11-0.01,0.23,0.01,0.34c0.02,0.11,0.06,0.22,0.11,0.32
			c0.05,0.1,0.12,0.19,0.19,0.28C3.56,18.77,3.6,18.81,3.64,18.85 M10.24,12.33V5.16c-0.08,0-0.16-0.01-0.24-0.01s-0.16,0-0.24,0.01
			v7.17c0.08,0,0.16-0.01,0.24-0.01S10.16,12.32,10.24,12.33 M19.99,13.94c0,5.51-4.48,9.99-9.99,9.99C4.48,23.94,0,19.45,0,13.94
			c0-5.51,4.48-9.99,9.99-9.99C15.5,3.95,19.99,8.43,19.99,13.94 M19.5,13.9c0-5.24-4.26-9.51-9.5-9.51c-5.24,0-9.51,4.26-9.51,9.51
			c0,5.24,4.26,9.51,9.51,9.51C15.23,23.4,19.5,19.14,19.5,13.9 M15.45,17.87c0-1.5-0.61-2.87-1.6-3.86
			c-0.12,0.11-0.24,0.22-0.37,0.32c0.91,0.9,1.48,2.15,1.48,3.53c0,2.74-2.23,4.97-4.97,4.97c-2.74,0-4.97-2.23-4.97-4.97
			c0-1.38,0.56-2.63,1.48-3.53c-0.13-0.1-0.25-0.21-0.37-0.32c-0.99,0.99-1.6,2.35-1.6,3.86c0,3.01,2.45,5.46,5.46,5.46
			C13,23.33,15.45,20.89,15.45,17.87 M13.35,13.57c-0.93-0.72-2.09-1.16-3.36-1.16c-1.26,0-2.43,0.43-3.36,1.16
			c0.12,0.11,0.25,0.22,0.38,0.32c0.83-0.62,1.86-0.99,2.98-0.99c1.12,0,2.15,0.37,2.98,0.99C13.1,13.79,13.23,13.68,13.35,13.57
			 M10.24,13.64V13c-0.08,0-0.16-0.01-0.24-0.01S9.83,13,9.75,13v2h0v0.49h0v0.09v0.19v6.98c0.08,0,0.16,0.01,0.24,0.01
			s0.16,0,0.24-0.01v-6.9h0L10.24,13.64L10.24,13.64z M4.53,10.03c0,2.9,2.27,5.27,5.12,5.45v-0.49c-0.03,0-0.07,0-0.1-0.01
			c-2.54-0.22-4.53-2.36-4.53-4.95c0-2.74,2.23-4.97,4.97-4.97c2.74,0,4.97,2.23,4.97,4.97c0,2.63-2.05,4.79-4.64,4.96v0.49
			c2.85-0.18,5.12-2.55,5.12-5.45c0-3.01-2.45-5.46-5.46-5.46C6.98,4.57,4.53,7.02,4.53,10.03 M16.53,18.57
			c0.05-0.03,0.11-0.06,0.17-0.1c0.03-0.32,0.05-1.33-0.55-2.4l0-0.01c-0.06-0.55,0.14-0.72,0.18-0.75c0.04-0.07,0.46-0.97,0-1.66
			c-0.53-0.78-0.67-1.23-0.59-1.87c0-0.01-0.02-0.08-0.06-0.08c-0.02,0-0.06,0.01-0.14,0.1c-0.2,0.24-1.05,1.86-0.71,3
			c0.17,0.55,0.35,0.66,0.49,0.74c0.06,0.04,0.12,0.07,0.17,0.14l0.01,0.01c0.67,0.84,0.93,1.86,0.75,2.93
			c-0.01,0.04-0.02,0.07-0.03,0.12c0.08-0.06,0.17-0.12,0.27-0.18c0.01-0.11,0.02-0.22,0.02-0.32c0-0.2-0.01-0.39-0.04-0.59
			c-0.03-0.19-0.07-0.39-0.12-0.58c-0.05-0.19-0.12-0.37-0.2-0.55c-0.08-0.18-0.17-0.35-0.27-0.53c-0.1-0.18-0.15-0.38-0.19-0.57
			c-0.04-0.2-0.06-0.4-0.06-0.6c0-0.2,0.01-0.4,0.03-0.6v0v0c0.02-0.11,0.03-0.23,0.03-0.35c0-0.12-0.01-0.24-0.02-0.35
			c-0.03-0.24-0.09-0.47-0.17-0.69c0.1,0.22,0.17,0.45,0.21,0.69c0.02,0.12,0.03,0.24,0.04,0.36c0,0.12,0,0.24-0.02,0.37l0,0
			c-0.04,0.39-0.03,0.79,0.05,1.17c0.04,0.19,0.1,0.38,0.19,0.55c0.1,0.17,0.19,0.35,0.27,0.53c0.08,0.18,0.14,0.37,0.19,0.57
			c0.05,0.19,0.09,0.39,0.11,0.59c0.02,0.2,0.03,0.4,0.01,0.6C16.56,18.36,16.55,18.47,16.53,18.57 M17.25,18.19
			c-0.11,0.07-0.26,0.16-0.43,0.26c-0.23,0.13-0.47,0.27-0.62,0.39c-0.18,0.14-0.38,0.73-0.49,1.09c0.09,0.22,0.16,0.45,0.15,0.63
			c0.16-0.33,0.55-1.11,0.76-1.36c0.07-0.08,0.16-0.17,0.26-0.27c0.3-0.3,0.67-0.67,0.7-1.02c0.01-0.07,0.01-0.12,0.01-0.16
			C17.52,17.88,17.42,18.08,17.25,18.19 M15.21,19.86c0.03,0.11,0.03,0.26-0.03,0.47c-0.12,0.44-0.61,1.07-1.16,1.4
			c-0.31,0.32-0.65,0.6-1.03,0.84c0.04-0.01,0.08-0.03,0.12-0.04c0.35-0.12,0.69-0.28,0.99-0.5c0.3-0.21,0.57-0.48,0.8-0.77
			c0.11-0.15,0.21-0.31,0.3-0.47c0.09-0.16,0.17-0.34,0.23-0.51c-0.09,0.37-0.26,0.71-0.47,1.03c-0.22,0.31-0.49,0.59-0.8,0.8
			c-0.31,0.22-0.66,0.38-1.03,0.49c-0.11,0.03-0.22,0.06-0.33,0.08c-0.5,0.29-1.04,0.5-1.62,0.63c0.78-0.1,1.52-0.29,2.23-0.57
			c0.95-0.44,1.91-1.1,2.35-2.07c0.13-0.31-0.21-0.95-0.41-1.3C15.33,19.54,15.27,19.7,15.21,19.86 M2.82,18.26
			c-0.14-0.06-0.28-0.13-0.41-0.21c-0.14-0.1-0.28-0.21-0.39-0.35c-0.11-0.14-0.19-0.29-0.25-0.46c-0.03-0.08-0.04-0.17-0.05-0.26
			c0-0.02,0-0.04,0-0.07c0-0.01,0-0.02,0-0.03c0-0.01,0-0.02,0-0.03c0-0.04,0-0.09,0-0.13c0.01-0.17,0.03-0.35,0.05-0.52
			c0.02-0.17,0.05-0.34,0.06-0.51c0.01-0.17,0.01-0.34-0.02-0.5c-0.02-0.17-0.06-0.33-0.11-0.5l0,0v0
			c-0.01-0.14-0.02-0.28-0.03-0.42c-0.01-0.14-0.02-0.28-0.02-0.42c-0.01-0.14-0.01-0.28-0.02-0.42c-0.01-0.14-0.01-0.28-0.01-0.42
			c0.02,0.14,0.03,0.28,0.04,0.42l0.04,0.42l0.08,0.84c0.05,0.16,0.09,0.33,0.12,0.5c0.02,0.17,0.03,0.35,0.02,0.52
			c-0.02,0.35-0.1,0.68-0.12,1.02c0,0.04-0.01,0.08-0.01,0.13c0,0.01,0,0.02,0,0.03c0,0.01,0,0.02,0,0.03c0,0.02,0,0.04,0,0.06
			c0.01,0.08,0.02,0.17,0.04,0.25c0.05,0.16,0.12,0.31,0.22,0.45c0.1,0.14,0.22,0.26,0.36,0.36C2.55,18.12,2.68,18.19,2.82,18.26
			c-0.01-0.09,0-0.18,0-0.26c-0.15-0.12-0.47-0.39-0.61-0.54c-0.11-0.12-0.42-0.57-0.01-1.47c0.35-0.77,0.6-1.53,0.6-1.54
			c0.07-0.27,0.07-0.45,0-0.55c-0.04-0.05-0.1-0.07-0.17-0.07c-0.1,0-0.19,0.04-0.19,0.04l-0.03,0.01
			c-0.02,0.02-0.04,0.03-0.06,0.05c-0.06,0.06-0.11,0.12-0.15,0.19c-0.04,0.07-0.06,0.15-0.08,0.23l0,0v0
			c-0.01,0.03-0.02,0.05-0.03,0.08c-0.01,0.02-0.03,0.05-0.05,0.07c-0.02,0.02-0.04,0.04-0.06,0.06c-0.02,0.02-0.05,0.02-0.08,0.02
			v-0.01c0.03,0,0.05-0.02,0.07-0.03C1.98,14.52,2,14.5,2.01,14.48c0.01-0.02,0.02-0.05,0.03-0.07c0.01-0.02,0.02-0.05,0.02-0.07
			c0.02-0.09,0.05-0.17,0.09-0.24c0.05-0.07,0.1-0.14,0.17-0.2c0.03-0.02,0.06-0.05,0.09-0.07l0.01,0c0,0,0.11-0.1,0.13-0.26
			c0.01-0.12-0.04-0.26-0.16-0.39l0-0.01l0-0.01c-0.03-0.44-0.29-0.45-0.3-0.45H2.08c-0.02,0.02-0.04,0.05-0.06,0.08
			c-0.04,0.08-0.06,0.18-0.08,0.27c-0.02,0.09-0.03,0.19-0.06,0.28c-0.02,0.09-0.05,0.18-0.08,0.27l-0.01,0
			c0-0.1,0.01-0.19,0.03-0.29c0.01-0.09,0.04-0.19,0.07-0.28c0.03-0.09,0.05-0.19,0.1-0.27c0.02-0.03,0.04-0.06,0.07-0.09
			c0-0.02-0.05-0.52-0.45-0.61c-0.1,0.01-0.18,0.05-0.25,0.12c-0.21,0.23-0.21,0.71-0.21,0.83c0.01,0.01,0.01,0.03,0.02,0.04
			c0.07,0.13,0.13,0.26,0.17,0.4c0.02,0.06,0.04,0.12,0.07,0.18c0.02,0.06,0.05,0.12,0.08,0.17l-0.01,0
			c-0.04-0.05-0.08-0.1-0.11-0.16c-0.03-0.05-0.06-0.11-0.09-0.17l0,0c-0.04-0.13-0.1-0.26-0.17-0.39c0-0.01-0.01-0.02-0.01-0.02
			c-0.1-0.02-0.18,0.01-0.24,0.07c-0.17,0.19-0.12,0.62-0.12,0.63l0,0c0.07,0.06,0.13,0.12,0.19,0.19c0.05,0.06,0.11,0.12,0.15,0.19
			c0.02,0.03,0.04,0.07,0.06,0.11c0.01,0.02,0.02,0.04,0.02,0.06c0,0.01,0.01,0.02,0.01,0.03l0,0.01l0,0c0,0,0,0,0,0l0,0l0.01,0.01
			c0.06,0.15,0.15,0.28,0.26,0.4l0,0c-0.13-0.1-0.23-0.23-0.3-0.38C1.1,14.25,1.01,14.12,0.91,14c-0.05-0.06-0.1-0.11-0.16-0.17v0
			l-0.04-0.03c-0.01-0.01-0.04-0.03-0.09-0.03c-0.02,0-0.03,0-0.05,0.01c0,0.08,0,0.15,0,0.23c0,0.25,0.01,0.5,0.03,0.74
			C0.76,15,1,15.21,1.18,15.36c0.04,0.03,0.07,0.06,0.1,0.09c0.21,0.18,0.3,0.58,0.28,1.16l0,0.02c0,0.01-0.07,0.54-0.01,0.72
			l0.01,0.02c0.06,0.17,0.16,0.49,1.33,1.23C2.85,18.49,2.83,18.37,2.82,18.26 M11.55,4.71c-0.13-0.03-0.26-0.06-0.39-0.08
			c0.48,0.05,0.95,0.13,1.41,0.24c0.45,0.2,0.79,0.42,1.02,0.59c0.23,0.17,0.51,0.43,0.8,0.69c0.53,0.49,1.14,1.04,1.64,1.26
			c0.22,0.12,0.32,0.15,0.52,0.2c0.11,0.03,0.25,0.06,0.46,0.13c0.22,0.08,0.36,0.25,0.41,0.32c-0.18-0.03-0.82-0.11-1.16-0.11
			c-0.04,0-0.08,0-0.13,0.01c-0.02,0-0.03,0-0.05,0c0.08,0.11,0.17,0.15,0.18,0.16c0.03,0.02,0.31,0.24,0.52,0.56
			c0.45,0.68,0.13,1.55,0.06,1.63c-0.08,0.09-0.19,0.37-0.17,0.61c0.01,0.25-0.01,0.28-0.11,0.28c-0.02,0-0.04-0.01-0.06-0.03
			c-0.08-0.1-0.18-0.42-0.1-0.87c0.09-0.48-0.04-0.78-0.1-0.94c-0.01-0.02-0.02-0.04-0.02-0.06c-0.05-0.14-0.36-0.57-0.69-0.88
			c-0.21-0.2-0.26-0.49-0.27-0.66c-0.17-0.11-0.38-0.27-0.63-0.51c-0.24-0.41-0.54-0.78-0.88-1.11c0.06,0.06,0.12,0.12,0.18,0.18
			c0.23,0.23,0.47,0.47,0.71,0.7c0.24,0.23,0.52,0.43,0.83,0.56c0.15,0.07,0.31,0.12,0.47,0.16c0.16,0.04,0.33,0.06,0.5,0.05
			c0.11,0.01,0.22,0.03,0.33,0.05c0.11,0.03,0.22,0.06,0.31,0.12l0.01-0.01c-0.1-0.07-0.2-0.1-0.31-0.13
			c-0.11-0.03-0.22-0.05-0.34-0.06h0h0c-0.16,0-0.33-0.03-0.48-0.07c-0.16-0.04-0.31-0.1-0.46-0.17c-0.29-0.14-0.56-0.34-0.8-0.57
			c-0.23-0.23-0.46-0.47-0.7-0.71c-0.23-0.23-0.48-0.46-0.74-0.67c-0.26-0.21-0.55-0.39-0.85-0.53C12.2,4.9,11.88,4.79,11.55,4.71
			 M16.38,8.72c-0.04-0.04-0.09-0.07-0.13-0.1c-0.17-0.14-0.31-0.3-0.43-0.48c0.09,0.2,0.22,0.38,0.39,0.53
			c0.04,0.04,0.08,0.07,0.12,0.11c0.04,0.04,0.07,0.07,0.11,0.12c0.07,0.08,0.13,0.17,0.17,0.26c0.1,0.19,0.14,0.4,0.13,0.61
			c-0.01,0.11-0.02,0.22-0.03,0.32c-0.01,0.05-0.02,0.1-0.04,0.16c-0.02,0.05-0.03,0.1-0.05,0.16l0.07-0.15
			c0.02-0.05,0.05-0.1,0.06-0.16c0.03-0.11,0.04-0.22,0.06-0.32c0.02-0.11,0.01-0.23-0.01-0.34c-0.02-0.11-0.06-0.22-0.11-0.32
			c-0.05-0.1-0.12-0.19-0.19-0.28C16.46,8.8,16.42,8.76,16.38,8.72 M9.26,2.42c0.01-0.04,0-0.08,0-0.11c0-0.03-0.02-0.05-0.03-0.07
			c0-0.01-0.01-0.01-0.01-0.02L9.21,2.21C9.2,2.19,9.19,2.17,9.17,2.14C9.15,2.11,9.13,2.09,9.11,2.07l0,0c0,0-0.01,0-0.01-0.01
			C9.08,2,9.03,1.82,9.04,1.71c0.02-0.3,0.18-0.36,0.32-0.36c0.04,0,0.07,0.01,0.08,0.01C9.45,1.37,9.47,1.39,9.48,1.4
			C9.5,1.43,9.53,1.46,9.55,1.49C9.55,1.5,9.56,1.51,9.56,1.52c0.01,0.02,0.03,0.04,0.05,0.06C9.63,1.6,9.66,1.62,9.7,1.63l0,0
			c0.01,0,0.02,0,0.03-0.01C9.75,1.62,9.75,1.6,9.75,1.59C9.75,1.55,9.73,1.51,9.71,1.49C9.7,1.46,9.67,1.44,9.66,1.43
			C9.65,1.42,9.64,1.42,9.64,1.41C9.61,1.39,9.59,1.37,9.56,1.35l-0.01,0C9.53,1.33,9.5,1.31,9.48,1.29l0,0c0,0-0.01,0-0.01,0
			c-0.25-0.29-0.05-0.59,0.1-0.8C9.59,0.46,9.61,0.43,9.63,0.4c0.02-0.03,0.04-0.07,0.06-0.11C9.77,0.15,9.84,0.01,9.99,0L10,0
			c0.1,0,0.22,0.06,0.37,0.18c0.47,0.38,0.27,0.9,0.23,0.99c-0.06,0.03-0.12,0.06-0.19,0.11c-0.01,0-0.01,0.01-0.02,0.01
			c-0.03,0.02-0.05,0.04-0.07,0.07c-0.02,0.03-0.04,0.07-0.05,0.12c0,0.01,0.01,0.03,0.01,0.03c0.01,0.01,0.03,0.01,0.04,0
			c0.04-0.02,0.07-0.05,0.1-0.07c0.02-0.02,0.03-0.04,0.05-0.05c0.01-0.01,0.02-0.02,0.02-0.03c0.04-0.05,0.09-0.1,0.14-0.14
			c0.19,0.05,0.31,0.15,0.35,0.28c0.08,0.28-0.22,0.66-0.26,0.71c0,0-0.01,0-0.01,0c-0.07,0.03-0.13,0.08-0.19,0.14l-0.01,0.01
			c-0.02,0.03-0.05,0.05-0.06,0.09c-0.02,0.05-0.02,0.09-0.01,0.13c0,0.01,0.01,0.02,0.02,0.02c0.01,0,0.02,0,0.03-0.01l0,0
			c0.03-0.03,0.06-0.06,0.07-0.09c0.01-0.02,0.02-0.04,0.03-0.06c0.01-0.01,0.01-0.03,0.02-0.04c0.02-0.03,0.04-0.06,0.06-0.08
			c0.02-0.03,0.04-0.05,0.07-0.07c0,0,0,0,0-0.01c0.12-0.06,0.19-0.07,0.23-0.02C10.99,2.28,11,2.31,11,2.35
			c-0.06,0.02-0.12,0.06-0.19,0.12c-0.08,0.08-0.16,0.23-0.18,0.28c-0.07,0.02-0.32,0.1-0.44,0.33c-0.07,0.13-0.1,0.27-0.1,0.41
			c-0.06-0.12-0.12-0.2-0.2-0.2c-0.02,0-0.04,0.01-0.06,0.02C9.79,3.19,9.69,2.97,9.56,2.97C9.51,2.97,9.47,3,9.43,3.04
			c0-0.14-0.03-0.39-0.16-0.53C9.19,2.42,9.07,2.38,8.93,2.4c0.04-0.11,0.11-0.2,0.14-0.25c0.01,0.01,0.01,0.03,0.02,0.04
			C9.09,2.21,9.1,2.23,9.11,2.26l0,0.01c0,0.01,0,0.02,0.01,0.02c0,0.02,0.01,0.05,0.02,0.07c0.02,0.02,0.04,0.06,0.08,0.08
			c0.01,0.01,0.02,0.01,0.03,0C9.26,2.44,9.26,2.44,9.26,2.42L9.26,2.42z M9.97,0.23c0.01,0.05,0.02,0.1,0.02,0.16
			C10,0.44,10,0.49,10,0.55c0,0.09,0.01,0.21,0.01,0.33c0,0.09,0,0.18,0,0.27c0,0.13,0.01,0.27,0.01,0.4c0,0.21,0,0.43-0.01,0.68
			C10,2.48,10,2.7,9.99,2.91c0,0.01,0,0.02,0.01,0.02c0.01,0.01,0.01,0.01,0.02,0.01h0h0.01c0.01,0,0.03-0.02,0.03-0.03
			c0.04-0.48,0.07-0.92,0.08-1.36l0-0.03c0.01-0.21,0.01-0.43,0-0.65c-0.01-0.11-0.01-0.23-0.03-0.34c-0.01-0.1-0.03-0.22-0.08-0.33
			l0,0c0-0.01-0.01-0.01-0.02-0.02c-0.01,0-0.02,0-0.02,0l-0.01,0C9.97,0.2,9.96,0.21,9.97,0.23 M9.31,1.83
			c0.04,0.04,0.07,0.08,0.11,0.13C9.44,2.01,9.47,2.06,9.5,2.1c0.01,0.02,0.02,0.04,0.03,0.07C9.55,2.2,9.56,2.23,9.58,2.26l0,0.01
			c0.03,0.05,0.06,0.1,0.1,0.15C9.68,2.42,9.69,2.42,9.7,2.42c0,0,0.01,0,0.01,0l0,0c0.01,0,0.02-0.02,0.02-0.03
			c0-0.06-0.01-0.12-0.04-0.19C9.68,2.14,9.64,2.1,9.61,2.05L9.6,2.04C9.57,1.99,9.53,1.94,9.49,1.9C9.45,1.86,9.4,1.81,9.35,1.78
			l0,0C9.33,1.77,9.32,1.77,9.31,1.78l0,0.01C9.29,1.8,9.29,1.82,9.31,1.83 M10.86,2.51c0.08-0.08,0.16-0.12,0.23-0.12
			c0.11,0,0.19,0.09,0.21,0.12c0,0.02,0,0.04,0,0.05c0,0.03,0,0.06-0.01,0.09c0,0.01,0,0.02,0,0.02c0,0.02-0.01,0.04,0,0.06
			c0,0.03,0.01,0.06,0.03,0.1c0.01,0.01,0.02,0.01,0.03,0.01c0.01,0,0.02-0.01,0.03-0.02c0.02-0.03,0.03-0.06,0.04-0.09
			c0-0.02,0-0.05,0-0.07c0-0.01,0-0.01,0-0.02c0-0.03-0.01-0.06-0.01-0.08l0-0.01c-0.01-0.02-0.01-0.05-0.02-0.07l0,0
			c0,0,0-0.01-0.01-0.01c0.01-0.32,0.29-0.38,0.51-0.43c0.03-0.01,0.06-0.01,0.09-0.02c0.03-0.01,0.07-0.02,0.1-0.03
			c0.08-0.03,0.15-0.05,0.22-0.05c0.05,0,0.09,0.01,0.12,0.04c0.06,0.05,0.11,0.16,0.13,0.32c0.08,0.5-0.32,0.7-0.41,0.74
			c-0.05-0.02-0.11-0.03-0.18-0.03l-0.02,0c-0.03,0-0.06,0-0.08,0c-0.03,0.01-0.07,0.02-0.1,0.05c-0.01,0.01-0.01,0.02-0.01,0.03
			c0,0.01,0.02,0.02,0.03,0.02c0.04,0.01,0.07,0.01,0.1,0.01h0.01c0.02,0,0.04,0,0.05-0.01c0.01,0,0.02,0,0.03-0.01
			c0.04,0,0.09-0.01,0.13-0.01c0.01,0,0.02,0,0.04,0c0.09,0.14,0.11,0.26,0.06,0.36c-0.1,0.22-0.49,0.28-0.56,0.29c0,0,0,0-0.01,0
			c-0.06-0.02-0.12-0.02-0.2-0.01l-0.01,0c-0.03,0-0.06,0.01-0.09,0.02c-0.04,0.02-0.06,0.04-0.09,0.08c-0.01,0.01,0,0.02,0,0.03
			c0.01,0.01,0.02,0.02,0.03,0.01c0.04,0,0.07-0.01,0.1-0.02c0.02,0,0.04-0.01,0.05-0.02c0.01,0,0.02-0.01,0.03-0.01
			c0.03-0.01,0.05-0.01,0.08-0.02c0.02,0,0.05-0.01,0.07-0.01c0,0,0.01,0,0.02,0c0,0,0,0,0.01,0c0.06,0.02,0.14,0.05,0.15,0.1
			c0,0.03-0.02,0.07-0.06,0.11c-0.47-0.08-0.96-0.12-1.45-0.13c-0.02-0.07-0.04-0.16-0.07-0.24c-0.03-0.2-0.01-0.39,0.08-0.56
			c0.09-0.17,0.28-0.26,0.37-0.29c0,0.01,0,0.01-0.01,0.02c-0.01,0.02-0.02,0.04-0.03,0.05L10.58,2.9c0,0.01-0.01,0.01-0.01,0.02
			c-0.01,0.02-0.02,0.04-0.03,0.06c0,0.02-0.01,0.06,0,0.1c0,0.01,0.01,0.02,0.02,0.02c0.01,0,0.02,0,0.03-0.01
			c0.03-0.02,0.05-0.05,0.06-0.07c0.01-0.02,0.02-0.04,0.02-0.06c0-0.01,0-0.01,0.01-0.02l0-0.01c0.01-0.02,0.01-0.04,0.01-0.07
			c0-0.03,0-0.05,0-0.09c0,0,0-0.01,0-0.01C10.72,2.71,10.79,2.58,10.86,2.51 M10.77,3.79c-0.01,0.01-0.01,0.01-0.01,0.02
			c0,0.01,0,0.02,0.01,0.02l0,0c0.01,0,0.01,0.01,0.02,0.01c0.01,0,0.02,0,0.02-0.01c0.29-0.28,0.56-0.54,0.81-0.8l0.02-0.02
			c0.12-0.13,0.25-0.26,0.37-0.4c0.06-0.07,0.12-0.15,0.17-0.23c0.05-0.07,0.1-0.16,0.14-0.26c0.01-0.02,0-0.03-0.02-0.04l-0.01,0
			c-0.01,0-0.03,0-0.04,0.02c-0.02,0.04-0.04,0.07-0.07,0.11c-0.03,0.03-0.05,0.07-0.08,0.11c-0.05,0.06-0.11,0.14-0.18,0.21
			c-0.05,0.06-0.1,0.11-0.15,0.17c-0.07,0.08-0.15,0.17-0.22,0.25c-0.12,0.13-0.24,0.27-0.38,0.42C11.02,3.53,10.89,3.66,10.77,3.79
			 M10.88,3.16c-0.01,0.05-0.02,0.09-0.02,0.15c0,0.01,0.01,0.03,0.03,0.03c0,0,0.01,0,0.01,0c0.01,0,0.02-0.01,0.03-0.01
			c0.03-0.04,0.06-0.08,0.08-0.14c0.02-0.05,0.02-0.09,0.03-0.14l0-0.02c0.01-0.05,0.01-0.1,0.01-0.15c0-0.05-0.01-0.1-0.02-0.15
			l0,0c0-0.02-0.02-0.03-0.03-0.02l-0.01,0c-0.02,0-0.03,0.02-0.03,0.03c0,0.05,0,0.09-0.01,0.14c-0.01,0.05-0.01,0.09-0.02,0.14
			c0,0.02-0.01,0.04-0.02,0.06C10.89,3.1,10.88,3.13,10.88,3.16L10.88,3.16z M9.79,3.77c0,0.04-0.01,0.08-0.01,0.13c0,0,0,0,0,0
			c0.09,0,0.19,0,0.28,0c0.04,0,0.08,0,0.11,0c-0.08-0.28-0.19-0.56-0.28-0.56c-0.01,0-0.03,0.01-0.04,0.02l0,0
			C9.83,3.41,9.82,3.45,9.81,3.5C9.8,3.54,9.8,3.58,9.79,3.63c0,0.02,0,0.04,0,0.06c0,0.02,0,0.05,0,0.07L9.79,3.77z M7.59,2.31
			C7.57,2.18,7.55,2.03,7.65,1.96c0.06-0.05,0.16-0.07,0.3-0.07c0.02,0,0.05,0,0.07,0c0.54,0.03,0.68,0.48,0.7,0.58
			C8.69,2.51,8.66,2.57,8.64,2.64L8.64,2.66C8.63,2.69,8.62,2.72,8.62,2.75c0,0.03,0.01,0.07,0.03,0.12
			c0.01,0.01,0.02,0.02,0.03,0.02c0.01,0,0.02-0.01,0.03-0.02c0.02-0.04,0.03-0.07,0.04-0.1C8.75,2.74,8.75,2.72,8.75,2.7
			c0-0.01,0-0.02,0-0.03C8.76,2.61,8.77,2.55,8.78,2.5c0.2-0.07,0.35-0.05,0.44,0.06c0.16,0.18,0.14,0.53,0.14,0.59
			c0,0,0,0-0.01,0.01C9.33,3.21,9.31,3.27,9.3,3.35l0,0.01c0,0.03-0.01,0.06,0.01,0.1c0.01,0.04,0.03,0.08,0.06,0.1
			C9.38,3.57,9.39,3.58,9.4,3.57c0.01,0,0.02-0.02,0.02-0.03c0.01-0.04,0.01-0.08,0-0.1c0-0.02,0-0.04-0.01-0.06
			c0-0.01-0.01-0.02-0.01-0.04c0-0.03,0-0.06,0-0.09c0-0.03,0-0.06,0.01-0.09c0,0,0,0,0-0.01c0.04-0.09,0.09-0.13,0.13-0.13
			c0.09,0,0.19,0.2,0.23,0.31C9.76,3.39,9.74,3.43,9.72,3.47C9.71,3.52,9.69,3.56,9.68,3.61l0,0.01C9.67,3.67,9.66,3.72,9.67,3.76
			c0.01,0.06,0.02,0.1,0.04,0.15C9.56,3.92,9.4,3.92,9.24,3.94C9.02,3.59,8.81,3.28,8.59,2.97L8.58,2.95
			C8.47,2.8,8.36,2.64,8.23,2.49C8.17,2.41,8.1,2.34,8.03,2.26C7.96,2.2,7.88,2.12,7.79,2.07l0,0c-0.01-0.01-0.03,0-0.04,0.01
			l0,0.01c-0.01,0.01,0,0.03,0.01,0.04c0.03,0.03,0.07,0.06,0.1,0.1c0.03,0.03,0.06,0.07,0.1,0.11C8,2.4,8.07,2.48,8.14,2.57
			c0.05,0.06,0.1,0.13,0.15,0.19C8.36,2.85,8.43,2.95,8.5,3.04c0.11,0.15,0.23,0.31,0.36,0.48c0.11,0.15,0.21,0.29,0.3,0.42
			C8.91,3.97,8.66,4,8.42,4.04C8.4,4,8.38,3.98,8.36,3.96C8.34,3.95,8.32,3.94,8.3,3.93c-0.01,0-0.01-0.01-0.02-0.01l-0.01,0
			C8.25,3.91,8.23,3.89,8.2,3.89C8.17,3.88,8.14,3.87,8.11,3.87h0c0,0-0.01,0-0.01,0C8.05,3.83,7.93,3.74,7.87,3.65
			C7.8,3.54,7.78,3.44,7.81,3.36c0.03-0.1,0.14-0.15,0.16-0.16C7.99,3.2,8.01,3.21,8.03,3.21c0.03,0.01,0.07,0.02,0.1,0.03
			c0.01,0,0.02,0.01,0.02,0.01c0.02,0.01,0.04,0.02,0.07,0.02c0.04,0,0.07,0,0.11-0.01c0.01,0,0.02-0.01,0.02-0.03
			c0-0.01,0-0.02-0.01-0.03C8.3,3.17,8.27,3.15,8.24,3.14C8.22,3.13,8.19,3.13,8.17,3.13c-0.01,0-0.01,0-0.02,0
			c-0.03,0-0.06,0-0.09,0h0H8.05c-0.03,0-0.05,0-0.08,0c0,0-0.01,0-0.01,0C7.62,3.05,7.61,2.76,7.6,2.52c0-0.03,0-0.06,0-0.09
			C7.6,2.39,7.59,2.35,7.59,2.31 M8.46,3.59C8.41,3.57,8.35,3.56,8.3,3.55C8.25,3.54,8.2,3.54,8.15,3.54H8.13
			c-0.02,0-0.03,0.01-0.03,0.03v0.01c0,0.02,0.01,0.03,0.03,0.03c0.05,0.01,0.1,0.02,0.15,0.04c0.05,0.01,0.1,0.03,0.14,0.05
			c0.02,0.01,0.04,0.02,0.06,0.03c0.03,0.01,0.05,0.03,0.08,0.04l0.01,0c0.05,0.02,0.09,0.04,0.15,0.05c0,0,0,0,0.01,0
			c0.01,0,0.02-0.01,0.03-0.02c0.01-0.01,0-0.03,0-0.04C8.71,3.72,8.67,3.69,8.62,3.65C8.57,3.62,8.52,3.61,8.48,3.6L8.46,3.59z
			 M9.17,24.04c0.09,0.36,0.3,0.95,0.79,1.44c0.56-0.48,0.77-1.08,0.84-1.44c-0.27,0.02-0.55,0.03-0.83,0.03
			C9.71,24.07,9.44,24.06,9.17,24.04"/>
	</g>
</g>
</svg>
