<?xml version="1.0" encoding="utf-8"?>
<!-- Generator: Adobe Illustrator 26.0.3, SVG Export Plug-In . SVG Version: 6.00 Build 0)  -->
<svg version="1.1" id="Ebene_5" xmlns="http://www.w3.org/2000/svg" xmlns:xlink="http://www.w3.org/1999/xlink" x="0px" y="0px" viewBox="0 0 179.91 119.29" style="enable-background:new 0 0 179.91 119.29;" xml:space="preserve">
							<g>
								<g>
									<defs>
										<path
											id="SVGID_1_"
											d="M94.53,74.49c1.73-0.82,5.37,0.51,8.29-0.98c0.33-0.18,0.65-0.4,0.95-0.64c1.68-1.39,3.01-3.69,3.64-4.9
								c0.39,1.25,1.26,3.67,2.62,5.34c0.29,0.35,0.59,0.67,0.93,0.93c2.62,1.98,6.46,1.21,8,2.33l0.14,0.09l1.47,0.93l-0.68-1.6
								c-0.82-1.73,0.51-5.38-0.98-8.29c-0.18-0.33-0.4-0.65-0.64-0.95c-1.36-1.64-3.57-2.95-4.81-3.6c1.28-0.41,3.63-1.27,5.27-2.6
								c0.35-0.29,0.67-0.6,0.93-0.93c1.98-2.62,1.21-6.46,2.33-8l0.08-0.14l0.93-1.46l-1.6,0.67c-1.73,0.82-5.37-0.51-8.29,0.98
								c-0.33,0.18-0.64,0.4-0.95,0.64c-1.68,1.39-3.01,3.69-3.65,4.9c-0.4-1.27-1.27-3.67-2.62-5.33c-0.29-0.35-0.59-0.67-0.93-0.93
								c-2.62-1.98-6.46-1.21-8-2.33l-0.14-0.09l-1.46-0.94l0.67,1.6c0.83,1.73-0.5,5.37,0.99,8.29c0.18,0.33,0.4,0.65,0.64,0.95
								c1.36,1.64,3.58,2.95,4.81,3.6c-1.28,0.41-3.63,1.27-5.26,2.6c-0.35,0.28-0.66,0.59-0.93,0.93c-1.98,2.63-1.22,6.46-2.33,8.01
								l-0.09,0.13l-0.93,1.46L94.53,74.49z"
										/>
									</defs>
									<clipPath id="SVGID_00000164496593851954274960000003894480824145062842_">
										<use xlink:href="#SVGID_1_" style="overflow: visible" />
									</clipPath>
									<radialGradient
										id="SVGID_00000147208253558828175500000011710541428310096014_"
										cx="107.9894"
										cy="62.6483"
										r="19.4053"
										gradientUnits="userSpaceOnUse"
									>
										<stop offset="0" style="stop-color: #a10c16" />
										<stop offset="0.2334" style="stop-color: #a20f18" />
										<stop offset="0.3719" style="stop-color: #a51720" />
										<stop offset="0.4856" style="stop-color: #ab252e" />
										<stop offset="0.5859" style="stop-color: #b23941" />
										<stop offset="0.6774" style="stop-color: #bd535a" />
										<stop offset="0.7625" style="stop-color: #c97479" />
										<stop offset="0.8426" style="stop-color: #d89a9e" />
										<stop offset="0.9187" style="stop-color: #e9c6c8" />
										<stop offset="0.9893" style="stop-color: #fcf7f7" />
										<stop offset="1" style="stop-color: #ffffff" />
									</radialGradient>
									<rect
										x="88.58"
										y="43.24"
										style="
											clip-path: url(#SVGID_00000164496593851954274960000003894480824145062842_);
											fill: url(#SVGID_00000147208253558828175500000011710541428310096014_);
										"
										width="38.81"
										height="38.81"
									/>
								</g>
								<g>
									<defs>
										<path
											id="SVGID_00000070107776516379956450000013676468370157779347_"
											class="st4"
											d="M101.55,63.51c1.19-0.46,2.12-0.7,2.12-0.7
								c0.11-0.03,0.22-0.07,0.33-0.16c0.17-0.12,0.28-0.42,0.23-0.6c-0.04-0.19-0.12-0.28-0.16-0.34c-0.08-0.09-0.14-0.14-0.16-0.15
								l-0.04-0.03l-0.04-0.02c-0.01,0-2.96-0.85-4.63-2.91c-0.21-0.26-0.39-0.52-0.53-0.77c-1.09-1.95-0.33-4.72-0.65-7.02
								c2.23,0.77,5.21,0.38,6.97,1.83c0.26,0.21,0.51,0.47,0.76,0.77c1.68,2.03,1.96,4.94,1.97,4.94l0.02,0.07l0.04,0.06
								c0.03,0.04,0.05,0.1,0.12,0.18c0.1,0.13,0.3,0.27,0.52,0.27c0.22,0,0.37-0.1,0.45-0.16c0.16-0.13,0.2-0.23,0.22-0.26
								c0.01-0.04,0.87-3,2.93-4.66c0.26-0.21,0.51-0.39,0.77-0.52c1.95-1.09,4.72-0.33,7.02-0.64c-0.77,2.23-0.38,5.2-1.83,6.97
								c-0.2,0.26-0.46,0.52-0.76,0.77c-1.01,0.84-1.62,0.82-2.81,1.27c-1.19,0.45-2.12,0.7-2.12,0.7c-0.06,0.02-0.15,0.04-0.32,0.16
								c-0.08,0.06-0.19,0.18-0.24,0.39c-0.05,0.21,0.05,0.44,0.15,0.55c0.04,0.04,0.08,0.1,0.15,0.14l0.05,0.04l0.06,0.03
								c0.01-0.01,2.97,0.85,4.63,2.91c0.21,0.26,0.39,0.51,0.52,0.77c1.09,1.95,0.33,4.72,0.64,7.02c-2.23-0.77-5.21-0.38-6.97-1.83
								c-0.26-0.2-0.52-0.46-0.76-0.76c-1.68-2.03-1.97-4.94-1.98-4.94c-0.03-0.08-0.06-0.17-0.15-0.28c-0.07-0.08-0.17-0.19-0.38-0.26
								c-0.21-0.07-0.49,0.01-0.64,0.14c-0.05,0.04-0.11,0.1-0.15,0.16l-0.04,0.05l-0.03,0.06c0.01,0.01-0.85,2.96-2.9,4.63
								c-0.26,0.21-0.52,0.39-0.77,0.53c-1.95,1.09-4.72,0.32-7.02,0.64c0.77-2.23,0.38-5.2,1.83-6.97c0.21-0.26,0.47-0.52,0.77-0.76
								C99.75,63.94,100.36,63.97,101.55,63.51z"
										/>
									</defs>
									<clipPath id="SVGID_00000153666454778121878860000014789585623683161510_">
										<use
											xlink:href="#SVGID_00000070107776516379956450000013676468370157779347_"
											style="overflow: visible"
										/>
									</clipPath>
									<rect
										x="96.14"
										y="50.8"
										style="clip-path: url(#SVGID_00000153666454778121878860000014789585623683161510_); fill: #a10c16"
										width="23.67"
										height="23.67"
									/>
								</g>
							</g>
							<g>
								<g>
									<defs>
										<path
											id="SVGID_00000055676604101755481350000005310571527862498712_"
											d="M107.54,49.22c-3.1-1.88-4.8-9-10.19-12.05
								c-0.62-0.34-1.3-0.61-2-0.83c-3.94-1.2-8.95-0.9-11.52-0.64c1.56-1.91,4.46-5.81,5.68-9.69c0.25-0.81,0.43-1.63,0.49-2.44
								c0.39-6.2-4.81-11.45-4.67-15.04l0-0.31l-0.06-3.29l-1.81,2.74c-1.87,3.1-9,4.8-12.05,10.19c-0.34,0.62-0.61,1.29-0.83,2
								c-1.17,3.84-0.92,8.7-0.66,11.32c-1.97-1.59-5.78-4.4-9.58-5.59c-0.81-0.25-1.63-0.43-2.44-0.49c-6.2-0.39-11.44,4.81-15.04,4.66
								l-0.3,0.01l-3.26,0.06l2.72,1.82c3.1,1.87,4.8,9,10.19,12.05c0.62,0.34,1.29,0.61,2,0.82c3.94,1.2,8.95,0.9,11.52,0.64
								c-1.58,1.95-4.47,5.83-5.68,9.69c-0.25,0.81-0.43,1.62-0.5,2.44c-0.39,6.19,4.81,11.44,4.67,15.04l0.01,0.3l0.05,3.28l1.82-2.73
								c1.88-3.11,9-4.8,12.05-10.19c0.34-0.63,0.61-1.3,0.82-2c1.17-3.85,0.92-8.7,0.66-11.32c1.98,1.6,5.79,4.4,9.58,5.59
								c0.81,0.25,1.62,0.43,2.43,0.5c6.2,0.39,11.45-4.81,15.05-4.67l0.3,0l3.28-0.06L107.54,49.22z"
										/>
									</defs>
									<clipPath id="SVGID_00000136412030686933098650000011780787710267926950_">
										<use
											xlink:href="#SVGID_00000055676604101755481350000005310571527862498712_"
											style="overflow: visible"
										/>
									</clipPath>
									<radialGradient
										id="SVGID_00000088843551415910126830000006545038004442821008_"
										cx="74.7812"
										cy="40.425"
										r="35.488"
										gradientUnits="userSpaceOnUse"
									>
										<stop offset="0" style="stop-color: #bb0618" />
										<stop offset="0.0675" style="stop-color: #bf281f" />
										<stop offset="0.4154" style="stop-color: #d78261" />
										<stop offset="0.697" style="stop-color: #e8c0a9" />
										<stop offset="0.8982" style="stop-color: #f2e6da" />
										<stop offset="1" style="stop-color: #f5f4ed" />
									</radialGradient>
									<rect
										x="39.29"
										y="4.94"
										style="
											clip-path: url(#SVGID_00000136412030686933098650000011780787710267926950_);
											fill: url(#SVGID_00000088843551415910126830000006545038004442821008_);
										"
										width="70.98"
										height="70.98"
									/>
								</g>
								<g class="st8">
									<defs>
										<path
											id="SVGID_00000047040970767918346660000009846879583245087156_"
											class="st8"
											d="M82.91,49.59
								c-1.95-1.4-3.31-2.61-3.31-2.61c-0.16-0.14-0.35-0.28-0.6-0.35c-0.36-0.15-0.95,0-1.2,0.27c-0.25,0.26-0.31,0.47-0.36,0.61
								c-0.07,0.22-0.07,0.35-0.07,0.41l-0.01,0.1l0.02,0.09c0.02,0.01,1.74,5.56,0.24,10.33c-0.19,0.6-0.41,1.16-0.67,1.64
								c-1.93,3.75-7.1,5.43-10.39,8.33c-1.11-4.32-4.82-8.6-4.37-12.89c0.05-0.63,0.19-1.3,0.41-2c1.46-4.76,5.74-8.24,5.73-8.26
								l0.09-0.1l0.07-0.13c0.04-0.08,0.1-0.17,0.16-0.38c0.1-0.29,0.11-0.75-0.12-1.11c-0.23-0.35-0.53-0.48-0.72-0.54
								c-0.37-0.11-0.57-0.07-0.64-0.07c-0.08,0.03-5.64,1.75-10.4,0.25c-0.6-0.18-1.15-0.41-1.63-0.67c-3.75-1.93-5.43-7.1-8.33-10.39
								c4.32-1.11,8.6-4.82,12.89-4.37c0.62,0.05,1.3,0.19,2,0.41c2.38,0.73,2.98,1.71,4.94,3.11c1.95,1.4,3.31,2.62,3.32,2.61
								c0.09,0.07,0.22,0.21,0.58,0.33c0.18,0.05,0.48,0.12,0.86-0.03c0.38-0.15,0.64-0.53,0.71-0.81c0.03-0.1,0.06-0.23,0.07-0.38
								l0.01-0.12l-0.02-0.12c-0.02-0.01-1.74-5.57-0.24-10.33c0.19-0.59,0.41-1.15,0.67-1.62c1.93-3.75,7.1-5.43,10.39-8.33
								c1.11,4.32,4.82,8.6,4.37,12.89c-0.05,0.62-0.19,1.3-0.41,2c-1.46,4.76-5.74,8.25-5.73,8.26c-0.1,0.13-0.2,0.26-0.29,0.53
								c-0.05,0.19-0.12,0.46-0.01,0.85c0.11,0.4,0.53,0.77,0.89,0.86c0.12,0.04,0.26,0.06,0.41,0.07l0.11,0.01l0.13-0.01
								c0.01-0.02,5.56-1.75,10.32-0.24c0.6,0.19,1.15,0.41,1.64,0.67c3.75,1.93,5.43,7.1,8.33,10.39c-4.32,1.11-8.6,4.83-12.89,4.37
								c-0.63-0.06-1.31-0.2-2-0.42C85.47,51.98,84.87,50.99,82.91,49.59z"
										/>
									</defs>
									<clipPath id="SVGID_00000139976988234001524280000000460019854644330666_">
										<use
											xlink:href="#SVGID_00000047040970767918346660000009846879583245087156_"
											style="overflow: visible"
										/>
									</clipPath>
									<rect
										x="46.8"
										y="12.47"
										style="clip-path: url(#SVGID_00000139976988234001524280000000460019854644330666_); fill: #c60d1f"
										width="55.93"
										height="55.93"
									/>
								</g>
							</g>
							<g>
								<g>
									<defs>
										<path
											id="SVGID_00000034811069583308460690000003675660113661207231_"
											d="M138.62,60.86c-2.83-3.48-1.85-12.49-6.88-18.28
								c-0.59-0.65-1.26-1.25-1.99-1.8c-4.1-3.04-10.06-4.77-13.16-5.52c2.61-1.58,7.61-4.92,10.65-8.94c0.62-0.84,1.17-1.72,1.59-2.63
								c3.03-7.07-0.85-15.35,0.8-19.48l0.12-0.36L131.05,0l-3.25,2.44c-3.47,2.84-12.49,1.86-18.28,6.88
								c-0.65,0.59-1.25,1.26-1.79,1.99c-2.96,3.99-4.69,9.76-5.47,12.92c-1.64-2.67-4.92-7.53-8.85-10.5
								c-0.84-0.63-1.73-1.18-2.65-1.59C83.71,9.12,75.44,13,71.3,11.34l-0.36-0.12l-3.83-1.29l2.41,3.25
								c2.84,3.47,1.86,12.48,6.88,18.28c0.58,0.65,1.26,1.24,1.99,1.79c4.1,3.04,10.06,4.78,13.16,5.53
								c-2.65,1.62-7.63,4.94-10.65,8.94c-0.63,0.84-1.18,1.71-1.59,2.64c-3.02,7.06,0.86,15.33-0.8,19.47l-0.12,0.35l-1.3,3.85
								l3.26-2.43c3.48-2.84,12.49-1.86,18.28-6.88c0.66-0.59,1.25-1.27,1.79-1.99c2.96-4,4.69-9.77,5.47-12.92
								c1.64,2.69,4.92,7.53,8.84,10.5c0.84,0.63,1.71,1.17,2.64,1.59c7.07,3.03,15.34-0.85,19.48,0.81l0.35,0.12l3.84,1.29
								L138.62,60.86z"
										/>
									</defs>
									<clipPath id="SVGID_00000025402079778341960910000001114841919517003915_">
										<use
											xlink:href="#SVGID_00000034811069583308460690000003675660113661207231_"
											style="overflow: visible"
										/>
									</clipPath>
									<radialGradient
										id="SVGID_00000108279761157903488350000007842175113630497175_"
										cx="104.1282"
										cy="37.0151"
										r="37.0151"
										gradientUnits="userSpaceOnUse"
									>
										<stop offset="0" style="stop-color: #bb0618" />
										<stop offset="0.0675" style="stop-color: #bf281f" />
										<stop offset="0.4154" style="stop-color: #d78261" />
										<stop offset="0.697" style="stop-color: #e8c0a9" />
										<stop offset="0.8982" style="stop-color: #f2e6da" />
										<stop offset="1" style="stop-color: #f5f4ed" />
									</radialGradient>
									<rect
										x="67.11"
										style="
											clip-path: url(#SVGID_00000025402079778341960910000001114841919517003915_);
											fill: url(#SVGID_00000108279761157903488350000007842175113630497175_);
										"
										width="74.03"
										height="74.03"
									/>
								</g>
								<g>
									<defs>
										<path
											id="SVGID_00000177468932201777678280000009617225191366564794_"
											d="M109.76,51.07c-1.7-2.44-2.77-4.42-2.78-4.41
								c-0.13-0.23-0.29-0.46-0.55-0.66c-0.36-0.32-1.11-0.4-1.51-0.18c-0.4,0.19-0.56,0.41-0.67,0.56c-0.17,0.23-0.23,0.38-0.25,0.45
								l-0.05,0.12l-0.02,0.12c0.02,0.02-0.28,7.21-4.01,12.14c-0.47,0.63-0.96,1.17-1.46,1.63c-3.81,3.57-10.53,3.38-15.57,5.4
								c0.5-5.5-2.05-12.03,0.26-16.85c0.32-0.71,0.76-1.44,1.31-2.16c3.67-4.94,10.11-7.23,10.11-7.25l0.15-0.08l0.13-0.12
								c0.08-0.08,0.18-0.16,0.34-0.37c0.24-0.3,0.44-0.83,0.32-1.35c-0.13-0.5-0.42-0.78-0.62-0.93c-0.39-0.28-0.64-0.32-0.71-0.35
								c-0.1,0-7.3-0.3-12.22-4.03c-0.62-0.46-1.17-0.95-1.62-1.46c-3.57-3.81-3.39-10.53-5.39-15.57c5.5,0.5,12.03-2.06,16.84,0.25
								c0.71,0.31,1.43,0.76,2.16,1.31c2.48,1.83,2.77,3.23,4.47,5.68c1.69,2.44,2.78,4.42,2.79,4.43c0.08,0.12,0.17,0.33,0.54,0.62
								c0.19,0.14,0.51,0.34,1.02,0.32c0.51-0.01,0.96-0.35,1.16-0.65c0.08-0.1,0.17-0.24,0.24-0.41l0.06-0.14l0.03-0.15
								c-0.02-0.02,0.28-7.21,4-12.14c0.46-0.62,0.95-1.17,1.46-1.62c3.81-3.57,10.53-3.39,15.57-5.39c-0.5,5.5,2.05,12.03-0.26,16.84
								c-0.32,0.7-0.76,1.44-1.3,2.16c-3.67,4.95-10.11,7.23-10.11,7.25c-0.17,0.11-0.35,0.22-0.56,0.5c-0.14,0.19-0.33,0.49-0.36,0.99
								c-0.04,0.51,0.3,1.11,0.68,1.37c0.12,0.09,0.28,0.18,0.45,0.26l0.12,0.05l0.16,0.04c0.01-0.02,7.21,0.27,12.13,4
								c0.62,0.47,1.17,0.96,1.62,1.47c3.57,3.81,3.39,10.53,5.4,15.56c-5.5-0.5-12.03,2.06-16.85-0.25c-0.71-0.33-1.44-0.77-2.16-1.31
								C111.75,54.92,111.46,53.52,109.76,51.07z"
										/>
									</defs>
									<clipPath id="SVGID_00000150796316019872797600000015389524560501286819_">
										<use
											xlink:href="#SVGID_00000177468932201777678280000009617225191366564794_"
											style="overflow: visible"
										/>
									</clipPath>
									<radialGradient
										id="SVGID_00000160174260142648787190000010601555947772636581_"
										cx="103.7763"
										cy="37.2019"
										r="29.4598"
										gradientUnits="userSpaceOnUse"
									>
										<stop offset="0" style="stop-color: #e36829" />
										<stop offset="0.2621" style="stop-color: #e46d27" />
										<stop offset="0.5745" style="stop-color: #e97a1e" />
										<stop offset="0.9114" style="stop-color: #f08e00" />
										<stop offset="1" style="stop-color: #f29400" />
									</radialGradient>
									<rect
										x="74.32"
										y="7.74"
										style="
											clip-path: url(#SVGID_00000150796316019872797600000015389524560501286819_);
											fill: url(#SVGID_00000160174260142648787190000010601555947772636581_);
										"
										width="58.92"
										height="58.92"
									/>
								</g>
							</g>
							<g class="fill-[#a10c16]">
								<path
									d="M4.68,97.35c0,3.31,0,4.58-0.61,6.03c-0.43,1.02-1.33,1.98-2.99,3.13c-0.27,0.18-0.59,0.41-0.8,0.51
							c-0.04,0.02-0.08,0.04-0.14,0.04S0,107.02,0,106.94c0-0.12,0.1-0.18,0.29-0.31c0.25-0.14,0.53-0.39,0.72-0.57
							c1.33-1.35,1.96-2.43,1.96-7.71v-5.91c0-3.19,0-3.76-0.04-4.42c-0.04-0.69-0.2-1.02-0.88-1.17c-0.16-0.04-0.51-0.06-0.69-0.06
							c-0.08,0-0.16-0.04-0.16-0.12c0-0.12,0.1-0.16,0.33-0.16c0.92,0,2.21,0.06,2.31,0.06c0.1,0,1.39-0.06,2-0.06
							c0.23,0,0.33,0.04,0.33,0.16c0,0.08-0.08,0.12-0.16,0.12c-0.14,0-0.27,0.02-0.51,0.06c-0.55,0.1-0.72,0.45-0.76,1.17
							c-0.04,0.65-0.04,1.23-0.04,4.42V97.35z"
								/>
								<path
									d="M14,89.17c0.22-0.57,0.31-0.67,0.43-0.67c0.18,0,0.25,0.25,0.43,0.63c0.33,0.74,3.21,7.91,4.31,10.55
							c0.65,1.55,1.15,1.78,1.53,1.9c0.27,0.08,0.53,0.1,0.72,0.1c0.1,0,0.23,0.04,0.23,0.14c0,0.1-0.2,0.14-0.41,0.14
							c-0.27,0-1.6,0-2.84-0.04c-0.35-0.02-0.63-0.02-0.63-0.12c0-0.08,0.04-0.08,0.12-0.12c0.1-0.04,0.29-0.18,0.16-0.47l-1.62-3.99
							c-0.04-0.08-0.06-0.1-0.16-0.1h-4.15c-0.08,0-0.14,0.04-0.18,0.14l-1.02,2.78c-0.16,0.43-0.27,0.86-0.27,1.17
							c0,0.35,0.31,0.47,0.61,0.47h0.16c0.14,0,0.18,0.06,0.18,0.14c0,0.1-0.1,0.14-0.27,0.14c-0.43,0-1.41-0.06-1.62-0.06
							c-0.18,0-1.08,0.06-1.82,0.06c-0.23,0-0.35-0.04-0.35-0.14c0-0.08,0.08-0.14,0.16-0.14c0.12,0,0.39-0.02,0.53-0.04
							c0.82-0.1,1.17-0.72,1.51-1.59L14,89.17z M16.01,96.41c0.08,0,0.08-0.04,0.06-0.12l-1.78-4.76c-0.1-0.27-0.2-0.27-0.31,0
							l-1.68,4.76c-0.02,0.08,0,0.12,0.06,0.12H16.01z"
								/>
								<path
									d="M25.08,99.6c0.04,1.43,0.2,1.86,0.7,1.98c0.33,0.08,0.74,0.1,0.9,0.1c0.08,0,0.14,0.06,0.14,0.14
							c0,0.1-0.12,0.14-0.33,0.14c-1.02,0-1.74-0.06-1.9-0.06s-0.92,0.06-1.74,0.06c-0.18,0-0.29-0.02-0.29-0.14
							c0-0.08,0.06-0.14,0.14-0.14c0.14,0,0.47-0.02,0.74-0.1c0.45-0.12,0.51-0.59,0.51-2.17v-9.96c0-0.7,0.1-0.88,0.25-0.88
							c0.2,0,0.51,0.35,0.7,0.53c0.29,0.29,2.9,3.07,5.68,5.93c1.78,1.84,3.7,3.91,4.25,4.48l-0.18-8.71c-0.02-1.12-0.12-1.51-0.67-1.62
							c-0.33-0.06-0.74-0.08-0.88-0.08c-0.12,0-0.14-0.1-0.14-0.16c0-0.1,0.14-0.12,0.35-0.12c0.82,0,1.68,0.04,1.88,0.04
							s0.8-0.04,1.53-0.04c0.18,0,0.33,0.02,0.33,0.12c0,0.06-0.08,0.16-0.2,0.16c-0.08,0-0.23,0-0.43,0.04
							c-0.59,0.12-0.63,0.47-0.63,1.51l-0.04,10.18c0,1.15-0.02,1.25-0.14,1.25c-0.18,0-0.37-0.14-1.37-1.06
							c-0.18-0.16-2.78-2.72-4.68-4.7c-2.09-2.19-4.11-4.31-4.66-4.93L25.08,99.6z"
								/>
								<path
									d="M44.4,89.17c0.22-0.57,0.31-0.67,0.43-0.67c0.18,0,0.25,0.25,0.43,0.63c0.33,0.74,3.21,7.91,4.31,10.55
							c0.65,1.55,1.15,1.78,1.53,1.9c0.27,0.08,0.53,0.1,0.72,0.1c0.1,0,0.23,0.04,0.23,0.14c0,0.1-0.2,0.14-0.41,0.14
							c-0.27,0-1.6,0-2.84-0.04c-0.35-0.02-0.63-0.02-0.63-0.12c0-0.08,0.04-0.08,0.12-0.12c0.1-0.04,0.29-0.18,0.16-0.47l-1.62-3.99
							c-0.04-0.08-0.06-0.1-0.16-0.1h-4.15c-0.08,0-0.14,0.04-0.18,0.14l-1.02,2.78c-0.16,0.43-0.27,0.86-0.27,1.17
							c0,0.35,0.31,0.47,0.61,0.47h0.16c0.14,0,0.18,0.06,0.18,0.14c0,0.1-0.1,0.14-0.27,0.14c-0.43,0-1.41-0.06-1.62-0.06
							c-0.18,0-1.08,0.06-1.82,0.06c-0.23,0-0.35-0.04-0.35-0.14c0-0.08,0.08-0.14,0.16-0.14c0.12,0,0.39-0.02,0.53-0.04
							c0.82-0.1,1.17-0.72,1.51-1.59L44.4,89.17z M46.41,96.41c0.08,0,0.08-0.04,0.06-0.12l-1.78-4.76c-0.1-0.27-0.2-0.27-0.31,0
							l-1.68,4.76c-0.02,0.08,0,0.12,0.06,0.12H46.41z"
								/>
								<path
									d="M62.15,92.45c0-3.19,0-3.76-0.04-4.42c-0.04-0.69-0.2-1.02-0.88-1.17c-0.16-0.04-0.51-0.06-0.69-0.06
							c-0.08,0-0.16-0.04-0.16-0.12c0-0.12,0.1-0.16,0.33-0.16c0.92,0,2.15,0.06,2.31,0.06c0.45,0,1.64-0.06,2.58-0.06
							c2.56,0,3.48,0.86,3.8,1.17c0.45,0.43,1.02,1.35,1.02,2.43c0,2.9-2.13,4.87-5.03,4.87c-0.1,0-0.33,0-0.43-0.02
							c-0.1,0-0.23-0.04-0.23-0.14c0-0.16,0.12-0.18,0.55-0.18c1.98,0,3.54-1.45,3.54-3.33c0-0.67-0.06-2.04-1.15-3.15
							s-2.33-1.02-2.8-1.02c-0.35,0-0.7,0.04-0.88,0.12c-0.12,0.04-0.16,0.18-0.16,0.39v8.4c0,1.96,0,3.58,0.1,4.44
							c0.06,0.59,0.18,1.04,0.8,1.12c0.29,0.04,0.74,0.08,0.92,0.08c0.12,0,0.16,0.06,0.16,0.12c0,0.1-0.1,0.16-0.33,0.16
							c-1.12,0-2.41-0.06-2.51-0.06c-0.06,0-1.35,0.06-1.96,0.06c-0.23,0-0.33-0.04-0.33-0.16c0-0.06,0.04-0.12,0.16-0.12
							c0.18,0,0.43-0.04,0.61-0.08c0.41-0.08,0.51-0.53,0.59-1.12c0.1-0.86,0.1-2.47,0.1-4.44V92.45z"
								/>
								<path
									d="M76.83,89.17c0.22-0.57,0.31-0.67,0.43-0.67c0.18,0,0.25,0.25,0.43,0.63c0.33,0.74,3.21,7.91,4.31,10.55
							c0.65,1.55,1.15,1.78,1.53,1.9c0.27,0.08,0.53,0.1,0.72,0.1c0.1,0,0.23,0.04,0.23,0.14c0,0.1-0.2,0.14-0.41,0.14
							c-0.27,0-1.6,0-2.84-0.04c-0.35-0.02-0.63-0.02-0.63-0.12c0-0.08,0.04-0.08,0.12-0.12c0.1-0.04,0.29-0.18,0.16-0.47l-1.62-3.99
							c-0.04-0.08-0.06-0.1-0.16-0.1h-4.15c-0.08,0-0.14,0.04-0.18,0.14l-1.02,2.78c-0.16,0.43-0.27,0.86-0.27,1.17
							c0,0.35,0.31,0.47,0.61,0.47h0.16c0.14,0,0.18,0.06,0.18,0.14c0,0.1-0.1,0.14-0.27,0.14c-0.43,0-1.41-0.06-1.62-0.06
							c-0.18,0-1.08,0.06-1.82,0.06c-0.23,0-0.35-0.04-0.35-0.14c0-0.08,0.08-0.14,0.16-0.14c0.12,0,0.39-0.02,0.53-0.04
							c0.82-0.1,1.17-0.72,1.51-1.59L76.83,89.17z M78.83,96.41c0.08,0,0.08-0.04,0.06-0.12l-1.78-4.76c-0.1-0.27-0.2-0.27-0.31,0
							l-1.68,4.76c-0.02,0.08,0,0.12,0.06,0.12H78.83z"
								/>
								<path
									d="M87.15,93.86c0-2.7,0-3.19-0.04-3.74c-0.04-0.59-0.14-0.88-0.74-0.96c-0.14-0.02-0.45-0.04-0.61-0.04
							c-0.06,0-0.14-0.08-0.14-0.14c0-0.1,0.08-0.14,0.29-0.14c0.82,0,1.92,0.04,2.02,0.04c0.16,0,1.25-0.04,1.78-0.04
							c0.2,0,0.29,0.04,0.29,0.14c0,0.06-0.06,0.14-0.14,0.14c-0.12,0-0.23,0-0.45,0.04c-0.47,0.1-0.59,0.35-0.63,0.96
							c-0.04,0.55-0.04,1.04-0.04,3.74v1.04h0.08c0.29-0.33,3.5-3.5,4.17-4.19c0.51-0.51,0.98-0.96,0.98-1.25
							c0-0.22-0.08-0.33-0.22-0.35c-0.1-0.02-0.16-0.1-0.16-0.16c0-0.08,0.08-0.12,0.21-0.12c0.37,0,0.92,0.04,1.35,0.04
							c0.1,0,1.29-0.04,1.74-0.04c0.18,0,0.27,0.04,0.27,0.12c0,0.08-0.04,0.14-0.18,0.14c-0.27,0-0.65,0.1-1,0.25
							c-0.74,0.33-1.08,0.72-1.88,1.47c-0.45,0.41-3.52,3.35-3.91,3.78c0.47,0.51,4.21,4.25,4.95,4.93c1.51,1.35,1.72,1.58,2.58,1.92
							c0.47,0.18,0.98,0.25,1.1,0.25c0.12,0,0.23,0.06,0.23,0.14c0,0.08-0.08,0.14-0.39,0.14H97.7c-0.51,0-0.84,0-1.25-0.04
							c-0.94-0.08-1.41-0.47-2.19-1.06c-0.82-0.63-4.6-4.62-5.46-5.64h-0.08v1.7c0,1.68,0,3.05,0.08,3.76c0.06,0.51,0.14,0.84,0.69,0.92
							c0.25,0.04,0.53,0.08,0.7,0.08c0.1,0,0.14,0.08,0.14,0.14c0,0.08-0.08,0.14-0.29,0.14c-0.88,0-1.96-0.06-2.11-0.06
							s-1.23,0.06-1.78,0.06c-0.18,0-0.29-0.04-0.29-0.14c0-0.06,0.04-0.14,0.14-0.14c0.16,0,0.39-0.04,0.55-0.08
							c0.35-0.08,0.39-0.41,0.47-0.92c0.1-0.72,0.1-2.09,0.1-3.76V93.86z"
								/>
								<path
									d="M101.07,93.86c0-2.7,0-3.19-0.04-3.74c-0.04-0.59-0.14-0.88-0.74-0.96c-0.14-0.02-0.45-0.04-0.61-0.04
							c-0.06,0-0.14-0.08-0.14-0.14c0-0.1,0.08-0.14,0.29-0.14c0.82,0,1.98,0.04,2.09,0.04c0.12,0,3.88,0.02,4.29,0
							c0.35-0.02,0.67-0.08,0.82-0.1c0.08-0.02,0.16-0.08,0.25-0.08c0.06,0,0.08,0.08,0.08,0.16c0,0.12-0.1,0.33-0.14,0.82
							c-0.02,0.16-0.06,0.94-0.1,1.15c-0.02,0.08-0.08,0.18-0.16,0.18c-0.1,0-0.14-0.08-0.14-0.22c0-0.12-0.02-0.41-0.1-0.61
							c-0.12-0.29-0.31-0.41-1.29-0.53c-0.31-0.04-2.39-0.06-2.6-0.06c-0.08,0-0.1,0.06-0.1,0.18v4.72c0,0.12,0,0.18,0.1,0.18
							c0.22,0,2.6,0,3.01-0.04c0.43-0.04,0.7-0.06,0.88-0.25c0.12-0.12,0.2-0.22,0.27-0.22s0.1,0.04,0.1,0.14c0,0.1-0.1,0.39-0.14,0.96
							c-0.04,0.35-0.08,1-0.08,1.12c0,0.14-0.04,0.33-0.16,0.33c-0.08,0-0.12-0.06-0.12-0.16c0-0.16,0-0.35-0.08-0.57
							c-0.06-0.25-0.23-0.45-0.92-0.53c-0.49-0.06-2.41-0.08-2.72-0.08c-0.1,0-0.12,0.06-0.12,0.12v1.45c0,0.59-0.02,2.62,0,2.96
							c0.04,1.17,0.37,1.39,2.15,1.39c0.47,0,1.33,0,1.8-0.18c0.47-0.21,0.72-0.51,0.82-1.21c0.04-0.2,0.08-0.27,0.18-0.27
							s0.12,0.14,0.12,0.27c0,0.12-0.14,1.31-0.25,1.68c-0.12,0.45-0.31,0.45-1,0.45c-1.35,0-2.39-0.04-3.13-0.06
							c-0.76-0.04-1.23-0.04-1.49-0.04c-0.04,0-0.39,0-0.78,0.02c-0.35,0.02-0.76,0.04-1.04,0.04c-0.18,0-0.29-0.04-0.29-0.14
							c0-0.06,0.04-0.14,0.14-0.14c0.16,0,0.39-0.06,0.55-0.08c0.35-0.06,0.39-0.41,0.47-0.92c0.1-0.72,0.1-2.09,0.1-3.76V93.86z"
								/>
								<path
									d="M112.64,93.86c0-2.7,0-3.19-0.04-3.74c-0.04-0.59-0.14-0.92-0.74-1c-0.14-0.02-0.45-0.04-0.61-0.04
							c-0.06,0-0.14-0.04-0.14-0.1c0-0.1,0.08-0.14,0.29-0.14c0.82,0,1.98,0.04,2.09,0.04c0.43,0,1.27-0.04,2.11-0.04
							c3.01,0,3.78,1.74,3.78,2.66c0,1.37-0.9,2.23-1.82,3.05c1.37,0.41,3.17,1.66,3.17,3.62c0,1.94-1.45,3.87-4.52,3.87
							c-0.33,0-0.98-0.02-1.55-0.06c-0.57-0.02-1.08-0.04-1.17-0.04c-0.04,0-0.37,0.02-0.74,0.02c-0.37,0.02-0.8,0.04-1.08,0.04
							c-0.18,0-0.29-0.04-0.29-0.14c0-0.06,0.04-0.1,0.14-0.1c0.16,0,0.39-0.06,0.55-0.08c0.35-0.06,0.39-0.45,0.47-0.96
							c0.1-0.72,0.1-2.09,0.1-3.76V93.86z M114.19,94.22c0,0.12,0.04,0.16,0.12,0.18c0.1,0.02,0.43,0.08,1.1,0.08
							c1,0,1.39-0.04,1.76-0.45c0.39-0.43,0.7-1.02,0.7-1.86c0-1.33-0.74-2.8-2.54-2.8c-0.2,0-0.63,0.02-0.92,0.08
							c-0.16,0.04-0.22,0.08-0.22,0.18V94.22z M114.19,96.15c0,1.35,0,3.43,0.02,3.7c0.06,0.84,0.06,1.04,0.61,1.31
							c0.49,0.23,1.25,0.25,1.57,0.25c1.19,0,2.64-0.45,2.64-2.68c0-0.78-0.31-2.27-1.72-3.17c-0.61-0.39-1.19-0.37-1.62-0.45
							c-0.22-0.04-1.12-0.04-1.41-0.04c-0.06,0-0.1,0.04-0.1,0.12V96.15z"
								/>
								<path
									d="M124.58,93.86c0-2.7,0-3.19-0.04-3.74s-0.14-0.88-0.74-0.96c-0.14-0.02-0.45-0.04-0.61-0.04
							c-0.06,0-0.14-0.08-0.14-0.14c0-0.1,0.08-0.14,0.29-0.14c0.82,0,1.9,0.04,2.07,0.04c0.16,0,1.29-0.04,1.82-0.04
							c0.2,0,0.31,0.04,0.31,0.14c0,0.06-0.08,0.14-0.16,0.14c-0.12,0-0.23,0-0.45,0.04c-0.47,0.08-0.57,0.39-0.61,0.96
							c-0.04,0.55-0.04,1.04-0.04,3.74v2.43c0,2.51,0.55,3.56,1.33,4.25c0.88,0.8,1.66,0.94,2.68,0.94c1.1,0,2.17-0.49,2.78-1.23
							c0.84-1,1.02-2.43,1.02-4.21v-2.19c0-2.7-0.02-3.19-0.04-3.74s-0.12-0.88-0.72-0.96c-0.14-0.02-0.45-0.04-0.61-0.04
							c-0.08,0-0.14-0.08-0.14-0.14c0-0.1,0.08-0.14,0.29-0.14c0.8,0,1.84,0.04,1.94,0.04c0.12,0,0.98-0.04,1.51-0.04
							c0.21,0,0.29,0.04,0.29,0.14c0,0.06-0.06,0.14-0.14,0.14c-0.12,0-0.22,0-0.45,0.04c-0.49,0.1-0.59,0.39-0.63,0.96
							c-0.04,0.55-0.02,1.04-0.02,3.74v1.86c0,1.88-0.25,3.99-1.68,5.21c-1.31,1.12-2.7,1.27-3.76,1.27c-0.59,0-2.47-0.04-3.74-1.23
							c-0.88-0.82-1.57-2.02-1.57-4.56V93.86z"
								/>
								<path
									d="M139.26,101.73c-0.25-0.12-0.27-0.18-0.27-0.65c0-0.86,0.08-1.55,0.1-1.84c0-0.18,0.04-0.29,0.14-0.29
							s0.16,0.06,0.16,0.2c0,0.14,0,0.39,0.06,0.63c0.29,1.27,1.64,1.72,2.84,1.72c1.78,0,2.7-1,2.7-2.31c0-1.25-0.67-1.84-2.27-3.03
							l-0.82-0.61c-1.94-1.45-2.58-2.51-2.58-3.72c0-2.04,1.62-3.27,3.99-3.27c0.71,0,1.43,0.1,1.86,0.2c0.35,0.08,0.49,0.08,0.63,0.08
							c0.14,0,0.18,0.02,0.18,0.12c0,0.08-0.08,0.65-0.08,1.84c0,0.27-0.02,0.39-0.14,0.39s-0.14-0.08-0.16-0.23
							c-0.02-0.2-0.16-0.67-0.27-0.86c-0.12-0.2-0.71-0.86-2.33-0.86c-1.31,0-2.39,0.65-2.39,1.88c0,1.1,0.55,1.74,2.33,2.94l0.51,0.35
							c2.19,1.49,2.94,2.7,2.94,4.19c0,1.02-0.39,2.13-1.68,2.96c-0.76,0.49-1.88,0.61-2.86,0.61
							C141.04,102.2,139.99,102.08,139.26,101.73z"
								/>
								<path
									d="M151.93,100.34c-1.76-1.51-2.19-3.5-2.19-5.15c0-1.17,0.43-3.19,2.02-4.74c1.08-1.04,2.72-1.86,5.48-1.86
							c0.71,0,1.74,0.06,2.62,0.2c0.67,0.12,1.25,0.25,1.84,0.27c0.18,0,0.22,0.08,0.22,0.18c0,0.14-0.04,0.35-0.08,0.98
							c-0.02,0.57-0.02,1.53-0.04,1.78c-0.02,0.27-0.1,0.37-0.21,0.37c-0.12,0-0.14-0.12-0.14-0.37c0-0.67-0.29-1.37-0.76-1.74
							c-0.63-0.53-1.94-0.96-3.54-0.96c-2.31,0-3.42,0.61-4.05,1.21c-1.33,1.23-1.62,2.78-1.62,4.54c0,3.33,2.64,6.3,6.48,6.3
							c1.35,0,2.25-0.1,2.96-0.82c0.39-0.39,0.63-1.12,0.7-1.45c0.04-0.18,0.06-0.25,0.18-0.25c0.08,0,0.16,0.12,0.16,0.25
							c0,0.12-0.25,1.64-0.43,2.23c-0.1,0.33-0.14,0.39-0.45,0.51c-0.74,0.29-2.09,0.39-3.25,0.39
							C155.16,102.2,153.34,101.57,151.93,100.34z"
								/>
								<path
									d="M177.55,96.92c0,1.68,0.02,3.05,0.1,3.76c0.06,0.51,0.1,0.84,0.65,0.92c0.25,0.04,0.65,0.08,0.8,0.08
							c0.12,0,0.16,0.08,0.16,0.14c0,0.08-0.1,0.14-0.31,0.14c-0.98,0-2.13-0.06-2.23-0.06c-0.08,0-1.25,0.06-1.78,0.06
							c-0.21,0-0.29-0.04-0.29-0.14c0-0.06,0.04-0.14,0.14-0.14c0.16,0,0.37-0.04,0.53-0.08c0.37-0.08,0.43-0.43,0.49-0.94
							c0.08-0.72,0.08-2.02,0.08-3.7v-1.74c0-0.08-0.04-0.1-0.1-0.1h-7.5c-0.06,0-0.1,0.02-0.1,0.1v1.74c0,1.68,0,3.01,0.08,3.72
							c0.06,0.51,0.12,0.84,0.65,0.92c0.27,0.04,0.65,0.08,0.82,0.08c0.1,0,0.14,0.08,0.14,0.14c0,0.08-0.08,0.14-0.29,0.14
							c-1,0-2.15-0.06-2.23-0.06c-0.1,0-1.25,0.06-1.8,0.06c-0.18,0-0.29-0.04-0.29-0.14c0-0.06,0.04-0.14,0.14-0.14
							c0.16,0,0.39-0.04,0.55-0.08c0.35-0.08,0.39-0.41,0.47-0.92c0.1-0.72,0.1-2.09,0.1-3.76v-3.07c0-2.7,0-3.19-0.04-3.74
							c-0.04-0.59-0.14-0.88-0.74-0.96c-0.14-0.02-0.45-0.04-0.61-0.04c-0.06,0-0.14-0.08-0.14-0.14c0-0.1,0.08-0.14,0.29-0.14
							c0.82,0,1.96,0.04,2.07,0.04c0.08,0,1.23-0.04,1.78-0.04c0.21,0,0.29,0.04,0.29,0.14c0,0.06-0.08,0.14-0.14,0.14
							c-0.12,0-0.25,0-0.45,0.04c-0.49,0.1-0.59,0.35-0.63,0.96c-0.02,0.55-0.02,1.08-0.02,3.78v0.37c0,0.1,0.04,0.1,0.1,0.1h7.5
							c0.06,0,0.1,0,0.1-0.1V93.9c0-2.7-0.02-3.23-0.04-3.78c-0.04-0.59-0.12-0.88-0.72-0.96c-0.14-0.02-0.45-0.04-0.61-0.04
							c-0.08,0-0.14-0.08-0.14-0.14c0-0.1,0.08-0.14,0.29-0.14c0.8,0,1.96,0.04,2.04,0.04c0.1,0,1.25-0.04,1.78-0.04
							c0.2,0,0.31,0.04,0.31,0.14c0,0.06-0.08,0.14-0.16,0.14c-0.12,0-0.22,0-0.45,0.04c-0.47,0.1-0.57,0.35-0.61,0.96
							c-0.04,0.55-0.04,1.04-0.04,3.74V96.92z"
								/>
								<path class="st6" d="M0.13,114.39h7.16v0.66H0.13V114.39z" />
								<path
									d="M14.58,113.45c0-1.89,0-2.23-0.03-2.62c-0.03-0.42-0.1-0.62-0.52-0.67c-0.1-0.01-0.31-0.03-0.43-0.03
							c-0.04,0-0.1-0.06-0.1-0.1c0-0.07,0.06-0.1,0.2-0.1c0.57,0,1.36,0.03,1.46,0.03c0.27,0,1.22-0.03,1.79-0.03
							c1.62,0,2.19,0.5,2.4,0.69c0.29,0.26,0.63,0.8,0.63,1.46c0,1.75-1.32,2.91-3.25,2.91c-0.07,0-0.29,0-0.36-0.01
							c-0.06,0-0.13-0.06-0.13-0.11c0-0.1,0.07-0.13,0.33-0.13c1.36,0,2.33-0.86,2.33-1.96c0-0.4-0.04-1.19-0.72-1.85
							c-0.66-0.66-1.42-0.59-1.7-0.59c-0.21,0-0.57,0.06-0.7,0.09c-0.07,0.01-0.1,0.1-0.1,0.23v4.95c0,1.17,0,2.13,0.06,2.63
							c0.04,0.36,0.11,0.59,0.5,0.64c0.17,0.03,0.44,0.06,0.56,0.06c0.07,0,0.1,0.06,0.1,0.1c0,0.06-0.06,0.1-0.2,0.1
							c-0.69,0-1.52-0.04-1.57-0.04c-0.04,0-0.86,0.04-1.25,0.04c-0.13,0-0.2-0.03-0.2-0.1c0-0.04,0.03-0.1,0.1-0.1
							c0.11,0,0.27-0.03,0.39-0.06c0.24-0.06,0.27-0.29,0.33-0.64c0.07-0.5,0.07-1.46,0.07-2.63V113.45z"
								/>
								<path
									d="M30.67,115.59c0,1.17,0.01,2.13,0.07,2.63c0.04,0.36,0.07,0.59,0.46,0.64c0.17,0.03,0.46,0.06,0.56,0.06
							c0.09,0,0.11,0.06,0.11,0.1c0,0.06-0.07,0.1-0.21,0.1c-0.69,0-1.49-0.04-1.56-0.04c-0.06,0-0.87,0.04-1.25,0.04
							c-0.14,0-0.2-0.03-0.2-0.1c0-0.04,0.03-0.1,0.1-0.1c0.11,0,0.26-0.03,0.37-0.06c0.26-0.06,0.3-0.3,0.34-0.66
							c0.06-0.5,0.06-1.42,0.06-2.59v-1.22c0-0.06-0.03-0.07-0.07-0.07H24.2c-0.04,0-0.07,0.01-0.07,0.07v1.22c0,1.17,0,2.1,0.06,2.61
							c0.04,0.36,0.09,0.59,0.46,0.64c0.19,0.03,0.46,0.06,0.57,0.06c0.07,0,0.1,0.06,0.1,0.1c0,0.06-0.06,0.1-0.2,0.1
							c-0.7,0-1.5-0.04-1.56-0.04c-0.07,0-0.87,0.04-1.26,0.04c-0.13,0-0.2-0.03-0.2-0.1c0-0.04,0.03-0.1,0.1-0.1
							c0.11,0,0.27-0.03,0.39-0.06c0.24-0.06,0.27-0.29,0.33-0.64c0.07-0.5,0.07-1.46,0.07-2.63v-2.15c0-1.89,0-2.23-0.03-2.62
							c-0.03-0.42-0.1-0.62-0.52-0.67c-0.1-0.01-0.31-0.03-0.43-0.03c-0.04,0-0.1-0.06-0.1-0.1c0-0.07,0.06-0.1,0.2-0.1
							c0.57,0,1.37,0.03,1.45,0.03c0.06,0,0.86-0.03,1.25-0.03c0.14,0,0.2,0.03,0.2,0.1c0,0.04-0.06,0.1-0.1,0.1
							c-0.09,0-0.17,0-0.31,0.03c-0.34,0.07-0.42,0.24-0.44,0.67c-0.01,0.39-0.01,0.76-0.01,2.65v0.26c0,0.07,0.03,0.07,0.07,0.07h5.25
							c0.04,0,0.07,0,0.07-0.07v-0.26c0-1.89-0.01-2.26-0.03-2.65c-0.03-0.42-0.09-0.62-0.5-0.67c-0.1-0.01-0.31-0.03-0.43-0.03
							c-0.06,0-0.1-0.06-0.1-0.1c0-0.07,0.06-0.1,0.2-0.1c0.56,0,1.37,0.03,1.43,0.03c0.07,0,0.87-0.03,1.25-0.03
							c0.14,0,0.21,0.03,0.21,0.1c0,0.04-0.06,0.1-0.11,0.1c-0.09,0-0.16,0-0.31,0.03c-0.33,0.07-0.4,0.24-0.43,0.67
							c-0.03,0.39-0.03,0.73-0.03,2.62V115.59z"
								/>
								<path
									d="M36.75,115.96c0-0.66-0.09-0.9-0.27-1.25c-0.1-0.19-1.8-2.89-2.23-3.54c-0.3-0.46-0.6-0.73-0.83-0.89
							c-0.19-0.11-0.43-0.17-0.53-0.17c-0.07,0-0.13-0.06-0.13-0.11s0.04-0.09,0.16-0.09c0.24,0,1.19,0.03,1.25,0.03
							c0.09,0,0.6-0.03,1.09-0.03c0.14,0,0.17,0.03,0.17,0.09c0,0.04-0.09,0.09-0.2,0.13c-0.1,0.04-0.16,0.1-0.16,0.2
							c0,0.17,0.09,0.31,0.17,0.47l2.29,3.79c0.26-0.52,1.83-3.12,2.06-3.52c0.16-0.27,0.21-0.47,0.21-0.63c0-0.17-0.06-0.27-0.2-0.31
							c-0.11-0.03-0.19-0.09-0.19-0.14c0-0.04,0.07-0.07,0.2-0.07c0.33,0,0.77,0.03,0.87,0.03c0.09,0,0.99-0.03,1.23-0.03
							c0.09,0,0.16,0.03,0.16,0.07c0,0.06-0.06,0.13-0.16,0.13c-0.14,0-0.39,0.04-0.59,0.16c-0.24,0.14-0.36,0.27-0.63,0.6
							c-0.42,0.49-2.19,3.35-2.45,3.86c-0.21,0.43-0.16,0.82-0.16,1.22v1.04c0,0.2,0,0.72,0.04,1.22c0.03,0.36,0.11,0.59,0.49,0.64
							c0.17,0.03,0.46,0.06,0.57,0.06c0.07,0,0.1,0.06,0.1,0.1c0,0.06-0.07,0.1-0.2,0.1c-0.7,0-1.52-0.04-1.59-0.04
							c-0.06,0-0.86,0.04-1.23,0.04c-0.14,0-0.2-0.03-0.2-0.1c0-0.04,0.03-0.1,0.1-0.1c0.11,0,0.26-0.03,0.37-0.06
							c0.26-0.06,0.34-0.29,0.37-0.64c0.03-0.5,0.03-1.02,0.03-1.22V115.96z"
								/>
								<path
									d="M42.72,118.96c-0.17-0.09-0.19-0.13-0.19-0.46c0-0.6,0.06-1.09,0.07-1.29c0-0.13,0.03-0.2,0.1-0.2
							s0.11,0.04,0.11,0.14c0,0.1,0,0.27,0.04,0.44c0.2,0.89,1.15,1.2,1.99,1.2c1.25,0,1.89-0.7,1.89-1.62c0-0.87-0.47-1.29-1.59-2.12
							l-0.57-0.43c-1.36-1.02-1.8-1.76-1.8-2.61c0-1.43,1.13-2.29,2.79-2.29c0.5,0,1,0.07,1.3,0.14c0.24,0.06,0.34,0.06,0.44,0.06
							c0.1,0,0.13,0.01,0.13,0.09c0,0.06-0.06,0.46-0.06,1.29c0,0.19-0.01,0.27-0.1,0.27s-0.1-0.06-0.11-0.16
							c-0.01-0.14-0.11-0.47-0.19-0.6c-0.09-0.14-0.5-0.6-1.63-0.6c-0.92,0-1.67,0.46-1.67,1.32c0,0.77,0.39,1.22,1.63,2.06l0.36,0.24
							c1.53,1.04,2.06,1.89,2.06,2.93c0,0.72-0.27,1.49-1.17,2.08c-0.53,0.34-1.32,0.43-2,0.43C43.96,119.29,43.23,119.2,42.72,118.96z"
								/>
								<path
									d="M52.35,115.59c0,1.17,0,2.13,0.06,2.63c0.04,0.36,0.09,0.59,0.46,0.64c0.19,0.03,0.46,0.06,0.57,0.06
							c0.07,0,0.1,0.06,0.1,0.1c0,0.06-0.06,0.1-0.2,0.1c-0.7,0-1.52-0.04-1.57-0.04c-0.07,0-0.86,0.04-1.25,0.04
							c-0.13,0-0.2-0.03-0.2-0.1c0-0.04,0.03-0.1,0.1-0.1c0.11,0,0.27-0.03,0.39-0.06c0.24-0.06,0.29-0.29,0.33-0.64
							c0.06-0.5,0.07-1.46,0.07-2.63v-2.15c0-1.89,0-2.23-0.03-2.62c-0.03-0.42-0.13-0.6-0.4-0.66c-0.14-0.03-0.3-0.04-0.39-0.04
							c-0.06,0-0.1-0.06-0.1-0.1c0-0.07,0.06-0.1,0.2-0.1c0.42,0,1.2,0.03,1.27,0.03c0.06,0,0.87-0.03,1.26-0.03
							c0.14,0,0.2,0.03,0.2,0.1c0,0.04-0.06,0.1-0.1,0.1c-0.09,0-0.17,0-0.31,0.03c-0.34,0.07-0.42,0.24-0.44,0.67
							c-0.01,0.39-0.01,0.73-0.01,2.62V115.59z"
								/>
								<path
									d="M60.35,109.75c2.83,0,4.98,1.73,4.98,4.57c0,2.72-2.02,4.97-5.05,4.97c-3.45,0-4.92-2.59-4.92-4.78
							C55.35,112.54,56.87,109.75,60.35,109.75z M60.64,118.78c1.13,0,3.41-0.6,3.41-4.12c0-2.92-1.77-4.45-3.76-4.45
							c-2.1,0-3.62,1.32-3.62,3.96C56.66,117.01,58.36,118.78,60.64,118.78z"
								/>
								<path
									d="M70.95,115.59c0,1.17,0,2.13,0.06,2.63c0.04,0.36,0.1,0.59,0.49,0.64c0.17,0.03,0.46,0.06,0.57,0.06
							c0.09,0,0.1,0.06,0.1,0.1c0,0.06-0.06,0.1-0.2,0.1c-0.69,0-1.49-0.04-1.56-0.04c-0.06,0-0.93,0.04-1.3,0.04
							c-0.14,0-0.2-0.03-0.2-0.1c0-0.04,0.03-0.09,0.1-0.09c0.11,0,0.26-0.03,0.37-0.06c0.26-0.06,0.33-0.3,0.37-0.66
							c0.06-0.5,0.06-1.46,0.06-2.63v-5.11l-1.82,0.03c-0.79,0.01-1.09,0.1-1.27,0.39c-0.14,0.21-0.16,0.3-0.2,0.39
							c-0.03,0.1-0.07,0.12-0.13,0.12c-0.03,0-0.09-0.03-0.09-0.1c0-0.13,0.24-1.22,0.27-1.32c0.01-0.07,0.09-0.23,0.13-0.23
							c0.09,0,0.21,0.1,0.56,0.14c0.36,0.04,0.84,0.06,0.99,0.06H73c0.42,0,0.7-0.03,0.9-0.06c0.19-0.03,0.3-0.06,0.36-0.06
							c0.06,0,0.06,0.07,0.06,0.14c0,0.37-0.04,1.25-0.04,1.39c0,0.1-0.06,0.16-0.11,0.16c-0.06,0-0.09-0.04-0.1-0.21l-0.01-0.13
							c-0.04-0.37-0.31-0.64-1.52-0.67l-1.57-0.03V115.59z"
								/>
								<path
									d="M84.83,115.59c0,1.17,0.01,2.13,0.07,2.63c0.04,0.36,0.07,0.59,0.46,0.64c0.17,0.03,0.46,0.06,0.56,0.06
							c0.09,0,0.11,0.06,0.11,0.1c0,0.06-0.07,0.1-0.21,0.1c-0.69,0-1.49-0.04-1.56-0.04c-0.06,0-0.87,0.04-1.25,0.04
							c-0.14,0-0.2-0.03-0.2-0.1c0-0.04,0.03-0.1,0.1-0.1c0.11,0,0.26-0.03,0.37-0.06c0.26-0.06,0.3-0.3,0.34-0.66
							c0.06-0.5,0.06-1.42,0.06-2.59v-1.22c0-0.06-0.03-0.07-0.07-0.07h-5.25c-0.04,0-0.07,0.01-0.07,0.07v1.22c0,1.17,0,2.1,0.06,2.61
							c0.04,0.36,0.09,0.59,0.46,0.64c0.19,0.03,0.46,0.06,0.57,0.06c0.07,0,0.1,0.06,0.1,0.1c0,0.06-0.06,0.1-0.2,0.1
							c-0.7,0-1.5-0.04-1.56-0.04c-0.07,0-0.87,0.04-1.26,0.04c-0.13,0-0.2-0.03-0.2-0.1c0-0.04,0.03-0.1,0.1-0.1
							c0.11,0,0.27-0.03,0.39-0.06c0.24-0.06,0.27-0.29,0.33-0.64c0.07-0.5,0.07-1.46,0.07-2.63v-2.15c0-1.89,0-2.23-0.03-2.62
							c-0.03-0.42-0.1-0.62-0.52-0.67c-0.1-0.01-0.31-0.03-0.43-0.03c-0.04,0-0.1-0.06-0.1-0.1c0-0.07,0.06-0.1,0.2-0.1
							c0.57,0,1.37,0.03,1.45,0.03c0.06,0,0.86-0.03,1.25-0.03c0.14,0,0.2,0.03,0.2,0.1c0,0.04-0.06,0.1-0.1,0.1
							c-0.09,0-0.17,0-0.31,0.03c-0.34,0.07-0.42,0.24-0.44,0.67c-0.01,0.39-0.01,0.76-0.01,2.65v0.26c0,0.07,0.03,0.07,0.07,0.07h5.25
							c0.04,0,0.07,0,0.07-0.07v-0.26c0-1.89-0.01-2.26-0.03-2.65c-0.03-0.42-0.09-0.62-0.5-0.67c-0.1-0.01-0.31-0.03-0.43-0.03
							c-0.06,0-0.1-0.06-0.1-0.1c0-0.07,0.06-0.1,0.2-0.1c0.56,0,1.37,0.03,1.43,0.03c0.07,0,0.87-0.03,1.25-0.03
							c0.14,0,0.21,0.03,0.21,0.1c0,0.04-0.06,0.1-0.11,0.1c-0.09,0-0.16,0-0.31,0.03c-0.33,0.07-0.4,0.24-0.43,0.67
							c-0.03,0.39-0.03,0.73-0.03,2.62V115.59z"
								/>
								<path
									d="M89.2,113.45c0-1.89,0-2.23-0.03-2.62c-0.03-0.42-0.1-0.62-0.52-0.67c-0.1-0.01-0.31-0.03-0.43-0.03
							c-0.04,0-0.1-0.06-0.1-0.1c0-0.07,0.06-0.1,0.2-0.1c0.57,0,1.39,0.03,1.46,0.03c0.09,0,2.72,0.01,3.01,0
							c0.24-0.01,0.47-0.06,0.57-0.07c0.06-0.01,0.11-0.06,0.17-0.06c0.04,0,0.06,0.06,0.06,0.12c0,0.09-0.07,0.23-0.1,0.57
							c-0.01,0.11-0.04,0.66-0.07,0.8c-0.01,0.06-0.06,0.13-0.11,0.13c-0.07,0-0.1-0.06-0.1-0.16c0-0.09-0.01-0.29-0.07-0.43
							c-0.09-0.2-0.21-0.29-0.9-0.37c-0.21-0.03-1.67-0.04-1.82-0.04c-0.06,0-0.07,0.04-0.07,0.13v3.31c0,0.09,0,0.13,0.07,0.13
							c0.16,0,1.82,0,2.1-0.03c0.3-0.03,0.49-0.04,0.62-0.17c0.09-0.09,0.14-0.16,0.19-0.16s0.07,0.03,0.07,0.1
							c0,0.07-0.07,0.27-0.1,0.67c-0.03,0.24-0.06,0.7-0.06,0.79c0,0.1-0.03,0.23-0.11,0.23c-0.06,0-0.09-0.04-0.09-0.12
							c0-0.11,0-0.24-0.06-0.4c-0.04-0.17-0.16-0.31-0.64-0.37c-0.34-0.04-1.69-0.06-1.9-0.06c-0.07,0-0.09,0.04-0.09,0.09v1.02
							c0,0.42-0.01,1.83,0,2.08c0.03,0.82,0.26,0.97,1.5,0.97c0.33,0,0.93,0,1.26-0.13c0.33-0.14,0.5-0.36,0.57-0.84
							c0.03-0.14,0.06-0.19,0.13-0.19s0.09,0.1,0.09,0.19s-0.1,0.92-0.17,1.17c-0.09,0.31-0.21,0.31-0.7,0.31
							c-0.94,0-1.67-0.03-2.19-0.04c-0.53-0.03-0.86-0.03-1.04-0.03c-0.03,0-0.27,0-0.54,0.01c-0.24,0.01-0.53,0.03-0.73,0.03
							c-0.13,0-0.2-0.03-0.2-0.1c0-0.04,0.03-0.1,0.1-0.1c0.11,0,0.27-0.04,0.39-0.06c0.24-0.04,0.27-0.29,0.33-0.64
							c0.07-0.5,0.07-1.46,0.07-2.63V113.45z"
								/>
								<path
									d="M97.3,113.45c0-1.89,0-2.23-0.03-2.62c-0.03-0.42-0.1-0.62-0.51-0.67c-0.1-0.01-0.32-0.03-0.43-0.03
							c-0.04,0-0.1-0.06-0.1-0.1c0-0.07,0.06-0.1,0.2-0.1c0.57,0,1.42,0.03,1.49,0.03c0.13,0,1.19-0.03,1.57-0.03
							c0.8,0,1.69,0.07,2.35,0.53c0.31,0.23,0.87,0.82,0.87,1.66c0,0.9-0.37,1.78-1.55,2.78c1.03,1.29,1.9,2.39,2.63,3.15
							c0.67,0.69,1.09,0.8,1.4,0.84c0.24,0.04,0.37,0.04,0.44,0.04c0.07,0,0.12,0.06,0.12,0.1c0,0.07-0.07,0.1-0.3,0.1h-0.79
							c-0.72,0-1.03-0.07-1.35-0.24c-0.54-0.29-1-0.87-1.72-1.79c-0.53-0.66-1.09-1.45-1.36-1.78c-0.06-0.06-0.09-0.07-0.17-0.07
							l-1.6-0.03c-0.06,0-0.09,0.03-0.09,0.1v0.29c0,1.17,0,2.12,0.06,2.62c0.04,0.36,0.11,0.59,0.5,0.64c0.17,0.03,0.44,0.06,0.56,0.06
							c0.09,0,0.1,0.06,0.1,0.1c0,0.06-0.06,0.1-0.2,0.1c-0.69,0-1.49-0.04-1.55-0.04c-0.01,0-0.86,0.04-1.25,0.04
							c-0.13,0-0.2-0.03-0.2-0.1c0-0.04,0.03-0.1,0.1-0.1c0.11,0,0.27-0.03,0.39-0.06c0.24-0.06,0.27-0.29,0.33-0.64
							c0.07-0.5,0.07-1.46,0.07-2.63V113.45z M98.39,114.48c0,0.07,0.03,0.11,0.09,0.16c0.19,0.1,0.83,0.19,1.39,0.19
							c0.3,0,0.64-0.01,0.94-0.21c0.43-0.29,0.76-0.93,0.76-1.86c0-1.52-0.83-2.39-2.17-2.39c-0.37,0-0.77,0.04-0.9,0.07
							c-0.06,0.03-0.1,0.07-0.1,0.14V114.48z"
								/>
								<path
									d="M109.12,110.17c0.16-0.4,0.21-0.47,0.3-0.47c0.13,0,0.17,0.17,0.3,0.44c0.23,0.51,2.25,5.54,3.02,7.38
							c0.46,1.09,0.8,1.25,1.07,1.33c0.19,0.06,0.37,0.07,0.5,0.07c0.07,0,0.16,0.03,0.16,0.1c0,0.07-0.14,0.1-0.29,0.1
							c-0.19,0-1.12,0-1.99-0.03c-0.24-0.01-0.44-0.01-0.44-0.09c0-0.06,0.03-0.06,0.09-0.09c0.07-0.03,0.2-0.13,0.12-0.33l-1.13-2.79
							c-0.03-0.06-0.04-0.07-0.12-0.07h-2.91c-0.06,0-0.1,0.03-0.13,0.1l-0.71,1.95c-0.12,0.3-0.19,0.6-0.19,0.82
							c0,0.24,0.21,0.33,0.43,0.33h0.11c0.1,0,0.13,0.04,0.13,0.1c0,0.07-0.07,0.1-0.19,0.1c-0.3,0-0.99-0.04-1.13-0.04
							c-0.13,0-0.76,0.04-1.27,0.04c-0.16,0-0.24-0.03-0.24-0.1c0-0.06,0.06-0.1,0.11-0.1c0.09,0,0.27-0.01,0.37-0.03
							c0.57-0.07,0.82-0.5,1.06-1.12L109.12,110.17z M110.52,115.23c0.06,0,0.06-0.03,0.04-0.08l-1.25-3.33c-0.07-0.19-0.14-0.19-0.21,0
							l-1.17,3.33c-0.01,0.06,0,0.08,0.04,0.08H110.52z"
								/>
								<path
									d="M116.34,113.45c0-1.89,0-2.23-0.03-2.62c-0.03-0.42-0.1-0.62-0.51-0.67c-0.1-0.01-0.32-0.03-0.43-0.03
							c-0.04,0-0.1-0.06-0.1-0.1c0-0.07,0.06-0.1,0.2-0.1c0.57,0,1.36,0.03,1.46,0.03c0.27,0,1.22-0.03,1.79-0.03
							c1.62,0,2.19,0.5,2.4,0.69c0.29,0.26,0.63,0.8,0.63,1.46c0,1.75-1.32,2.91-3.25,2.91c-0.07,0-0.29,0-0.36-0.01
							c-0.06,0-0.13-0.06-0.13-0.11c0-0.1,0.07-0.13,0.33-0.13c1.36,0,2.33-0.86,2.33-1.96c0-0.4-0.04-1.19-0.72-1.85
							c-0.66-0.66-1.42-0.59-1.7-0.59c-0.21,0-0.57,0.06-0.7,0.09c-0.07,0.01-0.1,0.1-0.1,0.23v4.95c0,1.17,0,2.13,0.06,2.63
							c0.04,0.36,0.11,0.59,0.5,0.64c0.17,0.03,0.44,0.06,0.56,0.06c0.07,0,0.1,0.06,0.1,0.1c0,0.06-0.06,0.1-0.2,0.1
							c-0.69,0-1.52-0.04-1.58-0.04c-0.04,0-0.86,0.04-1.25,0.04c-0.13,0-0.2-0.03-0.2-0.1c0-0.04,0.03-0.1,0.1-0.1
							c0.11,0,0.27-0.03,0.39-0.06c0.24-0.06,0.27-0.29,0.33-0.64c0.07-0.5,0.07-1.46,0.07-2.63V113.45z"
								/>
								<path
									d="M124.74,113.45c0-1.89,0-2.23-0.03-2.62c-0.03-0.42-0.1-0.62-0.51-0.67c-0.1-0.01-0.32-0.03-0.43-0.03
							c-0.04,0-0.1-0.06-0.1-0.1c0-0.07,0.06-0.1,0.2-0.1c0.57,0,1.39,0.03,1.46,0.03c0.09,0,2.72,0.01,3,0
							c0.24-0.01,0.47-0.06,0.57-0.07c0.06-0.01,0.11-0.06,0.17-0.06c0.04,0,0.06,0.06,0.06,0.12c0,0.09-0.07,0.23-0.1,0.57
							c-0.01,0.11-0.04,0.66-0.07,0.8c-0.01,0.06-0.06,0.13-0.11,0.13c-0.07,0-0.1-0.06-0.1-0.16c0-0.09-0.01-0.29-0.07-0.43
							c-0.09-0.2-0.21-0.29-0.9-0.37c-0.21-0.03-1.67-0.04-1.82-0.04c-0.06,0-0.07,0.04-0.07,0.13v3.31c0,0.09,0,0.13,0.07,0.13
							c0.16,0,1.82,0,2.1-0.03c0.3-0.03,0.49-0.04,0.62-0.17c0.09-0.09,0.14-0.16,0.19-0.16s0.07,0.03,0.07,0.1
							c0,0.07-0.07,0.27-0.1,0.67c-0.03,0.24-0.06,0.7-0.06,0.79c0,0.1-0.03,0.23-0.11,0.23c-0.06,0-0.09-0.04-0.09-0.12
							c0-0.11,0-0.24-0.06-0.4c-0.04-0.17-0.16-0.31-0.64-0.37c-0.34-0.04-1.69-0.06-1.9-0.06c-0.07,0-0.09,0.04-0.09,0.09v1.02
							c0,0.42-0.01,1.83,0,2.08c0.03,0.82,0.26,0.97,1.5,0.97c0.33,0,0.93,0,1.26-0.13c0.33-0.14,0.5-0.36,0.57-0.84
							c0.03-0.14,0.06-0.19,0.13-0.19s0.09,0.1,0.09,0.19s-0.1,0.92-0.17,1.17c-0.09,0.31-0.21,0.31-0.7,0.31
							c-0.94,0-1.67-0.03-2.19-0.04c-0.53-0.03-0.86-0.03-1.04-0.03c-0.03,0-0.27,0-0.54,0.01c-0.24,0.01-0.53,0.03-0.73,0.03
							c-0.13,0-0.2-0.03-0.2-0.1c0-0.04,0.03-0.1,0.1-0.1c0.11,0,0.27-0.04,0.39-0.06c0.24-0.04,0.27-0.29,0.33-0.64
							c0.07-0.5,0.07-1.46,0.07-2.63V113.45z"
								/>
								<path
									d="M132.2,113.45c0-1.89,0-2.23-0.03-2.62c-0.03-0.39-0.1-0.62-0.52-0.67c-0.1-0.01-0.31-0.03-0.43-0.03
							c-0.04,0-0.1-0.06-0.1-0.1c0-0.07,0.06-0.1,0.2-0.1c0.57,0,1.33,0.03,1.45,0.03c0.12,0,0.9-0.03,1.27-0.03
							c0.14,0,0.21,0.03,0.21,0.1c0,0.04-0.06,0.1-0.12,0.1c-0.09,0-0.16,0-0.31,0.03c-0.33,0.06-0.4,0.27-0.43,0.67
							c-0.03,0.39-0.03,0.73-0.03,2.62v1.7c0,1.76,0.39,2.49,0.93,2.98c0.62,0.56,1.16,0.66,1.88,0.66c0.77,0,1.52-0.34,1.95-0.86
							c0.59-0.7,0.72-1.7,0.72-2.95v-1.53c0-1.89-0.01-2.23-0.03-2.62c-0.01-0.39-0.09-0.62-0.5-0.67c-0.1-0.01-0.31-0.03-0.43-0.03
							c-0.06,0-0.1-0.06-0.1-0.1c0-0.07,0.06-0.1,0.2-0.1c0.56,0,1.29,0.03,1.36,0.03c0.09,0,0.69-0.03,1.06-0.03
							c0.14,0,0.2,0.03,0.2,0.1c0,0.04-0.04,0.1-0.1,0.1c-0.09,0-0.16,0-0.32,0.03c-0.34,0.07-0.42,0.27-0.44,0.67
							c-0.03,0.39-0.01,0.73-0.01,2.62v1.3c0,1.32-0.17,2.79-1.17,3.65c-0.92,0.79-1.89,0.89-2.63,0.89c-0.42,0-1.73-0.03-2.62-0.86
							c-0.62-0.57-1.1-1.42-1.1-3.19V113.45z"
								/>
								<path
									d="M146.28,115.59c0,1.17,0,2.13,0.06,2.63c0.04,0.36,0.1,0.59,0.49,0.64c0.17,0.03,0.46,0.06,0.57,0.06
							c0.09,0,0.1,0.06,0.1,0.1c0,0.06-0.06,0.1-0.2,0.1c-0.69,0-1.49-0.04-1.56-0.04c-0.06,0-0.93,0.04-1.3,0.04
							c-0.14,0-0.2-0.03-0.2-0.1c0-0.04,0.03-0.09,0.1-0.09c0.12,0,0.26-0.03,0.37-0.06c0.26-0.06,0.33-0.3,0.37-0.66
							c0.06-0.5,0.06-1.46,0.06-2.63v-5.11l-1.82,0.03c-0.79,0.01-1.09,0.1-1.27,0.39c-0.14,0.21-0.16,0.3-0.2,0.39
							c-0.03,0.1-0.07,0.12-0.13,0.12c-0.03,0-0.09-0.03-0.09-0.1c0-0.13,0.24-1.22,0.27-1.32c0.01-0.07,0.09-0.23,0.13-0.23
							c0.09,0,0.21,0.1,0.56,0.14c0.36,0.04,0.84,0.06,0.99,0.06h4.75c0.42,0,0.7-0.03,0.9-0.06c0.19-0.03,0.3-0.06,0.36-0.06
							c0.06,0,0.06,0.07,0.06,0.14c0,0.37-0.04,1.25-0.04,1.39c0,0.1-0.06,0.16-0.11,0.16c-0.06,0-0.09-0.04-0.1-0.21l-0.01-0.13
							c-0.04-0.37-0.31-0.64-1.52-0.67l-1.57-0.03V115.59z"
								/>
								<path
									d="M153.62,115.59c0,1.17,0,2.13,0.06,2.63c0.04,0.36,0.09,0.59,0.46,0.64c0.19,0.03,0.46,0.06,0.57,0.06
							c0.07,0,0.1,0.06,0.1,0.1c0,0.06-0.06,0.1-0.2,0.1c-0.7,0-1.52-0.04-1.58-0.04c-0.07,0-0.86,0.04-1.25,0.04
							c-0.13,0-0.2-0.03-0.2-0.1c0-0.04,0.03-0.1,0.1-0.1c0.11,0,0.27-0.03,0.39-0.06c0.24-0.06,0.29-0.29,0.33-0.64
							c0.06-0.5,0.07-1.46,0.07-2.63v-2.15c0-1.89,0-2.23-0.03-2.62c-0.03-0.42-0.13-0.6-0.4-0.66c-0.14-0.03-0.3-0.04-0.39-0.04
							c-0.06,0-0.1-0.06-0.1-0.1c0-0.07,0.06-0.1,0.2-0.1c0.42,0,1.2,0.03,1.27,0.03c0.06,0,0.87-0.03,1.26-0.03
							c0.14,0,0.2,0.03,0.2,0.1c0,0.04-0.06,0.1-0.1,0.1c-0.09,0-0.17,0-0.32,0.03c-0.34,0.07-0.42,0.24-0.44,0.67
							c-0.01,0.39-0.01,0.73-0.01,2.62V115.59z"
								/>
								<path
									d="M158.5,117.47c0.03,1,0.14,1.3,0.49,1.39c0.23,0.06,0.52,0.07,0.63,0.07c0.06,0,0.1,0.04,0.1,0.1
							c0,0.07-0.09,0.1-0.23,0.1c-0.72,0-1.22-0.04-1.33-0.04s-0.64,0.04-1.22,0.04c-0.13,0-0.2-0.01-0.2-0.1c0-0.06,0.04-0.1,0.1-0.1
							c0.1,0,0.33-0.01,0.51-0.07c0.32-0.08,0.36-0.42,0.36-1.52v-6.97c0-0.49,0.07-0.62,0.17-0.62c0.14,0,0.36,0.24,0.49,0.37
							c0.2,0.2,2.03,2.15,3.98,4.15c1.25,1.29,2.59,2.73,2.98,3.13l-0.13-6.1c-0.01-0.79-0.09-1.06-0.47-1.13
							c-0.23-0.04-0.51-0.06-0.62-0.06c-0.09,0-0.1-0.07-0.1-0.11c0-0.07,0.1-0.09,0.24-0.09c0.57,0,1.17,0.03,1.32,0.03
							c0.14,0,0.56-0.03,1.07-0.03c0.13,0,0.23,0.01,0.23,0.09c0,0.04-0.06,0.11-0.14,0.11c-0.06,0-0.16,0-0.3,0.03
							c-0.42,0.08-0.44,0.33-0.44,1.06l-0.03,7.13c0,0.8-0.01,0.87-0.1,0.87c-0.13,0-0.26-0.1-0.96-0.74c-0.13-0.11-1.95-1.9-3.28-3.29
							c-1.46-1.53-2.88-3.02-3.26-3.45L158.5,117.47z"
								/>
								<path class="st6" d="M172.75,114.39h7.16v0.66h-7.16V114.39z" />
							</g>
						</svg>