<?xml version="1.0" encoding="utf-8"?>
<!-- Generator: Adobe Illustrator 26.0.3, SVG Export Plug-In . SVG Version: 6.00 Build 0)  -->
<svg version="1.1" id="Ebene_1" xmlns="http://www.w3.org/2000/svg" xmlns:xlink="http://www.w3.org/1999/xlink" x="0px" y="0px"
	 viewBox="0 0 520.6 620.52" style="enable-background:new 0 0 520.6 620.52;" xml:space="preserve">
<style type="text/css">
	.st0{fill:#FFFFFF;}
	.st1{fill:#FFCC00;}
	.st2{fill:#1D1D1B;}
</style>
<rect class="st0" width="520.6" height="620.52"/>
<path class="st1" d="M275.33,223.84c0,11.08-1.49,23.03,8.95,29.63v0.64h-57.35v-0.64c10.45-6.61,8.95-18.55,8.95-29.63v-79.53
	c0-11.09,1.5-23.24-8.95-29.85v-0.64h57.35v0.64c-10.45,6.61-8.95,18.76-8.95,29.85V223.84"/>
<path class="st1" d="M130.63,306.63c11.94,9.81,29.43,16.63,44.78,16.63c9.6,0,22.6-3.2,22.6-15.14c0-26.01-65.03-20.68-65.03-68.44
	c0-12.15,5.97-23.88,15.78-30.91c10.87-7.68,24.09-10.23,37.1-10.23c11.94,0,24.73,2.13,35.82,6.39v24.95
	c-8.96-5.75-19.4-10.02-30.07-10.02c-8.31,0-18.55,3.62-18.55,13.64c0,10.24,12.36,14.29,20.26,17.7
	c10.23,4.48,19.82,8.53,28.36,15.99c10.23,8.95,15.78,18.55,15.78,32.2c0,13.86-5.76,26.22-17.06,34.54
	c-12.58,9.17-26.22,11.08-41.36,11.08c-14.08,0-28.15-2.56-41.36-7.67L130.63,306.63"/>
<path class="st1" d="M370.21,394.6c3.41,5.54,7.46,10.66,12.37,14.29v0.64c-49.25,0-52.45,0-66.52-24.31l-22.17-38.17v31.98
	c0,11.09-1.49,23.24,8.95,29.85v0.64h-57.35v-0.64c10.45-6.61,8.95-18.76,8.95-29.85v-79.31c0-11.3,1.49-23.24-8.95-29.85v-0.64
	h57.35v0.64c-10.44,6.61-8.95,18.76-8.95,29.85v32.62l26.65-33.9c3.62-4.48,9.81-10.87,9.81-17.06c0-5.54-4.48-9.16-8.53-11.51
	v-0.64h52.24v0.64l-47.12,56.29L370.21,394.6"/>
<g>
	<g>
		<path class="st2" d="M78.4,197.54c0-1.72-0.05-3.13-0.15-4.24c-0.1-1.11-0.28-2.04-0.53-2.8c-0.25-0.76-0.61-1.37-1.06-1.85
			c-0.45-0.48-1.06-0.92-1.82-1.33h15.22c-0.76,0.41-1.36,0.85-1.82,1.33c-0.45,0.48-0.81,1.1-1.06,1.85
			c-0.25,0.76-0.43,1.69-0.53,2.8c-0.1,1.11-0.15,2.52-0.15,4.24v32.18c0,1.72,0.05,3.13,0.15,4.24c0.1,1.11,0.28,2.04,0.53,2.8
			c0.25,0.76,0.61,1.38,1.06,1.86c0.45,0.48,1.06,0.92,1.82,1.32H74.84c0.76-0.4,1.36-0.85,1.82-1.32c0.45-0.48,0.81-1.1,1.06-1.86
			c0.25-0.76,0.43-1.69,0.53-2.8c0.1-1.11,0.15-2.52,0.15-4.24V197.54z"/>
		<path class="st2" d="M103.76,208.29c1.66-2.27,3.38-3.89,5.14-4.85c1.76-0.96,3.93-1.44,6.51-1.44c2.77,0,5.12,0.56,7.03,1.67
			c1.92,1.11,3.63,2.9,5.14,5.38c1.92-2.57,3.83-4.39,5.72-5.45c1.89-1.06,4.18-1.59,6.86-1.59c2.73,0,5.2,0.53,7.42,1.59
			c2.22,1.06,3.89,2.47,5,4.24c0.71,1.21,1.2,2.52,1.48,3.94c0.28,1.41,0.42,3.41,0.42,5.98v14.31c0,1.31,0.05,2.41,0.15,3.29
			c0.1,0.88,0.28,1.62,0.53,2.2c0.25,0.58,0.61,1.05,1.06,1.4c0.45,0.35,1.06,0.68,1.82,0.98h-13.87c0.69-0.5,1.25-0.96,1.67-1.36
			c0.42-0.4,0.73-0.87,0.93-1.4c0.2-0.53,0.32-1.18,0.37-1.97c0.05-0.78,0.07-1.83,0.07-3.14v-12.34c0-2.22-0.16-3.99-0.49-5.3
			c-0.33-1.31-0.84-2.45-1.54-3.41c-0.8-0.96-1.82-1.72-3.05-2.27c-1.23-0.56-2.58-0.83-4.03-0.83c-1.76,0-3.36,0.41-4.79,1.21
			c-1.43,0.81-2.5,1.89-3.2,3.26c-0.2,0.35-0.35,0.69-0.45,1.02c-0.1,0.33-0.18,0.7-0.23,1.1c-0.05,0.41-0.09,0.92-0.11,1.55
			c-0.03,0.63-0.04,1.43-0.04,2.38v13.63c0,1.31,0.02,2.35,0.07,3.1c0.05,0.76,0.18,1.4,0.38,1.93c0.2,0.53,0.51,1,0.94,1.4
			c0.42,0.41,0.99,0.88,1.69,1.44h-13.34c0.7-0.5,1.25-0.96,1.65-1.36c0.4-0.4,0.7-0.87,0.9-1.4c0.2-0.53,0.33-1.18,0.38-1.97
			c0.05-0.78,0.08-1.83,0.08-3.14v-13.02c0-3.79-0.8-6.51-2.41-8.18c-0.8-0.86-1.8-1.51-2.98-1.97c-1.18-0.45-2.4-0.68-3.66-0.68
			c-1.56,0-3.02,0.32-4.37,0.95c-1.36,0.63-2.39,1.5-3.09,2.61c-0.55,0.81-0.92,1.63-1.09,2.46c-0.18,0.83-0.26,2.06-0.26,3.67
			v14.16c0,1.31,0.02,2.36,0.07,3.14c0.05,0.78,0.17,1.44,0.37,1.97c0.2,0.53,0.49,1,0.89,1.4c0.39,0.41,0.94,0.86,1.63,1.36H93.84
			c0.71-0.56,1.26-1.03,1.67-1.44c0.4-0.4,0.71-0.87,0.91-1.4c0.2-0.53,0.33-1.17,0.38-1.93c0.05-0.76,0.08-1.79,0.08-3.1v-21.12
			c0-1.26-0.03-2.28-0.08-3.07c-0.05-0.78-0.18-1.44-0.38-1.97c-0.2-0.53-0.5-1-0.91-1.4c-0.4-0.4-0.96-0.88-1.67-1.44h5.55
			c2.04,0,3.49-0.5,4.36-1.51L103.76,208.29z"/>
		<path class="st2" d="M168.95,208.29c1.66-2.27,3.38-3.89,5.14-4.85s3.93-1.44,6.51-1.44c2.77,0,5.12,0.56,7.03,1.67
			c1.92,1.11,3.63,2.9,5.14,5.38c1.92-2.57,3.83-4.39,5.72-5.45c1.89-1.06,4.18-1.59,6.86-1.59c2.73,0,5.2,0.53,7.42,1.59
			c2.22,1.06,3.89,2.47,5,4.24c0.71,1.21,1.2,2.52,1.48,3.94c0.28,1.41,0.42,3.41,0.42,5.98v14.31c0,1.31,0.05,2.41,0.15,3.29
			c0.1,0.88,0.28,1.62,0.53,2.2c0.25,0.58,0.61,1.05,1.06,1.4c0.45,0.35,1.06,0.68,1.82,0.98h-13.87c0.69-0.5,1.25-0.96,1.67-1.36
			c0.42-0.4,0.73-0.87,0.93-1.4c0.2-0.53,0.32-1.18,0.37-1.97c0.05-0.78,0.07-1.83,0.07-3.14v-12.34c0-2.22-0.16-3.99-0.49-5.3
			c-0.33-1.31-0.84-2.45-1.54-3.41c-0.8-0.96-1.82-1.72-3.05-2.27c-1.23-0.56-2.58-0.83-4.03-0.83c-1.76,0-3.36,0.41-4.79,1.21
			c-1.43,0.81-2.5,1.89-3.2,3.26c-0.2,0.35-0.35,0.69-0.45,1.02c-0.1,0.33-0.18,0.7-0.23,1.1c-0.05,0.41-0.09,0.92-0.11,1.55
			c-0.03,0.63-0.04,1.43-0.04,2.38v13.63c0,1.31,0.02,2.35,0.07,3.1c0.05,0.76,0.18,1.4,0.38,1.93c0.2,0.53,0.51,1,0.94,1.4
			c0.42,0.41,0.99,0.88,1.69,1.44h-13.34c0.7-0.5,1.25-0.96,1.65-1.36c0.4-0.4,0.7-0.87,0.9-1.4c0.2-0.53,0.33-1.18,0.38-1.97
			c0.05-0.78,0.08-1.83,0.08-3.14v-13.02c0-3.79-0.8-6.51-2.41-8.18c-0.8-0.86-1.8-1.51-2.98-1.97c-1.18-0.45-2.4-0.68-3.66-0.68
			c-1.56,0-3.02,0.32-4.37,0.95c-1.36,0.63-2.39,1.5-3.09,2.61c-0.55,0.81-0.92,1.63-1.09,2.46c-0.18,0.83-0.26,2.06-0.26,3.67
			v14.16c0,1.31,0.02,2.36,0.07,3.14c0.05,0.78,0.17,1.44,0.37,1.97c0.2,0.53,0.49,1,0.89,1.4c0.39,0.41,0.94,0.86,1.63,1.36h-13.26
			c0.71-0.56,1.26-1.03,1.67-1.44c0.4-0.4,0.71-0.87,0.91-1.4c0.2-0.53,0.33-1.17,0.38-1.93c0.05-0.76,0.08-1.79,0.08-3.1v-21.12
			c0-1.26-0.03-2.28-0.08-3.07c-0.05-0.78-0.18-1.44-0.38-1.97c-0.2-0.53-0.5-1-0.91-1.4c-0.4-0.4-0.96-0.88-1.67-1.44h5.55
			c2.04,0,3.49-0.5,4.36-1.51L168.95,208.29z"/>
		<path class="st2" d="M245.71,202c5.5,0,10.12,1.72,13.85,5.15c2.02,1.87,3.56,4.01,4.62,6.44c1.06,2.42,1.59,4.97,1.59,7.65
			c0,2.78-0.54,5.36-1.63,7.76c-1.09,2.4-2.59,4.49-4.5,6.28c-1.92,1.79-4.16,3.19-6.74,4.2c-2.57,1.01-5.37,1.51-8.4,1.51
			c-2.93,0-5.64-0.49-8.14-1.48c-2.5-0.98-4.66-2.33-6.47-4.05c-1.82-1.72-3.24-3.75-4.28-6.09c-1.03-2.35-1.55-4.91-1.55-7.68
			c0-3.03,0.66-5.88,1.97-8.55c1.31-2.68,3.15-4.92,5.53-6.74c2.02-1.51,4.15-2.62,6.4-3.33C240.2,202.36,242.78,202,245.71,202z
			 M244.42,207.3c-1.83,0-3.49,0.33-4.99,0.99c-1.5,0.66-2.78,1.57-3.85,2.74c-1.07,1.17-1.9,2.57-2.51,4.22
			c-0.61,1.65-0.91,3.46-0.91,5.44c0,2.13,0.33,4.12,0.99,5.98c0.66,1.85,1.57,3.44,2.74,4.76c1.17,1.32,2.54,2.36,4.11,3.12
			c1.57,0.76,3.3,1.14,5.18,1.14c1.83,0,3.52-0.32,5.06-0.95c1.55-0.63,2.87-1.55,3.96-2.74c1.09-1.19,1.94-2.6,2.55-4.22
			c0.61-1.62,0.91-3.42,0.91-5.4c0-2.28-0.32-4.35-0.95-6.2c-0.63-1.85-1.54-3.44-2.7-4.76c-1.17-1.32-2.56-2.33-4.19-3.04
			C248.2,207.66,246.4,207.3,244.42,207.3z"/>
		<path class="st2" d="M282.5,202.99c1.16-0.4,2.12-0.67,2.88-0.8c0.76-0.13,1.61-0.19,2.57-0.19c2.42,0,4.67,0.47,6.74,1.4
			c2.07,0.93,3.86,2.23,5.37,3.9c1.51,1.67,2.7,3.62,3.56,5.87c0.86,2.25,1.29,4.66,1.29,7.23c0,3.08-0.54,5.88-1.63,8.4
			c-1.09,2.52-2.62,4.69-4.62,6.51c-1.99,1.82-4.39,3.22-7.19,4.2c-2.8,0.98-5.92,1.48-9.35,1.48c-2.98,0-5.82-0.13-8.52-0.38
			c-2.7-0.26-4.98-0.61-6.85-1.07c0.96-0.66,1.6-1.37,1.93-2.11c0.33-0.74,0.49-1.92,0.49-3.55v-38.76c0-1.26-0.03-2.28-0.08-3.07
			c-0.05-0.78-0.18-1.44-0.38-1.97c-0.2-0.53-0.5-1-0.91-1.4c-0.4-0.4-0.96-0.88-1.67-1.44h5.55c1.17,0,2.12-0.11,2.83-0.34
			c0.71-0.23,1.35-0.62,1.91-1.17v48.6c1.46,0.35,2.67,0.59,3.63,0.72c0.96,0.13,2.02,0.19,3.18,0.19c4.19,0,7.5-1.19,9.92-3.58
			c2.42-2.39,3.63-5.62,3.63-9.7c0-2.06-0.29-3.96-0.87-5.7c-0.58-1.74-1.39-3.22-2.43-4.45c-1.04-1.23-2.29-2.19-3.76-2.87
			c-1.47-0.68-3.07-1.02-4.79-1.02c-1.27,0-2.37,0.13-3.31,0.38c-0.94,0.25-2.12,0.73-3.53,1.44L282.5,202.99z"/>
		<path class="st2" d="M317.86,232.06c0,1.31,0.02,2.35,0.08,3.1c0.05,0.76,0.18,1.4,0.38,1.93c0.2,0.53,0.5,1,0.91,1.4
			c0.4,0.41,0.96,0.88,1.67,1.44h-13.32c0.71-0.56,1.26-1.03,1.67-1.44c0.4-0.4,0.71-0.87,0.91-1.4c0.2-0.53,0.33-1.17,0.38-1.93
			c0.05-0.76,0.08-1.79,0.08-3.1v-21.12c0-1.26-0.03-2.28-0.08-3.07c-0.05-0.78-0.18-1.44-0.38-1.97c-0.2-0.53-0.5-1-0.91-1.4
			c-0.4-0.4-0.96-0.88-1.67-1.44h5.55c1.17,0,2.12-0.11,2.83-0.34c0.71-0.23,1.35-0.62,1.91-1.17V232.06z M314.15,188.3
			c1.31,0,2.45,0.49,3.41,1.48c0.96,0.98,1.44,2.13,1.44,3.44c0,1.41-0.48,2.6-1.44,3.56c-0.96,0.96-2.15,1.44-3.56,1.44
			c-1.36,0-2.52-0.48-3.48-1.44c-0.96-0.96-1.44-2.14-1.44-3.56c0-1.36,0.48-2.52,1.44-3.48
			C311.47,188.78,312.69,188.3,314.15,188.3z"/>
		<path class="st2" d="M325.51,239.93c0.71-0.56,1.26-1.03,1.67-1.44c0.4-0.4,0.71-0.87,0.91-1.4c0.2-0.53,0.33-1.17,0.38-1.93
			c0.05-0.76,0.08-1.79,0.08-3.1v-36.87c0-1.31-0.03-2.35-0.08-3.1c-0.05-0.76-0.18-1.4-0.38-1.93c-0.2-0.53-0.51-1-0.91-1.4
			c-0.4-0.4-0.96-0.88-1.67-1.44h5.55c1.17,0,2.12-0.11,2.83-0.34c0.71-0.23,1.35-0.62,1.91-1.17v46.26c0,1.31,0.02,2.35,0.08,3.1
			c0.05,0.76,0.18,1.4,0.38,1.93c0.2,0.53,0.5,1,0.91,1.4c0.4,0.41,0.96,0.88,1.67,1.44H325.51z"/>
		<path class="st2" d="M354.35,232.06c0,1.31,0.02,2.35,0.08,3.1c0.05,0.76,0.18,1.4,0.38,1.93c0.2,0.53,0.5,1,0.91,1.4
			c0.4,0.41,0.96,0.88,1.67,1.44h-13.32c0.71-0.56,1.26-1.03,1.67-1.44c0.4-0.4,0.71-0.87,0.91-1.4c0.2-0.53,0.33-1.17,0.38-1.93
			c0.05-0.76,0.08-1.79,0.08-3.1v-21.12c0-1.26-0.03-2.28-0.08-3.07c-0.05-0.78-0.18-1.44-0.38-1.97c-0.2-0.53-0.5-1-0.91-1.4
			c-0.4-0.4-0.96-0.88-1.67-1.44h5.55c1.17,0,2.12-0.11,2.83-0.34c0.71-0.23,1.35-0.62,1.91-1.17V232.06z M350.64,188.3
			c1.31,0,2.45,0.49,3.41,1.48c0.96,0.98,1.44,2.13,1.44,3.44c0,1.41-0.48,2.6-1.44,3.56c-0.96,0.96-2.15,1.44-3.56,1.44
			c-1.36,0-2.52-0.48-3.48-1.44c-0.96-0.96-1.44-2.14-1.44-3.56c0-1.36,0.48-2.52,1.44-3.48
			C347.97,188.78,349.18,188.3,350.64,188.3z"/>
		<path class="st2" d="M370.78,220.7c0.2,4.72,1.7,8.4,4.5,11.03c2.8,2.64,6.62,3.96,11.47,3.96c2.67,0,5.05-0.33,7.12-1
			c2.07-0.67,4.16-1.75,6.28-3.24l-4.31,7.65c-1.77,0.71-3.5,1.2-5.19,1.48c-1.69,0.28-3.65,0.42-5.87,0.42
			c-3.33,0-6.39-0.48-9.16-1.44c-2.78-0.96-5.16-2.3-7.15-4.01c-1.99-1.72-3.55-3.77-4.66-6.17c-1.11-2.4-1.67-5.03-1.67-7.91
			c0-2.77,0.58-5.48,1.74-8.1c1.16-2.62,2.75-4.87,4.77-6.74c3.48-3.08,7.92-4.62,13.32-4.62c2.62,0,5.05,0.43,7.27,1.29
			c2.22,0.86,4.14,2.07,5.75,3.63c1.61,1.57,2.88,3.41,3.79,5.53c0.91,2.12,1.36,4.44,1.36,6.96v1.29H370.78z M391.75,215.71
			c-1.16-5.91-4.54-8.86-10.14-8.86c-2.73,0-5.01,0.77-6.85,2.31c-1.84,1.54-3.07,3.72-3.67,6.55H391.75z"/>
		<path class="st2" d="M411.66,208.21c1.91-2.27,3.76-3.87,5.55-4.81c1.79-0.93,3.86-1.4,6.23-1.4c2.57,0,4.96,0.52,7.17,1.55
			c2.21,1.03,3.9,2.41,5.06,4.13c0.35,0.56,0.65,1.15,0.9,1.78c0.25,0.63,0.45,1.36,0.6,2.19c0.15,0.83,0.25,1.81,0.3,2.91
			c0.05,1.11,0.08,2.42,0.08,3.94v13.55c0,1.31,0.02,2.35,0.08,3.1c0.05,0.76,0.18,1.4,0.38,1.93c0.2,0.53,0.5,1,0.91,1.4
			c0.4,0.41,0.96,0.88,1.67,1.44h-13.32c0.69-0.56,1.24-1.03,1.66-1.44c0.42-0.4,0.73-0.87,0.92-1.4c0.2-0.53,0.32-1.18,0.37-1.97
			c0.05-0.78,0.07-1.8,0.07-3.07v-12.72c0-2.12-0.13-3.77-0.38-4.96c-0.25-1.19-0.7-2.21-1.35-3.07c-0.8-1.01-1.93-1.83-3.38-2.46
			c-1.45-0.63-2.98-0.95-4.58-0.95s-3.07,0.32-4.39,0.95c-1.33,0.63-2.37,1.48-3.12,2.54c-0.4,0.56-0.68,1.16-0.83,1.82
			c-0.15,0.66-0.22,1.57-0.22,2.73v16.13c0,1.31,0.02,2.35,0.07,3.1c0.05,0.76,0.17,1.4,0.37,1.93c0.2,0.53,0.49,1,0.89,1.4
			c0.39,0.41,0.93,0.88,1.62,1.44h-13.25c0.71-0.56,1.26-1.03,1.67-1.44c0.4-0.4,0.71-0.87,0.91-1.4c0.2-0.53,0.33-1.17,0.38-1.93
			c0.05-0.76,0.08-1.79,0.08-3.1v-21.12c0-1.26-0.03-2.28-0.08-3.07c-0.05-0.78-0.18-1.44-0.38-1.97c-0.2-0.53-0.5-1-0.91-1.4
			c-0.4-0.4-0.96-0.88-1.67-1.44h5.17c1.17,0,2.12-0.11,2.83-0.34c0.71-0.23,1.35-0.62,1.91-1.17L411.66,208.21z"/>
	</g>
	<g>
		<path class="st2" d="M157.97,248.91c-1.72-1.67-3.66-2.95-5.83-3.86c-2.17-0.91-4.47-1.36-6.89-1.36c-3.18,0-5.73,0.68-7.65,2.04
			c-1.92,1.36-2.88,3.18-2.88,5.45c0,1.01,0.16,1.91,0.49,2.69c0.33,0.78,0.93,1.55,1.82,2.31c0.88,0.76,2.09,1.55,3.63,2.39
			c1.54,0.83,3.49,1.81,5.87,2.91c1.67,0.76,3.09,1.43,4.28,2.01c1.19,0.58,2.23,1.12,3.14,1.63c0.91,0.5,1.7,0.97,2.38,1.4
			c0.68,0.43,1.32,0.9,1.93,1.4c2.88,2.27,4.32,5.17,4.32,8.71c0,1.97-0.42,3.89-1.25,5.75c-0.83,1.87-2.06,3.56-3.67,5.07
			c-4.09,3.94-9.67,5.91-16.73,5.91c-2.57,0-4.93-0.19-7.08-0.57c-2.15-0.38-4.48-1.02-7-1.93l-2.42-9.92
			c5.3,4.24,11.13,6.36,17.49,6.36c1.72,0,3.3-0.21,4.77-0.64c1.46-0.43,2.73-1.01,3.79-1.74c1.06-0.73,1.89-1.59,2.5-2.57
			c0.61-0.98,0.91-2.06,0.91-3.22c0-1.06-0.24-2.09-0.72-3.1c-0.48-1.01-1.12-1.87-1.93-2.57c-0.45-0.4-0.93-0.78-1.44-1.14
			c-0.5-0.35-1.14-0.73-1.89-1.14c-0.76-0.4-1.69-0.87-2.8-1.4c-1.11-0.53-2.47-1.17-4.09-1.93c-1.57-0.71-2.9-1.34-4.01-1.89
			c-1.11-0.56-2.09-1.07-2.95-1.55c-0.86-0.48-1.6-0.95-2.23-1.4c-0.63-0.45-1.22-0.96-1.78-1.51c-1.31-1.16-2.34-2.55-3.07-4.16
			c-0.73-1.61-1.1-3.3-1.1-5.07c0-2.17,0.47-4.13,1.4-5.87c0.93-1.74,2.27-3.23,4.01-4.47c1.74-1.24,3.84-2.18,6.28-2.84
			c2.45-0.66,5.19-0.98,8.21-0.98c2.12,0,4.14,0.14,6.06,0.42c1.92,0.28,3.96,0.72,6.13,1.32V248.91z"/>
		<path class="st2" d="M172.73,272.75c0.2,4.72,1.7,8.4,4.5,11.03s6.62,3.96,11.47,3.96c2.67,0,5.05-0.33,7.12-1
			c2.07-0.67,4.16-1.75,6.28-3.24l-4.31,7.65c-1.77,0.71-3.5,1.2-5.19,1.48c-1.69,0.28-3.65,0.42-5.87,0.42
			c-3.33,0-6.39-0.48-9.16-1.44c-2.78-0.96-5.16-2.3-7.15-4.01c-1.99-1.72-3.55-3.77-4.66-6.17c-1.11-2.4-1.67-5.03-1.67-7.91
			c0-2.77,0.58-5.48,1.74-8.1c1.16-2.62,2.75-4.87,4.77-6.74c3.48-3.08,7.92-4.62,13.32-4.62c2.62,0,5.05,0.43,7.27,1.29
			c2.22,0.86,4.14,2.07,5.75,3.63c1.61,1.57,2.88,3.41,3.79,5.53c0.91,2.12,1.36,4.44,1.36,6.96v1.29H172.73z M193.7,267.76
			c-1.16-5.91-4.54-8.86-10.14-8.86c-2.73,0-5.01,0.77-6.85,2.31c-1.84,1.54-3.07,3.72-3.67,6.55H193.7z"/>
		<path class="st2" d="M203.69,291.98c0.71-0.56,1.26-1.03,1.67-1.44c0.4-0.4,0.71-0.87,0.91-1.4c0.2-0.53,0.33-1.17,0.38-1.93
			c0.05-0.76,0.08-1.79,0.08-3.1v-21.12c0-1.26-0.03-2.28-0.08-3.07c-0.05-0.78-0.18-1.44-0.38-1.97c-0.2-0.53-0.5-1-0.91-1.4
			c-0.4-0.4-0.96-0.88-1.67-1.44h5.55c1.17,0,2.12-0.11,2.83-0.34c0.71-0.23,1.35-0.62,1.91-1.17v6.59
			c2.17-4.09,5.35-6.13,9.54-6.13c0.71,0,1.64,0.1,2.8,0.3v7.34c-0.91-0.86-2.17-1.29-3.79-1.29c-1.41,0-2.74,0.29-3.97,0.87
			c-1.24,0.58-2.21,1.38-2.91,2.39c-1.11,1.57-1.67,3.99-1.67,7.27v13.17c0,1.31,0.02,2.35,0.08,3.1c0.05,0.76,0.18,1.4,0.38,1.93
			c0.2,0.53,0.5,1,0.91,1.4c0.4,0.41,0.96,0.88,1.67,1.44H203.69z"/>
		<path class="st2" d="M257.52,263.82c0.55-1.16,0.92-2.08,1.1-2.76c0.18-0.68,0.27-1.32,0.27-1.93c0-0.86-0.16-1.54-0.49-2.04
			c-0.33-0.5-1.02-1.16-2.08-1.97h11.36l-18.17,39.82c-1.57-0.91-2.84-1.69-3.82-2.35s-1.79-1.34-2.42-2.04
			c-0.63-0.71-1.19-1.49-1.67-2.35c-0.48-0.86-0.97-1.94-1.48-3.26l-9.39-21.58c-0.61-1.36-1.11-2.45-1.51-3.26
			c-0.4-0.81-0.83-1.48-1.29-2.01c-0.45-0.53-0.98-1.01-1.59-1.44c-0.61-0.43-1.41-0.95-2.42-1.55h5.3c1.56,0,2.71-0.09,3.44-0.27
			c0.73-0.18,1.53-0.57,2.38-1.17c0.1,1.16,0.43,2.4,0.98,3.71l11.96,27.78L257.52,263.82z"/>
		<path class="st2" d="M277.73,284.11c0,1.31,0.02,2.35,0.08,3.1c0.05,0.76,0.18,1.4,0.38,1.93c0.2,0.53,0.5,1,0.91,1.4
			c0.4,0.41,0.96,0.88,1.67,1.44h-13.32c0.71-0.56,1.26-1.03,1.67-1.44c0.4-0.4,0.71-0.87,0.91-1.4c0.2-0.53,0.33-1.17,0.38-1.93
			c0.05-0.76,0.08-1.79,0.08-3.1v-21.12c0-1.26-0.03-2.28-0.08-3.07c-0.05-0.78-0.18-1.44-0.38-1.97c-0.2-0.53-0.5-1-0.91-1.4
			c-0.4-0.4-0.96-0.88-1.67-1.44h5.55c1.17,0,2.12-0.11,2.83-0.34c0.71-0.23,1.35-0.62,1.91-1.17V284.11z M274.02,240.35
			c1.31,0,2.45,0.49,3.41,1.48c0.96,0.98,1.44,2.13,1.44,3.44c0,1.41-0.48,2.6-1.44,3.56c-0.96,0.96-2.15,1.44-3.56,1.44
			c-1.36,0-2.52-0.48-3.48-1.44c-0.96-0.96-1.44-2.14-1.44-3.56c0-1.36,0.48-2.52,1.44-3.48
			C271.35,240.83,272.56,240.35,274.02,240.35z"/>
		<path class="st2" d="M316.95,263.29c-2.63-2.62-5.96-3.94-9.99-3.94c-2.02,0-3.85,0.32-5.49,0.95c-1.64,0.63-3.04,1.52-4.2,2.66
			c-1.16,1.14-2.06,2.54-2.69,4.19c-0.63,1.65-0.95,3.46-0.95,5.44c0,2.18,0.42,4.2,1.25,6.05c0.83,1.85,1.97,3.45,3.41,4.8
			c1.44,1.35,3.15,2.4,5.15,3.16c1.99,0.76,4.18,1.14,6.55,1.14c2.17,0,4.21-0.32,6.13-0.96c1.92-0.64,3.94-1.63,6.06-2.97
			l-4.69,7.8c-1.26,0.5-2.75,0.87-4.47,1.1c-1.72,0.23-3.63,0.34-5.75,0.34c-3.18,0-6.11-0.47-8.78-1.4
			c-2.68-0.93-4.96-2.23-6.87-3.9c-1.9-1.67-3.39-3.65-4.47-5.94c-1.08-2.3-1.61-4.81-1.61-7.53c0-2.83,0.55-5.46,1.65-7.91
			c1.1-2.45,2.7-4.66,4.8-6.62c2.16-1.97,4.54-3.41,7.14-4.32c2.6-0.91,5.64-1.36,9.12-1.36c1.56,0,2.99,0.06,4.28,0.19
			c1.29,0.13,2.76,0.39,4.43,0.8V263.29z"/>
		<path class="st2" d="M329.06,272.75c0.2,4.72,1.7,8.4,4.5,11.03c2.8,2.64,6.62,3.96,11.47,3.96c2.67,0,5.05-0.33,7.12-1
			c2.07-0.67,4.16-1.75,6.28-3.24l-4.31,7.65c-1.77,0.71-3.5,1.2-5.19,1.48c-1.69,0.28-3.65,0.42-5.87,0.42
			c-3.33,0-6.39-0.48-9.16-1.44c-2.78-0.96-5.16-2.3-7.15-4.01c-1.99-1.72-3.55-3.77-4.66-6.17c-1.11-2.4-1.67-5.03-1.67-7.91
			c0-2.77,0.58-5.48,1.74-8.1c1.16-2.62,2.75-4.87,4.77-6.74c3.48-3.08,7.92-4.62,13.32-4.62c2.62,0,5.05,0.43,7.27,1.29
			c2.22,0.86,4.14,2.07,5.75,3.63c1.61,1.57,2.88,3.41,3.79,5.53c0.91,2.12,1.36,4.44,1.36,6.96v1.29H329.06z M350.03,267.76
			c-1.16-5.91-4.54-8.86-10.14-8.86c-2.73,0-5.01,0.77-6.85,2.31c-1.84,1.54-3.07,3.72-3.67,6.55H350.03z"/>
		<path class="st2" d="M385.84,261.93c-1.82-1.11-3.51-1.9-5.07-2.39c-1.57-0.48-3.15-0.72-4.77-0.72c-2.22,0-4,0.42-5.34,1.25
			c-1.34,0.83-2.01,1.91-2.01,3.22c0,1.16,0.62,2.15,1.86,2.95c1.24,0.81,3.44,1.72,6.62,2.73c1.51,0.51,2.79,0.95,3.82,1.32
			c1.03,0.38,1.92,0.73,2.65,1.06c0.73,0.33,1.36,0.68,1.89,1.06c0.53,0.38,1.07,0.8,1.63,1.25c2.07,1.92,3.1,4.24,3.1,6.97
			c0,1.92-0.42,3.63-1.25,5.15c-0.83,1.51-2.02,2.81-3.56,3.9c-1.54,1.09-3.39,1.92-5.56,2.5c-2.17,0.58-4.59,0.87-7.27,0.87
			c-1.01,0-1.96-0.03-2.84-0.08c-0.88-0.05-1.74-0.15-2.57-0.3c-0.83-0.15-1.68-0.35-2.54-0.61c-0.86-0.25-1.79-0.58-2.8-0.98
			l-2.73-7.87c2.98,1.82,5.59,3.09,7.84,3.82c2.25,0.73,4.63,1.1,7.15,1.1c2.47,0,4.53-0.53,6.17-1.59c1.64-1.06,2.46-2.4,2.46-4.01
			c0-1.51-0.61-2.73-1.82-3.63c-0.35-0.2-0.71-0.4-1.06-0.61c-0.35-0.2-0.79-0.42-1.32-0.64c-0.53-0.23-1.21-0.5-2.04-0.83
			c-0.83-0.33-1.91-0.72-3.22-1.17c-2.32-0.81-4.25-1.59-5.79-2.35c-1.54-0.76-2.78-1.55-3.71-2.39c-0.93-0.83-1.59-1.74-1.97-2.73
			c-0.38-0.98-0.57-2.11-0.57-3.37c0-3.38,1.39-6.02,4.16-7.91c2.78-1.89,6.61-2.84,11.51-2.84c3.43,0,6.41,0.35,8.93,1.06V261.93z"
			/>
	</g>
	<g>
		<path class="st2" d="M58.49,333.81c0,1.72,0.05,3.13,0.15,4.24c0.1,1.11,0.28,2.04,0.53,2.8c0.25,0.76,0.61,1.38,1.06,1.86
			s1.06,0.92,1.82,1.32H46.83c0.76-0.4,1.36-0.85,1.82-1.32c0.45-0.48,0.81-1.1,1.06-1.86c0.25-0.76,0.43-1.69,0.53-2.8
			c0.1-1.11,0.15-2.52,0.15-4.24v-32.18c0-1.72-0.05-3.13-0.15-4.24c-0.1-1.11-0.28-2.04-0.53-2.8c-0.25-0.76-0.61-1.37-1.06-1.85
			c-0.45-0.48-1.06-0.92-1.82-1.33h15.22c-0.76,0.41-1.36,0.85-1.82,1.33c-0.45,0.48-0.81,1.1-1.06,1.85
			c-0.25,0.76-0.43,1.69-0.53,2.8c-0.1,1.11-0.15,2.52-0.15,4.24V333.81z M70.83,301.94c1.21-1.56,2.17-2.99,2.88-4.28
			c0.71-1.29,1.06-2.23,1.06-2.84c0-1.26-0.81-2.4-2.42-3.41h14.38l-18.4,23.62c2.93,3.94,5.26,7.08,7,9.43
			c1.74,2.35,3.15,4.24,4.24,5.68c1.08,1.44,1.98,2.59,2.69,3.44c0.71,0.86,1.46,1.74,2.27,2.65c0.55,0.61,1.14,1.2,1.74,1.78
			c0.61,0.58,1.29,1.17,2.04,1.78c0.76,0.6,1.6,1.26,2.54,1.97c0.93,0.71,2.01,1.46,3.22,2.27c-1.01,0.1-2.22,0.19-3.63,0.27
			c-1.41,0.08-2.75,0.11-4.01,0.11c-1.56,0-2.89-0.14-3.97-0.42c-1.09-0.28-2.22-0.95-3.41-2.01c-1.19-1.06-2.59-2.64-4.2-4.73
			c-1.62-2.09-3.74-4.96-6.36-8.59c-1.11-1.61-2.23-3.22-3.37-4.81c-1.14-1.59-2.28-3.19-3.44-4.81c-0.35-0.4-0.68-0.81-0.98-1.21
			c-0.3-0.4-0.61-0.81-0.91-1.21L70.83,301.94z"/>
		<path class="st2" d="M91.27,344.03c0.71-0.56,1.26-1.03,1.67-1.44c0.4-0.4,0.71-0.87,0.91-1.4c0.2-0.53,0.33-1.17,0.38-1.93
			c0.05-0.76,0.08-1.79,0.08-3.1v-36.87c0-1.31-0.03-2.35-0.08-3.1c-0.05-0.76-0.18-1.4-0.38-1.93c-0.2-0.53-0.51-1-0.91-1.4
			c-0.4-0.4-0.96-0.88-1.67-1.44h5.55c1.17,0,2.12-0.11,2.83-0.34c0.71-0.23,1.35-0.62,1.91-1.17v46.26c0,1.31,0.02,2.35,0.08,3.1
			c0.05,0.76,0.18,1.4,0.38,1.93c0.2,0.53,0.5,1,0.91,1.4c0.4,0.41,0.96,0.88,1.67,1.44H91.27z"/>
		<path class="st2" d="M118.3,324.8c0.2,4.72,1.7,8.4,4.5,11.03c2.8,2.64,6.62,3.96,11.47,3.96c2.67,0,5.05-0.33,7.12-1
			c2.07-0.67,4.16-1.75,6.28-3.24l-4.31,7.65c-1.77,0.71-3.5,1.2-5.19,1.48c-1.69,0.28-3.65,0.42-5.87,0.42
			c-3.33,0-6.39-0.48-9.16-1.44c-2.78-0.96-5.16-2.3-7.15-4.01c-1.99-1.72-3.55-3.77-4.66-6.17c-1.11-2.4-1.67-5.03-1.67-7.91
			c0-2.77,0.58-5.48,1.74-8.1c1.16-2.62,2.75-4.87,4.77-6.74c3.48-3.08,7.92-4.62,13.32-4.62c2.62,0,5.05,0.43,7.27,1.29
			c2.22,0.86,4.14,2.07,5.75,3.63c1.61,1.57,2.88,3.41,3.79,5.53c0.91,2.12,1.36,4.44,1.36,6.96v1.29H118.3z M139.27,319.8
			c-1.16-5.91-4.54-8.86-10.14-8.86c-2.73,0-5.01,0.77-6.85,2.31c-1.84,1.54-3.07,3.72-3.67,6.55H139.27z"/>
		<path class="st2" d="M159.56,336.16c0,1.31,0.02,2.35,0.08,3.1c0.05,0.76,0.18,1.4,0.38,1.93c0.2,0.53,0.5,1,0.91,1.4
			c0.4,0.41,0.96,0.88,1.67,1.44h-13.32c0.71-0.56,1.26-1.03,1.67-1.44c0.4-0.4,0.71-0.87,0.91-1.4c0.2-0.53,0.33-1.17,0.38-1.93
			c0.05-0.76,0.08-1.79,0.08-3.1v-21.12c0-1.26-0.03-2.28-0.08-3.07c-0.05-0.78-0.18-1.44-0.38-1.97c-0.2-0.53-0.5-1-0.91-1.4
			c-0.4-0.4-0.96-0.88-1.67-1.44h5.55c1.17,0,2.12-0.11,2.83-0.34c0.71-0.23,1.35-0.62,1.91-1.17V336.16z M155.85,292.4
			c1.31,0,2.45,0.49,3.41,1.48c0.96,0.98,1.44,2.13,1.44,3.44c0,1.41-0.48,2.6-1.44,3.56c-0.96,0.96-2.15,1.44-3.56,1.44
			c-1.36,0-2.52-0.48-3.48-1.44c-0.96-0.96-1.44-2.14-1.44-3.56c0-1.36,0.48-2.52,1.44-3.48
			C153.17,292.88,154.38,292.4,155.85,292.4z"/>
		<path class="st2" d="M177.42,312.31c1.91-2.27,3.76-3.87,5.55-4.81c1.79-0.93,3.86-1.4,6.23-1.4c2.57,0,4.96,0.52,7.17,1.55
			c2.21,1.03,3.9,2.41,5.06,4.13c0.35,0.56,0.65,1.15,0.9,1.78c0.25,0.63,0.45,1.36,0.6,2.19c0.15,0.83,0.25,1.81,0.3,2.91
			c0.05,1.11,0.08,2.42,0.08,3.94v13.55c0,1.31,0.02,2.35,0.08,3.1c0.05,0.76,0.18,1.4,0.38,1.93c0.2,0.53,0.5,1,0.91,1.4
			c0.4,0.41,0.96,0.88,1.67,1.44h-13.32c0.69-0.56,1.24-1.03,1.66-1.44c0.42-0.4,0.73-0.87,0.92-1.4s0.32-1.18,0.37-1.97
			c0.05-0.78,0.07-1.8,0.07-3.07v-12.72c0-2.12-0.13-3.77-0.38-4.96c-0.25-1.19-0.7-2.21-1.35-3.07c-0.8-1.01-1.93-1.83-3.38-2.46
			c-1.45-0.63-2.98-0.95-4.58-0.95s-3.07,0.32-4.39,0.95c-1.33,0.63-2.37,1.48-3.12,2.54c-0.4,0.56-0.68,1.16-0.83,1.82
			c-0.15,0.66-0.22,1.57-0.22,2.73v16.13c0,1.31,0.02,2.35,0.07,3.1c0.05,0.76,0.17,1.4,0.37,1.93s0.49,1,0.89,1.4
			c0.39,0.41,0.93,0.88,1.62,1.44h-13.25c0.71-0.56,1.26-1.03,1.67-1.44c0.4-0.4,0.71-0.87,0.91-1.4c0.2-0.53,0.33-1.17,0.38-1.93
			c0.05-0.76,0.08-1.79,0.08-3.1v-21.12c0-1.26-0.03-2.28-0.08-3.07c-0.05-0.78-0.18-1.44-0.38-1.97c-0.2-0.53-0.5-1-0.91-1.4
			c-0.4-0.4-0.96-0.88-1.67-1.44h5.17c1.17,0,2.12-0.11,2.83-0.34c0.71-0.23,1.35-0.62,1.91-1.17L177.42,312.31z"/>
		<path class="st2" d="M226.4,346.15c-1.36-0.66-2.49-1.28-3.37-1.86c-0.88-0.58-1.63-1.19-2.23-1.82
			c-0.61-0.63-1.12-1.34-1.55-2.12c-0.43-0.78-0.85-1.75-1.25-2.91l-8.56-22.33c-0.5-1.36-0.92-2.43-1.25-3.22
			c-0.33-0.78-0.66-1.44-0.98-1.97c-0.33-0.53-0.68-1-1.06-1.4c-0.38-0.4-0.87-0.86-1.48-1.36h4.69c1.31,0,2.27-0.06,2.88-0.19
			c0.61-0.13,1.29-0.47,2.04-1.02c0.1,0.81,0.24,1.59,0.42,2.35c0.18,0.76,0.52,1.74,1.02,2.95l9.01,23.92l7.72-20.06
			c0.76-1.97,1.14-3.53,1.14-4.69c0-0.61-0.16-1.14-0.49-1.59c-0.33-0.45-0.92-1.01-1.78-1.67h10.52c-0.05,0.45-0.08,0.73-0.08,0.83
			c0,0.1,0,0.2,0,0.3c0,0.3,0.04,0.58,0.11,0.83c0.08,0.25,0.31,0.96,0.72,2.12l8.55,23.92l7.8-20.06c0.3-0.76,0.53-1.34,0.68-1.74
			c0.15-0.4,0.27-0.74,0.34-1.02c0.08-0.28,0.13-0.52,0.15-0.72c0.02-0.2,0.04-0.45,0.04-0.76c0-0.71-0.19-1.32-0.57-1.86
			s-1.1-1.15-2.16-1.86h10.75l-15.97,38.99c-1.16-0.66-2.16-1.28-2.99-1.86c-0.83-0.58-1.54-1.19-2.12-1.82
			c-0.58-0.63-1.07-1.35-1.48-2.16c-0.4-0.81-0.78-1.77-1.14-2.88l-7.19-19.68L226.4,346.15z"/>
		<path class="st2" d="M276.07,324.8c0.2,4.72,1.7,8.4,4.5,11.03c2.8,2.64,6.62,3.96,11.47,3.96c2.67,0,5.05-0.33,7.12-1
			c2.07-0.67,4.16-1.75,6.28-3.24l-4.31,7.65c-1.77,0.71-3.5,1.2-5.19,1.48c-1.69,0.28-3.65,0.42-5.87,0.42
			c-3.33,0-6.39-0.48-9.16-1.44c-2.78-0.96-5.16-2.3-7.15-4.01c-1.99-1.72-3.55-3.77-4.66-6.17c-1.11-2.4-1.67-5.03-1.67-7.91
			c0-2.77,0.58-5.48,1.74-8.1c1.16-2.62,2.75-4.87,4.77-6.74c3.48-3.08,7.92-4.62,13.32-4.62c2.62,0,5.05,0.43,7.27,1.29
			c2.22,0.86,4.14,2.07,5.75,3.63c1.61,1.57,2.88,3.41,3.79,5.53c0.91,2.12,1.36,4.44,1.36,6.96v1.29H276.07z M297.04,319.8
			c-1.16-5.91-4.54-8.86-10.14-8.86c-2.73,0-5.01,0.77-6.85,2.31c-1.84,1.54-3.07,3.72-3.67,6.55H297.04z"/>
		<path class="st2" d="M338.3,315.34c-2.63-2.62-5.96-3.94-9.99-3.94c-2.02,0-3.85,0.32-5.49,0.95c-1.64,0.63-3.04,1.52-4.2,2.66
			c-1.16,1.14-2.06,2.54-2.69,4.19c-0.63,1.65-0.95,3.46-0.95,5.44c0,2.18,0.42,4.2,1.25,6.05c0.83,1.85,1.97,3.45,3.41,4.8
			c1.44,1.35,3.15,2.4,5.15,3.16c1.99,0.76,4.18,1.14,6.55,1.14c2.17,0,4.21-0.32,6.13-0.96c1.92-0.64,3.94-1.63,6.06-2.97
			l-4.69,7.8c-1.26,0.5-2.75,0.87-4.47,1.1c-1.72,0.23-3.63,0.34-5.75,0.34c-3.18,0-6.11-0.47-8.78-1.4
			c-2.68-0.93-4.96-2.23-6.87-3.9c-1.9-1.67-3.39-3.65-4.47-5.94c-1.08-2.3-1.61-4.81-1.61-7.53c0-2.83,0.55-5.46,1.65-7.91
			c1.1-2.45,2.7-4.66,4.8-6.62c2.16-1.97,4.54-3.41,7.14-4.32c2.6-0.91,5.64-1.36,9.12-1.36c1.56,0,2.99,0.06,4.28,0.19
			c1.29,0.13,2.76,0.39,4.43,0.8V315.34z"/>
		<path class="st2" d="M351.92,311.24c1.16-1.59,2.8-2.84,4.94-3.76c2.14-0.92,4.47-1.38,6.98-1.38c2.46,0,4.72,0.47,6.76,1.4
			c2.04,0.93,3.64,2.21,4.79,3.82c0.7,1.01,1.21,2.12,1.51,3.33c0.3,1.21,0.45,2.85,0.45,4.92v16.58c0,1.26,0.02,2.28,0.08,3.07
			c0.05,0.78,0.18,1.44,0.38,1.97c0.2,0.53,0.5,1,0.91,1.4c0.4,0.41,0.96,0.88,1.67,1.44h-13.32c0.69-0.5,1.24-0.96,1.66-1.36
			c0.42-0.4,0.73-0.87,0.92-1.4c0.2-0.53,0.32-1.18,0.37-1.96s0.07-1.83,0.07-3.13v-14.12c0-1.91-0.1-3.32-0.3-4.23
			c-0.2-0.91-0.6-1.76-1.2-2.57c-0.85-1.11-1.94-1.95-3.27-2.53c-1.33-0.58-2.79-0.87-4.39-0.87c-1.6,0-3.05,0.28-4.36,0.83
			c-1.3,0.55-2.38,1.33-3.23,2.34c-0.3,0.4-0.55,0.77-0.75,1.09c-0.2,0.33-0.35,0.72-0.45,1.17c-0.1,0.45-0.16,1.02-0.19,1.7
			c-0.02,0.68-0.04,1.55-0.04,2.61v14.58c0,1.31,0.02,2.34,0.07,3.1c0.05,0.75,0.17,1.4,0.37,1.92c0.2,0.53,0.5,1,0.92,1.4
			c0.42,0.4,0.97,0.88,1.66,1.44h-13.32c0.71-0.55,1.26-1.03,1.67-1.44c0.4-0.4,0.71-0.87,0.91-1.4c0.2-0.53,0.33-1.17,0.38-1.93
			c0.05-0.75,0.08-1.79,0.08-3.1v-36.82c0-1.31-0.03-2.35-0.08-3.1c-0.05-0.76-0.18-1.4-0.38-1.93c-0.2-0.53-0.51-1-0.91-1.4
			c-0.4-0.4-0.96-0.88-1.67-1.44h5.53c1.16,0,2.09-0.11,2.8-0.34c0.71-0.23,1.34-0.62,1.89-1.17L351.92,311.24z"/>
		<path class="st2" d="M394.47,329.42c0,2.22,0.1,3.85,0.3,4.88c0.2,1.04,0.58,1.91,1.14,2.61c1.51,1.82,3.56,2.73,6.13,2.73
			c0.61,0,1.14-0.05,1.59-0.15c0.45-0.1,1.03-0.28,1.74-0.53l-4.16,5.68c-0.56,0.2-1.02,0.33-1.4,0.38
			c-0.38,0.05-0.87,0.08-1.48,0.08c-1.67,0-3.16-0.29-4.48-0.87c-1.32-0.58-2.57-1.45-3.74-2.61c-0.61-0.66-1.11-1.29-1.49-1.89
			c-0.38-0.61-0.68-1.33-0.88-2.16c-0.2-0.83-0.34-1.84-0.42-3.03c-0.08-1.19-0.11-2.66-0.11-4.43v-17.64h-5.45v-2.88
			c2.78-0.45,4.98-1.61,6.6-3.48c1.99-2.12,2.98-5.4,2.98-9.84v-0.98h3.14v11.89h6.21c1.31,0,2.3-0.02,2.95-0.08
			c0.66-0.05,1.24-0.18,1.74-0.38v7.19c-0.66-0.55-1.31-0.93-1.97-1.14c-0.66-0.2-1.67-0.3-3.03-0.3h-5.91V329.42z"/>
		<path class="st2" d="M415.67,324.8c0.2,4.72,1.7,8.4,4.5,11.03c2.8,2.64,6.62,3.96,11.47,3.96c2.67,0,5.05-0.33,7.12-1
			c2.07-0.67,4.16-1.75,6.28-3.24l-4.31,7.65c-1.77,0.71-3.5,1.2-5.19,1.48c-1.69,0.28-3.65,0.42-5.87,0.42
			c-3.33,0-6.39-0.48-9.16-1.44c-2.78-0.96-5.16-2.3-7.15-4.01c-1.99-1.72-3.55-3.77-4.66-6.17c-1.11-2.4-1.67-5.03-1.67-7.91
			c0-2.77,0.58-5.48,1.74-8.1c1.16-2.62,2.75-4.87,4.77-6.74c3.48-3.08,7.92-4.62,13.32-4.62c2.62,0,5.05,0.43,7.27,1.29
			c2.22,0.86,4.14,2.07,5.75,3.63c1.61,1.57,2.88,3.41,3.79,5.53c0.91,2.12,1.36,4.44,1.36,6.96v1.29H415.67z M436.64,319.8
			c-1.16-5.91-4.54-8.86-10.14-8.86c-2.73,0-5.01,0.77-6.85,2.31c-1.84,1.54-3.07,3.72-3.67,6.55H436.64z"/>
		<path class="st2" d="M446.63,344.03c0.71-0.56,1.26-1.03,1.67-1.44c0.4-0.4,0.71-0.87,0.91-1.4c0.2-0.53,0.33-1.17,0.38-1.93
			c0.05-0.76,0.08-1.79,0.08-3.1v-21.12c0-1.26-0.03-2.28-0.08-3.07c-0.05-0.78-0.18-1.44-0.38-1.97c-0.2-0.53-0.5-1-0.91-1.4
			c-0.4-0.4-0.96-0.88-1.67-1.44h5.55c1.17,0,2.12-0.11,2.83-0.34c0.71-0.23,1.35-0.62,1.91-1.17v6.59
			c2.17-4.09,5.35-6.13,9.54-6.13c0.71,0,1.64,0.1,2.8,0.3v7.34c-0.91-0.86-2.17-1.29-3.79-1.29c-1.41,0-2.74,0.29-3.97,0.87
			c-1.24,0.58-2.21,1.38-2.91,2.39c-1.11,1.57-1.67,3.99-1.67,7.27v13.17c0,1.31,0.02,2.35,0.08,3.1c0.05,0.76,0.18,1.4,0.38,1.93
			c0.2,0.53,0.5,1,0.91,1.4c0.4,0.41,0.96,0.88,1.67,1.44H446.63z"/>
	</g>
</g>
</svg>
