<?xml version="1.0" encoding="utf-8"?>
<!-- Generator: Adobe Illustrator 26.0.3, SVG Export Plug-In . SVG Version: 6.00 Build 0)  -->
<svg version="1.1" id="Logo_Pro-SH" xmlns="http://www.w3.org/2000/svg" xmlns:xlink="http://www.w3.org/1999/xlink" x="0px"
	 y="0px" viewBox="0 0 241.16 139.32" style="enable-background:new 0 0 241.16 139.32;" xml:space="preserve">
<style type="text/css">
	.st0{fill:#172983;}
	.st1{fill:#FFFFFF;}
</style>
<g>
	<path class="st0" d="M14.43,43.06l-0.17,1.33c-0.01,0.06,0,0.12,0.03,0.18l0.5,1c0.02,0.03,0.03,0.06,0.06,0.08l1.25,1.25
		c0.06,0.06,0.14,0.09,0.22,0.09c0.02,0,0.04,0,0.07-0.01l2.25-0.5c0.1-0.02,0.19-0.1,0.22-0.19l1.67-4.59
		c0.03-0.09,0.02-0.19-0.03-0.28c-0.05-0.08-0.14-0.13-0.23-0.14l-1.09-0.09c-0.04,0-0.09,0.01-0.13,0.02l-4.42,1.59
		C14.53,42.84,14.45,42.94,14.43,43.06z"/>
	<path class="st0" d="M15.6,35.54l1.84-0.82c0.05-0.03,0.1-0.06,0.13-0.12l1.17-1.85c0.07-0.11,0.06-0.26-0.02-0.36
		c-0.09-0.11-0.23-0.14-0.35-0.09l-6.59,2.75c-0.1,0.04-0.17,0.13-0.18,0.23c-0.02,0.1,0.02,0.21,0.1,0.28l0.92,0.83
		c0.06,0.05,0.13,0.08,0.21,0.08c0.03,0,0.07-0.01,0.1-0.01l2.66-0.92C15.59,35.55,15.59,35.54,15.6,35.54z"/>
	<path class="st0" d="M25.7,42.71c0.04,0.02,0.08,0.03,0.13,0.03c0.04,0,0.08-0.01,0.12-0.03c0.08-0.03,0.14-0.09,0.17-0.17
		l0.39-1.06c0.05-0.13,0-0.28-0.12-0.36l-0.75-0.5c-0.1-0.06-0.23-0.07-0.33-0.01L24,41.41c-0.1,0.06-0.15,0.17-0.15,0.28
		c0.01,0.11,0.08,0.21,0.18,0.26L25.7,42.71z"/>
	<path class="st0" d="M11.9,31.31h1.92c0.12,0,0.23-0.07,0.28-0.17l1.5-3.08c0.06-0.13,0.03-0.27-0.08-0.37l-0.6-0.52l-0.05-0.19
		l0.08-1.12c0.01-0.13-0.06-0.24-0.17-0.3l-1.92-0.92c-0.05-0.02-0.12-0.04-0.18-0.03l-1.73,0.25L7.79,25.1
		c-0.07,0-0.13,0.04-0.18,0.08L6.02,26.6c-0.05,0.04-0.08,0.1-0.09,0.17l-0.42,2c-0.02,0.12,0.03,0.25,0.14,0.32l1.42,0.92
		c0.04,0.02,0.07,0.04,0.12,0.04l1,0.17c0.01,0,0.01,0,0.02,0l0.92,0.77c0.05,0.04,0.11,0.06,0.17,0.07l2.58,0.25
		C11.88,31.31,11.89,31.31,11.9,31.31z"/>
	<path class="st0" d="M6.02,34.97l-0.97-0.44l-1.21-3.38c0-0.01-0.01-0.02-0.01-0.03l-0.52-1.11l0.84-1.53
		c0.07-0.13,0.04-0.29-0.07-0.39C3.97,28,3.81,28,3.7,28.1l-2.25,1.92c-0.04,0.03-0.07,0.08-0.09,0.13l-0.58,1.67
		c-0.03,0.08-0.02,0.16,0.01,0.23l1.67,3.5c0.01,0.01,0.01,0.02,0.02,0.03l0.58,0.92c0.05,0.09,0.14,0.13,0.24,0.14l1.25,0.08
		c0.01,0,0.01,0,0.02,0c0.07,0,0.15-0.03,0.2-0.08l1.34-1.17c0.08-0.07,0.12-0.17,0.1-0.28C6.19,35.11,6.12,35.02,6.02,34.97z"/>
	<path class="st0" d="M144.12,53.12l-2.91-5.15l-0.99-2.73c-0.04-0.11-0.14-0.19-0.26-0.2l-1.66-0.16l-1.1-0.86
		c-0.04-0.03-0.09-0.05-0.14-0.06l-1.4-0.24l-3.59-0.84c-0.13-0.03-0.26,0.03-0.33,0.14l-2.5,4.08c-0.03,0.05-0.04,0.1-0.05,0.16
		l-0.08,3.5c0,0.1,0.05,0.2,0.13,0.26l0.58,0.41c0.08,0.06,0.19,0.07,0.29,0.04c0.09-0.04,0.17-0.11,0.19-0.21l0.13-0.51l1.57-0.57
		l1.2,0.46v2.71c0,0.14,0.1,0.27,0.24,0.3l3.09,0.67c0.02,0,0.04,0,0.07,0c0.04,0,0.08,0,0.11-0.02l1.07-0.41l1.34-0.39l4.69,0.66
		c0.09,0.01,0.18-0.01,0.25-0.07c0.07-0.06,0.11-0.15,0.11-0.24v-0.58C144.16,53.22,144.14,53.17,144.12,53.12z"/>
	<path class="st0" d="M134.78,54.36c-0.06-0.05-0.15-0.07-0.22-0.06l-1.25,0.17c-0.1,0.01-0.19,0.07-0.23,0.16l-0.69,1.3l-2.12,0.57
		l-0.23-0.51c-0.04-0.09-0.12-0.16-0.22-0.18l-3.09-0.67c-0.07-0.01-0.14,0-0.2,0.03l-1.33,0.67c-0.02,0.01-0.04,0.03-0.06,0.04
		l-3.77,3.18l-1.96,1.88l-1.57,0.71l-2.27,0.16l-1.55-0.85l-1.44-1.52l-0.48-0.96c-0.02-0.05-0.06-0.09-0.11-0.12l-2.09-1.33
		c-0.01-0.01-0.03-0.02-0.04-0.02l-2.59-1.17c-0.01-0.01-0.02-0.01-0.04-0.02l-2.63-0.82l-1.81-1.07l-1.17-0.67l-2.92-1.59
		c-0.04-0.02-0.08-0.03-0.13-0.03l-2.67-0.17c-0.09-0.01-0.19,0.03-0.25,0.1l-1,1.16l-1.71,0.16c-0.08,0.01-0.16,0.05-0.21,0.12
		l-1.5,1.92c-0.02,0.03-0.04,0.06-0.05,0.1l-0.65,2.1l-0.79,0.87c-0.04,0.04-0.06,0.09-0.07,0.14l-0.02,0.11l-0.69-0.9l-0.24-0.29
		l1.75-1.8c0.04-0.04,0.07-0.1,0.08-0.16l0.17-0.83c0.01-0.06,0.01-0.12-0.01-0.18l-0.88-2.18l1.16-1.7
		c0.09-0.12,0.07-0.29-0.04-0.4l-1.67-1.59c-0.02-0.02-0.04-0.04-0.07-0.05l-1.59-0.84c-0.06-0.03-0.13-0.04-0.19-0.03l-4.76,0.75
		c-0.01,0-0.02,0.01-0.03,0.01l-4.09,1.08c-0.03,0.01-0.06,0.03-0.09,0.04l-1.19,0.79l-2.08,0.3l-1.07-1.49l1.54-0.12
		c0.04,0,0.08-0.01,0.12-0.03l2.17-1.17c0.01-0.01,0.02-0.01,0.03-0.02l3.5-2.42c0.03-0.02,0.06-0.05,0.09-0.09l1.5-2.42
		c0.03-0.05,0.05-0.12,0.04-0.18l-0.08-1.48V38.6l0.08-0.91l0.17-2.42l0.25-4.08c0.01-0.08-0.02-0.16-0.07-0.22l-2.14-2.46L81.09,28
		l-0.33-2.13c0-0.03-0.01-0.06-0.02-0.08l-0.67-1.5c-0.02-0.04-0.04-0.07-0.07-0.1l-2.5-2.25c-0.08-0.07-0.19-0.1-0.29-0.06
		c-0.1,0.03-0.18,0.12-0.21,0.22l-0.49,1.94l-1.08,1.44l-1.61-0.56l-1.94-3c-0.02-0.02-0.03-0.04-0.05-0.06l-2.34-2.09
		c-0.04-0.03-0.08-0.05-0.13-0.07l-0.31-0.08l-2.65-1.08l-1.24-0.5l-1.1-0.5l-0.68-0.28l0.92-1.7c0.04-0.08,0.05-0.18,0.02-0.26
		c-0.03-0.08-0.1-0.15-0.19-0.18l-1.67-0.59c-0.1-0.03-0.21-0.02-0.29,0.05l-5.13,3.97l-2.1,0.73l-0.93-1.07
		c-0.07-0.08-0.18-0.12-0.29-0.1l-1.33,0.25c-0.08,0.01-0.15,0.06-0.2,0.13l-1.81,2.68l-3.94-0.45l-0.11-0.44l-0.25-2.65
		c-0.01-0.12-0.09-0.22-0.2-0.26l-2.47-0.9l-0.64-0.4c-0.03-0.02-0.06-0.03-0.09-0.04l-2.75-0.67c-0.03,0-0.07-0.01-0.1,0
		l-1.63,0.16l-1.9-0.32l-2.87-1.72c-0.04-0.02-0.08-0.04-0.12-0.04l-4.34-0.5c-0.03-0.01-0.07,0-0.1,0l-1.38,0.31l-1.06-0.69
		c-0.07-0.04-0.16-0.06-0.24-0.04l-4.06,0.97l-2.48-1.36c-0.04-0.02-0.09-0.04-0.14-0.04l-2-0.08c-0.16,0-0.3,0.11-0.32,0.27
		l-0.15,1.24l-1.25,0.52c-0.08,0.03-0.15,0.1-0.17,0.19c-0.03,0.09-0.02,0.18,0.03,0.26l0.19,0.3h-5.12
		c-0.05-0.06-0.13-0.1-0.21-0.1l-2.85-0.16L5.7,13.42l-0.83-1.36l0-1.39l0.08-1.33c0-0.02,0-0.04,0-0.06L4.76,7.92l1.07-2.18
		l2.76-2.1c0.04-0.03,0.06-0.07,0.09-0.1l1.17-2.25c0.04-0.08,0.05-0.16,0.02-0.24C9.83,0.96,9.77,0.9,9.7,0.86L7.95,0.03
		C7.89,0,7.82-0.01,7.76,0L6.34,0.25c-0.1,0.02-0.19,0.09-0.23,0.18L4.03,5.27L2.45,8.68c0,0.01-0.01,0.02-0.01,0.02l-0.58,1.58
		c-0.01,0.01-0.01,0.02-0.01,0.03l-1.17,4.75c-0.01,0.02-0.01,0.04-0.01,0.06L0.34,21.3L0,24.89c-0.01,0.07,0.01,0.15,0.06,0.21
		l1.09,1.47c0.06,0.08,0.15,0.13,0.25,0.13c0.03,0,0.05,0,0.08-0.01c0.12-0.03,0.21-0.14,0.22-0.26l0.49-4.96l0.16-4.84l0.97-0.71
		c0.05-0.04,0.09-0.09,0.11-0.15l0.31-0.94l0.58,0.24l0.62,1.39c0.02,0.05,0.07,0.11,0.12,0.14l1.67,1c0.1,0.06,0.23,0.06,0.33,0
		l3.35-2.18h5.57l-0.21,2.57c-0.01,0.08,0.02,0.17,0.08,0.23l1.62,1.78l0.48,1.85c0.03,0.12,0.12,0.21,0.24,0.22l1.07,0.22
		l1.36,4.25c0.01,0.03,0.03,0.06,0.05,0.09l1.53,2.01l0.16,2.49c0,0.07,0.03,0.14,0.08,0.19l1.17,1.25
		c0.03,0.03,0.06,0.05,0.09,0.07l2.38,1.19l0.63,2.04c0.02,0.06,0.06,0.12,0.11,0.16l1.78,1.29l0.55,1l-0.35,1.7l-0.27,1.08
		l-0.37,1.34l-0.66,1.43l-0.52,0.52l-2.23,1.48C24.65,45.9,24.6,46,24.6,46.1v2.25c0,0.1,0.05,0.2,0.14,0.26l1,0.67
		c0.04,0.03,0.09,0.05,0.15,0.05l3,0.25c0.08,0,0.16-0.02,0.23-0.07l3.12-2.69l1.91-0.53l0.39,1.04v0.75l-0.63,0.77l-1.59,0.56
		c-0.05,0.01-0.1,0.05-0.13,0.09l-2.63,3.04l-1.7,0.85l-3.33-0.33c-0.03,0-0.07,0-0.1,0.01l-2.07,0.5l-2.69,0.33l-1.2-0.24
		c-0.12-0.02-0.24,0.02-0.31,0.12l-1.17,1.58c-0.08,0.11-0.08,0.27,0.01,0.38l0.75,0.92c0.08,0.09,0.2,0.14,0.32,0.1L19,56.49
		l0.01,0.05l-0.06,0.85l-1.41,0.59c-0.05,0.02-0.09,0.06-0.13,0.1l-0.22,0.29l-0.25,0.17l-1.24-1.17c-0.1-0.1-0.25-0.11-0.37-0.04
		l-0.83,0.5c-0.07,0.05-0.12,0.11-0.14,0.19l-0.83,3.33c-0.02,0.06-0.01,0.13,0.01,0.19l0.5,1.25c0.03,0.07,0.08,0.12,0.14,0.16
		l4.25,2.17c0.14,0.07,0.3,0.03,0.39-0.1l1.16-1.62h2.71l0.49,0.56c0.09,0.1,0.23,0.13,0.35,0.08l1.73-0.75l0.68,0.68l0,1.02
		l-0.25,4.02l-0.39,0.78l-1.09,2.25c-0.04,0.09-0.04,0.2,0.01,0.29l0.47,0.79l0.32,1.62c0.01,0.03,0.02,0.06,0.03,0.09l0.67,1.17
		c0.02,0.04,0.06,0.08,0.1,0.11l1.25,0.83c0.1,0.07,0.24,0.07,0.34,0l0.97-0.65l0.81-0.27l0.96,0.75l0.4,1.34l0.58,1.59
		c0.01,0.03,0.03,0.06,0.05,0.08l1.35,1.75l-0.07,1.09l-0.2,0.6l-0.7,0.42l-0.45,0.13l-3.24-1.14c-0.08-0.03-0.18-0.02-0.26,0.03
		l-2.84,1.67c-0.08,0.05-0.13,0.12-0.15,0.21c-0.02,0.09,0.01,0.18,0.06,0.25l2.22,2.72l1.32,3.37c0,0.01,0.01,0.02,0.01,0.03
		l1.25,2.42c0.03,0.06,0.08,0.11,0.14,0.14l1.03,0.47l1.46,1.47c0.02,0.01,0.03,0.03,0.05,0.04l2.17,1.42
		c0.05,0.03,0.11,0.04,0.16,0.04l7.42,0.09c0.01,0,0.02,0,0.03,0L43,96.95l1.43,0.24l1.2,0.48l2.91,1.7l0.46,0.77l0.42,0.68
		l1.31,1.89l0.16,0.39l0.26,0.6l2.25,4.58c0.02,0.04,0.04,0.07,0.07,0.09l2.98,2.65l0.96,1.28l0.64,1.44l0.75,3.47
		c0,0.03,0.02,0.06,0.03,0.09l0.67,1.17c0.02,0.03,0.05,0.06,0.08,0.09l2,1.59c0.01,0.01,0.02,0.02,0.03,0.02l1.1,0.68l0.9,0.49
		l1.99,1.41c0.03,0.02,0.07,0.04,0.11,0.05l2.67,0.58c0.16,0.04,0.32-0.06,0.36-0.22l1.31-4.84v0.01c0,0.13,0.08,0.24,0.19,0.29
		l0.98,0.39l-0.16,0.47c-0.04,0.12-0.01,0.25,0.09,0.33l1.59,1.42c0.12,0.1,0.3,0.1,0.41,0l1.67-1.5c0.01-0.01,0.02-0.02,0.03-0.03
		l1.34-1.59c0.01-0.02,0.02-0.04,0.03-0.05l0.59-1.08c0.01-0.02,0.02-0.04,0.02-0.06l0.35-1.19h1.65l1.3,0.32
		c0.04,0.01,0.07,0.01,0.11,0.01l0.67-0.08c0.13-0.01,0.23-0.11,0.26-0.24l0.54-2.37l3.03-0.31c0.12-0.01,0.21-0.09,0.26-0.2
		l0.58-1.5c0.04-0.1,0.02-0.22-0.05-0.31l-0.27-0.32l0.34-0.49l1.82,0.23c0.08,0.01,0.17-0.02,0.24-0.07l2-1.7l0.74,0.42l-0.59,1.39
		l-0.89,0.37c-0.12,0.05-0.2,0.17-0.19,0.31l0.08,1.07l-0.69,1.08c-0.05,0.08-0.06,0.17-0.04,0.26c0.03,0.09,0.09,0.16,0.18,0.19
		l1.35,0.56l2.19,2.57l-1.39,1.47c-0.07,0.08-0.1,0.18-0.08,0.28l0.49,2.04h-1.44c-0.08,0-0.16,0.03-0.22,0.09l-0.5,0.5
		c-0.04,0.04-0.07,0.09-0.08,0.15l-0.25,1.09c-0.03,0.13,0.03,0.27,0.15,0.34l0.35,0.2l-0.39,0.92c-0.03,0.07-0.03,0.15-0.01,0.22
		l0.67,1.92c0.02,0.06,0.06,0.12,0.12,0.15l1.25,0.84c0.1,0.07,0.23,0.07,0.33,0l0.83-0.51l1.05,1.6l0.08,1.09
		c0.01,0.11,0.08,0.22,0.19,0.26l0.53,0.23l1.88,1.88c0.04,0.04,0.09,0.07,0.15,0.08l1.35,0.32l-0.62,1.06
		c-0.04,0.08-0.05,0.16-0.03,0.24c0.02,0.08,0.08,0.15,0.15,0.19l1.25,0.67c0.05,0.03,0.11,0.04,0.16,0.04l1.71-0.08l1.16,1
		c0.01,0.01,0.02,0.02,0.03,0.02l1.58,1.09c0.01,0.01,0.02,0.01,0.03,0.02l1.92,1l2.34,1.25c0.04,0.02,0.09,0.04,0.14,0.04h0.46
		l2.88,0.74c0.03,0.01,0.05,0.01,0.08,0.01c0.07,0,0.13-0.02,0.19-0.06l0.25-0.19c0.1,0,0.19-0.06,0.24-0.15l1-1.67
		c0.03-0.04,0.04-0.09,0.04-0.14l0.08-2.25c0-0.03,0-0.06-0.01-0.09l-0.07-0.27l0.4-2.07l0.34-0.87l2-0.07l0.54,0.15
		c0.08,0.02,0.17,0.01,0.24-0.03c0.07-0.04,0.12-0.12,0.14-0.2l0.37-1.71l2.38-0.38c0.08-0.02,0.15-0.06,0.2-0.12l1.33-1.84
		c0.01-0.01,0.02-0.03,0.03-0.04l0.02-0.04l1.78-0.47c0.1-0.02,0.19-0.11,0.22-0.21c0.03-0.1,0.01-0.22-0.06-0.29l-0.46-0.53
		l0.34-0.95l0.46-0.54c0.07-0.07,0.09-0.18,0.07-0.27l-0.33-1.4l-0.12-0.73l0.36-0.11l0.46,0.65c0.07,0.1,0.19,0.15,0.31,0.13
		l2.92-0.58c0.08-0.02,0.16-0.07,0.2-0.14l0.58-0.92c0.03-0.05,0.05-0.1,0.05-0.16l0.08-3.23l0.07-0.33l1.13-1.53
		c0.05-0.07,0.07-0.16,0.05-0.24l-0.58-3c-0.01-0.07-0.05-0.12-0.1-0.17l-0.83-0.74l-0.42-0.42c-0.03-0.04-0.07-0.06-0.11-0.07
		l-1.42-0.5c-0.07-0.03-0.16-0.02-0.23,0.01l-0.64,0.29l-1.21-0.38l-0.36-0.15l-1.03-0.81l-0.15-1.29
		c-0.01-0.07-0.04-0.13-0.09-0.18l-0.25-0.25c-0.02-0.02-0.05-0.04-0.08-0.06l-0.5-0.25c-0.03-0.01-0.06-0.02-0.09-0.03l-1.36-0.2
		l0.37-2.34l0.24-0.81c0.01-0.05,0.02-0.1,0.01-0.16l-0.17-0.75c0-0.01,0-0.01-0.01-0.02l-0.25-0.82l-0.8-3.29l1.02-1.53l1.29-0.23
		c0.06-0.01,0.12-0.04,0.17-0.09l3.66-3.74l0.77,0.51l1.4,1.24c0.08,0.07,0.21,0.09,0.31,0.05l1.75-0.67
		c0.11-0.04,0.19-0.14,0.2-0.26c0.01-0.12-0.05-0.23-0.15-0.29l-1.42-0.83c-0.03-0.01-0.06-0.03-0.09-0.03l-1.82-0.42l0.54-1.42
		c0.02-0.06,0.03-0.13,0.01-0.2l-0.25-0.83c-0.03-0.11-0.13-0.19-0.24-0.22l-0.79-0.13l-0.38-2.12c-0.02-0.12-0.12-0.22-0.24-0.25
		l-1.67-0.34c-0.02,0-0.04,0-0.06,0h-1.86l-1.13-1.28l-0.95-2.06l0.08-1.32l2.08-2.33l0.55-0.54l2.25,0.54
		c0.09,0.02,0.19,0,0.26-0.05l1.42-1.09c0.02-0.01,0.04-0.04,0.06-0.05l2.23-2.88l4.89-3.56c0.01-0.01,0.03-0.02,0.04-0.04
		l1.45-1.54l0.6-0.23c0.14-0.05,0.22-0.19,0.2-0.33l-0.58-3.81l0.08-1.97c0-0.02,0-0.04,0-0.06l-0.41-2.57l-0.08-3.68l0.15-0.15
		l2.07-1.74c0.05-0.05,0.09-0.1,0.1-0.17l0.25-1.17c0.03-0.12-0.02-0.24-0.12-0.31L134.78,54.36z"/>
</g>
<g id="Reckteck_Weiss_2">
	<rect x="40.23" y="62.56" class="st1" width="200.93" height="30.45"/>
</g>
<g id="Reckteck_Blau">
	<rect x="42.76" y="65" class="st0" width="195.87" height="25.58"/>
</g>
<rect id="Reckteck_Weiss_1" x="119.48" y="67.06" class="st1" width="116.94" height="21.45"/>
<g id="Immobilien_GbR">
	<path d="M134.43,83.98h-5.61l0.09-0.77l1.73-0.48V72.3l-1.89-0.43l0.1-0.79h5.66l-0.1,0.79l-1.77,0.4V82.8l1.89,0.34L134.43,83.98z
		"/>
	<path d="M144.15,76.39h0.12c0.37-0.47,0.81-0.86,1.35-1.17c0.54-0.31,1.11-0.46,1.71-0.46c1.63,0,2.45,0.96,2.45,2.9v5.12
		l1.44,0.36l-0.14,0.82h-4.42l0.08-0.76l1.29-0.41v-4.89c0-0.51-0.15-0.94-0.46-1.29c-0.31-0.35-0.73-0.52-1.27-0.52
		c-0.69,0-1.35,0.34-1.99,1.03v5.67l1.54,0.36l-0.1,0.82h-4.61l0.12-0.77l1.36-0.41v-4.89c0-0.53-0.17-0.97-0.51-1.31
		c-0.34-0.34-0.76-0.51-1.26-0.51c-0.85,0-1.53,0.3-2.06,0.89v5.81l1.49,0.36l-0.1,0.82h-4.8l0.1-0.77l1.56-0.41v-6.29L135.39,76
		l0.1-0.79l3.15-0.43l0.19,0.21l-0.19,1.32h0.1c0.38-0.46,0.84-0.84,1.39-1.15c0.55-0.31,1.12-0.47,1.73-0.47
		c0.52,0,1,0.14,1.42,0.41C143.72,75.36,144,75.8,144.15,76.39z"/>
	<path d="M160.94,76.39h0.12c0.37-0.47,0.81-0.86,1.35-1.17c0.54-0.31,1.11-0.46,1.72-0.46c1.63,0,2.45,0.96,2.45,2.9v5.12
		l1.44,0.36l-0.14,0.82h-4.42l0.09-0.76l1.29-0.41v-4.89c0-0.51-0.15-0.94-0.46-1.29c-0.31-0.35-0.73-0.52-1.27-0.52
		c-0.69,0-1.35,0.34-1.99,1.03v5.67l1.54,0.36l-0.1,0.82h-4.61l0.12-0.77l1.35-0.41v-4.89c0-0.53-0.17-0.97-0.51-1.31
		c-0.34-0.34-0.76-0.51-1.26-0.51c-0.85,0-1.53,0.3-2.06,0.89v5.81l1.49,0.36l-0.1,0.82h-4.8l0.1-0.77l1.56-0.41v-6.29L152.18,76
		l0.1-0.79l3.15-0.43l0.19,0.21l-0.19,1.32h0.1c0.38-0.46,0.84-0.84,1.39-1.15c0.55-0.31,1.12-0.47,1.73-0.47
		c0.53,0,1,0.14,1.42,0.41C160.5,75.36,160.79,75.8,160.94,76.39z"/>
	<path d="M177.76,79.41c0,1.43-0.42,2.59-1.25,3.5c-0.83,0.9-1.87,1.35-3.1,1.35c-1.34,0-2.38-0.44-3.14-1.31
		c-0.75-0.87-1.13-2-1.13-3.38c0-1.51,0.45-2.71,1.35-3.61c0.9-0.9,1.96-1.35,3.18-1.35c1.27,0,2.27,0.44,3,1.31
		C177.39,76.79,177.76,77.96,177.76,79.41z M170.99,78.82c0,0.77,0.08,1.47,0.26,2.11c0.17,0.64,0.47,1.18,0.91,1.64
		c0.44,0.45,0.97,0.68,1.61,0.68c0.69,0,1.21-0.3,1.58-0.89c0.37-0.59,0.56-1.29,0.56-2.09c0-0.55-0.05-1.08-0.15-1.59
		c-0.1-0.52-0.25-1-0.45-1.46c-0.21-0.46-0.49-0.83-0.85-1.1c-0.36-0.27-0.77-0.41-1.24-0.41c-0.73,0-1.29,0.3-1.66,0.9
		C171.17,77.21,170.99,77.95,170.99,78.82z"/>
	<path d="M180.04,83.47V72.48l-1.58-0.55l0.14-0.79l2.88-0.23l0.26,0.24v4.01l-0.15,1.08h0.12c0.95-1.06,1.94-1.6,2.96-1.6
		c1.01,0,1.81,0.41,2.43,1.23c0.61,0.82,0.92,1.88,0.92,3.2c0,1.58-0.5,2.83-1.5,3.75c-1,0.92-2.21,1.39-3.63,1.39
		C181.79,84.22,180.84,83.98,180.04,83.47z M186.16,79.75c0-0.44-0.03-0.85-0.1-1.25c-0.07-0.4-0.18-0.79-0.33-1.18
		c-0.15-0.39-0.37-0.71-0.68-0.94c-0.3-0.24-0.67-0.36-1.09-0.36c-0.86,0-1.6,0.33-2.23,1v5.36c0.47,0.47,1.2,0.71,2.19,0.71
		c0.64,0,1.17-0.28,1.59-0.84C185.95,81.68,186.16,80.85,186.16,79.75z"/>
	<path d="M190.07,83.16l1.58-0.38v-6.39l-1.58-0.56l0.14-0.79l2.91-0.24l0.26,0.26v7.73l1.66,0.36l-0.12,0.84h-4.97L190.07,83.16z
		 M192.49,70.44c0.34,0,0.64,0.12,0.89,0.35c0.25,0.23,0.38,0.51,0.38,0.84c0,0.35-0.13,0.65-0.38,0.9
		c-0.25,0.25-0.55,0.37-0.89,0.37c-0.34,0-0.63-0.12-0.87-0.38c-0.24-0.25-0.36-0.56-0.36-0.91c0-0.33,0.12-0.61,0.37-0.83
		C191.87,70.56,192.16,70.44,192.49,70.44z"/>
	<path d="M196.02,83.16l1.58-0.38v-10.3l-1.63-0.55l0.12-0.79l2.98-0.24l0.26,0.26v0.6v11.02l1.66,0.36l-0.12,0.84h-4.97
		L196.02,83.16z"/>
	<path d="M202.15,83.16l1.58-0.38v-6.39l-1.58-0.56l0.14-0.79l2.91-0.24l0.26,0.26v7.73l1.66,0.36L207,83.98h-4.97L202.15,83.16z
		 M204.56,70.44c0.34,0,0.64,0.12,0.89,0.35c0.25,0.23,0.38,0.51,0.38,0.84c0,0.35-0.13,0.65-0.38,0.9
		c-0.25,0.25-0.55,0.37-0.89,0.37c-0.34,0-0.63-0.12-0.87-0.38c-0.24-0.25-0.36-0.56-0.36-0.91c0-0.33,0.12-0.61,0.37-0.83
		C203.94,70.56,204.23,70.44,204.56,70.44z"/>
	<path d="M215.14,79.3l-5.02,0.05c0.05,0.94,0.32,1.78,0.81,2.53c0.5,0.75,1.19,1.12,2.08,1.12c0.44,0,0.81-0.04,1.14-0.11
		c0.33-0.07,0.73-0.24,1.23-0.51l0.21,0.52c-0.89,0.92-2.03,1.39-3.41,1.39c-1.06,0-1.98-0.42-2.75-1.26
		c-0.77-0.84-1.16-2-1.16-3.49c0-1.47,0.44-2.66,1.32-3.55c0.88-0.89,1.86-1.34,2.95-1.34c0.8,0,1.46,0.29,1.99,0.86
		c0.53,0.57,0.79,1.38,0.79,2.44C215.32,78.37,215.26,78.82,215.14,79.3z M210.14,78.52l3.25-0.22c0.05-0.15,0.07-0.38,0.07-0.69
		c0-1.29-0.48-1.94-1.44-1.94c-0.47,0-0.89,0.24-1.26,0.72C210.39,76.87,210.18,77.58,210.14,78.52z"/>
	<path d="M225.95,77.59v5.21l1.49,0.36l-0.1,0.82h-4.68l0.12-0.75l1.42-0.43V78c0-0.64-0.16-1.12-0.49-1.44
		c-0.33-0.32-0.76-0.48-1.31-0.48c-0.82,0-1.5,0.29-2.04,0.89v5.83l1.54,0.36l-0.14,0.82h-4.82l0.1-0.75l1.56-0.43v-6.31l-1.59-0.53
		l0.1-0.79l3.08-0.41l0.19,0.21l-0.19,1.32h0.1c0.39-0.47,0.86-0.86,1.41-1.16c0.55-0.31,1.13-0.46,1.73-0.46
		c0.81,0,1.43,0.26,1.86,0.76C225.73,75.93,225.95,76.65,225.95,77.59z"/>
	<path d="M144.4,100.69c1.14,0,2.7,0.4,4.1,0.78c0,0,0.07,1.98,0.07,2.14c0,0.18-0.19,0.26-0.36,0.26c-0.1,0-0.19-0.03-0.23-0.09
		c-0.1-0.54-0.52-2.37-3.53-2.37c-2.34,0-4.05,2.3-4.05,5.02c0,2.39,1.77,5.16,4.47,5.16c0.9,0,1.66-0.07,2.25-0.38
		c0.1-0.05,0.12-0.14,0.12-0.26c0-0.47-0.02-1.42-0.02-1.42v-0.12c0-0.29,0-1.13-0.14-1.49c-0.1-0.26-1.12-0.38-1.33-0.38
		c-0.09,0-0.09-0.42,0-0.5c0.88,0.03,1.39,0.09,2.27,0.09c0.73,0,1.18-0.05,1.87-0.09c0.02,0.05,0.04,0.14,0.04,0.24
		c0,0.12-0.02,0.26-0.07,0.26c-0.14,0-0.8,0.19-1.01,0.31c-0.16,0.11-0.17,0.33-0.17,1.16c0,0.62,0.05,1.07,0.05,1.24
		c0,0.52,0.24,0.78,0.24,0.95c0,0.1-0.12,0.19-0.43,0.31c-0.92,0.34-1.89,0.81-4.33,0.81c-3.07,0-5.49-2.61-5.49-5.68
		C138.72,103.42,141.19,100.69,144.4,100.69z"/>
	<path d="M158.3,108.2c0,2.24-1.99,4.14-3.91,4.14c-1.11,0-1.52-0.23-1.89-0.23c-0.28,0-0.54,0.19-0.66,0.19
		c-0.03,0-0.36-0.06-0.36-0.17c0-0.14,0.21-0.8,0.21-2.24v-7.16c0-0.3-0.04-0.76-0.11-1.11c-0.07-0.24-0.59-0.28-0.88-0.28h-0.16
		c-0.07,0-0.1-0.07-0.1-0.19c0-0.03,0.02-0.28,0.1-0.28c1.89-0.18,2.35-0.66,2.41-0.66h0.03c0.1,0,0.21,0.19,0.22,0.27
		c0,0-0.19,0.55-0.19,1.51v3.03c0,0.09,0,0.26,0.1,0.17c0.26-0.19,1.07-0.55,1.63-0.55C157.18,104.65,158.3,106.75,158.3,108.2z
		 M153.02,106.54v4.03c0,0.8,0.93,1.04,1.7,1.04c1.42,0,2.09-1.65,2.09-3.05c0-1.8-1.02-3.07-2.61-3.07
		C153.61,105.5,153.02,105.83,153.02,106.54z"/>
	<path d="M167.93,103.98c0,0.91-0.73,2.15-2.02,2.75c-0.09,0.03-0.16,0.08-0.1,0.17c0.19,0.4,0.86,1.82,1.99,3.05
		c0.92,1,1.94,1.82,2.7,1.82c0.03,0.07,0.05,0.16,0.05,0.25c0,0.1,0,0.15-0.05,0.26c-0.12,0.04-0.38,0.05-0.47,0.05
		c-2.01,0-3.31-1.23-4.21-2.49c-1.21-1.72-1.65-2.55-2.27-2.82c-0.14-0.05-0.42-0.07-0.64-0.07c-0.22,0-0.41,0-0.41,0.3v2.55
		c0,0.33,0,1.16,0.14,1.5c0.14,0.35,1.23,0.5,1.37,0.5c0.05,0,0.07,0.12,0.07,0.25c0,0.1-0.02,0.2-0.04,0.26
		c-0.69-0.04-1.23-0.09-2.25-0.09c-1.16,0-2.11,0.09-2.11,0.09c-0.02-0.02-0.05-0.16-0.05-0.31c0-0.11,0.02-0.23,0.05-0.23
		c0.21,0,1.06-0.12,1.19-0.36c0.12-0.21,0.12-0.98,0.12-1.62v-6.54c0-0.31-0.02-1.09-0.12-1.49c-0.09-0.21-0.99-0.38-1.19-0.38
		c-0.03,0-0.07-0.08-0.07-0.2c0-0.12,0.04-0.26,0.07-0.29l2.08,0.03c1.02,0,1.42-0.07,2.44-0.07
		C165.61,100.81,167.93,101.61,167.93,103.98z M162.71,101.69c-0.14,0.03-0.19,0.19-0.21,1.9v2.1c0,0.47,0.76,0.5,1.51,0.5h0.43
		c0.64,0,1.9-0.72,1.9-2.21c0-1.65-0.88-2.41-2.42-2.41C163.5,101.57,162.95,101.62,162.71,101.69z"/>
</g>
<g id="Pro-SH_00000070812268081519666320000000906562359343235225_">
	<path class="st1" d="M62.55,74.73c0,1.21-0.45,2.21-1.34,2.99c-0.9,0.78-1.99,1.17-3.27,1.17c-0.32,0-0.72-0.03-1.2-0.09
		l-0.19-0.85h0.55c2.21,0,3.31-0.95,3.31-2.85c0-0.95-0.27-1.73-0.81-2.36c-0.54-0.62-1.35-0.93-2.43-0.93l-1.1,0.05v10.85l2.45,0.4
		l-0.14,0.87h-6.15l0.1-0.77l1.75-0.48V72.52l-1.78-0.31l0.1-0.79c2.01-0.31,3.66-0.46,4.95-0.46
		C60.82,70.96,62.55,72.21,62.55,74.73z"/>
	<path class="st1" d="M69.08,76.99c-0.4-0.34-0.78-0.52-1.15-0.52c-0.32,0-0.65,0.2-0.99,0.6c-0.34,0.4-0.57,0.95-0.67,1.66v3.99
		l2.4,0.35l-0.1,0.91h-5.73l0.12-0.77l1.58-0.41v-6.38l-1.68-0.5l0.14-0.79l2.97-0.39l0.2,0.24l-0.17,2.4h0.21
		c0.26-0.9,0.62-1.6,1.06-2.08c0.45-0.48,0.9-0.73,1.37-0.73c0.38,0,0.68,0.12,0.91,0.35c0.23,0.24,0.34,0.51,0.34,0.83
		C69.88,76.21,69.61,76.62,69.08,76.99z"/>
	<path class="st1" d="M79.19,79.41c0,1.43-0.42,2.59-1.25,3.5c-0.84,0.9-1.87,1.35-3.1,1.35c-1.34,0-2.38-0.44-3.14-1.31
		c-0.75-0.87-1.13-2-1.13-3.38c0-1.51,0.45-2.71,1.35-3.61c0.9-0.9,1.96-1.35,3.18-1.35c1.27,0,2.27,0.44,3,1.31
		C78.82,76.79,79.19,77.96,79.19,79.41z M72.42,78.82c0,0.77,0.09,1.47,0.26,2.11c0.17,0.64,0.47,1.18,0.91,1.64
		c0.44,0.45,0.97,0.68,1.61,0.68c0.69,0,1.21-0.3,1.59-0.89c0.37-0.59,0.56-1.29,0.56-2.09c0-0.55-0.05-1.08-0.15-1.59
		c-0.1-0.52-0.25-1-0.46-1.46c-0.21-0.46-0.49-0.83-0.85-1.1c-0.36-0.27-0.77-0.41-1.24-0.41c-0.73,0-1.28,0.3-1.66,0.9
		C72.61,77.21,72.42,77.95,72.42,78.82z"/>
	<path class="st1" d="M80.8,78.81l4.23-0.19l-0.12,1.04l-4.23,0.19L80.8,78.81z"/>
	<path class="st1" d="M93.23,74.78l-1.03-0.12l-0.27-1.99c-0.09-0.19-0.31-0.41-0.65-0.63c-0.34-0.23-0.71-0.34-1.1-0.34
		c-0.56,0-1.02,0.17-1.37,0.5c-0.35,0.33-0.53,0.82-0.53,1.46c0,0.4,0.11,0.76,0.34,1.1c0.22,0.33,0.51,0.61,0.87,0.85
		c0.35,0.24,0.75,0.47,1.18,0.69c0.44,0.23,0.87,0.47,1.31,0.71c0.43,0.25,0.83,0.51,1.18,0.8c0.35,0.29,0.64,0.65,0.87,1.08
		c0.22,0.43,0.33,0.91,0.33,1.43c0,1.16-0.46,2.1-1.38,2.83c-0.92,0.73-2,1.1-3.23,1.1c-0.73,0-1.43-0.15-2.08-0.44
		c-0.66-0.29-1.13-0.66-1.41-1.09l0.14-2.78l1.06,0.15l0.39,1.96c0.42,0.76,1.14,1.13,2.14,1.13c0.63,0,1.2-0.19,1.71-0.56
		c0.51-0.37,0.76-0.91,0.76-1.62c0-0.41-0.15-0.79-0.44-1.15c-0.29-0.35-0.66-0.65-1.1-0.88c-0.45-0.23-0.92-0.5-1.43-0.79
		c-0.51-0.3-0.99-0.6-1.43-0.89c-0.45-0.3-0.81-0.69-1.11-1.17c-0.29-0.49-0.44-1.03-0.44-1.64c0-1.12,0.4-2.01,1.2-2.67
		c0.8-0.66,1.74-0.99,2.83-0.99c1.25,0,2.22,0.34,2.93,1.04L93.23,74.78z"/>
	<path class="st1" d="M100.68,83.98h-5.62l0.08-0.77l1.73-0.48V72.3l-1.88-0.43l0.1-0.79h5.66l-0.1,0.79l-1.75,0.4v4.54h6.51v-4.5
		l-1.9-0.43l0.12-0.79h5.66l-0.12,0.79l-1.73,0.4V82.8l1.89,0.34l-0.1,0.84h-5.64l0.12-0.77l1.71-0.48v-4.88l-6.51,0.02v4.94
		l1.92,0.34L100.68,83.98z"/>
</g>
</svg>
