<?xml version="1.0" encoding="utf-8"?>
<!-- Generator: Adobe Illustrator 26.0.3, SVG Export Plug-In . SVG Version: 6.00 Build 0)  -->
<svg version="1.1" id="Ebene_1" xmlns="http://www.w3.org/2000/svg" xmlns:xlink="http://www.w3.org/1999/xlink" x="0px" y="0px"
	 viewBox="0 0 595.28 239.34" style="enable-background:new 0 0 595.28 239.34;" xml:space="preserve">
<style type="text/css">
	.st0{fill:#82B942;}
	.st1{fill:#39A9DC;}
	.st2{fill:#AEBDC5;}
</style>
<g>
	<path class="st0" d="M247.64,166.74c-20.31,0-28.99-19.87-28.99-37.53c0-17.22,8.54-39,28.85-39c6.48,0,14.13,2.8,18.84,7.36
		l-5,6.62c-3.53-2.94-8.98-5.15-13.69-5.15c-13.25,0-17.81,18.1-17.81,28.7c0,11.33,4.42,30.17,18.69,30.17
		c4.86,0,12.07-3.83,16.19-6.48l3.68,6.92C263.09,162.91,254.7,166.74,247.64,166.74z"/>
	<path class="st0" d="M291.35,135.53c0,10.16,1.47,19.43,4.42,29h-11.63c-2.94-7.95-3.68-20.61-3.68-29V62.39h10.89V135.53z"/>
	<path class="st0" d="M322.7,124.94c0,0.88,0,1.77,0,2.8c0,10.3,4.12,30.17,17.52,30.17c5.59,0,15.74-5.89,20.46-9.13l3.53,7.06
		c-6.33,5.45-16.78,10.89-25.17,10.89c-21.05,0-27.82-22.96-27.82-40.18c0-17.66,11.33-36.35,30.61-36.35
		c14.57,0,24.14,13.69,25.02,27.23c0.15,2.5,0.15,5,0.29,7.51H322.7z M340.8,99.04c-9.27,0-15.01,9.42-16.78,17.51h31.35
		C355.37,108.31,350.07,99.04,340.8,99.04z"/>
	<path class="st0" d="M431.47,166.44c-7.8,0-12.95-5.15-12.95-12.95c-2.5,8.68-11.63,13.25-20.16,13.25
		c-12.07,0-18.84-8.24-18.84-19.87c0-3.98,2.36-9.57,4.27-13.1l34.59-14.72v-9.27c0-7.06-4.71-10.45-11.33-10.45
		c-7.21,0-15.31,5.45-19.87,10.6l-4.12-6.92c5.74-7.21,15.75-12.8,25.02-12.8c12.66,0,21.49,6.18,21.49,19.57v44.89
		c0,2.8,1.91,4.42,4.71,4.42c0.88,0,2.21-0.29,2.95-0.88l2.79,5.59C437.65,165.27,434.26,166.44,431.47,166.44z M418.37,127.88
		l-25.91,10.89c-1.03,2.21-1.91,5.15-1.91,7.65c0,6.03,3.53,11.48,10.01,11.48c11.18,0,17.81-14.42,17.81-23.99V127.88z"/>
	<path class="st0" d="M495.34,164.53v-54.75c0-6.48-1.32-10.45-8.68-10.45c-8.1,0-18.1,4.56-21.49,7.51v57.69h-11.18V92.41h11.18
		v5.3c5-3.53,15.6-7.5,23.4-7.5c15.3,0,17.96,8.54,17.96,19.57v54.75H495.34z"/>
</g>
<g>
	<path class="st1" d="M565.21,26.89H534.1l0,0c-0.01,0-0.02,0-0.03,0c-17.12,0-31,13.88-31,31c0,17.12,13.88,31,31,31
		c17.12,0,31-13.88,31-31c0-0.01,0-0.01,0-0.02h0.1L565.21,26.89z"/>
</g>
<g>
	<path class="st2" d="M69.36,124.88c-3.14,0-7.85-0.98-10.79-2.75v42.4H29.32V40.88H61.9c27.28,0,50.83,9.42,50.83,40.63
		C112.74,105.26,93.11,124.88,69.36,124.88z M62.88,65.42h-4.32v33.17c1.96,0.78,5.89,2.36,7.85,2.36
		c12.36,0,17.08-8.24,17.08-19.63C83.49,67.97,74.27,65.42,62.88,65.42z"/>
	<path class="st2" d="M179.85,164.53H151L116.06,40.88h31.4l15.11,66.73c1.37,5.89,2.16,11.78,2.94,17.47
		c0.78-5.69,1.57-11.78,2.94-17.47l15.11-66.73h31.21L179.85,164.53z"/>
	<g>
		<path class="st2" d="M29.32,180.69c1.68-0.28,3.88-0.52,6.68-0.52c3.44,0,5.96,0.8,7.56,2.24c1.44,1.28,2.36,3.24,2.36,5.64
			c0,2.44-0.72,4.36-2.08,5.76c-1.88,1.96-4.84,2.96-8.24,2.96c-1.04,0-2-0.04-2.8-0.24v10.8h-3.48V180.69z M32.8,193.69
			c0.76,0.2,1.72,0.28,2.88,0.28c4.2,0,6.76-2.08,6.76-5.72c0-3.6-2.56-5.32-6.36-5.32c-1.52,0-2.68,0.12-3.28,0.28V193.69z"/>
		<path class="st2" d="M50.72,178.93h3.52v12.12h0.08c0.56-1,1.44-1.92,2.52-2.52c1.04-0.6,2.28-0.96,3.6-0.96
			c2.6,0,6.76,1.6,6.76,8.24v11.52h-3.52v-11.12c0-3.12-1.16-5.72-4.48-5.72c-2.28,0-4.04,1.6-4.72,3.48
			c-0.2,0.52-0.24,1.04-0.24,1.68v11.68h-3.52V178.93z"/>
		<path class="st2" d="M90.88,197.49c0,7.16-5,10.28-9.64,10.28c-5.2,0-9.28-3.84-9.28-9.96c0-6.44,4.28-10.24,9.6-10.24
			C87.12,187.57,90.88,191.61,90.88,197.49z M75.56,197.69c0,4.24,2.4,7.44,5.84,7.44c3.36,0,5.88-3.16,5.88-7.52
			c0-3.28-1.64-7.4-5.8-7.4C77.36,190.21,75.56,194.05,75.56,197.69z"/>
		<path class="st2" d="M100,183.33v4.64h5.04v2.68H100v10.44c0,2.4,0.68,3.76,2.64,3.76c0.96,0,1.52-0.08,2.04-0.24l0.16,2.68
			c-0.68,0.24-1.76,0.48-3.12,0.48c-1.64,0-2.96-0.56-3.8-1.48c-0.96-1.08-1.36-2.8-1.36-5.08v-10.56h-3v-2.68h3v-3.6L100,183.33z"
			/>
		<path class="st2" d="M126.72,197.49c0,7.16-5,10.28-9.64,10.28c-5.2,0-9.28-3.84-9.28-9.96c0-6.44,4.28-10.24,9.6-10.24
			C122.96,187.57,126.72,191.61,126.72,197.49z M111.4,197.69c0,4.24,2.4,7.44,5.84,7.44c3.36,0,5.88-3.16,5.88-7.52
			c0-3.28-1.64-7.4-5.8-7.4C113.2,190.21,111.4,194.05,111.4,197.69z"/>
		<path class="st2" d="M132.68,187.97l3.8,10.84c0.64,1.8,1.16,3.4,1.56,5h0.12c0.44-1.6,1-3.2,1.64-5l3.76-10.84h3.68l-7.6,19.36
			h-3.36l-7.36-19.36H132.68z"/>
		<path class="st2" d="M168.12,197.49c0,7.16-5,10.28-9.64,10.28c-5.2,0-9.28-3.84-9.28-9.96c0-6.44,4.28-10.24,9.6-10.24
			C164.36,187.57,168.12,191.61,168.12,197.49z M152.8,197.69c0,4.24,2.4,7.44,5.84,7.44c3.36,0,5.88-3.16,5.88-7.52
			c0-3.28-1.64-7.4-5.8-7.4C154.6,190.21,152.8,194.05,152.8,197.69z"/>
		<path class="st2" d="M173,178.93h3.52v28.4H173V178.93z"/>
		<path class="st2" d="M187.12,183.33v4.64h5.04v2.68h-5.04v10.44c0,2.4,0.68,3.76,2.64,3.76c0.96,0,1.52-0.08,2.04-0.24l0.16,2.68
			c-0.68,0.24-1.76,0.48-3.12,0.48c-1.64,0-2.96-0.56-3.8-1.48c-0.96-1.08-1.36-2.8-1.36-5.08v-10.56h-3v-2.68h3v-3.6L187.12,183.33
			z"/>
		<path class="st2" d="M210.16,202.68c0,1.68,0.08,3.32,0.28,4.64h-3.16l-0.28-2.44h-0.12c-1.08,1.52-3.16,2.88-5.92,2.88
			c-3.92,0-5.92-2.76-5.92-5.56c0-4.68,4.16-7.24,11.64-7.2v-0.4c0-1.56-0.44-4.48-4.4-4.44c-1.84,0-3.72,0.52-5.08,1.44l-0.8-2.36
			c1.6-1,3.96-1.68,6.4-1.68c5.92,0,7.36,4.04,7.36,7.88V202.68z M206.76,197.45c-3.84-0.08-8.2,0.6-8.2,4.36
			c0,2.32,1.52,3.36,3.28,3.36c2.56,0,4.2-1.6,4.76-3.24c0.12-0.4,0.16-0.8,0.16-1.12V197.45z"/>
		<path class="st2" d="M220.2,182.53c0,1.2-0.84,2.16-2.24,2.16c-1.28,0-2.12-0.96-2.12-2.16c0-1.2,0.88-2.2,2.2-2.2
			C219.32,180.33,220.2,181.29,220.2,182.53z M216.28,207.32v-19.36h3.52v19.36H216.28z"/>
		<path class="st2" d="M229.56,196.85h0.08c0.48-0.68,1.12-1.52,1.68-2.2l5.72-6.68h4.2l-7.44,7.96l8.52,11.4H238l-6.64-9.28l-1.8,2
			v7.28h-3.48v-28.4h3.48V196.85z"/>
		<path class="st2" d="M259.6,202.68c0,1.68,0.08,3.32,0.28,4.64h-3.16l-0.28-2.44h-0.12c-1.08,1.52-3.16,2.88-5.92,2.88
			c-3.92,0-5.92-2.76-5.92-5.56c0-4.68,4.16-7.24,11.64-7.2v-0.4c0-1.56-0.44-4.48-4.4-4.44c-1.84,0-3.72,0.52-5.08,1.44l-0.8-2.36
			c1.6-1,3.96-1.68,6.4-1.68c5.92,0,7.36,4.04,7.36,7.88V202.68z M256.2,197.45c-3.84-0.08-8.2,0.6-8.2,4.36
			c0,2.32,1.52,3.36,3.28,3.36c2.56,0,4.2-1.6,4.76-3.24c0.12-0.4,0.16-0.8,0.16-1.12V197.45z"/>
		<path class="st2" d="M265.72,193.21c0-2.04-0.04-3.64-0.16-5.24h3.12l0.2,3.2h0.08c0.96-1.8,3.2-3.6,6.4-3.6
			c2.68,0,6.84,1.6,6.84,8.24v11.52h-3.52v-11.16c0-3.12-1.16-5.72-4.48-5.72c-2.28,0-4.08,1.64-4.72,3.6
			c-0.16,0.44-0.24,1.04-0.24,1.64v11.64h-3.52V193.21z"/>
		<path class="st2" d="M288.36,178.93h3.52v28.4h-3.52V178.93z"/>
		<path class="st2" d="M311.84,202.68c0,1.68,0.08,3.32,0.28,4.64h-3.16l-0.28-2.44h-0.12c-1.08,1.52-3.16,2.88-5.92,2.88
			c-3.92,0-5.92-2.76-5.92-5.56c0-4.68,4.16-7.24,11.64-7.2v-0.4c0-1.56-0.44-4.48-4.4-4.44c-1.84,0-3.72,0.52-5.08,1.44l-0.8-2.36
			c1.6-1,3.96-1.68,6.4-1.68c5.92,0,7.36,4.04,7.36,7.88V202.68z M308.44,197.45c-3.84-0.08-8.2,0.6-8.2,4.36
			c0,2.32,1.52,3.36,3.28,3.36c2.56,0,4.2-1.6,4.76-3.24c0.12-0.4,0.16-0.8,0.16-1.12V197.45z"/>
		<path class="st2" d="M334.52,204.48c0,4.48-0.92,7.16-2.76,8.88c-1.92,1.72-4.64,2.32-7.08,2.32c-2.32,0-4.88-0.56-6.44-1.6
			l0.88-2.72c1.28,0.84,3.28,1.56,5.68,1.56c3.6,0,6.24-1.88,6.24-6.8V204h-0.08c-1.04,1.8-3.16,3.24-6.16,3.24
			c-4.8,0-8.24-4.08-8.24-9.44c0-6.56,4.28-10.24,8.76-10.24c3.36,0,5.16,1.72,6.04,3.32h0.08l0.12-2.92h3.12
			c-0.12,1.36-0.16,2.96-0.16,5.28V204.48z M331,195.61c0-0.6-0.04-1.12-0.2-1.56c-0.64-2.08-2.32-3.76-4.92-3.76
			c-3.36,0-5.76,2.84-5.76,7.32c0,3.8,1.96,6.96,5.72,6.96c2.2,0,4.16-1.36,4.88-3.6c0.2-0.6,0.28-1.28,0.28-1.88V195.61z"/>
		<path class="st2" d="M342.72,198.29c0.08,4.76,3.08,6.72,6.64,6.72c2.52,0,4.08-0.44,5.36-1l0.64,2.52
			c-1.24,0.56-3.4,1.24-6.48,1.24c-5.96,0-9.52-3.96-9.52-9.8c0-5.84,3.44-10.4,9.08-10.4c6.36,0,8,5.52,8,9.08
			c0,0.72-0.04,1.24-0.12,1.64H342.72z M353.04,195.77c0.04-2.2-0.92-5.68-4.88-5.68c-3.6,0-5.12,3.24-5.4,5.68H353.04z"/>
		<path class="st2" d="M361.24,193.21c0-2.04-0.04-3.64-0.16-5.24h3.12l0.2,3.2h0.08c0.96-1.8,3.2-3.6,6.4-3.6
			c2.68,0,6.84,1.6,6.84,8.24v11.52h-3.52v-11.16c0-3.12-1.16-5.72-4.48-5.72c-2.28,0-4.08,1.64-4.72,3.6
			c-0.16,0.44-0.24,1.04-0.24,1.64v11.64h-3.52V193.21z"/>
		<path class="st2" d="M392.04,195.25v2.56h-9.88v-2.56H392.04z"/>
		<path class="st2" d="M396.72,180.73c1.76-0.32,4.32-0.56,6.68-0.56c3.72,0,6.16,0.72,7.8,2.2c1.32,1.2,2.12,3.04,2.12,5.16
			c0,3.52-2.24,5.88-5.04,6.84v0.12c2.04,0.72,3.28,2.64,3.92,5.44c0.88,3.76,1.52,6.36,2.08,7.4h-3.6
			c-0.44-0.8-1.04-3.08-1.76-6.44c-0.8-3.72-2.28-5.12-5.44-5.24h-3.28v11.68h-3.48V180.73z M400.2,193.01h3.56
			c3.72,0,6.08-2.04,6.08-5.12c0-3.48-2.52-5-6.2-5c-1.68,0-2.84,0.12-3.44,0.28V193.01z"/>
		<path class="st2" d="M420.68,198.29c0.08,4.76,3.08,6.72,6.64,6.72c2.52,0,4.08-0.44,5.36-1l0.64,2.52
			c-1.24,0.56-3.4,1.24-6.48,1.24c-5.96,0-9.52-3.96-9.52-9.8c0-5.84,3.44-10.4,9.08-10.4c6.36,0,8,5.52,8,9.08
			c0,0.72-0.04,1.24-0.12,1.64H420.68z M431,195.77c0.04-2.2-0.92-5.68-4.88-5.68c-3.6,0-5.12,3.24-5.4,5.68H431z"/>
		<path class="st2" d="M443.12,182.53c0,1.2-0.84,2.16-2.24,2.16c-1.28,0-2.12-0.96-2.12-2.16c0-1.2,0.88-2.2,2.2-2.2
			C442.24,180.33,443.12,181.29,443.12,182.53z M439.2,207.32v-19.36h3.52v19.36H439.2z"/>
		<path class="st2" d="M449,193.21c0-2.04-0.04-3.64-0.16-5.24h3.12l0.2,3.2h0.08c0.96-1.8,3.2-3.6,6.4-3.6
			c2.68,0,6.84,1.6,6.84,8.24v11.52h-3.52v-11.16c0-3.12-1.16-5.72-4.48-5.72c-2.28,0-4.08,1.64-4.72,3.6
			c-0.16,0.44-0.24,1.04-0.24,1.64v11.64H449V193.21z"/>
		<path class="st2" d="M475.56,182.53c0,1.2-0.84,2.16-2.24,2.16c-1.28,0-2.12-0.96-2.12-2.16c0-1.2,0.88-2.2,2.2-2.2
			C474.68,180.33,475.56,181.29,475.56,182.53z M471.64,207.32v-19.36h3.52v19.36H471.64z"/>
		<path class="st2" d="M497.99,204.48c0,4.48-0.92,7.16-2.76,8.88c-1.92,1.72-4.64,2.32-7.08,2.32c-2.32,0-4.88-0.56-6.44-1.6
			l0.88-2.72c1.28,0.84,3.28,1.56,5.68,1.56c3.6,0,6.24-1.88,6.24-6.8V204h-0.08c-1.04,1.8-3.16,3.24-6.16,3.24
			c-4.8,0-8.24-4.08-8.24-9.44c0-6.56,4.28-10.24,8.76-10.24c3.36,0,5.16,1.72,6.04,3.32h0.08l0.12-2.92h3.12
			c-0.12,1.36-0.16,2.96-0.16,5.28V204.48z M494.47,195.61c0-0.6-0.04-1.12-0.2-1.56c-0.64-2.08-2.32-3.76-4.92-3.76
			c-3.36,0-5.76,2.84-5.76,7.32c0,3.8,1.96,6.96,5.72,6.96c2.2,0,4.16-1.36,4.88-3.6c0.2-0.6,0.28-1.28,0.28-1.88V195.61z"/>
		<path class="st2" d="M520.44,202c0,2.04,0.04,3.8,0.16,5.32h-3.12l-0.2-3.16h-0.08c-0.88,1.56-2.96,3.6-6.4,3.6
			c-3.04,0-6.68-1.72-6.68-8.48v-11.32h3.52v10.68c0,3.68,1.16,6.2,4.32,6.2c2.36,0,4-1.64,4.64-3.24c0.2-0.48,0.32-1.12,0.32-1.8
			v-11.84h3.52V202z"/>
		<path class="st2" d="M526.72,193.21c0-2.04-0.04-3.64-0.16-5.24h3.12l0.2,3.2h0.08c0.96-1.8,3.2-3.6,6.4-3.6
			c2.68,0,6.84,1.6,6.84,8.24v11.52h-3.52v-11.16c0-3.12-1.16-5.72-4.48-5.72c-2.28,0-4.08,1.64-4.72,3.6
			c-0.16,0.44-0.24,1.04-0.24,1.64v11.64h-3.52V193.21z"/>
		<path class="st2" d="M565.91,204.48c0,4.48-0.92,7.16-2.76,8.88c-1.92,1.72-4.64,2.32-7.08,2.32c-2.32,0-4.88-0.56-6.44-1.6
			l0.88-2.72c1.28,0.84,3.28,1.56,5.68,1.56c3.6,0,6.24-1.88,6.24-6.8V204h-0.08c-1.04,1.8-3.16,3.24-6.16,3.24
			c-4.8,0-8.24-4.08-8.24-9.44c0-6.56,4.28-10.24,8.76-10.24c3.36,0,5.16,1.72,6.04,3.32h0.08l0.12-2.92h3.12
			c-0.12,1.36-0.16,2.96-0.16,5.28V204.48z M562.39,195.61c0-0.6-0.04-1.12-0.2-1.56c-0.64-2.08-2.32-3.76-4.92-3.76
			c-3.36,0-5.76,2.84-5.76,7.32c0,3.8,1.96,6.96,5.72,6.96c2.2,0,4.16-1.36,4.88-3.6c0.2-0.6,0.28-1.28,0.28-1.88V195.61z"/>
	</g>
</g>
</svg>
